<svg width="552" height="189" viewBox="0 0 552 189" fill="none" xmlns="http://www.w3.org/2000/svg">
<g filter="url(#filter0_d_19_7)">
<mask id="path-1-outside-1_19_7" maskUnits="userSpaceOnUse" x="3" y="-1" width="546" height="183" fill="black">
<rect fill="white" x="3" y="-1" width="546" height="183"/>
<path d="M84.25 180.5C74.9167 180.5 67.0833 178.917 60.75 175.75C54.5833 172.583 49.5 168.583 45.5 163.75V171.75C45.5 173.583 44.8333 175.083 43.5 176.25C42.3333 177.417 40.9167 178 39.25 178H11C9.16667 178 7.66667 177.417 6.5 176.25C5.33333 175.083 4.75 173.583 4.75 171.75V6.74998C4.75 4.91665 5.33333 3.41666 6.5 2.25C7.66667 1.08333 9.16667 0.49999 11 0.49999H41.5C43.3333 0.49999 44.8333 1.08333 46 2.25C47.1667 3.41666 47.75 4.91665 47.75 6.74998V60.25C51.75 55.9167 56.75 52.4167 62.75 49.75C68.9167 46.9167 76.0833 45.5 84.25 45.5C92.5833 45.5 99.9167 46.9167 106.25 49.75C112.75 52.4167 118.25 56.3333 122.75 61.5C127.25 66.6667 130.75 72.8333 133.25 80C135.75 87.1667 137.167 95.25 137.5 104.25C137.667 107.417 137.75 110.333 137.75 113C137.75 115.5 137.667 118.417 137.5 121.75C137.167 131.083 135.667 139.417 133 146.75C130.5 153.917 127 160.083 122.5 165.25C118 170.25 112.583 174.083 106.25 176.75C99.9167 179.25 92.5833 180.5 84.25 180.5ZM70.75 147C76.4167 147 80.8333 145.833 84 143.5C87.1667 141.167 89.4167 138 90.75 134C92.25 130 93.1667 125.583 93.5 120.75C93.8333 115.583 93.8333 110.417 93.5 105.25C93.1667 100.417 92.25 96 90.75 92C89.4167 88 87.1667 84.8333 84 82.5C80.8333 80.1667 76.4167 79 70.75 79C65.5833 79 61.3333 80.1667 58 82.5C54.6667 84.6667 52.1667 87.5833 50.5 91.25C48.8333 94.75 47.9167 98.5833 47.75 102.75C47.5833 105.917 47.5 109 47.5 112C47.5 115 47.5833 118.167 47.75 121.5C47.9167 126 48.75 130.167 50.25 134C51.75 137.833 54.1667 141 57.5 143.5C60.8333 145.833 65.25 147 70.75 147ZM223.965 180.5C209.965 180.5 198.132 178.25 188.465 173.75C178.965 169.25 171.632 162.833 166.465 154.5C161.465 146 158.632 135.917 157.965 124.25C157.798 120.917 157.715 117.167 157.715 113C157.715 108.667 157.798 104.917 157.965 101.75C158.632 89.9167 161.632 79.8333 166.965 71.5C172.298 63.1667 179.715 56.75 189.215 52.25C198.882 47.75 210.465 45.5 223.965 45.5C237.632 45.5 249.215 47.75 258.715 52.25C268.382 56.75 275.882 63.1667 281.215 71.5C286.548 79.8333 289.548 89.9167 290.215 101.75C290.382 104.917 290.465 108.667 290.465 113C290.465 117.167 290.382 120.917 290.215 124.25C289.548 135.917 286.632 146 281.465 154.5C276.465 162.833 269.132 169.25 259.465 173.75C249.965 178.25 238.132 180.5 223.965 180.5ZM223.965 150C231.465 150 236.882 147.75 240.215 143.25C243.715 138.75 245.715 132 246.215 123C246.382 120.5 246.465 117.167 246.465 113C246.465 108.833 246.382 105.5 246.215 103C245.715 94.1667 243.715 87.5 240.215 83C236.882 78.3333 231.465 76 223.965 76C216.632 76 211.215 78.3333 207.715 83C204.215 87.5 202.298 94.1667 201.965 103C201.798 105.5 201.715 108.833 201.715 113C201.715 117.167 201.798 120.5 201.965 123C202.298 132 204.215 138.75 207.715 143.25C211.215 147.75 216.632 150 223.965 150ZM381.064 178C370.398 178 361.148 176.333 353.314 173C345.648 169.5 339.731 164.167 335.564 157C331.398 149.667 329.314 140.25 329.314 128.75V80.75H309.814C307.981 80.75 306.398 80.1667 305.064 79C303.898 77.8333 303.314 76.3333 303.314 74.5V54.25C303.314 52.4167 303.898 50.9167 305.064 49.75C306.398 48.5833 307.981 48 309.814 48H329.314V6.74998C329.314 4.91665 329.898 3.41666 331.064 2.25C332.398 1.08333 333.898 0.49999 335.564 0.49999H364.564C366.398 0.49999 367.898 1.08333 369.064 2.25C370.231 3.41666 370.814 4.91665 370.814 6.74998V48H402.064C403.898 48 405.398 48.5833 406.564 49.75C407.731 50.9167 408.314 52.4167 408.314 54.25V74.5C408.314 76.3333 407.731 77.8333 406.564 79C405.398 80.1667 403.898 80.75 402.064 80.75H370.814V125.25C370.814 130.917 371.898 135.417 374.064 138.75C376.231 142.083 379.898 143.75 385.064 143.75H404.314C406.148 143.75 407.648 144.333 408.814 145.5C409.981 146.667 410.564 148.167 410.564 150V171.75C410.564 173.583 409.981 175.083 408.814 176.25C407.648 177.417 406.148 178 404.314 178H381.064ZM484.764 180.5C473.93 180.5 464.68 179.333 457.014 177C449.514 174.5 443.347 171.5 438.514 168C433.847 164.5 430.347 160.917 428.014 157.25C425.68 153.417 424.43 150.167 424.264 147.5C424.097 145.667 424.68 144.167 426.014 143C427.347 141.667 428.764 141 430.264 141H458.764C459.264 141 459.68 141.083 460.014 141.25C460.347 141.417 460.847 141.75 461.514 142.25C463.68 143.417 465.847 144.917 468.014 146.75C470.18 148.417 472.68 149.917 475.514 151.25C478.347 152.583 481.764 153.25 485.764 153.25C490.43 153.25 494.347 152.333 497.514 150.5C500.68 148.667 502.264 145.917 502.264 142.25C502.264 139.583 501.514 137.417 500.014 135.75C498.514 133.917 495.43 132.167 490.764 130.5C486.264 128.833 479.43 127.167 470.264 125.5C461.597 123.5 454.014 120.917 447.514 117.75C441.014 114.417 436.014 110.167 432.514 105C429.014 99.6667 427.264 93.25 427.264 85.75C427.264 79.0833 429.43 72.6667 433.764 66.5C438.097 60.3333 444.43 55.3333 452.764 51.5C461.097 47.5 471.347 45.5 483.514 45.5C493.18 45.5 501.514 46.6667 508.514 49C515.68 51.1667 521.68 54 526.514 57.5C531.514 61 535.264 64.5833 537.764 68.25C540.264 71.9167 541.597 75.25 541.764 78.25C541.93 79.9167 541.43 81.4167 540.264 82.75C539.097 83.9167 537.764 84.5 536.264 84.5H510.264C509.597 84.5 508.93 84.4167 508.264 84.25C507.597 83.9167 507.014 83.5833 506.514 83.25C504.514 82.25 502.514 80.9167 500.514 79.25C498.514 77.5833 496.18 76.0833 493.514 74.75C490.847 73.4167 487.514 72.75 483.514 72.75C479.014 72.75 475.514 73.75 473.014 75.75C470.514 77.75 469.264 80.3333 469.264 83.5C469.264 85.6667 469.93 87.6667 471.264 89.5C472.764 91.3333 475.68 93 480.014 94.5C484.514 96 491.43 97.6667 500.764 99.5C512.264 101.333 521.43 104.333 528.264 108.5C535.097 112.5 539.93 117.25 542.764 122.75C545.597 128.083 547.014 133.75 547.014 139.75C547.014 147.75 544.597 154.833 539.764 161C535.097 167.167 528.097 172 518.764 175.5C509.43 178.833 498.097 180.5 484.764 180.5Z"/>
</mask>
<path d="M84.25 180.5C74.9167 180.5 67.0833 178.917 60.75 175.75C54.5833 172.583 49.5 168.583 45.5 163.75V171.75C45.5 173.583 44.8333 175.083 43.5 176.25C42.3333 177.417 40.9167 178 39.25 178H11C9.16667 178 7.66667 177.417 6.5 176.25C5.33333 175.083 4.75 173.583 4.75 171.75V6.74998C4.75 4.91665 5.33333 3.41666 6.5 2.25C7.66667 1.08333 9.16667 0.49999 11 0.49999H41.5C43.3333 0.49999 44.8333 1.08333 46 2.25C47.1667 3.41666 47.75 4.91665 47.75 6.74998V60.25C51.75 55.9167 56.75 52.4167 62.75 49.75C68.9167 46.9167 76.0833 45.5 84.25 45.5C92.5833 45.5 99.9167 46.9167 106.25 49.75C112.75 52.4167 118.25 56.3333 122.75 61.5C127.25 66.6667 130.75 72.8333 133.25 80C135.75 87.1667 137.167 95.25 137.5 104.25C137.667 107.417 137.75 110.333 137.75 113C137.75 115.5 137.667 118.417 137.5 121.75C137.167 131.083 135.667 139.417 133 146.75C130.5 153.917 127 160.083 122.5 165.25C118 170.25 112.583 174.083 106.25 176.75C99.9167 179.25 92.5833 180.5 84.25 180.5ZM70.75 147C76.4167 147 80.8333 145.833 84 143.5C87.1667 141.167 89.4167 138 90.75 134C92.25 130 93.1667 125.583 93.5 120.75C93.8333 115.583 93.8333 110.417 93.5 105.25C93.1667 100.417 92.25 96 90.75 92C89.4167 88 87.1667 84.8333 84 82.5C80.8333 80.1667 76.4167 79 70.75 79C65.5833 79 61.3333 80.1667 58 82.5C54.6667 84.6667 52.1667 87.5833 50.5 91.25C48.8333 94.75 47.9167 98.5833 47.75 102.75C47.5833 105.917 47.5 109 47.5 112C47.5 115 47.5833 118.167 47.75 121.5C47.9167 126 48.75 130.167 50.25 134C51.75 137.833 54.1667 141 57.5 143.5C60.8333 145.833 65.25 147 70.75 147ZM223.965 180.5C209.965 180.5 198.132 178.25 188.465 173.75C178.965 169.25 171.632 162.833 166.465 154.5C161.465 146 158.632 135.917 157.965 124.25C157.798 120.917 157.715 117.167 157.715 113C157.715 108.667 157.798 104.917 157.965 101.75C158.632 89.9167 161.632 79.8333 166.965 71.5C172.298 63.1667 179.715 56.75 189.215 52.25C198.882 47.75 210.465 45.5 223.965 45.5C237.632 45.5 249.215 47.75 258.715 52.25C268.382 56.75 275.882 63.1667 281.215 71.5C286.548 79.8333 289.548 89.9167 290.215 101.75C290.382 104.917 290.465 108.667 290.465 113C290.465 117.167 290.382 120.917 290.215 124.25C289.548 135.917 286.632 146 281.465 154.5C276.465 162.833 269.132 169.25 259.465 173.75C249.965 178.25 238.132 180.5 223.965 180.5ZM223.965 150C231.465 150 236.882 147.75 240.215 143.25C243.715 138.75 245.715 132 246.215 123C246.382 120.5 246.465 117.167 246.465 113C246.465 108.833 246.382 105.5 246.215 103C245.715 94.1667 243.715 87.5 240.215 83C236.882 78.3333 231.465 76 223.965 76C216.632 76 211.215 78.3333 207.715 83C204.215 87.5 202.298 94.1667 201.965 103C201.798 105.5 201.715 108.833 201.715 113C201.715 117.167 201.798 120.5 201.965 123C202.298 132 204.215 138.75 207.715 143.25C211.215 147.75 216.632 150 223.965 150ZM381.064 178C370.398 178 361.148 176.333 353.314 173C345.648 169.5 339.731 164.167 335.564 157C331.398 149.667 329.314 140.25 329.314 128.75V80.75H309.814C307.981 80.75 306.398 80.1667 305.064 79C303.898 77.8333 303.314 76.3333 303.314 74.5V54.25C303.314 52.4167 303.898 50.9167 305.064 49.75C306.398 48.5833 307.981 48 309.814 48H329.314V6.74998C329.314 4.91665 329.898 3.41666 331.064 2.25C332.398 1.08333 333.898 0.49999 335.564 0.49999H364.564C366.398 0.49999 367.898 1.08333 369.064 2.25C370.231 3.41666 370.814 4.91665 370.814 6.74998V48H402.064C403.898 48 405.398 48.5833 406.564 49.75C407.731 50.9167 408.314 52.4167 408.314 54.25V74.5C408.314 76.3333 407.731 77.8333 406.564 79C405.398 80.1667 403.898 80.75 402.064 80.75H370.814V125.25C370.814 130.917 371.898 135.417 374.064 138.75C376.231 142.083 379.898 143.75 385.064 143.75H404.314C406.148 143.75 407.648 144.333 408.814 145.5C409.981 146.667 410.564 148.167 410.564 150V171.75C410.564 173.583 409.981 175.083 408.814 176.25C407.648 177.417 406.148 178 404.314 178H381.064ZM484.764 180.5C473.93 180.5 464.68 179.333 457.014 177C449.514 174.5 443.347 171.5 438.514 168C433.847 164.5 430.347 160.917 428.014 157.25C425.68 153.417 424.43 150.167 424.264 147.5C424.097 145.667 424.68 144.167 426.014 143C427.347 141.667 428.764 141 430.264 141H458.764C459.264 141 459.68 141.083 460.014 141.25C460.347 141.417 460.847 141.75 461.514 142.25C463.68 143.417 465.847 144.917 468.014 146.75C470.18 148.417 472.68 149.917 475.514 151.25C478.347 152.583 481.764 153.25 485.764 153.25C490.43 153.25 494.347 152.333 497.514 150.5C500.68 148.667 502.264 145.917 502.264 142.25C502.264 139.583 501.514 137.417 500.014 135.75C498.514 133.917 495.43 132.167 490.764 130.5C486.264 128.833 479.43 127.167 470.264 125.5C461.597 123.5 454.014 120.917 447.514 117.75C441.014 114.417 436.014 110.167 432.514 105C429.014 99.6667 427.264 93.25 427.264 85.75C427.264 79.0833 429.43 72.6667 433.764 66.5C438.097 60.3333 444.43 55.3333 452.764 51.5C461.097 47.5 471.347 45.5 483.514 45.5C493.18 45.5 501.514 46.6667 508.514 49C515.68 51.1667 521.68 54 526.514 57.5C531.514 61 535.264 64.5833 537.764 68.25C540.264 71.9167 541.597 75.25 541.764 78.25C541.93 79.9167 541.43 81.4167 540.264 82.75C539.097 83.9167 537.764 84.5 536.264 84.5H510.264C509.597 84.5 508.93 84.4167 508.264 84.25C507.597 83.9167 507.014 83.5833 506.514 83.25C504.514 82.25 502.514 80.9167 500.514 79.25C498.514 77.5833 496.18 76.0833 493.514 74.75C490.847 73.4167 487.514 72.75 483.514 72.75C479.014 72.75 475.514 73.75 473.014 75.75C470.514 77.75 469.264 80.3333 469.264 83.5C469.264 85.6667 469.93 87.6667 471.264 89.5C472.764 91.3333 475.68 93 480.014 94.5C484.514 96 491.43 97.6667 500.764 99.5C512.264 101.333 521.43 104.333 528.264 108.5C535.097 112.5 539.93 117.25 542.764 122.75C545.597 128.083 547.014 133.75 547.014 139.75C547.014 147.75 544.597 154.833 539.764 161C535.097 167.167 528.097 172 518.764 175.5C509.43 178.833 498.097 180.5 484.764 180.5Z" fill="black" shape-rendering="crispEdges"/>
<path d="M60.75 175.75L60.2932 176.64L60.3028 176.644L60.75 175.75ZM45.5 163.75L46.2704 163.112L44.5 160.973V163.75H45.5ZM43.5 176.25L42.8415 175.497L42.8164 175.519L42.7929 175.543L43.5 176.25ZM6.5 176.25L5.79289 176.957H5.79289L6.5 176.25ZM6.5 2.25L7.20711 2.95711L7.20711 2.9571L6.5 2.25ZM46 2.25L45.2929 2.9571L45.2929 2.95711L46 2.25ZM47.75 60.25H46.75V62.8076L48.4848 60.9283L47.75 60.25ZM62.75 49.75L63.1562 50.6639L63.1675 50.6587L62.75 49.75ZM106.25 49.75L105.842 50.6628L105.856 50.6692L105.87 50.6752L106.25 49.75ZM137.5 104.25L136.501 104.287L136.501 104.295L136.501 104.303L137.5 104.25ZM137.5 121.75L136.501 121.7L136.501 121.707L136.501 121.714L137.5 121.75ZM133 146.75L132.06 146.408L132.056 146.421L133 146.75ZM122.5 165.25L123.243 165.919L123.249 165.913L123.254 165.907L122.5 165.25ZM106.25 176.75L106.617 177.68L106.628 177.676L106.638 177.672L106.25 176.75ZM84 143.5L83.4068 142.695L84 143.5ZM90.75 134L89.8137 133.649L89.8072 133.666L89.8013 133.684L90.75 134ZM93.5 120.75L94.4977 120.819L94.4979 120.814L93.5 120.75ZM93.5 105.25L94.4979 105.186L94.4976 105.181L93.5 105.25ZM90.75 92L89.8013 92.3162L89.8072 92.3338L89.8137 92.3511L90.75 92ZM58 82.5L58.545 83.3384L58.5594 83.3291L58.5735 83.3192L58 82.5ZM50.5 91.25L51.4029 91.6799L51.4067 91.6719L51.4104 91.6638L50.5 91.25ZM47.75 102.75L48.7487 102.803L48.7492 102.79L47.75 102.75ZM47.75 121.5L48.7494 121.463L48.7488 121.45L47.75 121.5ZM50.25 134L51.1812 133.636H51.1812L50.25 134ZM57.5 143.5L56.9 144.3L56.9131 144.31L56.9265 144.319L57.5 143.5ZM84.25 179.5C75.0245 179.5 67.3547 177.934 61.1972 174.856L60.3028 176.644C66.8119 179.899 74.8088 181.5 84.25 181.5V179.5ZM61.2068 174.86C55.148 171.749 50.1754 167.831 46.2704 163.112L44.7296 164.388C48.8246 169.336 54.0187 173.418 60.2932 176.64L61.2068 174.86ZM44.5 163.75V171.75H46.5V163.75H44.5ZM44.5 171.75C44.5 173.306 43.9493 174.528 42.8415 175.497L44.1585 177.003C45.7173 175.639 46.5 173.86 46.5 171.75H44.5ZM42.7929 175.543C41.8159 176.52 40.6545 177 39.25 177V179C41.1789 179 42.8508 178.313 44.2071 176.957L42.7929 175.543ZM39.25 177H11V179H39.25V177ZM11 177C9.39959 177 8.16457 176.5 7.20711 175.543L5.79289 176.957C7.16876 178.333 8.93375 179 11 179V177ZM7.20711 175.543C6.24965 174.585 5.75 173.35 5.75 171.75H3.75C3.75 173.816 4.41702 175.581 5.79289 176.957L7.20711 175.543ZM5.75 171.75V6.74998H3.75V171.75H5.75ZM5.75 6.74998C5.75 5.14957 6.24964 3.91456 7.20711 2.95711L5.79289 1.54289C4.41702 2.91875 3.75 4.68373 3.75 6.74998H5.75ZM7.20711 2.9571C8.16457 1.99963 9.39959 1.49999 11 1.49999V-0.500008C8.93375 -0.500008 7.16876 0.167015 5.79289 1.54289L7.20711 2.9571ZM11 1.49999H41.5V-0.500008H11V1.49999ZM41.5 1.49999C43.1004 1.49999 44.3354 1.99963 45.2929 2.9571L46.7071 1.54289C45.3312 0.167019 43.5663 -0.500008 41.5 -0.500008V1.49999ZM45.2929 2.95711C46.2504 3.91456 46.75 5.14957 46.75 6.74998H48.75C48.75 4.68373 48.083 2.91875 46.7071 1.54289L45.2929 2.95711ZM46.75 6.74998V60.25H48.75V6.74998H46.75ZM48.4848 60.9283C52.3825 56.7058 57.2664 53.2815 63.1561 50.6638L62.3439 48.8362C56.2336 51.5519 51.1175 55.1275 47.0152 59.5717L48.4848 60.9283ZM63.1675 50.6587C69.1793 47.8965 76.1986 46.5 84.25 46.5V44.5C75.968 44.5 68.654 45.9368 62.3325 48.8413L63.1675 50.6587ZM84.25 46.5C92.4704 46.5 99.6599 47.8973 105.842 50.6628L106.658 48.8372C100.173 45.936 92.6963 44.5 84.25 44.5V46.5ZM105.87 50.6752C112.23 53.2843 117.601 57.1106 121.996 62.1568L123.504 60.8432C118.899 55.5561 113.27 51.549 106.63 48.8248L105.87 50.6752ZM121.996 62.1568C126.404 67.2176 129.843 73.27 132.306 80.3294L134.194 79.6706C131.657 72.3967 128.096 66.1158 123.504 60.8432L121.996 62.1568ZM132.306 80.3294C134.768 87.3862 136.17 95.3686 136.501 104.287L138.499 104.213C138.163 95.1314 136.732 86.9471 134.194 79.6706L132.306 80.3294ZM136.501 104.303C136.667 107.455 136.75 110.354 136.75 113H138.75C138.75 110.313 138.666 107.378 138.499 104.197L136.501 104.303ZM136.75 113C136.75 115.479 136.667 118.378 136.501 121.7L138.499 121.8C138.666 118.455 138.75 115.521 138.75 113H136.75ZM136.501 121.714C136.17 130.963 134.685 139.19 132.06 146.408L133.94 147.092C136.648 139.643 138.163 131.204 138.499 121.786L136.501 121.714ZM132.056 146.421C129.593 153.48 126.154 159.532 121.746 164.593L123.254 165.907C127.846 160.634 131.407 154.353 133.944 147.079L132.056 146.421ZM121.757 164.581C117.357 169.469 112.063 173.218 105.862 175.828L106.638 177.672C113.104 174.949 118.643 171.031 123.243 165.919L121.757 164.581ZM105.883 175.82C99.6894 178.265 92.4849 179.5 84.25 179.5V181.5C92.6817 181.5 100.144 180.235 106.617 177.68L105.883 175.82ZM70.75 148C76.5395 148 81.1938 146.81 84.5932 144.305L83.4068 142.695C80.4729 144.857 76.2938 146 70.75 146V148ZM84.5932 144.305C87.9381 141.84 90.3051 138.497 91.6987 134.316L89.8013 133.684C88.5283 137.503 86.3952 140.493 83.4068 142.695L84.5932 144.305ZM91.6863 134.351C93.2245 130.249 94.1585 125.736 94.4976 120.819L92.5024 120.681C92.1748 125.431 91.2755 129.751 89.8137 133.649L91.6863 134.351ZM94.4979 120.814C94.834 115.605 94.834 110.395 94.4979 105.186L92.5021 105.314C92.8326 110.438 92.8326 115.562 92.5021 120.686L94.4979 120.814ZM94.4976 105.181C94.1585 100.264 93.2245 95.7507 91.6863 91.6489L89.8137 92.3511C91.2755 96.2493 92.1748 100.569 92.5024 105.319L94.4976 105.181ZM91.6987 91.6838C90.3051 87.5029 87.9381 84.1596 84.5932 81.6949L83.4068 83.305C86.3952 85.507 88.5283 88.4971 89.8013 92.3162L91.6987 91.6838ZM84.5932 81.6949C81.1938 79.1901 76.5395 78 70.75 78V80C76.2938 80 80.4729 81.1432 83.4068 83.305L84.5932 81.6949ZM70.75 78C65.4336 78 60.9683 79.2015 57.4265 81.6808L58.5735 83.3192C61.6984 81.1318 65.7331 80 70.75 80V78ZM57.455 81.6615C53.9597 83.9335 51.3341 86.9985 49.5896 90.8362L51.4104 91.6638C52.9993 88.1682 55.3736 85.3998 58.545 83.3384L57.455 81.6615ZM49.5971 90.8201C47.868 94.4512 46.9225 98.4185 46.7508 102.71L48.7492 102.79C48.9109 98.7481 49.7986 95.0488 51.4029 91.6799L49.5971 90.8201ZM46.7514 102.697C46.5838 105.881 46.5 108.982 46.5 112H48.5C48.5 109.018 48.5828 105.953 48.7486 102.803L46.7514 102.697ZM46.5 112C46.5 115.018 46.5838 118.202 46.7512 121.55L48.7488 121.45C48.5828 118.132 48.5 114.982 48.5 112H46.5ZM46.7507 121.537C46.9211 126.139 47.7742 130.417 49.3188 134.364L51.1812 133.636C49.7258 129.916 48.9122 125.861 48.7493 121.463L46.7507 121.537ZM49.3188 134.364C50.8874 138.373 53.4198 141.69 56.9 144.3L58.1 142.7C54.9135 140.31 52.6126 137.294 51.1812 133.636L49.3188 134.364ZM56.9265 144.319C60.4779 146.805 65.1156 148 70.75 148V146C65.3844 146 61.1888 144.862 58.0735 142.681L56.9265 144.319ZM188.465 173.75L188.037 174.654L188.043 174.657L188.465 173.75ZM166.465 154.5L165.603 155.007L165.609 155.017L165.615 155.027L166.465 154.5ZM157.965 124.25L156.966 124.3L156.966 124.307L157.965 124.25ZM157.965 101.75L156.966 101.694L156.966 101.697L157.965 101.75ZM166.965 71.5L166.123 70.9609L166.965 71.5ZM189.215 52.25L188.793 51.3434L188.787 51.3463L189.215 52.25ZM258.715 52.25L258.287 53.1538L258.293 53.1566L258.715 52.25ZM281.215 71.5L282.057 70.9609L281.215 71.5ZM290.215 101.75L291.213 101.697L291.213 101.694L290.215 101.75ZM290.215 124.25L291.213 124.307L291.214 124.3L290.215 124.25ZM281.465 154.5L280.61 153.981L280.607 153.986L281.465 154.5ZM259.465 173.75L259.043 172.843L259.037 172.846L259.465 173.75ZM240.215 143.25L239.425 142.636L239.418 142.645L239.411 142.655L240.215 143.25ZM246.215 123L245.217 122.933L245.216 122.945L246.215 123ZM246.215 103L245.216 103.057L245.217 103.067L246.215 103ZM240.215 83L239.401 83.5812L239.413 83.5978L239.425 83.6139L240.215 83ZM207.715 83L208.504 83.6139L208.51 83.607L208.515 83.6L207.715 83ZM201.965 103L202.963 103.067L202.964 103.052L202.964 103.038L201.965 103ZM201.965 123L202.964 122.963L202.964 122.948L202.963 122.933L201.965 123ZM207.715 143.25L208.504 142.636L207.715 143.25ZM223.965 179.5C210.067 179.5 198.387 177.266 188.887 172.843L188.043 174.657C197.876 179.234 209.863 181.5 223.965 181.5V179.5ZM188.893 172.846C179.554 168.422 172.373 162.131 167.315 153.973L165.615 155.027C170.89 163.536 178.376 170.078 188.037 174.654L188.893 172.846ZM167.327 153.993C162.421 145.653 159.622 135.73 158.963 124.193L156.966 124.307C157.641 136.103 160.509 146.347 165.603 155.007L167.327 153.993ZM158.964 124.2C158.798 120.887 158.715 117.154 158.715 113H156.715C156.715 117.179 156.798 120.946 156.966 124.3L158.964 124.2ZM158.715 113C158.715 108.678 158.798 104.947 158.963 101.803L156.966 101.697C156.798 104.887 156.715 108.655 156.715 113H158.715ZM158.963 101.806C159.622 90.1106 162.583 80.2014 167.807 72.039L166.123 70.9609C160.68 79.4653 157.641 89.7227 156.966 101.694L158.963 101.806ZM167.807 72.039C173.033 63.8737 180.301 57.5787 189.643 53.1537L188.787 51.3463C179.128 55.9213 171.563 62.4596 166.123 70.9609L167.807 72.039ZM189.637 53.1566C199.141 48.7322 210.573 46.5 223.965 46.5V44.5C210.357 44.5 198.622 46.7678 188.793 51.3434L189.637 53.1566ZM223.965 46.5C237.526 46.5 248.954 48.7332 258.287 53.1537L259.143 51.3463C249.475 46.7668 237.737 44.5 223.965 44.5V46.5ZM258.293 53.1566C267.801 57.5829 275.15 63.8781 280.373 72.039L282.057 70.9609C276.613 62.4552 268.962 55.9171 259.137 51.3434L258.293 53.1566ZM280.373 72.039C285.596 80.2014 288.558 90.1106 289.216 101.806L291.213 101.694C290.539 89.7227 287.5 79.4653 282.057 70.9609L280.373 72.039ZM289.216 101.803C289.382 104.947 289.465 108.678 289.465 113H291.465C291.465 108.655 291.381 104.887 291.213 101.697L289.216 101.803ZM289.465 113C289.465 117.154 289.382 120.887 289.216 124.2L291.214 124.3C291.381 120.946 291.465 117.179 291.465 113H289.465ZM289.216 124.193C288.558 135.725 285.678 145.643 280.61 153.981L282.319 155.019C287.585 146.357 290.539 136.109 291.213 124.307L289.216 124.193ZM280.607 153.986C275.72 162.131 268.547 168.419 259.043 172.843L259.887 174.657C269.716 170.081 277.21 163.536 282.322 155.014L280.607 153.986ZM259.037 172.846C249.709 177.265 238.032 179.5 223.965 179.5V181.5C238.231 181.5 250.221 179.235 259.893 174.654L259.037 172.846ZM223.965 151C231.665 151 237.436 148.681 241.018 143.845L239.411 142.655C236.327 146.819 231.265 149 223.965 149V151ZM241.004 143.864C244.682 139.135 246.708 132.15 247.213 123.055L245.216 122.945C244.722 131.85 242.747 138.365 239.425 142.636L241.004 143.864ZM247.213 123.067C247.381 120.535 247.465 117.176 247.465 113H245.465C245.465 117.157 245.382 120.465 245.217 122.933L247.213 123.067ZM247.465 113C247.465 108.824 247.381 105.465 247.213 102.933L245.217 103.067C245.382 105.535 245.465 108.843 245.465 113H247.465ZM247.213 102.943C246.708 94.0114 244.68 87.1125 241.004 82.3861L239.425 83.6139C242.749 87.8875 244.722 94.3219 245.216 103.057L247.213 102.943ZM241.029 82.4188C237.452 77.4113 231.678 75 223.965 75V77C231.251 77 236.311 79.2553 239.401 83.5812L241.029 82.4188ZM223.965 75C216.406 75 210.652 77.4176 206.915 82.4L208.515 83.6C211.778 79.2491 216.857 77 223.965 77V75ZM206.925 82.3861C203.244 87.1198 201.303 94.0272 200.966 102.962L202.964 103.038C203.294 94.3061 205.186 87.8801 208.504 83.6139L206.925 82.3861ZM200.967 102.933C200.798 105.465 200.715 108.824 200.715 113H202.715C202.715 108.843 202.798 105.535 202.963 103.067L200.967 102.933ZM200.715 113C200.715 117.176 200.798 120.535 200.967 123.067L202.963 122.933C202.798 120.465 202.715 117.157 202.715 113H200.715ZM200.966 123.037C201.302 132.134 203.242 139.127 206.925 143.864L208.504 142.636C205.188 138.373 203.294 131.866 202.964 122.963L200.966 123.037ZM206.925 143.864C210.667 148.675 216.419 151 223.965 151V149C216.844 149 211.763 146.825 208.504 142.636L206.925 143.864ZM353.314 173L352.899 173.91L352.911 173.915L352.923 173.92L353.314 173ZM335.564 157L334.695 157.494L334.7 157.503L335.564 157ZM329.314 80.75H330.314V79.75H329.314V80.75ZM305.064 79L304.357 79.7071L304.381 79.7306L304.406 79.7526L305.064 79ZM305.064 49.75L304.406 48.9974L304.381 49.0193L304.357 49.0429L305.064 49.75ZM329.314 48V49H330.314V48H329.314ZM331.064 2.25L330.406 1.49742L330.381 1.51935L330.357 1.54289L331.064 2.25ZM369.064 2.25L368.357 2.9571V2.95711L369.064 2.25ZM370.814 48H369.814V49H370.814V48ZM406.564 49.75L405.857 50.4571V50.4571L406.564 49.75ZM370.814 80.75V79.75H369.814V80.75H370.814ZM374.064 138.75L374.903 138.205L374.064 138.75ZM408.814 145.5L409.522 144.793L408.814 145.5ZM381.064 177C370.499 177 361.388 175.349 353.706 172.08L352.923 173.92C360.907 177.318 370.296 179 381.064 179V177ZM353.73 172.09C346.248 168.675 340.49 163.482 336.429 156.497L334.7 157.503C338.972 164.851 345.048 170.325 352.899 173.91L353.73 172.09ZM336.434 156.506C332.378 149.368 330.314 140.137 330.314 128.75H328.314C328.314 140.363 330.417 149.965 334.695 157.494L336.434 156.506ZM330.314 128.75V80.75H328.314V128.75H330.314ZM329.314 79.75H309.814V81.75H329.314V79.75ZM309.814 79.75C308.214 79.75 306.867 79.2486 305.723 78.2474L304.406 79.7526C305.928 81.0847 307.748 81.75 309.814 81.75V79.75ZM305.772 78.2929C304.814 77.3354 304.314 76.1004 304.314 74.5H302.314C302.314 76.5662 302.981 78.3312 304.357 79.7071L305.772 78.2929ZM304.314 74.5V54.25H302.314V74.5H304.314ZM304.314 54.25C304.314 52.6496 304.814 51.4146 305.772 50.4571L304.357 49.0429C302.981 50.4188 302.314 52.1837 302.314 54.25H304.314ZM305.723 50.5026C306.867 49.5014 308.214 49 309.814 49V47C307.748 47 305.928 47.6653 304.406 48.9974L305.723 50.5026ZM309.814 49H329.314V47H309.814V49ZM330.314 48V6.74998H328.314V48H330.314ZM330.314 6.74998C330.314 5.14957 330.814 3.91456 331.772 2.95711L330.357 1.54289C328.981 2.91875 328.314 4.68374 328.314 6.74998H330.314ZM331.723 3.00257C332.887 1.98448 334.156 1.49999 335.564 1.49999V-0.500008C333.639 -0.500008 331.909 0.182175 330.406 1.49742L331.723 3.00257ZM335.564 1.49999H364.564V-0.500008H335.564V1.49999ZM364.564 1.49999C366.165 1.49999 367.4 1.99963 368.357 2.9571L369.772 1.54289C368.396 0.167015 366.631 -0.500008 364.564 -0.500008V1.49999ZM368.357 2.95711C369.315 3.91456 369.814 5.14957 369.814 6.74998H371.814C371.814 4.68373 371.147 2.91875 369.772 1.54289L368.357 2.95711ZM369.814 6.74998V48H371.814V6.74998H369.814ZM370.814 49H402.064V47H370.814V49ZM402.064 49C403.665 49 404.9 49.4996 405.857 50.4571L407.272 49.0429C405.896 47.667 404.131 47 402.064 47V49ZM405.857 50.4571C406.815 51.4146 407.314 52.6496 407.314 54.25H409.314C409.314 52.1837 408.647 50.4188 407.272 49.0429L405.857 50.4571ZM407.314 54.25V74.5H409.314V54.25H407.314ZM407.314 74.5C407.314 76.1004 406.815 77.3354 405.857 78.2929L407.272 79.7071C408.647 78.3312 409.314 76.5662 409.314 74.5H407.314ZM405.857 78.2929C404.9 79.2503 403.665 79.75 402.064 79.75V81.75C404.131 81.75 405.896 81.083 407.272 79.7071L405.857 78.2929ZM402.064 79.75H370.814V81.75H402.064V79.75ZM369.814 80.75V125.25H371.814V80.75H369.814ZM369.814 125.25C369.814 131.032 370.918 135.744 373.226 139.295L374.903 138.205C372.878 135.089 371.814 130.802 371.814 125.25H369.814ZM373.226 139.295C375.632 142.996 379.673 144.75 385.064 144.75V142.75C380.122 142.75 376.831 141.171 374.903 138.205L373.226 139.295ZM385.064 144.75H404.314V142.75H385.064V144.75ZM404.314 144.75C405.915 144.75 407.15 145.25 408.107 146.207L409.522 144.793C408.146 143.417 406.381 142.75 404.314 142.75V144.75ZM408.107 146.207C409.065 147.165 409.564 148.4 409.564 150H411.564C411.564 147.934 410.897 146.169 409.522 144.793L408.107 146.207ZM409.564 150V171.75H411.564V150H409.564ZM409.564 171.75C409.564 173.35 409.065 174.585 408.107 175.543L409.522 176.957C410.897 175.581 411.564 173.816 411.564 171.75H409.564ZM408.107 175.543C407.15 176.5 405.915 177 404.314 177V179C406.381 179 408.146 178.333 409.522 176.957L408.107 175.543ZM404.314 177H381.064V179H404.314V177ZM457.014 177L456.697 177.949L456.71 177.953L456.723 177.957L457.014 177ZM438.514 168L437.914 168.8L437.92 168.805L437.927 168.81L438.514 168ZM428.014 157.25L427.159 157.77L427.165 157.778L427.17 157.787L428.014 157.25ZM424.264 147.5L425.262 147.438L425.261 147.424L425.26 147.409L424.264 147.5ZM426.014 143L426.672 143.753L426.697 143.731L426.721 143.707L426.014 143ZM460.014 141.25L459.566 142.144V142.144L460.014 141.25ZM461.514 142.25L460.914 143.05L460.974 143.095L461.04 143.13L461.514 142.25ZM468.014 146.75L467.368 147.513L467.385 147.528L467.404 147.543L468.014 146.75ZM475.514 151.25L475.939 150.345L475.514 151.25ZM497.514 150.5L497.013 149.635L497.514 150.5ZM500.014 135.75L499.24 136.383L499.255 136.401L499.27 136.419L500.014 135.75ZM490.764 130.5L490.416 131.438L490.427 131.442L490.764 130.5ZM470.264 125.5L470.039 126.474L470.062 126.48L470.085 126.484L470.264 125.5ZM447.514 117.75L447.057 118.64L447.066 118.644L447.076 118.649L447.514 117.75ZM432.514 105L431.678 105.549L431.682 105.555L431.686 105.561L432.514 105ZM433.764 66.5L434.582 67.0749L433.764 66.5ZM452.764 51.5L453.182 52.4085L453.189 52.4051L453.196 52.4015L452.764 51.5ZM508.514 49L508.197 49.9487L508.211 49.9531L508.224 49.9572L508.514 49ZM526.514 57.5L525.927 58.3099L525.934 58.3146L525.94 58.3192L526.514 57.5ZM537.764 68.25L536.937 68.8133L537.764 68.25ZM541.764 78.25L540.765 78.3055L540.766 78.3275L540.769 78.3495L541.764 78.25ZM540.264 82.75L540.971 83.4571L540.994 83.4336L541.016 83.4085L540.264 82.75ZM508.264 84.25L507.816 85.1444L507.915 85.1935L508.021 85.2201L508.264 84.25ZM506.514 83.25L507.068 82.4179L507.017 82.3834L506.961 82.3556L506.514 83.25ZM500.514 79.25L499.874 80.0182L500.514 79.25ZM493.514 74.75L493.066 75.6444L493.514 74.75ZM473.014 75.75L473.638 76.5309L473.014 75.75ZM471.264 89.5L470.455 90.0882L470.472 90.1112L470.49 90.1332L471.264 89.5ZM480.014 94.5L479.687 95.445L479.697 95.4487L480.014 94.5ZM500.764 99.5L500.571 100.481L500.589 100.485L500.606 100.488L500.764 99.5ZM528.264 108.5L527.743 109.354L527.751 109.358L527.758 109.363L528.264 108.5ZM542.764 122.75L541.875 123.208L541.881 123.219L542.764 122.75ZM539.764 161L538.977 160.383L538.971 160.39L538.966 160.397L539.764 161ZM518.764 175.5L519.1 176.442L519.107 176.439L519.115 176.436L518.764 175.5ZM484.764 179.5C473.997 179.5 464.851 178.34 457.305 176.043L456.723 177.957C464.51 180.327 473.864 181.5 484.764 181.5V179.5ZM457.33 176.051C449.897 173.574 443.829 170.615 439.1 167.19L437.927 168.81C442.865 172.385 449.13 175.426 456.697 177.949L457.33 176.051ZM439.114 167.2C434.512 163.749 431.108 160.25 428.857 156.713L427.17 157.787C429.586 161.583 433.182 165.251 437.914 168.8L439.114 167.2ZM428.868 156.73C426.569 152.953 425.414 149.868 425.262 147.438L423.266 147.562C423.447 150.466 424.792 153.881 427.159 157.77L428.868 156.73ZM425.26 147.409C425.121 145.88 425.591 144.699 426.672 143.753L425.355 142.247C423.77 143.634 423.073 145.453 423.268 147.591L425.26 147.409ZM426.721 143.707C427.917 142.51 429.093 142 430.264 142V140C428.434 140 426.777 140.823 425.307 142.293L426.721 143.707ZM430.264 142H458.764V140H430.264V142ZM458.764 142C459.159 142 459.411 142.067 459.566 142.144L460.461 140.356C459.95 140.1 459.368 140 458.764 140V142ZM459.566 142.144C459.813 142.268 460.251 142.553 460.914 143.05L462.114 141.45C461.443 140.947 460.881 140.566 460.461 140.356L459.566 142.144ZM461.04 143.13C463.137 144.26 465.246 145.718 467.368 147.513L468.66 145.987C466.448 144.115 464.224 142.574 461.988 141.37L461.04 143.13ZM467.404 147.543C469.635 149.259 472.199 150.795 475.088 152.155L475.939 150.345C473.162 149.038 470.725 147.574 468.623 145.957L467.404 147.543ZM475.088 152.155C478.086 153.566 481.656 154.25 485.764 154.25V152.25C481.871 152.25 478.608 151.601 475.939 150.345L475.088 152.155ZM485.764 154.25C490.559 154.25 494.659 153.308 498.015 151.365L497.013 149.635C494.035 151.359 490.302 152.25 485.764 152.25V154.25ZM498.015 151.365C501.491 149.353 503.264 146.273 503.264 142.25H501.264C501.264 145.561 499.87 147.98 497.013 149.635L498.015 151.365ZM503.264 142.25C503.264 139.386 502.453 136.965 500.757 135.081L499.27 136.419C500.575 137.868 501.264 139.781 501.264 142.25H503.264ZM500.788 135.117C499.102 133.057 495.788 131.233 491.1 129.558L490.427 131.442C495.072 133.101 497.925 134.777 499.24 136.383L500.788 135.117ZM491.111 129.562C486.527 127.864 479.624 126.185 470.443 124.516L470.085 126.484C479.237 128.148 486.001 129.802 490.416 131.438L491.111 129.562ZM470.489 124.526C461.879 122.539 454.37 119.978 447.952 116.851L447.076 118.649C453.657 121.855 461.315 124.461 470.039 126.474L470.489 124.526ZM447.97 116.86C441.594 113.59 436.732 109.445 433.342 104.439L431.686 105.561C435.295 110.889 440.433 115.243 447.057 118.64L447.97 116.86ZM433.35 104.451C429.974 99.3079 428.264 93.09 428.264 85.75H426.264C426.264 93.41 428.053 100.025 431.678 105.549L433.35 104.451ZM428.264 85.75C428.264 79.3154 430.351 73.0961 434.582 67.0749L432.945 65.9251C428.51 72.2373 426.264 78.8513 426.264 85.75H428.264ZM434.582 67.0749C438.794 61.0813 444.974 56.1839 453.182 52.4085L452.346 50.5915C443.887 54.4827 437.4 59.5854 432.945 65.9251L434.582 67.0749ZM453.196 52.4015C461.359 48.4835 471.451 46.5 483.514 46.5V44.5C471.243 44.5 460.835 46.5165 452.331 50.5985L453.196 52.4015ZM483.514 46.5C493.104 46.5 501.325 47.658 508.197 49.9487L508.83 48.0513C501.702 45.6753 493.256 44.5 483.514 44.5V46.5ZM508.224 49.9572C515.31 52.0995 521.204 54.8894 525.927 58.3099L527.1 56.6901C522.157 53.1106 516.05 50.2338 508.803 48.0428L508.224 49.9572ZM525.94 58.3192C530.876 61.7741 534.526 65.2763 536.937 68.8133L538.59 67.6867C536.002 63.8903 532.152 60.2259 527.087 56.6808L525.94 58.3192ZM536.937 68.8133C539.381 72.3966 540.612 75.5541 540.765 78.3055L542.762 78.1945C542.582 74.9459 541.147 71.4367 538.59 67.6867L536.937 68.8133ZM540.769 78.3495C540.906 79.7235 540.507 80.9529 539.511 82.0915L541.016 83.4085C542.353 81.8804 542.955 80.1098 542.759 78.1505L540.769 78.3495ZM539.557 82.0429C538.557 83.0426 537.471 83.5 536.264 83.5V85.5C538.057 85.5 539.637 84.7907 540.971 83.4571L539.557 82.0429ZM536.264 83.5H510.264V85.5H536.264V83.5ZM510.264 83.5C509.681 83.5 509.096 83.4273 508.506 83.2799L508.021 85.2201C508.765 85.406 509.513 85.5 510.264 85.5V83.5ZM508.711 83.3556C508.073 83.0366 507.527 82.7236 507.068 82.4179L505.959 84.082C506.5 84.4431 507.121 84.7968 507.816 85.1444L508.711 83.3556ZM506.961 82.3556C505.04 81.3951 503.104 80.1069 501.154 78.4818L499.874 80.0182C501.923 81.7264 503.987 83.1048 506.066 84.1444L506.961 82.3556ZM501.154 78.4818C499.087 76.7592 496.687 75.2185 493.961 73.8556L493.066 75.6444C495.674 76.9481 497.941 78.4074 499.874 80.0182L501.154 78.4818ZM493.961 73.8556C491.116 72.4333 487.618 71.75 483.514 71.75V73.75C487.409 73.75 490.578 74.4001 493.066 75.6444L493.961 73.8556ZM483.514 71.75C478.877 71.75 475.126 72.7796 472.389 74.9691L473.638 76.5309C475.901 74.7204 479.15 73.75 483.514 73.75V71.75ZM472.389 74.9691C469.655 77.1565 468.264 80.0257 468.264 83.5H470.264C470.264 80.641 471.373 78.3435 473.638 76.5309L472.389 74.9691ZM468.264 83.5C468.264 85.8882 469.003 88.0923 470.455 90.0882L472.072 88.9118C470.857 87.241 470.264 85.4451 470.264 83.5H468.264ZM470.49 90.1332C472.173 92.1909 475.315 93.9317 479.687 95.445L480.341 93.555C476.046 92.0683 473.354 90.4757 472.038 88.8668L470.49 90.1332ZM479.697 95.4487C484.26 96.9697 491.229 98.6461 500.571 100.481L500.956 98.5187C491.632 96.6872 484.767 95.0303 480.33 93.5513L479.697 95.4487ZM500.606 100.488C512.031 102.309 521.059 105.278 527.743 109.354L528.784 107.646C521.801 103.388 512.496 100.358 500.921 98.5125L500.606 100.488ZM527.758 109.363C534.473 113.294 539.15 117.918 541.875 123.208L543.653 122.292C540.711 116.582 535.721 111.706 528.769 107.637L527.758 109.363ZM541.881 123.219C544.638 128.409 546.014 133.915 546.014 139.75H548.014C548.014 133.585 546.556 127.758 543.647 122.281L541.881 123.219ZM546.014 139.75C546.014 147.531 543.669 154.396 538.977 160.383L540.551 161.617C545.525 155.27 548.014 147.969 548.014 139.75H546.014ZM538.966 160.397C534.443 166.374 527.619 171.111 518.413 174.564L519.115 176.436C528.575 172.889 535.751 167.959 540.561 161.603L538.966 160.397ZM518.427 174.558C509.232 177.842 498.019 179.5 484.764 179.5V181.5C498.175 181.5 509.629 179.824 519.1 176.442L518.427 174.558Z" fill="#404040" fill-opacity="0.8" mask="url(#path-1-outside-1_19_7)"/>
</g>
<defs>
<filter id="filter0_d_19_7" x="0.75" y="0.5" width="550.264" height="188" filterUnits="userSpaceOnUse" color-interpolation-filters="sRGB">
<feFlood flood-opacity="0" result="BackgroundImageFix"/>
<feColorMatrix in="SourceAlpha" type="matrix" values="0 0 0 0 0 0 0 0 0 0 0 0 0 0 0 0 0 0 127 0" result="hardAlpha"/>
<feOffset dy="4"/>
<feGaussianBlur stdDeviation="2"/>
<feComposite in2="hardAlpha" operator="out"/>
<feColorMatrix type="matrix" values="0 0 0 0 0 0 0 0 0 0 0 0 0 0 0 0 0 0 0.25 0"/>
<feBlend mode="normal" in2="BackgroundImageFix" result="effect1_dropShadow_19_7"/>
<feBlend mode="normal" in="SourceGraphic" in2="effect1_dropShadow_19_7" result="shape"/>
</filter>
</defs>
</svg>
