<svg width="569" height="639" viewBox="0 0 569 639" fill="none" xmlns="http://www.w3.org/2000/svg">
<g filter="url(#filter0_d_19_20)">
<g filter="url(#filter1_d_19_20)">
<mask id="path-1-outside-1_19_20" maskUnits="userSpaceOnUse" x="13" y="449" width="546" height="183" fill="black">
<rect fill="white" x="13" y="449" width="546" height="183"/>
<path d="M94.25 630.5C84.9167 630.5 77.0833 628.917 70.75 625.75C64.5833 622.583 59.5 618.583 55.5 613.75V621.75C55.5 623.583 54.8333 625.083 53.5 626.25C52.3333 627.417 50.9167 628 49.25 628H21C19.1667 628 17.6667 627.417 16.5 626.25C15.3333 625.083 14.75 623.583 14.75 621.75V456.75C14.75 454.917 15.3333 453.417 16.5 452.25C17.6667 451.083 19.1667 450.5 21 450.5H51.5C53.3333 450.5 54.8333 451.083 56 452.25C57.1667 453.417 57.75 454.917 57.75 456.75V510.25C61.75 505.917 66.75 502.417 72.75 499.75C78.9167 496.917 86.0833 495.5 94.25 495.5C102.583 495.5 109.917 496.917 116.25 499.75C122.75 502.417 128.25 506.333 132.75 511.5C137.25 516.667 140.75 522.833 143.25 530C145.75 537.167 147.167 545.25 147.5 554.25C147.667 557.417 147.75 560.333 147.75 563C147.75 565.5 147.667 568.417 147.5 571.75C147.167 581.083 145.667 589.417 143 596.75C140.5 603.917 137 610.083 132.5 615.25C128 620.25 122.583 624.083 116.25 626.75C109.917 629.25 102.583 630.5 94.25 630.5ZM80.75 597C86.4167 597 90.8333 595.833 94 593.5C97.1667 591.167 99.4167 588 100.75 584C102.25 580 103.167 575.583 103.5 570.75C103.833 565.583 103.833 560.417 103.5 555.25C103.167 550.417 102.25 546 100.75 542C99.4167 538 97.1667 534.833 94 532.5C90.8333 530.167 86.4167 529 80.75 529C75.5833 529 71.3333 530.167 68 532.5C64.6667 534.667 62.1667 537.583 60.5 541.25C58.8333 544.75 57.9167 548.583 57.75 552.75C57.5833 555.917 57.5 559 57.5 562C57.5 565 57.5833 568.167 57.75 571.5C57.9167 576 58.75 580.167 60.25 584C61.75 587.833 64.1667 591 67.5 593.5C70.8333 595.833 75.25 597 80.75 597ZM233.965 630.5C219.965 630.5 208.132 628.25 198.465 623.75C188.965 619.25 181.632 612.833 176.465 604.5C171.465 596 168.632 585.917 167.965 574.25C167.798 570.917 167.715 567.167 167.715 563C167.715 558.667 167.798 554.917 167.965 551.75C168.632 539.917 171.632 529.833 176.965 521.5C182.298 513.167 189.715 506.75 199.215 502.25C208.882 497.75 220.465 495.5 233.965 495.5C247.632 495.5 259.215 497.75 268.715 502.25C278.382 506.75 285.882 513.167 291.215 521.5C296.548 529.833 299.548 539.917 300.215 551.75C300.382 554.917 300.465 558.667 300.465 563C300.465 567.167 300.382 570.917 300.215 574.25C299.548 585.917 296.632 596 291.465 604.5C286.465 612.833 279.132 619.25 269.465 623.75C259.965 628.25 248.132 630.5 233.965 630.5ZM233.965 600C241.465 600 246.882 597.75 250.215 593.25C253.715 588.75 255.715 582 256.215 573C256.382 570.5 256.465 567.167 256.465 563C256.465 558.833 256.382 555.5 256.215 553C255.715 544.167 253.715 537.5 250.215 533C246.882 528.333 241.465 526 233.965 526C226.632 526 221.215 528.333 217.715 533C214.215 537.5 212.298 544.167 211.965 553C211.798 555.5 211.715 558.833 211.715 563C211.715 567.167 211.798 570.5 211.965 573C212.298 582 214.215 588.75 217.715 593.25C221.215 597.75 226.632 600 233.965 600ZM391.064 628C380.398 628 371.148 626.333 363.314 623C355.648 619.5 349.731 614.167 345.564 607C341.398 599.667 339.314 590.25 339.314 578.75V530.75H319.814C317.981 530.75 316.398 530.167 315.064 529C313.898 527.833 313.314 526.333 313.314 524.5V504.25C313.314 502.417 313.898 500.917 315.064 499.75C316.398 498.583 317.981 498 319.814 498H339.314V456.75C339.314 454.917 339.898 453.417 341.064 452.25C342.398 451.083 343.898 450.5 345.564 450.5H374.564C376.398 450.5 377.898 451.083 379.064 452.25C380.231 453.417 380.814 454.917 380.814 456.75V498H412.064C413.898 498 415.398 498.583 416.564 499.75C417.731 500.917 418.314 502.417 418.314 504.25V524.5C418.314 526.333 417.731 527.833 416.564 529C415.398 530.167 413.898 530.75 412.064 530.75H380.814V575.25C380.814 580.917 381.898 585.417 384.064 588.75C386.231 592.083 389.898 593.75 395.064 593.75H414.314C416.148 593.75 417.648 594.333 418.814 595.5C419.981 596.667 420.564 598.167 420.564 600V621.75C420.564 623.583 419.981 625.083 418.814 626.25C417.648 627.417 416.148 628 414.314 628H391.064ZM494.764 630.5C483.93 630.5 474.68 629.333 467.014 627C459.514 624.5 453.347 621.5 448.514 618C443.847 614.5 440.347 610.917 438.014 607.25C435.68 603.417 434.43 600.167 434.264 597.5C434.097 595.667 434.68 594.167 436.014 593C437.347 591.667 438.764 591 440.264 591H468.764C469.264 591 469.68 591.083 470.014 591.25C470.347 591.417 470.847 591.75 471.514 592.25C473.68 593.417 475.847 594.917 478.014 596.75C480.18 598.417 482.68 599.917 485.514 601.25C488.347 602.583 491.764 603.25 495.764 603.25C500.43 603.25 504.347 602.333 507.514 600.5C510.68 598.667 512.264 595.917 512.264 592.25C512.264 589.583 511.514 587.417 510.014 585.75C508.514 583.917 505.43 582.167 500.764 580.5C496.264 578.833 489.43 577.167 480.264 575.5C471.597 573.5 464.014 570.917 457.514 567.75C451.014 564.417 446.014 560.167 442.514 555C439.014 549.667 437.264 543.25 437.264 535.75C437.264 529.083 439.43 522.667 443.764 516.5C448.097 510.333 454.43 505.333 462.764 501.5C471.097 497.5 481.347 495.5 493.514 495.5C503.18 495.5 511.514 496.667 518.514 499C525.68 501.167 531.68 504 536.514 507.5C541.514 511 545.264 514.583 547.764 518.25C550.264 521.917 551.597 525.25 551.764 528.25C551.93 529.917 551.43 531.417 550.264 532.75C549.097 533.917 547.764 534.5 546.264 534.5H520.264C519.597 534.5 518.93 534.417 518.264 534.25C517.597 533.917 517.014 533.583 516.514 533.25C514.514 532.25 512.514 530.917 510.514 529.25C508.514 527.583 506.18 526.083 503.514 524.75C500.847 523.417 497.514 522.75 493.514 522.75C489.014 522.75 485.514 523.75 483.014 525.75C480.514 527.75 479.264 530.333 479.264 533.5C479.264 535.667 479.93 537.667 481.264 539.5C482.764 541.333 485.68 543 490.014 544.5C494.514 546 501.43 547.667 510.764 549.5C522.264 551.333 531.43 554.333 538.264 558.5C545.097 562.5 549.93 567.25 552.764 572.75C555.597 578.083 557.014 583.75 557.014 589.75C557.014 597.75 554.597 604.833 549.764 611C545.097 617.167 538.097 622 528.764 625.5C519.43 628.833 508.097 630.5 494.764 630.5Z"/>
</mask>
<path d="M94.25 630.5C84.9167 630.5 77.0833 628.917 70.75 625.75C64.5833 622.583 59.5 618.583 55.5 613.75V621.75C55.5 623.583 54.8333 625.083 53.5 626.25C52.3333 627.417 50.9167 628 49.25 628H21C19.1667 628 17.6667 627.417 16.5 626.25C15.3333 625.083 14.75 623.583 14.75 621.75V456.75C14.75 454.917 15.3333 453.417 16.5 452.25C17.6667 451.083 19.1667 450.5 21 450.5H51.5C53.3333 450.5 54.8333 451.083 56 452.25C57.1667 453.417 57.75 454.917 57.75 456.75V510.25C61.75 505.917 66.75 502.417 72.75 499.75C78.9167 496.917 86.0833 495.5 94.25 495.5C102.583 495.5 109.917 496.917 116.25 499.75C122.75 502.417 128.25 506.333 132.75 511.5C137.25 516.667 140.75 522.833 143.25 530C145.75 537.167 147.167 545.25 147.5 554.25C147.667 557.417 147.75 560.333 147.75 563C147.75 565.5 147.667 568.417 147.5 571.75C147.167 581.083 145.667 589.417 143 596.75C140.5 603.917 137 610.083 132.5 615.25C128 620.25 122.583 624.083 116.25 626.75C109.917 629.25 102.583 630.5 94.25 630.5ZM80.75 597C86.4167 597 90.8333 595.833 94 593.5C97.1667 591.167 99.4167 588 100.75 584C102.25 580 103.167 575.583 103.5 570.75C103.833 565.583 103.833 560.417 103.5 555.25C103.167 550.417 102.25 546 100.75 542C99.4167 538 97.1667 534.833 94 532.5C90.8333 530.167 86.4167 529 80.75 529C75.5833 529 71.3333 530.167 68 532.5C64.6667 534.667 62.1667 537.583 60.5 541.25C58.8333 544.75 57.9167 548.583 57.75 552.75C57.5833 555.917 57.5 559 57.5 562C57.5 565 57.5833 568.167 57.75 571.5C57.9167 576 58.75 580.167 60.25 584C61.75 587.833 64.1667 591 67.5 593.5C70.8333 595.833 75.25 597 80.75 597ZM233.965 630.5C219.965 630.5 208.132 628.25 198.465 623.75C188.965 619.25 181.632 612.833 176.465 604.5C171.465 596 168.632 585.917 167.965 574.25C167.798 570.917 167.715 567.167 167.715 563C167.715 558.667 167.798 554.917 167.965 551.75C168.632 539.917 171.632 529.833 176.965 521.5C182.298 513.167 189.715 506.75 199.215 502.25C208.882 497.75 220.465 495.5 233.965 495.5C247.632 495.5 259.215 497.75 268.715 502.25C278.382 506.75 285.882 513.167 291.215 521.5C296.548 529.833 299.548 539.917 300.215 551.75C300.382 554.917 300.465 558.667 300.465 563C300.465 567.167 300.382 570.917 300.215 574.25C299.548 585.917 296.632 596 291.465 604.5C286.465 612.833 279.132 619.25 269.465 623.75C259.965 628.25 248.132 630.5 233.965 630.5ZM233.965 600C241.465 600 246.882 597.75 250.215 593.25C253.715 588.75 255.715 582 256.215 573C256.382 570.5 256.465 567.167 256.465 563C256.465 558.833 256.382 555.5 256.215 553C255.715 544.167 253.715 537.5 250.215 533C246.882 528.333 241.465 526 233.965 526C226.632 526 221.215 528.333 217.715 533C214.215 537.5 212.298 544.167 211.965 553C211.798 555.5 211.715 558.833 211.715 563C211.715 567.167 211.798 570.5 211.965 573C212.298 582 214.215 588.75 217.715 593.25C221.215 597.75 226.632 600 233.965 600ZM391.064 628C380.398 628 371.148 626.333 363.314 623C355.648 619.5 349.731 614.167 345.564 607C341.398 599.667 339.314 590.25 339.314 578.75V530.75H319.814C317.981 530.75 316.398 530.167 315.064 529C313.898 527.833 313.314 526.333 313.314 524.5V504.25C313.314 502.417 313.898 500.917 315.064 499.75C316.398 498.583 317.981 498 319.814 498H339.314V456.75C339.314 454.917 339.898 453.417 341.064 452.25C342.398 451.083 343.898 450.5 345.564 450.5H374.564C376.398 450.5 377.898 451.083 379.064 452.25C380.231 453.417 380.814 454.917 380.814 456.75V498H412.064C413.898 498 415.398 498.583 416.564 499.75C417.731 500.917 418.314 502.417 418.314 504.25V524.5C418.314 526.333 417.731 527.833 416.564 529C415.398 530.167 413.898 530.75 412.064 530.75H380.814V575.25C380.814 580.917 381.898 585.417 384.064 588.75C386.231 592.083 389.898 593.75 395.064 593.75H414.314C416.148 593.75 417.648 594.333 418.814 595.5C419.981 596.667 420.564 598.167 420.564 600V621.75C420.564 623.583 419.981 625.083 418.814 626.25C417.648 627.417 416.148 628 414.314 628H391.064ZM494.764 630.5C483.93 630.5 474.68 629.333 467.014 627C459.514 624.5 453.347 621.5 448.514 618C443.847 614.5 440.347 610.917 438.014 607.25C435.68 603.417 434.43 600.167 434.264 597.5C434.097 595.667 434.68 594.167 436.014 593C437.347 591.667 438.764 591 440.264 591H468.764C469.264 591 469.68 591.083 470.014 591.25C470.347 591.417 470.847 591.75 471.514 592.25C473.68 593.417 475.847 594.917 478.014 596.75C480.18 598.417 482.68 599.917 485.514 601.25C488.347 602.583 491.764 603.25 495.764 603.25C500.43 603.25 504.347 602.333 507.514 600.5C510.68 598.667 512.264 595.917 512.264 592.25C512.264 589.583 511.514 587.417 510.014 585.75C508.514 583.917 505.43 582.167 500.764 580.5C496.264 578.833 489.43 577.167 480.264 575.5C471.597 573.5 464.014 570.917 457.514 567.75C451.014 564.417 446.014 560.167 442.514 555C439.014 549.667 437.264 543.25 437.264 535.75C437.264 529.083 439.43 522.667 443.764 516.5C448.097 510.333 454.43 505.333 462.764 501.5C471.097 497.5 481.347 495.5 493.514 495.5C503.18 495.5 511.514 496.667 518.514 499C525.68 501.167 531.68 504 536.514 507.5C541.514 511 545.264 514.583 547.764 518.25C550.264 521.917 551.597 525.25 551.764 528.25C551.93 529.917 551.43 531.417 550.264 532.75C549.097 533.917 547.764 534.5 546.264 534.5H520.264C519.597 534.5 518.93 534.417 518.264 534.25C517.597 533.917 517.014 533.583 516.514 533.25C514.514 532.25 512.514 530.917 510.514 529.25C508.514 527.583 506.18 526.083 503.514 524.75C500.847 523.417 497.514 522.75 493.514 522.75C489.014 522.75 485.514 523.75 483.014 525.75C480.514 527.75 479.264 530.333 479.264 533.5C479.264 535.667 479.93 537.667 481.264 539.5C482.764 541.333 485.68 543 490.014 544.5C494.514 546 501.43 547.667 510.764 549.5C522.264 551.333 531.43 554.333 538.264 558.5C545.097 562.5 549.93 567.25 552.764 572.75C555.597 578.083 557.014 583.75 557.014 589.75C557.014 597.75 554.597 604.833 549.764 611C545.097 617.167 538.097 622 528.764 625.5C519.43 628.833 508.097 630.5 494.764 630.5Z" fill="black" shape-rendering="crispEdges"/>
<path d="M70.75 625.75L70.2932 626.64L70.3028 626.644L70.75 625.75ZM55.5 613.75L56.2704 613.112L54.5 610.973V613.75H55.5ZM53.5 626.25L52.8415 625.497L52.8164 625.519L52.7929 625.543L53.5 626.25ZM16.5 626.25L15.7929 626.957L15.7929 626.957L16.5 626.25ZM16.5 452.25L17.2071 452.957L17.2071 452.957L16.5 452.25ZM56 452.25L55.2929 452.957L55.2929 452.957L56 452.25ZM57.75 510.25H56.75V512.808L58.4848 510.928L57.75 510.25ZM72.75 499.75L73.1562 500.664L73.1675 500.659L72.75 499.75ZM116.25 499.75L115.842 500.663L115.856 500.669L115.87 500.675L116.25 499.75ZM147.5 554.25L146.501 554.287L146.501 554.295L146.501 554.303L147.5 554.25ZM147.5 571.75L146.501 571.7L146.501 571.707L146.501 571.714L147.5 571.75ZM143 596.75L142.06 596.408L142.056 596.421L143 596.75ZM132.5 615.25L133.243 615.919L133.249 615.913L133.254 615.907L132.5 615.25ZM116.25 626.75L116.617 627.68L116.628 627.676L116.638 627.672L116.25 626.75ZM94 593.5L93.4068 592.695L93.4068 592.695L94 593.5ZM100.75 584L99.8137 583.649L99.8072 583.666L99.8013 583.684L100.75 584ZM103.5 570.75L104.498 570.819L104.498 570.814L103.5 570.75ZM103.5 555.25L104.498 555.186L104.498 555.181L103.5 555.25ZM100.75 542L99.8013 542.316L99.8072 542.334L99.8137 542.351L100.75 542ZM68 532.5L68.545 533.338L68.5594 533.329L68.5735 533.319L68 532.5ZM60.5 541.25L61.4029 541.68L61.4067 541.672L61.4104 541.664L60.5 541.25ZM57.75 552.75L58.7487 552.803L58.7492 552.79L57.75 552.75ZM57.75 571.5L58.7494 571.463L58.7488 571.45L57.75 571.5ZM60.25 584L61.1812 583.636L61.1812 583.636L60.25 584ZM67.5 593.5L66.9 594.3L66.9131 594.31L66.9265 594.319L67.5 593.5ZM94.25 629.5C85.0245 629.5 77.3547 627.934 71.1972 624.856L70.3028 626.644C76.8119 629.899 84.8088 631.5 94.25 631.5V629.5ZM71.2068 624.86C65.148 621.749 60.1754 617.831 56.2704 613.112L54.7296 614.388C58.8247 619.336 64.0187 623.418 70.2932 626.64L71.2068 624.86ZM54.5 613.75V621.75H56.5V613.75H54.5ZM54.5 621.75C54.5 623.306 53.9493 624.528 52.8415 625.497L54.1585 627.003C55.7173 625.639 56.5 623.86 56.5 621.75H54.5ZM52.7929 625.543C51.8159 626.52 50.6545 627 49.25 627V629C51.1789 629 52.8508 628.313 54.2071 626.957L52.7929 625.543ZM49.25 627H21V629H49.25V627ZM21 627C19.3996 627 18.1646 626.5 17.2071 625.543L15.7929 626.957C17.1688 628.333 18.9338 629 21 629V627ZM17.2071 625.543C16.2496 624.585 15.75 623.35 15.75 621.75H13.75C13.75 623.816 14.417 625.581 15.7929 626.957L17.2071 625.543ZM15.75 621.75V456.75H13.75V621.75H15.75ZM15.75 456.75C15.75 455.15 16.2496 453.915 17.2071 452.957L15.7929 451.543C14.417 452.919 13.75 454.684 13.75 456.75H15.75ZM17.2071 452.957C18.1646 452 19.3996 451.5 21 451.5V449.5C18.9337 449.5 17.1688 450.167 15.7929 451.543L17.2071 452.957ZM21 451.5H51.5V449.5H21V451.5ZM51.5 451.5C53.1004 451.5 54.3354 452 55.2929 452.957L56.7071 451.543C55.3312 450.167 53.5663 449.5 51.5 449.5V451.5ZM55.2929 452.957C56.2504 453.915 56.75 455.15 56.75 456.75H58.75C58.75 454.684 58.083 452.919 56.7071 451.543L55.2929 452.957ZM56.75 456.75V510.25H58.75V456.75H56.75ZM58.4848 510.928C62.3825 506.706 67.2664 503.281 73.1561 500.664L72.3439 498.836C66.2336 501.552 61.1175 505.128 57.0152 509.572L58.4848 510.928ZM73.1675 500.659C79.1793 497.896 86.1986 496.5 94.25 496.5V494.5C85.968 494.5 78.654 495.937 72.3325 498.841L73.1675 500.659ZM94.25 496.5C102.47 496.5 109.66 497.897 115.842 500.663L116.658 498.837C110.173 495.936 102.696 494.5 94.25 494.5V496.5ZM115.87 500.675C122.23 503.284 127.601 507.111 131.996 512.157L133.504 510.843C128.899 505.556 123.27 501.549 116.63 498.825L115.87 500.675ZM131.996 512.157C136.404 517.218 139.843 523.27 142.306 530.329L144.194 529.671C141.657 522.397 138.096 516.116 133.504 510.843L131.996 512.157ZM142.306 530.329C144.767 537.386 146.17 545.369 146.501 554.287L148.499 554.213C148.163 545.131 146.733 536.947 144.194 529.671L142.306 530.329ZM146.501 554.303C146.667 557.455 146.75 560.354 146.75 563H148.75C148.75 560.313 148.666 557.378 148.499 554.197L146.501 554.303ZM146.75 563C146.75 565.479 146.667 568.378 146.501 571.7L148.499 571.8C148.666 568.455 148.75 565.521 148.75 563H146.75ZM146.501 571.714C146.17 580.963 144.685 589.19 142.06 596.408L143.94 597.092C146.648 589.643 148.163 581.204 148.499 571.786L146.501 571.714ZM142.056 596.421C139.593 603.48 136.154 609.532 131.746 614.593L133.254 615.907C137.846 610.634 141.407 604.353 143.944 597.079L142.056 596.421ZM131.757 614.581C127.357 619.469 122.063 623.218 115.862 625.828L116.638 627.672C123.104 624.949 128.643 621.031 133.243 615.919L131.757 614.581ZM115.883 625.82C109.689 628.265 102.485 629.5 94.25 629.5V631.5C102.682 631.5 110.144 630.235 116.617 627.68L115.883 625.82ZM80.75 598C86.5395 598 91.1938 596.81 94.5932 594.305L93.4068 592.695C90.4729 594.857 86.2938 596 80.75 596V598ZM94.5932 594.305C97.9381 591.84 100.305 588.497 101.699 584.316L99.8013 583.684C98.5283 587.503 96.3952 590.493 93.4068 592.695L94.5932 594.305ZM101.686 584.351C103.225 580.249 104.159 575.736 104.498 570.819L102.502 570.681C102.175 575.431 101.275 579.751 99.8137 583.649L101.686 584.351ZM104.498 570.814C104.834 565.605 104.834 560.395 104.498 555.186L102.502 555.314C102.833 560.438 102.833 565.562 102.502 570.686L104.498 570.814ZM104.498 555.181C104.159 550.264 103.225 545.751 101.686 541.649L99.8137 542.351C101.275 546.249 102.175 550.569 102.502 555.319L104.498 555.181ZM101.699 541.684C100.305 537.503 97.9381 534.16 94.5932 531.695L93.4068 533.305C96.3952 535.507 98.5283 538.497 99.8013 542.316L101.699 541.684ZM94.5932 531.695C91.1938 529.19 86.5395 528 80.75 528V530C86.2938 530 90.4729 531.143 93.4068 533.305L94.5932 531.695ZM80.75 528C75.4336 528 70.9683 529.202 67.4265 531.681L68.5735 533.319C71.6984 531.132 75.7331 530 80.75 530V528ZM67.455 531.662C63.9597 533.933 61.3341 536.998 59.5896 540.836L61.4104 541.664C62.9993 538.168 65.3736 535.4 68.545 533.338L67.455 531.662ZM59.5971 540.82C57.868 544.451 56.9225 548.419 56.7508 552.71L58.7492 552.79C58.9109 548.748 59.7987 545.049 61.4029 541.68L59.5971 540.82ZM56.7514 552.697C56.5838 555.881 56.5 558.982 56.5 562H58.5C58.5 559.018 58.5828 555.953 58.7486 552.803L56.7514 552.697ZM56.5 562C56.5 565.018 56.5838 568.202 56.7512 571.55L58.7488 571.45C58.5828 568.132 58.5 564.982 58.5 562H56.5ZM56.7507 571.537C56.9211 576.139 57.7742 580.417 59.3188 584.364L61.1812 583.636C59.7258 579.916 58.9122 575.861 58.7493 571.463L56.7507 571.537ZM59.3188 584.364C60.8874 588.373 63.4198 591.69 66.9 594.3L68.1 592.7C64.9135 590.31 62.6126 587.294 61.1812 583.636L59.3188 584.364ZM66.9265 594.319C70.4779 596.805 75.1156 598 80.75 598V596C75.3844 596 71.1888 594.862 68.0735 592.681L66.9265 594.319ZM198.465 623.75L198.037 624.654L198.043 624.657L198.465 623.75ZM176.465 604.5L175.603 605.007L175.609 605.017L175.615 605.027L176.465 604.5ZM167.965 574.25L166.966 574.3L166.966 574.307L167.965 574.25ZM167.965 551.75L166.966 551.694L166.966 551.697L167.965 551.75ZM176.965 521.5L176.123 520.961L176.123 520.961L176.965 521.5ZM199.215 502.25L198.793 501.343L198.787 501.346L199.215 502.25ZM268.715 502.25L268.287 503.154L268.293 503.157L268.715 502.25ZM291.215 521.5L292.057 520.961L292.057 520.961L291.215 521.5ZM300.215 551.75L301.213 551.697L301.213 551.694L300.215 551.75ZM300.215 574.25L301.213 574.307L301.214 574.3L300.215 574.25ZM291.465 604.5L290.61 603.981L290.607 603.986L291.465 604.5ZM269.465 623.75L269.043 622.843L269.037 622.846L269.465 623.75ZM250.215 593.25L249.425 592.636L249.418 592.645L249.411 592.655L250.215 593.25ZM256.215 573L255.217 572.933L255.216 572.945L256.215 573ZM256.215 553L255.216 553.057L255.217 553.067L256.215 553ZM250.215 533L249.401 533.581L249.413 533.598L249.425 533.614L250.215 533ZM217.715 533L218.504 533.614L218.51 533.607L218.515 533.6L217.715 533ZM211.965 553L212.963 553.067L212.964 553.052L212.964 553.038L211.965 553ZM211.965 573L212.964 572.963L212.964 572.948L212.963 572.933L211.965 573ZM217.715 593.25L218.504 592.636L218.504 592.636L217.715 593.25ZM233.965 629.5C220.067 629.5 208.387 627.266 198.887 622.843L198.043 624.657C207.876 629.234 219.863 631.5 233.965 631.5V629.5ZM198.893 622.846C189.554 618.422 182.373 612.131 177.315 603.973L175.615 605.027C180.89 613.536 188.376 620.078 198.037 624.654L198.893 622.846ZM177.327 603.993C172.421 595.653 169.622 585.73 168.963 574.193L166.966 574.307C167.641 586.103 170.509 596.347 175.603 605.007L177.327 603.993ZM168.964 574.2C168.798 570.887 168.715 567.154 168.715 563H166.715C166.715 567.179 166.798 570.946 166.966 574.3L168.964 574.2ZM168.715 563C168.715 558.678 168.798 554.947 168.963 551.803L166.966 551.697C166.798 554.887 166.715 558.655 166.715 563H168.715ZM168.963 551.806C169.622 540.111 172.583 530.201 177.807 522.039L176.123 520.961C170.68 529.465 167.641 539.723 166.966 551.694L168.963 551.806ZM177.807 522.039C183.033 513.874 190.301 507.579 199.643 503.154L198.787 501.346C189.128 505.921 181.563 512.46 176.123 520.961L177.807 522.039ZM199.637 503.157C209.141 498.732 220.573 496.5 233.965 496.5V494.5C220.357 494.5 208.622 496.768 198.793 501.343L199.637 503.157ZM233.965 496.5C247.526 496.5 258.954 498.733 268.287 503.154L269.143 501.346C259.475 496.767 247.737 494.5 233.965 494.5V496.5ZM268.293 503.157C277.801 507.583 285.15 513.878 290.373 522.039L292.057 520.961C286.613 512.455 278.962 505.917 269.137 501.343L268.293 503.157ZM290.373 522.039C295.596 530.201 298.558 540.111 299.216 551.806L301.213 551.694C300.539 539.723 297.5 529.465 292.057 520.961L290.373 522.039ZM299.216 551.803C299.382 554.947 299.465 558.678 299.465 563H301.465C301.465 558.655 301.381 554.887 301.213 551.697L299.216 551.803ZM299.465 563C299.465 567.154 299.382 570.887 299.216 574.2L301.214 574.3C301.381 570.946 301.465 567.179 301.465 563H299.465ZM299.216 574.193C298.558 585.725 295.678 595.643 290.61 603.981L292.319 605.019C297.585 596.357 300.539 586.109 301.213 574.307L299.216 574.193ZM290.607 603.986C285.72 612.131 278.547 618.419 269.043 622.843L269.887 624.657C279.716 620.081 287.21 613.536 292.322 605.014L290.607 603.986ZM269.037 622.846C259.709 627.265 248.032 629.5 233.965 629.5V631.5C248.231 631.5 260.221 629.235 269.893 624.654L269.037 622.846ZM233.965 601C241.665 601 247.436 598.681 251.018 593.845L249.411 592.655C246.327 596.819 241.265 599 233.965 599V601ZM251.004 593.864C254.682 589.135 256.708 582.15 257.213 573.055L255.216 572.945C254.722 581.85 252.747 588.365 249.425 592.636L251.004 593.864ZM257.213 573.067C257.381 570.535 257.465 567.176 257.465 563H255.465C255.465 567.157 255.382 570.465 255.217 572.933L257.213 573.067ZM257.465 563C257.465 558.824 257.381 555.465 257.213 552.933L255.217 553.067C255.382 555.535 255.465 558.843 255.465 563H257.465ZM257.213 552.943C256.708 544.011 254.68 537.112 251.004 532.386L249.425 533.614C252.749 537.887 254.722 544.322 255.216 553.057L257.213 552.943ZM251.029 532.419C247.452 527.411 241.678 525 233.965 525V527C241.251 527 246.311 529.255 249.401 533.581L251.029 532.419ZM233.965 525C226.406 525 220.652 527.418 216.915 532.4L218.515 533.6C221.778 529.249 226.857 527 233.965 527V525ZM216.925 532.386C213.244 537.12 211.303 544.027 210.966 552.962L212.964 553.038C213.294 544.306 215.186 537.88 218.504 533.614L216.925 532.386ZM210.967 552.933C210.798 555.465 210.715 558.824 210.715 563H212.715C212.715 558.843 212.798 555.535 212.963 553.067L210.967 552.933ZM210.715 563C210.715 567.176 210.798 570.535 210.967 573.067L212.963 572.933C212.798 570.465 212.715 567.157 212.715 563H210.715ZM210.966 573.037C211.302 582.134 213.242 589.127 216.925 593.864L218.504 592.636C215.188 588.373 213.294 581.866 212.964 572.963L210.966 573.037ZM216.925 593.864C220.667 598.675 226.419 601 233.965 601V599C226.844 599 221.763 596.825 218.504 592.636L216.925 593.864ZM363.314 623L362.899 623.91L362.911 623.915L362.923 623.92L363.314 623ZM345.564 607L344.695 607.494L344.7 607.503L345.564 607ZM339.314 530.75H340.314V529.75H339.314V530.75ZM315.064 529L314.357 529.707L314.381 529.731L314.406 529.753L315.064 529ZM315.064 499.75L314.406 498.997L314.381 499.019L314.357 499.043L315.064 499.75ZM339.314 498V499H340.314V498H339.314ZM341.064 452.25L340.406 451.497L340.381 451.519L340.357 451.543L341.064 452.25ZM379.064 452.25L378.357 452.957L378.357 452.957L379.064 452.25ZM380.814 498H379.814V499H380.814V498ZM416.564 499.75L415.857 500.457L415.857 500.457L416.564 499.75ZM380.814 530.75V529.75H379.814V530.75H380.814ZM384.064 588.75L384.903 588.205L384.903 588.205L384.064 588.75ZM418.814 595.5L419.522 594.793L419.522 594.793L418.814 595.5ZM391.064 627C380.499 627 371.388 625.349 363.706 622.08L362.923 623.92C370.907 627.318 380.296 629 391.064 629V627ZM363.73 622.09C356.248 618.675 350.49 613.482 346.429 606.497L344.7 607.503C348.972 614.851 355.048 620.325 362.899 623.91L363.73 622.09ZM346.434 606.506C342.378 599.368 340.314 590.137 340.314 578.75H338.314C338.314 590.363 340.417 599.965 344.695 607.494L346.434 606.506ZM340.314 578.75V530.75H338.314V578.75H340.314ZM339.314 529.75H319.814V531.75H339.314V529.75ZM319.814 529.75C318.214 529.75 316.867 529.249 315.723 528.247L314.406 529.753C315.928 531.085 317.748 531.75 319.814 531.75V529.75ZM315.772 528.293C314.814 527.335 314.314 526.1 314.314 524.5H312.314C312.314 526.566 312.981 528.331 314.357 529.707L315.772 528.293ZM314.314 524.5V504.25H312.314V524.5H314.314ZM314.314 504.25C314.314 502.65 314.814 501.415 315.772 500.457L314.357 499.043C312.981 500.419 312.314 502.184 312.314 504.25H314.314ZM315.723 500.503C316.867 499.501 318.214 499 319.814 499V497C317.748 497 315.928 497.665 314.406 498.997L315.723 500.503ZM319.814 499H339.314V497H319.814V499ZM340.314 498V456.75H338.314V498H340.314ZM340.314 456.75C340.314 455.15 340.814 453.915 341.772 452.957L340.357 451.543C338.981 452.919 338.314 454.684 338.314 456.75H340.314ZM341.723 453.003C342.886 451.984 344.156 451.5 345.564 451.5V449.5C343.639 449.5 341.909 450.182 340.406 451.497L341.723 453.003ZM345.564 451.5H374.564V449.5H345.564V451.5ZM374.564 451.5C376.165 451.5 377.4 452 378.357 452.957L379.772 451.543C378.396 450.167 376.631 449.5 374.564 449.5V451.5ZM378.357 452.957C379.315 453.915 379.814 455.15 379.814 456.75H381.814C381.814 454.684 381.147 452.919 379.772 451.543L378.357 452.957ZM379.814 456.75V498H381.814V456.75H379.814ZM380.814 499H412.064V497H380.814V499ZM412.064 499C413.665 499 414.9 499.5 415.857 500.457L417.272 499.043C415.896 497.667 414.131 497 412.064 497V499ZM415.857 500.457C416.815 501.415 417.314 502.65 417.314 504.25H419.314C419.314 502.184 418.647 500.419 417.272 499.043L415.857 500.457ZM417.314 504.25V524.5H419.314V504.25H417.314ZM417.314 524.5C417.314 526.1 416.815 527.335 415.857 528.293L417.272 529.707C418.647 528.331 419.314 526.566 419.314 524.5H417.314ZM415.857 528.293C414.9 529.25 413.665 529.75 412.064 529.75V531.75C414.131 531.75 415.896 531.083 417.272 529.707L415.857 528.293ZM412.064 529.75H380.814V531.75H412.064V529.75ZM379.814 530.75V575.25H381.814V530.75H379.814ZM379.814 575.25C379.814 581.032 380.918 585.744 383.226 589.295L384.903 588.205C382.878 585.089 381.814 580.802 381.814 575.25H379.814ZM383.226 589.295C385.632 592.996 389.673 594.75 395.064 594.75V592.75C390.122 592.75 386.831 591.171 384.903 588.205L383.226 589.295ZM395.064 594.75H414.314V592.75H395.064V594.75ZM414.314 594.75C415.915 594.75 417.15 595.25 418.107 596.207L419.522 594.793C418.146 593.417 416.381 592.75 414.314 592.75V594.75ZM418.107 596.207C419.065 597.165 419.564 598.4 419.564 600H421.564C421.564 597.934 420.897 596.169 419.522 594.793L418.107 596.207ZM419.564 600V621.75H421.564V600H419.564ZM419.564 621.75C419.564 623.35 419.065 624.585 418.107 625.543L419.522 626.957C420.897 625.581 421.564 623.816 421.564 621.75H419.564ZM418.107 625.543C417.15 626.5 415.915 627 414.314 627V629C416.381 629 418.146 628.333 419.522 626.957L418.107 625.543ZM414.314 627H391.064V629H414.314V627ZM467.014 627L466.697 627.949L466.71 627.953L466.723 627.957L467.014 627ZM448.514 618L447.914 618.8L447.92 618.805L447.927 618.81L448.514 618ZM438.014 607.25L437.159 607.77L437.165 607.778L437.17 607.787L438.014 607.25ZM434.264 597.5L435.262 597.438L435.261 597.424L435.26 597.409L434.264 597.5ZM436.014 593L436.672 593.753L436.697 593.731L436.721 593.707L436.014 593ZM470.014 591.25L469.566 592.144L469.566 592.144L470.014 591.25ZM471.514 592.25L470.914 593.05L470.974 593.095L471.04 593.13L471.514 592.25ZM478.014 596.75L477.368 597.513L477.386 597.528L477.404 597.543L478.014 596.75ZM485.514 601.25L485.939 600.345L485.939 600.345L485.514 601.25ZM507.514 600.5L507.013 599.635L507.013 599.635L507.514 600.5ZM510.014 585.75L509.24 586.383L509.255 586.401L509.27 586.419L510.014 585.75ZM500.764 580.5L500.416 581.438L500.427 581.442L500.764 580.5ZM480.264 575.5L480.039 576.474L480.062 576.48L480.085 576.484L480.264 575.5ZM457.514 567.75L457.057 568.64L457.066 568.644L457.076 568.649L457.514 567.75ZM442.514 555L441.678 555.549L441.682 555.555L441.686 555.561L442.514 555ZM443.764 516.5L444.582 517.075L444.582 517.075L443.764 516.5ZM462.764 501.5L463.182 502.408L463.189 502.405L463.196 502.402L462.764 501.5ZM518.514 499L518.197 499.949L518.211 499.953L518.224 499.957L518.514 499ZM536.514 507.5L535.927 508.31L535.934 508.315L535.94 508.319L536.514 507.5ZM547.764 518.25L546.937 518.813L546.937 518.813L547.764 518.25ZM551.764 528.25L550.765 528.305L550.766 528.328L550.769 528.349L551.764 528.25ZM550.264 532.75L550.971 533.457L550.994 533.434L551.016 533.409L550.264 532.75ZM518.264 534.25L517.816 535.144L517.915 535.194L518.021 535.22L518.264 534.25ZM516.514 533.25L517.068 532.418L517.017 532.383L516.961 532.356L516.514 533.25ZM510.514 529.25L509.873 530.018L509.873 530.018L510.514 529.25ZM503.514 524.75L503.066 525.644L503.066 525.644L503.514 524.75ZM483.014 525.75L483.638 526.531L483.638 526.531L483.014 525.75ZM481.264 539.5L480.455 540.088L480.472 540.111L480.49 540.133L481.264 539.5ZM490.014 544.5L489.687 545.445L489.697 545.449L490.014 544.5ZM510.764 549.5L510.571 550.481L510.589 550.485L510.606 550.488L510.764 549.5ZM538.264 558.5L537.743 559.354L537.751 559.358L537.758 559.363L538.264 558.5ZM552.764 572.75L551.875 573.208L551.881 573.219L552.764 572.75ZM549.764 611L548.977 610.383L548.971 610.39L548.966 610.397L549.764 611ZM528.764 625.5L529.1 626.442L529.107 626.439L529.115 626.436L528.764 625.5ZM494.764 629.5C483.997 629.5 474.851 628.34 467.305 626.043L466.723 627.957C474.51 630.327 483.864 631.5 494.764 631.5V629.5ZM467.33 626.051C459.897 623.574 453.829 620.615 449.1 617.19L447.927 618.81C452.865 622.385 459.13 625.426 466.697 627.949L467.33 626.051ZM449.114 617.2C444.512 613.749 441.108 610.25 438.857 606.713L437.17 607.787C439.586 611.583 443.182 615.251 447.914 618.8L449.114 617.2ZM438.868 606.73C436.569 602.953 435.414 599.867 435.262 597.438L433.266 597.562C433.447 600.466 434.792 603.881 437.159 607.77L438.868 606.73ZM435.26 597.409C435.121 595.88 435.591 594.699 436.672 593.753L435.355 592.247C433.77 593.634 433.073 595.453 433.268 597.591L435.26 597.409ZM436.721 593.707C437.917 592.51 439.093 592 440.264 592V590C438.434 590 436.777 590.823 435.307 592.293L436.721 593.707ZM440.264 592H468.764V590H440.264V592ZM468.764 592C469.159 592 469.411 592.067 469.566 592.144L470.461 590.356C469.95 590.1 469.368 590 468.764 590V592ZM469.566 592.144C469.813 592.268 470.251 592.553 470.914 593.05L472.114 591.45C471.443 590.947 470.881 590.566 470.461 590.356L469.566 592.144ZM471.04 593.13C473.137 594.26 475.246 595.718 477.368 597.513L478.66 595.987C476.448 594.115 474.224 592.574 471.988 591.37L471.04 593.13ZM477.404 597.543C479.635 599.259 482.199 600.795 485.088 602.155L485.939 600.345C483.162 599.038 480.725 597.574 478.623 595.957L477.404 597.543ZM485.088 602.155C488.086 603.566 491.656 604.25 495.764 604.25V602.25C491.871 602.25 488.608 601.601 485.939 600.345L485.088 602.155ZM495.764 604.25C500.559 604.25 504.659 603.308 508.015 601.365L507.013 599.635C504.035 601.359 500.302 602.25 495.764 602.25V604.25ZM508.015 601.365C511.491 599.353 513.264 596.273 513.264 592.25H511.264C511.264 595.561 509.87 597.98 507.013 599.635L508.015 601.365ZM513.264 592.25C513.264 589.386 512.453 586.965 510.757 585.081L509.27 586.419C510.575 587.868 511.264 589.781 511.264 592.25H513.264ZM510.788 585.117C509.102 583.057 505.788 581.233 501.1 579.558L500.427 581.442C505.072 583.101 507.925 584.777 509.24 586.383L510.788 585.117ZM501.111 579.562C496.527 577.864 489.624 576.185 480.443 574.516L480.085 576.484C489.237 578.148 496.001 579.802 500.416 581.438L501.111 579.562ZM480.489 574.526C471.879 572.539 464.37 569.978 457.952 566.851L457.076 568.649C463.657 571.855 471.315 574.461 480.039 576.474L480.489 574.526ZM457.97 566.86C451.594 563.59 446.732 559.445 443.342 554.439L441.686 555.561C445.295 560.889 450.433 565.243 457.057 568.64L457.97 566.86ZM443.35 554.451C439.974 549.308 438.264 543.09 438.264 535.75H436.264C436.264 543.41 438.053 550.025 441.678 555.549L443.35 554.451ZM438.264 535.75C438.264 529.315 440.351 523.096 444.582 517.075L442.945 515.925C438.51 522.237 436.264 528.851 436.264 535.75H438.264ZM444.582 517.075C448.794 511.081 454.974 506.184 463.182 502.408L462.346 500.591C453.887 504.483 447.4 509.585 442.945 515.925L444.582 517.075ZM463.196 502.402C471.359 498.483 481.451 496.5 493.514 496.5V494.5C481.243 494.5 470.835 496.517 462.331 500.598L463.196 502.402ZM493.514 496.5C503.104 496.5 511.325 497.658 518.197 499.949L518.83 498.051C511.702 495.675 503.256 494.5 493.514 494.5V496.5ZM518.224 499.957C525.31 502.1 531.204 504.889 535.927 508.31L537.1 506.69C532.157 503.111 526.05 500.234 518.803 498.043L518.224 499.957ZM535.94 508.319C540.876 511.774 544.526 515.276 546.937 518.813L548.59 517.687C546.002 513.89 542.152 510.226 537.087 506.681L535.94 508.319ZM546.937 518.813C549.381 522.397 550.612 525.554 550.765 528.305L552.762 528.195C552.582 524.946 551.147 521.437 548.59 517.687L546.937 518.813ZM550.769 528.349C550.906 529.723 550.507 530.953 549.511 532.091L551.016 533.409C552.353 531.88 552.955 530.11 552.759 528.15L550.769 528.349ZM549.557 532.043C548.557 533.043 547.471 533.5 546.264 533.5V535.5C548.057 535.5 549.637 534.791 550.971 533.457L549.557 532.043ZM546.264 533.5H520.264V535.5H546.264V533.5ZM520.264 533.5C519.681 533.5 519.096 533.427 518.506 533.28L518.021 535.22C518.765 535.406 519.513 535.5 520.264 535.5V533.5ZM518.711 533.356C518.073 533.037 517.527 532.724 517.068 532.418L515.959 534.082C516.501 534.443 517.121 534.797 517.816 535.144L518.711 533.356ZM516.961 532.356C515.04 531.395 513.104 530.107 511.154 528.482L509.873 530.018C511.923 531.726 513.987 533.105 516.066 534.144L516.961 532.356ZM511.154 528.482C509.087 526.759 506.687 525.219 503.961 523.856L503.066 525.644C505.674 526.948 507.941 528.407 509.873 530.018L511.154 528.482ZM503.961 523.856C501.116 522.433 497.618 521.75 493.514 521.75V523.75C497.409 523.75 500.578 524.4 503.066 525.644L503.961 523.856ZM493.514 521.75C488.877 521.75 485.126 522.78 482.389 524.969L483.638 526.531C485.901 524.72 489.15 523.75 493.514 523.75V521.75ZM482.389 524.969C479.655 527.156 478.264 530.026 478.264 533.5H480.264C480.264 530.641 481.373 528.344 483.638 526.531L482.389 524.969ZM478.264 533.5C478.264 535.888 479.003 538.092 480.455 540.088L482.072 538.912C480.857 537.241 480.264 535.445 480.264 533.5H478.264ZM480.49 540.133C482.173 542.191 485.315 543.932 489.687 545.445L490.341 543.555C486.046 542.068 483.354 540.476 482.038 538.867L480.49 540.133ZM489.697 545.449C494.26 546.97 501.229 548.646 510.571 550.481L510.956 548.519C501.632 546.687 494.767 545.03 490.33 543.551L489.697 545.449ZM510.606 550.488C522.031 552.309 531.059 555.278 537.743 559.354L538.784 557.646C531.801 553.388 522.496 550.358 510.921 548.512L510.606 550.488ZM537.758 559.363C544.473 563.294 549.15 567.918 551.875 573.208L553.653 572.292C550.711 566.582 545.721 561.706 538.769 557.637L537.758 559.363ZM551.881 573.219C554.638 578.409 556.014 583.915 556.014 589.75H558.014C558.014 583.585 556.556 577.758 553.647 572.281L551.881 573.219ZM556.014 589.75C556.014 597.531 553.669 604.396 548.977 610.383L550.551 611.617C555.525 605.27 558.014 597.969 558.014 589.75H556.014ZM548.966 610.397C544.443 616.374 537.619 621.111 528.413 624.564L529.115 626.436C538.575 622.889 545.751 617.959 550.561 611.603L548.966 610.397ZM528.427 624.558C519.232 627.842 508.019 629.5 494.764 629.5V631.5C508.175 631.5 519.629 629.824 529.1 626.442L528.427 624.558Z" fill="#404040" fill-opacity="0.6" mask="url(#path-1-outside-1_19_20)"/>
</g>
<g filter="url(#filter2_d_19_20)">
<path d="M331.647 21.5293L262.871 125.096L228.918 70.047H158.4L228.918 175.48L114 350.89H161.882C177.951 351.516 184.57 349.897 193.391 334.775L262.871 227.73L298.565 284.645H369.082L298.565 175.48L410 1.93565L360.376 1.00261C346.528 0.846912 340.961 7.66561 331.647 21.5293Z" fill="black" shape-rendering="crispEdges"/>
<path d="M331.647 21.5293L262.871 125.096L228.918 70.047H158.4L228.918 175.48L114 350.89H161.882C177.951 351.516 184.57 349.897 193.391 334.775L262.871 227.73L298.565 284.645H369.082L298.565 175.48L410 1.93565L360.376 1.00261C346.528 0.846912 340.961 7.66561 331.647 21.5293Z" stroke="#404040" stroke-opacity="0.6" shape-rendering="crispEdges"/>
</g>
</g>
<defs>
<filter id="filter0_d_19_20" x="10.75" y="0.5" width="550.264" height="638" filterUnits="userSpaceOnUse" color-interpolation-filters="sRGB">
<feFlood flood-opacity="0" result="BackgroundImageFix"/>
<feColorMatrix in="SourceAlpha" type="matrix" values="0 0 0 0 0 0 0 0 0 0 0 0 0 0 0 0 0 0 127 0" result="hardAlpha"/>
<feOffset dy="4"/>
<feGaussianBlur stdDeviation="2"/>
<feComposite in2="hardAlpha" operator="out"/>
<feColorMatrix type="matrix" values="0 0 0 0 0 0 0 0 0 0 0 0 0 0 0 0 0 0 0.25 0"/>
<feBlend mode="normal" in2="BackgroundImageFix" result="effect1_dropShadow_19_20"/>
<feBlend mode="normal" in="SourceGraphic" in2="effect1_dropShadow_19_20" result="shape"/>
</filter>
<filter id="filter1_d_19_20" x="10.75" y="450.5" width="550.264" height="188" filterUnits="userSpaceOnUse" color-interpolation-filters="sRGB">
<feFlood flood-opacity="0" result="BackgroundImageFix"/>
<feColorMatrix in="SourceAlpha" type="matrix" values="0 0 0 0 0 0 0 0 0 0 0 0 0 0 0 0 0 0 127 0" result="hardAlpha"/>
<feOffset dy="4"/>
<feGaussianBlur stdDeviation="2"/>
<feComposite in2="hardAlpha" operator="out"/>
<feColorMatrix type="matrix" values="0 0 0 0 0 0 0 0 0 0 0 0 0 0 0 0 0 0 0.25 0"/>
<feBlend mode="normal" in2="BackgroundImageFix" result="effect1_dropShadow_19_20"/>
<feBlend mode="normal" in="SourceGraphic" in2="effect1_dropShadow_19_20" result="shape"/>
</filter>
<filter id="filter2_d_19_20" x="109.075" y="0.5" width="305.83" height="359" filterUnits="userSpaceOnUse" color-interpolation-filters="sRGB">
<feFlood flood-opacity="0" result="BackgroundImageFix"/>
<feColorMatrix in="SourceAlpha" type="matrix" values="0 0 0 0 0 0 0 0 0 0 0 0 0 0 0 0 0 0 127 0" result="hardAlpha"/>
<feOffset dy="4"/>
<feGaussianBlur stdDeviation="2"/>
<feComposite in2="hardAlpha" operator="out"/>
<feColorMatrix type="matrix" values="0 0 0 0 0 0 0 0 0 0 0 0 0 0 0 0 0 0 0.25 0"/>
<feBlend mode="normal" in2="BackgroundImageFix" result="effect1_dropShadow_19_20"/>
<feBlend mode="normal" in="SourceGraphic" in2="effect1_dropShadow_19_20" result="shape"/>
</filter>
</defs>
</svg>
