<svg width="790" height="644" viewBox="0 0 790 644" fill="none" xmlns="http://www.w3.org/2000/svg">
<mask id="path-1-outside-1_12_9" maskUnits="userSpaceOnUse" x="-3" y="-3" width="796" height="650" fill="black">
<rect fill="white" x="-3" y="-3" width="796" height="650"/>
<path d="M334.487 0.636355L390.218 94.8267H392.377L448.379 0.636355H514.366L430.026 138.818L516.255 277H449.053L392.377 182.675H390.218L333.542 277H266.61L353.109 138.818L268.229 0.636355H334.487ZM0.453302 640V421.818H87.8113C103.862 421.818 117.25 424.197 127.975 428.956C138.699 433.714 146.76 440.32 152.158 448.771C157.556 457.152 160.254 466.811 160.254 477.749C160.254 486.271 158.55 493.764 155.141 500.227C151.732 506.619 147.044 511.875 141.078 515.994C135.183 520.043 128.436 522.919 120.837 524.624V526.754C129.146 527.109 136.923 529.453 144.168 533.786C151.483 538.118 157.414 544.19 161.959 552.003C166.504 559.744 168.777 568.977 168.777 579.702C168.777 591.278 165.901 601.612 160.148 610.703C154.466 619.723 146.05 626.861 134.899 632.116C123.749 637.372 110.006 640 93.6706 640H0.453302ZM46.5826 602.287H84.1891C97.0442 602.287 106.419 599.837 112.314 594.936C118.209 589.964 121.156 583.359 121.156 575.121C121.156 569.084 119.7 563.757 116.789 559.141C113.877 554.524 109.722 550.902 104.324 548.274C98.9973 545.646 92.6408 544.332 85.2544 544.332H46.5826V602.287ZM46.5826 513.118H80.78C87.101 513.118 92.7118 512.017 97.6124 509.815C102.584 507.543 106.49 504.347 109.331 500.227C112.243 496.108 113.699 491.172 113.699 485.419C113.699 477.536 110.894 471.179 105.283 466.349C99.7431 461.52 91.8596 459.105 81.6323 459.105H46.5826V513.118ZM399.29 530.909C399.29 554.702 394.78 574.943 385.76 591.634C376.812 608.324 364.596 621.072 349.113 629.879C333.701 638.615 316.371 642.983 297.124 642.983C277.735 642.983 260.334 638.58 244.922 629.773C229.51 620.966 217.33 608.217 208.381 591.527C199.432 574.837 194.958 554.631 194.958 530.909C194.958 507.116 199.432 486.875 208.381 470.185C217.33 453.494 229.51 440.781 244.922 432.045C260.334 423.239 277.735 418.835 297.124 418.835C316.371 418.835 333.701 423.239 349.113 432.045C364.596 440.781 376.812 453.494 385.76 470.185C394.78 486.875 399.29 507.116 399.29 530.909ZM352.522 530.909C352.522 515.497 350.214 502.5 345.597 491.918C341.052 481.335 334.624 473.31 326.314 467.841C318.005 462.372 308.275 459.638 297.124 459.638C285.974 459.638 276.243 462.372 267.934 467.841C259.624 473.31 253.161 481.335 248.545 491.918C243.999 502.5 241.726 515.497 241.726 530.909C241.726 546.321 243.999 559.318 248.545 569.901C253.161 580.483 259.624 588.509 267.934 593.977C276.243 599.446 285.974 602.18 297.124 602.18C308.275 602.18 318.005 599.446 326.314 593.977C334.624 588.509 341.052 580.483 345.597 569.901C350.214 559.318 352.522 546.321 352.522 530.909ZM415.191 459.851V421.818H594.381V459.851H527.584V640H481.987V459.851H415.191ZM742.25 484.567C741.398 475.973 737.74 469.297 731.277 464.538C724.814 459.78 716.043 457.401 704.963 457.401C697.435 457.401 691.078 458.466 685.894 460.597C680.709 462.656 676.732 465.533 673.962 469.226C671.263 472.919 669.914 477.109 669.914 481.797C669.771 485.703 670.588 489.112 672.364 492.024C674.21 494.936 676.732 497.457 679.928 499.588C683.124 501.648 686.817 503.459 691.007 505.021C695.198 506.513 699.672 507.791 704.431 508.857L724.033 513.544C733.55 515.675 742.286 518.516 750.24 522.067C758.195 525.618 765.084 529.986 770.908 535.17C776.732 540.355 781.242 546.463 784.438 553.494C787.705 560.526 789.374 568.587 789.445 577.678C789.374 591.03 785.965 602.607 779.218 612.408C772.541 622.138 762.882 629.702 750.24 635.099C737.669 640.426 722.506 643.089 704.75 643.089C687.137 643.089 671.796 640.391 658.727 634.993C645.73 629.595 635.574 621.605 628.259 611.023C621.014 600.369 617.215 587.195 616.86 571.499H661.497C661.994 578.814 664.09 584.922 667.783 589.822C671.547 594.652 676.554 598.31 682.804 600.795C689.125 603.21 696.263 604.418 704.218 604.418C712.03 604.418 718.813 603.281 724.566 601.009C730.389 598.736 734.899 595.575 738.095 591.527C741.291 587.479 742.889 582.827 742.889 577.571C742.889 572.67 741.433 568.551 738.521 565.213C735.681 561.875 731.49 559.034 725.95 556.69C720.482 554.347 713.77 552.216 705.816 550.298L682.058 544.332C663.664 539.858 649.139 532.862 638.486 523.345C627.833 513.828 622.541 501.009 622.612 484.886C622.541 471.676 626.057 460.135 633.159 450.263C640.333 440.391 650.169 432.685 662.669 427.145C675.169 421.605 689.374 418.835 705.283 418.835C721.476 418.835 735.61 421.605 747.683 427.145C759.828 432.685 769.274 440.391 776.021 450.263C782.769 460.135 786.249 471.57 786.462 484.567H742.25Z"/>
</mask>
<path d="M334.487 0.636355L390.218 94.8267H392.377L448.379 0.636355H514.366L430.026 138.818L516.255 277H449.053L392.377 182.675H390.218L333.542 277H266.61L353.109 138.818L268.229 0.636355H334.487ZM0.453302 640V421.818H87.8113C103.862 421.818 117.25 424.197 127.975 428.956C138.699 433.714 146.76 440.32 152.158 448.771C157.556 457.152 160.254 466.811 160.254 477.749C160.254 486.271 158.55 493.764 155.141 500.227C151.732 506.619 147.044 511.875 141.078 515.994C135.183 520.043 128.436 522.919 120.837 524.624V526.754C129.146 527.109 136.923 529.453 144.168 533.786C151.483 538.118 157.414 544.19 161.959 552.003C166.504 559.744 168.777 568.977 168.777 579.702C168.777 591.278 165.901 601.612 160.148 610.703C154.466 619.723 146.05 626.861 134.899 632.116C123.749 637.372 110.006 640 93.6706 640H0.453302ZM46.5826 602.287H84.1891C97.0442 602.287 106.419 599.837 112.314 594.936C118.209 589.964 121.156 583.359 121.156 575.121C121.156 569.084 119.7 563.757 116.789 559.141C113.877 554.524 109.722 550.902 104.324 548.274C98.9973 545.646 92.6408 544.332 85.2544 544.332H46.5826V602.287ZM46.5826 513.118H80.78C87.101 513.118 92.7118 512.017 97.6124 509.815C102.584 507.543 106.49 504.347 109.331 500.227C112.243 496.108 113.699 491.172 113.699 485.419C113.699 477.536 110.894 471.179 105.283 466.349C99.7431 461.52 91.8596 459.105 81.6323 459.105H46.5826V513.118ZM399.29 530.909C399.29 554.702 394.78 574.943 385.76 591.634C376.812 608.324 364.596 621.072 349.113 629.879C333.701 638.615 316.371 642.983 297.124 642.983C277.735 642.983 260.334 638.58 244.922 629.773C229.51 620.966 217.33 608.217 208.381 591.527C199.432 574.837 194.958 554.631 194.958 530.909C194.958 507.116 199.432 486.875 208.381 470.185C217.33 453.494 229.51 440.781 244.922 432.045C260.334 423.239 277.735 418.835 297.124 418.835C316.371 418.835 333.701 423.239 349.113 432.045C364.596 440.781 376.812 453.494 385.76 470.185C394.78 486.875 399.29 507.116 399.29 530.909ZM352.522 530.909C352.522 515.497 350.214 502.5 345.597 491.918C341.052 481.335 334.624 473.31 326.314 467.841C318.005 462.372 308.275 459.638 297.124 459.638C285.974 459.638 276.243 462.372 267.934 467.841C259.624 473.31 253.161 481.335 248.545 491.918C243.999 502.5 241.726 515.497 241.726 530.909C241.726 546.321 243.999 559.318 248.545 569.901C253.161 580.483 259.624 588.509 267.934 593.977C276.243 599.446 285.974 602.18 297.124 602.18C308.275 602.18 318.005 599.446 326.314 593.977C334.624 588.509 341.052 580.483 345.597 569.901C350.214 559.318 352.522 546.321 352.522 530.909ZM415.191 459.851V421.818H594.381V459.851H527.584V640H481.987V459.851H415.191ZM742.25 484.567C741.398 475.973 737.74 469.297 731.277 464.538C724.814 459.78 716.043 457.401 704.963 457.401C697.435 457.401 691.078 458.466 685.894 460.597C680.709 462.656 676.732 465.533 673.962 469.226C671.263 472.919 669.914 477.109 669.914 481.797C669.771 485.703 670.588 489.112 672.364 492.024C674.21 494.936 676.732 497.457 679.928 499.588C683.124 501.648 686.817 503.459 691.007 505.021C695.198 506.513 699.672 507.791 704.431 508.857L724.033 513.544C733.55 515.675 742.286 518.516 750.24 522.067C758.195 525.618 765.084 529.986 770.908 535.17C776.732 540.355 781.242 546.463 784.438 553.494C787.705 560.526 789.374 568.587 789.445 577.678C789.374 591.03 785.965 602.607 779.218 612.408C772.541 622.138 762.882 629.702 750.24 635.099C737.669 640.426 722.506 643.089 704.75 643.089C687.137 643.089 671.796 640.391 658.727 634.993C645.73 629.595 635.574 621.605 628.259 611.023C621.014 600.369 617.215 587.195 616.86 571.499H661.497C661.994 578.814 664.09 584.922 667.783 589.822C671.547 594.652 676.554 598.31 682.804 600.795C689.125 603.21 696.263 604.418 704.218 604.418C712.03 604.418 718.813 603.281 724.566 601.009C730.389 598.736 734.899 595.575 738.095 591.527C741.291 587.479 742.889 582.827 742.889 577.571C742.889 572.67 741.433 568.551 738.521 565.213C735.681 561.875 731.49 559.034 725.95 556.69C720.482 554.347 713.77 552.216 705.816 550.298L682.058 544.332C663.664 539.858 649.139 532.862 638.486 523.345C627.833 513.828 622.541 501.009 622.612 484.886C622.541 471.676 626.057 460.135 633.159 450.263C640.333 440.391 650.169 432.685 662.669 427.145C675.169 421.605 689.374 418.835 705.283 418.835C721.476 418.835 735.61 421.605 747.683 427.145C759.828 432.685 769.274 440.391 776.021 450.263C782.769 460.135 786.249 471.57 786.462 484.567H742.25Z" fill="black"/>
<path d="M334.487 0.636355L337.068 -0.891328L336.197 -2.36364H334.487V0.636355ZM390.218 94.8267L387.636 96.3544L388.507 97.8267H390.218V94.8267ZM392.377 94.8267V97.8267H394.084L394.956 96.3598L392.377 94.8267ZM448.379 0.636355V-2.36364H446.672L445.8 -0.896797L448.379 0.636355ZM514.366 0.636355L516.926 2.19929L519.711 -2.36364H514.366V0.636355ZM430.026 138.818L427.466 137.255L426.501 138.836L427.481 140.406L430.026 138.818ZM516.255 277V280H521.663L518.8 275.412L516.255 277ZM449.053 277L446.482 278.545L447.356 280H449.053V277ZM392.377 182.675L394.949 181.13L394.074 179.675H392.377V182.675ZM390.218 182.675V179.675H388.521L387.647 181.13L390.218 182.675ZM333.542 277V280H335.239L336.113 278.545L333.542 277ZM266.61 277L264.067 275.408L261.193 280H266.61V277ZM353.109 138.818L355.652 140.41L356.639 138.833L355.665 137.248L353.109 138.818ZM268.229 0.636355V-2.36364H262.866L265.673 2.20656L268.229 0.636355ZM331.905 2.16404L387.636 96.3544L392.8 93.299L337.068 -0.891328L331.905 2.16404ZM390.218 97.8267H392.377V91.8267H390.218V97.8267ZM394.956 96.3598L450.957 2.16951L445.8 -0.896797L389.798 93.2935L394.956 96.3598ZM448.379 3.63636H514.366V-2.36364H448.379V3.63636ZM511.805 -0.926578L427.466 137.255L432.587 140.381L516.926 2.19929L511.805 -0.926578ZM427.481 140.406L513.71 278.588L518.8 275.412L432.571 137.23L427.481 140.406ZM516.255 274H449.053V280H516.255V274ZM451.625 275.455L394.949 181.13L389.806 184.22L446.482 278.545L451.625 275.455ZM392.377 179.675H390.218V185.675H392.377V179.675ZM387.647 181.13L330.97 275.455L336.113 278.545L392.79 184.22L387.647 181.13ZM333.542 274H266.61V280H333.542V274ZM269.153 278.592L355.652 140.41L350.566 137.226L264.067 275.408L269.153 278.592ZM355.665 137.248L270.786 -0.933847L265.673 2.20656L350.552 140.388L355.665 137.248ZM268.229 3.63636H334.487V-2.36364H268.229V3.63636ZM0.453302 640H-2.5467V643H0.453302V640ZM0.453302 421.818V418.818H-2.5467V421.818H0.453302ZM127.975 428.956L126.758 431.698L126.758 431.698L127.975 428.956ZM152.158 448.771L149.629 450.386L149.636 450.396L152.158 448.771ZM155.141 500.227L157.788 501.639L157.794 501.627L155.141 500.227ZM141.078 515.994L142.777 518.467L142.783 518.463L141.078 515.994ZM120.837 524.624L120.18 521.696L117.837 522.222V524.624H120.837ZM120.837 526.754H117.837V529.629L120.709 529.752L120.837 526.754ZM144.168 533.786L142.628 536.36L142.639 536.367L144.168 533.786ZM161.959 552.003L159.366 553.512L159.372 553.522L161.959 552.003ZM160.148 610.703L157.613 609.099L157.61 609.104L160.148 610.703ZM134.899 632.116L133.62 629.403L133.62 629.403L134.899 632.116ZM46.5826 602.287H43.5826V605.287H46.5826V602.287ZM112.314 594.936L114.232 597.243L114.24 597.236L114.248 597.229L112.314 594.936ZM116.789 559.141L114.251 560.741L114.251 560.741L116.789 559.141ZM104.324 548.274L102.997 550.965L103.004 550.968L103.011 550.971L104.324 548.274ZM46.5826 544.332V541.332H43.5826V544.332H46.5826ZM46.5826 513.118H43.5826V516.118H46.5826V513.118ZM97.6124 509.815L98.8418 512.552L98.8508 512.548L98.8597 512.544L97.6124 509.815ZM109.331 500.227L106.881 498.496L106.871 498.51L106.862 498.524L109.331 500.227ZM105.283 466.349L103.311 468.611L103.319 468.617L103.326 468.623L105.283 466.349ZM46.5826 459.105V456.105H43.5826V459.105H46.5826ZM3.4533 640V421.818H-2.5467V640H3.4533ZM0.453302 424.818H87.8113V418.818H0.453302V424.818ZM87.8113 424.818C103.588 424.818 116.53 427.16 126.758 431.698L129.191 426.214C117.97 421.235 104.136 418.818 87.8113 418.818V424.818ZM126.758 431.698C137.037 436.259 144.6 442.511 149.629 450.386L154.686 447.157C148.921 438.129 140.361 431.17 129.191 426.214L126.758 431.698ZM149.636 450.396C154.691 458.245 157.254 467.329 157.254 477.749H163.254C163.254 466.293 160.42 456.059 154.68 447.147L149.636 450.396ZM157.254 477.749C157.254 485.865 155.634 492.863 152.487 498.828L157.794 501.627C161.466 494.666 163.254 486.678 163.254 477.749H157.254ZM152.494 498.816C149.31 504.785 144.946 509.678 139.374 513.526L142.783 518.463C149.142 514.072 154.153 508.454 157.788 501.639L152.494 498.816ZM139.38 513.521C133.827 517.335 127.44 520.068 120.18 521.696L121.493 527.551C129.432 525.77 136.54 522.751 142.777 518.467L139.38 513.521ZM117.837 524.624V526.754H123.837V524.624H117.837ZM120.709 529.752C128.512 530.085 135.805 532.28 142.628 536.36L145.708 531.211C138.042 526.626 129.781 524.134 120.965 523.757L120.709 529.752ZM142.639 536.367C149.486 540.422 155.061 546.113 159.366 553.512L164.552 550.494C159.766 542.268 153.48 535.814 145.697 531.204L142.639 536.367ZM159.372 553.522C163.599 560.72 165.777 569.407 165.777 579.702H171.777C171.777 568.548 169.41 558.768 164.546 550.484L159.372 553.522ZM165.777 579.702C165.777 590.755 163.039 600.525 157.613 609.099L162.683 612.307C168.763 602.7 171.777 591.801 171.777 579.702H165.777ZM157.61 609.104C152.278 617.568 144.336 624.352 133.62 629.403L136.178 634.83C147.764 629.37 156.654 621.878 162.686 612.302L157.61 609.104ZM133.62 629.403C122.978 634.419 109.701 637 93.6706 637V643C110.311 643 124.52 640.325 136.178 634.83L133.62 629.403ZM93.6706 637H0.453302V643H93.6706V637ZM46.5826 605.287H84.1891V599.287H46.5826V605.287ZM84.1891 605.287C97.3089 605.287 107.538 602.808 114.232 597.243L110.396 592.629C105.3 596.866 96.7795 599.287 84.1891 599.287V605.287ZM114.248 597.229C120.87 591.645 124.156 584.175 124.156 575.121H118.156C118.156 582.544 115.548 588.284 110.38 592.643L114.248 597.229ZM124.156 575.121C124.156 568.579 122.572 562.686 119.326 557.54L114.251 560.741C116.829 564.829 118.156 569.588 118.156 575.121H124.156ZM119.326 557.54C116.087 552.405 111.485 548.424 105.637 545.577L103.011 550.971C107.958 553.38 111.667 556.644 114.251 560.741L119.326 557.54ZM105.651 545.584C99.8236 542.709 92.9915 541.332 85.2544 541.332V547.332C92.2901 547.332 98.1711 548.584 102.997 550.965L105.651 545.584ZM85.2544 541.332H46.5826V547.332H85.2544V541.332ZM43.5826 544.332V602.287H49.5826V544.332H43.5826ZM46.5826 516.118H80.78V510.118H46.5826V516.118ZM80.78 516.118C87.4509 516.118 93.4924 514.955 98.8418 512.552L96.383 507.079C91.9312 509.079 86.7512 510.118 80.78 510.118V516.118ZM98.8597 512.544C104.277 510.067 108.624 506.536 111.801 501.93L106.862 498.524C104.356 502.157 100.891 505.018 96.3651 507.087L98.8597 512.544ZM111.781 501.959C115.1 497.264 116.699 491.702 116.699 485.419H110.699C110.699 490.642 109.386 494.952 106.881 498.496L111.781 501.959ZM116.699 485.419C116.699 476.726 113.56 469.516 107.24 464.076L103.326 468.623C108.227 472.842 110.699 478.345 110.699 485.419H116.699ZM107.254 464.088C100.987 458.624 92.3014 456.105 81.6323 456.105V462.105C91.4177 462.105 98.499 464.415 103.311 468.611L107.254 464.088ZM81.6323 456.105H46.5826V462.105H81.6323V456.105ZM43.5826 459.105V513.118H49.5826V459.105H43.5826ZM385.76 591.634L383.121 590.207L383.117 590.216L385.76 591.634ZM349.113 629.879L350.592 632.489L350.596 632.487L349.113 629.879ZM244.922 629.773L246.411 627.168L244.922 629.773ZM208.381 591.527L205.737 592.945L205.737 592.945L208.381 591.527ZM208.381 470.185L211.025 471.602L211.025 471.602L208.381 470.185ZM244.922 432.045L246.402 434.655L246.411 434.65L244.922 432.045ZM349.113 432.045L347.624 434.65L347.631 434.654L347.639 434.658L349.113 432.045ZM385.76 470.185L383.117 471.602L383.121 471.611L385.76 470.185ZM345.597 491.918L342.841 493.102L342.844 493.109L342.847 493.117L345.597 491.918ZM326.314 467.841L324.665 470.347L324.665 470.347L326.314 467.841ZM267.934 467.841L269.583 470.347L269.583 470.347L267.934 467.841ZM248.545 491.918L245.795 490.718L245.791 490.726L245.788 490.734L248.545 491.918ZM248.545 569.901L245.788 571.085L245.791 571.092L245.795 571.1L248.545 569.901ZM267.934 593.977L269.583 591.471L269.583 591.471L267.934 593.977ZM326.314 593.977L324.665 591.471L324.665 591.471L326.314 593.977ZM345.597 569.901L342.847 568.701L342.844 568.709L342.841 568.717L345.597 569.901ZM396.29 530.909C396.29 554.328 391.852 574.053 383.121 590.207L388.4 593.06C397.709 575.834 402.29 555.075 402.29 530.909H396.29ZM383.117 590.216C374.417 606.441 362.59 618.762 347.629 627.272L350.596 632.487C366.602 623.383 379.206 610.207 388.404 593.051L383.117 590.216ZM347.633 627.269C332.711 635.728 315.899 639.983 297.124 639.983V645.983C316.844 645.983 334.691 641.502 350.592 632.489L347.633 627.269ZM297.124 639.983C278.207 639.983 261.328 635.692 246.411 627.168L243.434 632.377C259.34 641.467 277.262 645.983 297.124 645.983V639.983ZM246.411 627.168C231.521 618.659 219.726 606.338 211.025 590.109L205.737 592.945C214.934 610.097 227.5 623.272 243.434 632.377L246.411 627.168ZM211.025 590.109C202.362 573.952 197.958 554.259 197.958 530.909H191.958C191.958 555.003 196.503 575.722 205.737 592.945L211.025 590.109ZM197.958 530.909C197.958 507.487 202.362 487.759 211.025 471.602L205.737 468.767C196.502 485.991 191.958 506.746 191.958 530.909H197.958ZM211.025 471.602C219.726 455.375 231.517 443.092 246.402 434.655L243.443 429.436C227.504 438.47 214.935 451.613 205.737 468.767L211.025 471.602ZM246.411 434.65C261.328 426.126 278.207 421.835 297.124 421.835V415.835C277.262 415.835 259.34 420.351 243.434 429.441L246.411 434.65ZM297.124 421.835C315.895 421.835 332.704 426.124 347.624 434.65L350.601 429.441C334.698 420.353 316.848 415.835 297.124 415.835V421.835ZM347.639 434.658C362.593 443.096 374.418 455.379 383.117 471.602L388.404 468.767C379.205 451.61 366.598 438.466 350.587 429.433L347.639 434.658ZM383.121 471.611C391.852 487.766 396.29 507.49 396.29 530.909H402.29C402.29 506.743 397.709 485.984 388.4 468.758L383.121 471.611ZM355.522 530.909C355.522 515.215 353.174 501.783 348.347 490.718L342.847 493.117C347.253 503.217 349.522 515.779 349.522 530.909H355.522ZM348.354 490.734C343.614 479.699 336.838 471.175 327.964 465.335L324.665 470.347C332.411 475.444 338.489 482.972 342.841 493.102L348.354 490.734ZM327.964 465.335C319.107 459.506 308.788 456.638 297.124 456.638V462.638C307.762 462.638 316.903 465.238 324.665 470.347L327.964 465.335ZM297.124 456.638C285.461 456.638 275.142 459.506 266.285 465.335L269.583 470.347C277.345 465.238 286.486 462.638 297.124 462.638V456.638ZM266.285 465.335C257.415 471.172 250.606 479.69 245.795 490.718L251.294 493.117C255.716 482.98 261.833 475.447 269.583 470.347L266.285 465.335ZM245.788 490.734C241.038 501.794 238.726 515.22 238.726 530.909H244.726C244.726 515.774 246.961 503.206 251.301 493.102L245.788 490.734ZM238.726 530.909C238.726 546.598 241.038 560.025 245.788 571.085L251.301 568.717C246.961 558.612 244.726 546.044 244.726 530.909H238.726ZM245.795 571.1C250.606 582.128 257.415 590.646 266.285 596.483L269.583 591.471C261.833 586.371 255.716 578.838 251.294 568.701L245.795 571.1ZM266.285 596.483C275.142 602.312 285.461 605.18 297.124 605.18V599.18C286.486 599.18 277.345 596.58 269.583 591.471L266.285 596.483ZM297.124 605.18C308.788 605.18 319.107 602.312 327.964 596.483L324.665 591.471C316.903 596.58 307.762 599.18 297.124 599.18V605.18ZM327.964 596.483C336.838 590.643 343.614 582.119 348.354 571.085L342.841 568.717C338.489 578.847 332.411 586.374 324.665 591.471L327.964 596.483ZM348.347 571.1C353.174 560.035 355.522 546.603 355.522 530.909H349.522C349.522 546.039 347.253 558.601 342.847 568.701L348.347 571.1ZM415.191 459.851H412.191V462.851H415.191V459.851ZM415.191 421.818V418.818H412.191V421.818H415.191ZM594.381 421.818H597.381V418.818H594.381V421.818ZM594.381 459.851V462.851H597.381V459.851H594.381ZM527.584 459.851V456.851H524.584V459.851H527.584ZM527.584 640V643H530.584V640H527.584ZM481.987 640H478.987V643H481.987V640ZM481.987 459.851H484.987V456.851H481.987V459.851ZM418.191 459.851V421.818H412.191V459.851H418.191ZM415.191 424.818H594.381V418.818H415.191V424.818ZM591.381 421.818V459.851H597.381V421.818H591.381ZM594.381 456.851H527.584V462.851H594.381V456.851ZM524.584 459.851V640H530.584V459.851H524.584ZM527.584 637H481.987V643H527.584V637ZM484.987 640V459.851H478.987V640H484.987ZM481.987 456.851H415.191V462.851H481.987V456.851ZM742.25 484.567L739.265 484.863L739.533 487.567H742.25V484.567ZM685.894 460.597L687.001 463.385L687.018 463.378L687.034 463.371L685.894 460.597ZM673.962 469.226L671.562 467.426L671.551 467.441L671.54 467.456L673.962 469.226ZM669.914 481.797L672.912 481.906L672.914 481.851V481.797H669.914ZM672.364 492.024L669.802 493.586L669.816 493.608L669.83 493.631L672.364 492.024ZM679.928 499.588L678.264 502.084L678.283 502.097L678.303 502.11L679.928 499.588ZM691.007 505.021L689.959 507.832L689.98 507.84L690.001 507.848L691.007 505.021ZM704.431 508.857L705.128 505.939L705.107 505.934L705.086 505.929L704.431 508.857ZM724.033 513.544L723.335 516.462L723.356 516.467L723.377 516.472L724.033 513.544ZM750.24 522.067L749.017 524.806L749.017 524.806L750.24 522.067ZM770.908 535.17L772.903 532.93L772.903 532.93L770.908 535.17ZM784.438 553.494L781.707 554.736L781.712 554.747L781.717 554.758L784.438 553.494ZM789.445 577.678L792.445 577.694L792.445 577.674L792.445 577.654L789.445 577.678ZM779.218 612.408L776.746 610.707L776.744 610.71L779.218 612.408ZM750.24 635.099L751.411 637.862L751.418 637.858L750.24 635.099ZM658.727 634.993L657.577 637.763L657.582 637.766L658.727 634.993ZM628.259 611.023L625.778 612.71L625.784 612.719L625.791 612.729L628.259 611.023ZM616.86 571.499V568.499H613.791L613.86 571.566L616.86 571.499ZM661.497 571.499L664.49 571.295L664.3 568.499H661.497V571.499ZM667.783 589.822L665.387 591.628L665.402 591.647L665.417 591.667L667.783 589.822ZM682.804 600.795L681.695 603.583L681.714 603.591L681.734 603.598L682.804 600.795ZM724.566 601.009L723.475 598.214L723.463 598.218L724.566 601.009ZM738.095 591.527L740.45 593.386L740.45 593.386L738.095 591.527ZM738.521 565.213L736.237 567.157L736.249 567.171L736.261 567.185L738.521 565.213ZM725.95 556.69L724.769 559.448L724.782 559.453L725.95 556.69ZM705.816 550.298L705.085 553.208L705.099 553.211L705.112 553.215L705.816 550.298ZM682.058 544.332L682.789 541.423L682.778 541.42L682.767 541.417L682.058 544.332ZM638.486 523.345L636.487 525.582L636.487 525.582L638.486 523.345ZM622.612 484.886L625.612 484.9L625.612 484.885L625.612 484.87L622.612 484.886ZM633.159 450.263L630.732 448.499L630.728 448.505L630.724 448.511L633.159 450.263ZM747.683 427.145L746.432 429.872L746.438 429.874L747.683 427.145ZM776.021 450.263L773.545 451.956L773.545 451.956L776.021 450.263ZM786.462 484.567V487.567H789.511L789.461 484.518L786.462 484.567ZM745.236 484.271C744.307 474.904 740.26 467.426 733.056 462.123L729.498 466.954C735.221 471.167 738.489 477.042 739.265 484.863L745.236 484.271ZM733.056 462.123C725.914 456.864 716.444 454.401 704.963 454.401V460.401C715.641 460.401 723.714 462.696 729.498 466.954L733.056 462.123ZM704.963 454.401C697.17 454.401 690.401 455.501 684.753 457.822L687.034 463.371C691.756 461.431 697.7 460.401 704.963 460.401V454.401ZM684.786 457.809C679.195 460.03 674.726 463.206 671.562 467.426L676.362 471.026C678.737 467.859 682.223 465.283 687.001 463.385L684.786 457.809ZM671.54 467.456C668.455 471.676 666.914 476.49 666.914 481.797H672.914C672.914 477.729 674.07 474.162 676.384 470.996L671.54 467.456ZM666.916 481.688C666.755 486.094 667.678 490.101 669.802 493.586L674.925 490.462C673.499 488.123 672.788 485.313 672.912 481.906L666.916 481.688ZM669.83 493.631C671.926 496.935 674.759 499.748 678.264 502.084L681.592 497.092C678.705 495.167 676.495 492.937 674.897 490.418L669.83 493.631ZM678.303 502.11C681.708 504.305 685.601 506.207 689.959 507.832L692.055 502.21C688.033 500.71 684.539 498.991 681.553 497.066L678.303 502.11ZM690.001 507.848C694.317 509.384 698.909 510.695 703.775 511.784L705.086 505.929C700.435 504.888 696.079 503.642 692.013 502.195L690.001 507.848ZM703.733 511.774L723.335 516.462L724.731 510.626L705.128 505.939L703.733 511.774ZM723.377 516.472C732.722 518.564 741.265 521.345 749.017 524.806L751.463 519.327C743.306 515.686 734.378 512.786 724.688 510.616L723.377 516.472ZM749.017 524.806C756.723 528.246 763.345 532.454 768.913 537.411L772.903 532.93C766.823 527.518 759.667 522.99 751.463 519.327L749.017 524.806ZM768.913 537.411C774.428 542.32 778.685 548.089 781.707 554.736L787.169 552.253C783.798 544.837 779.036 538.39 772.903 532.93L768.913 537.411ZM781.717 554.758C784.775 561.339 786.377 568.966 786.445 577.701L792.445 577.654C792.371 568.208 790.635 559.712 787.158 552.23L781.717 554.758ZM786.445 577.662C786.377 590.488 783.111 601.461 776.746 610.707L781.689 614.109C788.818 603.752 792.371 591.572 792.445 577.694L786.445 577.662ZM776.744 610.71C770.44 619.898 761.268 627.129 749.062 632.34L751.418 637.858C764.496 632.275 774.643 624.378 781.691 614.105L776.744 610.71ZM749.07 632.337C736.962 637.468 722.219 640.089 704.75 640.089V646.089C722.793 646.089 738.376 643.385 751.411 637.862L749.07 632.337ZM704.75 640.089C687.436 640.089 672.5 637.436 659.873 632.22L657.582 637.766C671.091 643.345 686.837 646.089 704.75 646.089V640.089ZM659.878 632.222C647.361 627.024 637.684 619.381 630.726 609.317L625.791 612.729C633.465 623.829 644.099 632.166 657.577 637.763L659.878 632.222ZM630.739 609.336C623.885 599.256 620.204 586.676 619.859 571.431L613.86 571.566C614.226 587.714 618.143 601.482 625.778 612.71L630.739 609.336ZM616.86 574.499H661.497V568.499H616.86V574.499ZM658.504 571.702C659.033 579.483 661.28 586.179 665.387 591.628L670.179 588.017C666.899 583.665 664.956 578.145 664.49 571.295L658.504 571.702ZM665.417 591.667C669.54 596.958 675 600.92 681.695 603.583L683.913 598.008C678.108 595.699 673.554 592.346 670.149 587.978L665.417 591.667ZM681.734 603.598C688.451 606.164 695.96 607.418 704.218 607.418V601.418C696.566 601.418 689.8 600.256 683.875 597.993L681.734 603.598ZM704.218 607.418C712.312 607.418 719.485 606.241 725.668 603.799L723.463 598.218C718.14 600.321 711.748 601.418 704.218 601.418V607.418ZM725.656 603.803C731.872 601.378 736.86 597.934 740.45 593.386L735.741 589.668C732.939 593.217 728.907 596.094 723.475 598.214L725.656 603.803ZM740.45 593.386C744.073 588.797 745.889 583.487 745.889 577.571H739.889C739.889 582.166 738.51 586.16 735.741 589.668L740.45 593.386ZM745.889 577.571C745.889 572.028 744.223 567.185 740.782 563.241L736.261 567.185C738.644 569.917 739.889 573.313 739.889 577.571H745.889ZM740.806 563.269C737.571 559.467 732.938 556.389 727.119 553.927L724.782 559.453C730.042 561.679 733.79 564.283 736.237 567.157L740.806 563.269ZM727.132 553.933C721.463 551.503 714.581 549.325 706.519 547.382L705.112 553.215C712.959 555.106 719.5 557.19 724.769 559.448L727.132 553.933ZM706.546 547.389L682.789 541.423L681.328 547.242L705.085 553.208L706.546 547.389ZM682.767 541.417C664.702 537.023 650.67 530.207 640.485 521.108L636.487 525.582C647.608 535.517 662.625 542.693 681.349 547.247L682.767 541.417ZM640.485 521.108C630.558 512.24 625.545 500.286 625.612 484.9L619.612 484.873C619.538 501.731 625.107 515.416 636.487 525.582L640.485 521.108ZM625.612 484.87C625.544 472.237 628.895 461.327 635.595 452.015L630.724 448.511C623.219 458.943 619.538 471.116 619.612 484.902L625.612 484.87ZM635.586 452.026C642.413 442.631 651.808 435.24 663.885 429.888L661.454 424.402C648.53 430.13 638.252 438.15 630.732 448.499L635.586 452.026ZM663.885 429.888C675.944 424.543 689.725 421.835 705.283 421.835V415.835C689.023 415.835 674.394 418.667 661.454 424.402L663.885 429.888ZM705.283 421.835C721.137 421.835 734.827 424.547 746.432 429.872L748.934 424.418C736.392 418.663 721.815 415.835 705.283 415.835V421.835ZM746.438 429.874C758.145 435.214 767.141 442.586 773.545 451.956L778.498 448.57C771.408 438.195 761.511 430.155 748.928 424.415L746.438 429.874ZM773.545 451.956C779.932 461.301 783.258 472.153 783.462 484.616L789.461 484.518C789.24 470.987 785.606 458.969 778.498 448.57L773.545 451.956ZM786.462 481.567H742.25V487.567H786.462V481.567Z" fill="#404040" fill-opacity="0.5" mask="url(#path-1-outside-1_12_9)"/>
</svg>
