<svg width="570" height="609" viewBox="0 0 570 609" fill="none" xmlns="http://www.w3.org/2000/svg">
<g filter="url(#filter0_d_29_32)">
<g filter="url(#filter1_d_29_32)">
<mask id="path-1-outside-1_29_32" maskUnits="userSpaceOnUse" x="13" y="419" width="546" height="183" fill="black">
<rect fill="white" x="13" y="419" width="546" height="183"/>
<path d="M94.25 600.5C84.9167 600.5 77.0833 598.917 70.75 595.75C64.5833 592.583 59.5 588.583 55.5 583.75V591.75C55.5 593.583 54.8333 595.083 53.5 596.25C52.3333 597.417 50.9167 598 49.25 598H21C19.1667 598 17.6667 597.417 16.5 596.25C15.3333 595.083 14.75 593.583 14.75 591.75V426.75C14.75 424.917 15.3333 423.417 16.5 422.25C17.6667 421.083 19.1667 420.5 21 420.5H51.5C53.3333 420.5 54.8333 421.083 56 422.25C57.1667 423.417 57.75 424.917 57.75 426.75V480.25C61.75 475.917 66.75 472.417 72.75 469.75C78.9167 466.917 86.0833 465.5 94.25 465.5C102.583 465.5 109.917 466.917 116.25 469.75C122.75 472.417 128.25 476.333 132.75 481.5C137.25 486.667 140.75 492.833 143.25 500C145.75 507.167 147.167 515.25 147.5 524.25C147.667 527.417 147.75 530.333 147.75 533C147.75 535.5 147.667 538.417 147.5 541.75C147.167 551.083 145.667 559.417 143 566.75C140.5 573.917 137 580.083 132.5 585.25C128 590.25 122.583 594.083 116.25 596.75C109.917 599.25 102.583 600.5 94.25 600.5ZM80.75 567C86.4167 567 90.8333 565.833 94 563.5C97.1667 561.167 99.4167 558 100.75 554C102.25 550 103.167 545.583 103.5 540.75C103.833 535.583 103.833 530.417 103.5 525.25C103.167 520.417 102.25 516 100.75 512C99.4167 508 97.1667 504.833 94 502.5C90.8333 500.167 86.4167 499 80.75 499C75.5833 499 71.3333 500.167 68 502.5C64.6667 504.667 62.1667 507.583 60.5 511.25C58.8333 514.75 57.9167 518.583 57.75 522.75C57.5833 525.917 57.5 529 57.5 532C57.5 535 57.5833 538.167 57.75 541.5C57.9167 546 58.75 550.167 60.25 554C61.75 557.833 64.1667 561 67.5 563.5C70.8333 565.833 75.25 567 80.75 567ZM233.965 600.5C219.965 600.5 208.132 598.25 198.465 593.75C188.965 589.25 181.632 582.833 176.465 574.5C171.465 566 168.632 555.917 167.965 544.25C167.798 540.917 167.715 537.167 167.715 533C167.715 528.667 167.798 524.917 167.965 521.75C168.632 509.917 171.632 499.833 176.965 491.5C182.298 483.167 189.715 476.75 199.215 472.25C208.882 467.75 220.465 465.5 233.965 465.5C247.632 465.5 259.215 467.75 268.715 472.25C278.382 476.75 285.882 483.167 291.215 491.5C296.548 499.833 299.548 509.917 300.215 521.75C300.382 524.917 300.465 528.667 300.465 533C300.465 537.167 300.382 540.917 300.215 544.25C299.548 555.917 296.632 566 291.465 574.5C286.465 582.833 279.132 589.25 269.465 593.75C259.965 598.25 248.132 600.5 233.965 600.5ZM233.965 570C241.465 570 246.882 567.75 250.215 563.25C253.715 558.75 255.715 552 256.215 543C256.382 540.5 256.465 537.167 256.465 533C256.465 528.833 256.382 525.5 256.215 523C255.715 514.167 253.715 507.5 250.215 503C246.882 498.333 241.465 496 233.965 496C226.632 496 221.215 498.333 217.715 503C214.215 507.5 212.298 514.167 211.965 523C211.798 525.5 211.715 528.833 211.715 533C211.715 537.167 211.798 540.5 211.965 543C212.298 552 214.215 558.75 217.715 563.25C221.215 567.75 226.632 570 233.965 570ZM391.064 598C380.398 598 371.148 596.333 363.314 593C355.648 589.5 349.731 584.167 345.564 577C341.398 569.667 339.314 560.25 339.314 548.75V500.75H319.814C317.981 500.75 316.398 500.167 315.064 499C313.898 497.833 313.314 496.333 313.314 494.5V474.25C313.314 472.417 313.898 470.917 315.064 469.75C316.398 468.583 317.981 468 319.814 468H339.314V426.75C339.314 424.917 339.898 423.417 341.064 422.25C342.398 421.083 343.898 420.5 345.564 420.5H374.564C376.398 420.5 377.898 421.083 379.064 422.25C380.231 423.417 380.814 424.917 380.814 426.75V468H412.064C413.898 468 415.398 468.583 416.564 469.75C417.731 470.917 418.314 472.417 418.314 474.25V494.5C418.314 496.333 417.731 497.833 416.564 499C415.398 500.167 413.898 500.75 412.064 500.75H380.814V545.25C380.814 550.917 381.898 555.417 384.064 558.75C386.231 562.083 389.898 563.75 395.064 563.75H414.314C416.148 563.75 417.648 564.333 418.814 565.5C419.981 566.667 420.564 568.167 420.564 570V591.75C420.564 593.583 419.981 595.083 418.814 596.25C417.648 597.417 416.148 598 414.314 598H391.064ZM494.764 600.5C483.93 600.5 474.68 599.333 467.014 597C459.514 594.5 453.347 591.5 448.514 588C443.847 584.5 440.347 580.917 438.014 577.25C435.68 573.417 434.43 570.167 434.264 567.5C434.097 565.667 434.68 564.167 436.014 563C437.347 561.667 438.764 561 440.264 561H468.764C469.264 561 469.68 561.083 470.014 561.25C470.347 561.417 470.847 561.75 471.514 562.25C473.68 563.417 475.847 564.917 478.014 566.75C480.18 568.417 482.68 569.917 485.514 571.25C488.347 572.583 491.764 573.25 495.764 573.25C500.43 573.25 504.347 572.333 507.514 570.5C510.68 568.667 512.264 565.917 512.264 562.25C512.264 559.583 511.514 557.417 510.014 555.75C508.514 553.917 505.43 552.167 500.764 550.5C496.264 548.833 489.43 547.167 480.264 545.5C471.597 543.5 464.014 540.917 457.514 537.75C451.014 534.417 446.014 530.167 442.514 525C439.014 519.667 437.264 513.25 437.264 505.75C437.264 499.083 439.43 492.667 443.764 486.5C448.097 480.333 454.43 475.333 462.764 471.5C471.097 467.5 481.347 465.5 493.514 465.5C503.18 465.5 511.514 466.667 518.514 469C525.68 471.167 531.68 474 536.514 477.5C541.514 481 545.264 484.583 547.764 488.25C550.264 491.917 551.597 495.25 551.764 498.25C551.93 499.917 551.43 501.417 550.264 502.75C549.097 503.917 547.764 504.5 546.264 504.5H520.264C519.597 504.5 518.93 504.417 518.264 504.25C517.597 503.917 517.014 503.583 516.514 503.25C514.514 502.25 512.514 500.917 510.514 499.25C508.514 497.583 506.18 496.083 503.514 494.75C500.847 493.417 497.514 492.75 493.514 492.75C489.014 492.75 485.514 493.75 483.014 495.75C480.514 497.75 479.264 500.333 479.264 503.5C479.264 505.667 479.93 507.667 481.264 509.5C482.764 511.333 485.68 513 490.014 514.5C494.514 516 501.43 517.667 510.764 519.5C522.264 521.333 531.43 524.333 538.264 528.5C545.097 532.5 549.93 537.25 552.764 542.75C555.597 548.083 557.014 553.75 557.014 559.75C557.014 567.75 554.597 574.833 549.764 581C545.097 587.167 538.097 592 528.764 595.5C519.43 598.833 508.097 600.5 494.764 600.5Z"/>
</mask>
<path d="M94.25 600.5C84.9167 600.5 77.0833 598.917 70.75 595.75C64.5833 592.583 59.5 588.583 55.5 583.75V591.75C55.5 593.583 54.8333 595.083 53.5 596.25C52.3333 597.417 50.9167 598 49.25 598H21C19.1667 598 17.6667 597.417 16.5 596.25C15.3333 595.083 14.75 593.583 14.75 591.75V426.75C14.75 424.917 15.3333 423.417 16.5 422.25C17.6667 421.083 19.1667 420.5 21 420.5H51.5C53.3333 420.5 54.8333 421.083 56 422.25C57.1667 423.417 57.75 424.917 57.75 426.75V480.25C61.75 475.917 66.75 472.417 72.75 469.75C78.9167 466.917 86.0833 465.5 94.25 465.5C102.583 465.5 109.917 466.917 116.25 469.75C122.75 472.417 128.25 476.333 132.75 481.5C137.25 486.667 140.75 492.833 143.25 500C145.75 507.167 147.167 515.25 147.5 524.25C147.667 527.417 147.75 530.333 147.75 533C147.75 535.5 147.667 538.417 147.5 541.75C147.167 551.083 145.667 559.417 143 566.75C140.5 573.917 137 580.083 132.5 585.25C128 590.25 122.583 594.083 116.25 596.75C109.917 599.25 102.583 600.5 94.25 600.5ZM80.75 567C86.4167 567 90.8333 565.833 94 563.5C97.1667 561.167 99.4167 558 100.75 554C102.25 550 103.167 545.583 103.5 540.75C103.833 535.583 103.833 530.417 103.5 525.25C103.167 520.417 102.25 516 100.75 512C99.4167 508 97.1667 504.833 94 502.5C90.8333 500.167 86.4167 499 80.75 499C75.5833 499 71.3333 500.167 68 502.5C64.6667 504.667 62.1667 507.583 60.5 511.25C58.8333 514.75 57.9167 518.583 57.75 522.75C57.5833 525.917 57.5 529 57.5 532C57.5 535 57.5833 538.167 57.75 541.5C57.9167 546 58.75 550.167 60.25 554C61.75 557.833 64.1667 561 67.5 563.5C70.8333 565.833 75.25 567 80.75 567ZM233.965 600.5C219.965 600.5 208.132 598.25 198.465 593.75C188.965 589.25 181.632 582.833 176.465 574.5C171.465 566 168.632 555.917 167.965 544.25C167.798 540.917 167.715 537.167 167.715 533C167.715 528.667 167.798 524.917 167.965 521.75C168.632 509.917 171.632 499.833 176.965 491.5C182.298 483.167 189.715 476.75 199.215 472.25C208.882 467.75 220.465 465.5 233.965 465.5C247.632 465.5 259.215 467.75 268.715 472.25C278.382 476.75 285.882 483.167 291.215 491.5C296.548 499.833 299.548 509.917 300.215 521.75C300.382 524.917 300.465 528.667 300.465 533C300.465 537.167 300.382 540.917 300.215 544.25C299.548 555.917 296.632 566 291.465 574.5C286.465 582.833 279.132 589.25 269.465 593.75C259.965 598.25 248.132 600.5 233.965 600.5ZM233.965 570C241.465 570 246.882 567.75 250.215 563.25C253.715 558.75 255.715 552 256.215 543C256.382 540.5 256.465 537.167 256.465 533C256.465 528.833 256.382 525.5 256.215 523C255.715 514.167 253.715 507.5 250.215 503C246.882 498.333 241.465 496 233.965 496C226.632 496 221.215 498.333 217.715 503C214.215 507.5 212.298 514.167 211.965 523C211.798 525.5 211.715 528.833 211.715 533C211.715 537.167 211.798 540.5 211.965 543C212.298 552 214.215 558.75 217.715 563.25C221.215 567.75 226.632 570 233.965 570ZM391.064 598C380.398 598 371.148 596.333 363.314 593C355.648 589.5 349.731 584.167 345.564 577C341.398 569.667 339.314 560.25 339.314 548.75V500.75H319.814C317.981 500.75 316.398 500.167 315.064 499C313.898 497.833 313.314 496.333 313.314 494.5V474.25C313.314 472.417 313.898 470.917 315.064 469.75C316.398 468.583 317.981 468 319.814 468H339.314V426.75C339.314 424.917 339.898 423.417 341.064 422.25C342.398 421.083 343.898 420.5 345.564 420.5H374.564C376.398 420.5 377.898 421.083 379.064 422.25C380.231 423.417 380.814 424.917 380.814 426.75V468H412.064C413.898 468 415.398 468.583 416.564 469.75C417.731 470.917 418.314 472.417 418.314 474.25V494.5C418.314 496.333 417.731 497.833 416.564 499C415.398 500.167 413.898 500.75 412.064 500.75H380.814V545.25C380.814 550.917 381.898 555.417 384.064 558.75C386.231 562.083 389.898 563.75 395.064 563.75H414.314C416.148 563.75 417.648 564.333 418.814 565.5C419.981 566.667 420.564 568.167 420.564 570V591.75C420.564 593.583 419.981 595.083 418.814 596.25C417.648 597.417 416.148 598 414.314 598H391.064ZM494.764 600.5C483.93 600.5 474.68 599.333 467.014 597C459.514 594.5 453.347 591.5 448.514 588C443.847 584.5 440.347 580.917 438.014 577.25C435.68 573.417 434.43 570.167 434.264 567.5C434.097 565.667 434.68 564.167 436.014 563C437.347 561.667 438.764 561 440.264 561H468.764C469.264 561 469.68 561.083 470.014 561.25C470.347 561.417 470.847 561.75 471.514 562.25C473.68 563.417 475.847 564.917 478.014 566.75C480.18 568.417 482.68 569.917 485.514 571.25C488.347 572.583 491.764 573.25 495.764 573.25C500.43 573.25 504.347 572.333 507.514 570.5C510.68 568.667 512.264 565.917 512.264 562.25C512.264 559.583 511.514 557.417 510.014 555.75C508.514 553.917 505.43 552.167 500.764 550.5C496.264 548.833 489.43 547.167 480.264 545.5C471.597 543.5 464.014 540.917 457.514 537.75C451.014 534.417 446.014 530.167 442.514 525C439.014 519.667 437.264 513.25 437.264 505.75C437.264 499.083 439.43 492.667 443.764 486.5C448.097 480.333 454.43 475.333 462.764 471.5C471.097 467.5 481.347 465.5 493.514 465.5C503.18 465.5 511.514 466.667 518.514 469C525.68 471.167 531.68 474 536.514 477.5C541.514 481 545.264 484.583 547.764 488.25C550.264 491.917 551.597 495.25 551.764 498.25C551.93 499.917 551.43 501.417 550.264 502.75C549.097 503.917 547.764 504.5 546.264 504.5H520.264C519.597 504.5 518.93 504.417 518.264 504.25C517.597 503.917 517.014 503.583 516.514 503.25C514.514 502.25 512.514 500.917 510.514 499.25C508.514 497.583 506.18 496.083 503.514 494.75C500.847 493.417 497.514 492.75 493.514 492.75C489.014 492.75 485.514 493.75 483.014 495.75C480.514 497.75 479.264 500.333 479.264 503.5C479.264 505.667 479.93 507.667 481.264 509.5C482.764 511.333 485.68 513 490.014 514.5C494.514 516 501.43 517.667 510.764 519.5C522.264 521.333 531.43 524.333 538.264 528.5C545.097 532.5 549.93 537.25 552.764 542.75C555.597 548.083 557.014 553.75 557.014 559.75C557.014 567.75 554.597 574.833 549.764 581C545.097 587.167 538.097 592 528.764 595.5C519.43 598.833 508.097 600.5 494.764 600.5Z" fill="black" shape-rendering="crispEdges"/>
<path d="M70.75 595.75L70.2932 596.64L70.3028 596.644L70.75 595.75ZM55.5 583.75L56.2704 583.112L54.5 580.973V583.75H55.5ZM53.5 596.25L52.8415 595.497L52.8164 595.519L52.7929 595.543L53.5 596.25ZM16.5 596.25L15.7929 596.957H15.7929L16.5 596.25ZM16.5 422.25L17.2071 422.957L17.2071 422.957L16.5 422.25ZM56 422.25L55.2929 422.957L55.2929 422.957L56 422.25ZM57.75 480.25H56.75V482.808L58.4848 480.928L57.75 480.25ZM72.75 469.75L73.1562 470.664L73.1675 470.659L72.75 469.75ZM116.25 469.75L115.842 470.663L115.856 470.669L115.87 470.675L116.25 469.75ZM147.5 524.25L146.501 524.287L146.501 524.295L146.501 524.303L147.5 524.25ZM147.5 541.75L146.501 541.7L146.501 541.707L146.501 541.714L147.5 541.75ZM143 566.75L142.06 566.408L142.056 566.421L143 566.75ZM132.5 585.25L133.243 585.919L133.249 585.913L133.254 585.907L132.5 585.25ZM116.25 596.75L116.617 597.68L116.628 597.676L116.638 597.672L116.25 596.75ZM94 563.5L93.4068 562.695L94 563.5ZM100.75 554L99.8137 553.649L99.8072 553.666L99.8013 553.684L100.75 554ZM103.5 540.75L104.498 540.819L104.498 540.814L103.5 540.75ZM103.5 525.25L104.498 525.186L104.498 525.181L103.5 525.25ZM100.75 512L99.8013 512.316L99.8072 512.334L99.8137 512.351L100.75 512ZM68 502.5L68.545 503.338L68.5594 503.329L68.5735 503.319L68 502.5ZM60.5 511.25L61.4029 511.68L61.4067 511.672L61.4104 511.664L60.5 511.25ZM57.75 522.75L58.7487 522.803L58.7492 522.79L57.75 522.75ZM57.75 541.5L58.7494 541.463L58.7488 541.45L57.75 541.5ZM60.25 554L61.1812 553.636H61.1812L60.25 554ZM67.5 563.5L66.9 564.3L66.9131 564.31L66.9265 564.319L67.5 563.5ZM94.25 599.5C85.0245 599.5 77.3547 597.934 71.1972 594.856L70.3028 596.644C76.8119 599.899 84.8088 601.5 94.25 601.5V599.5ZM71.2068 594.86C65.148 591.749 60.1754 587.831 56.2704 583.112L54.7296 584.388C58.8246 589.336 64.0187 593.418 70.2932 596.64L71.2068 594.86ZM54.5 583.75V591.75H56.5V583.75H54.5ZM54.5 591.75C54.5 593.306 53.9493 594.528 52.8415 595.497L54.1585 597.003C55.7173 595.639 56.5 593.86 56.5 591.75H54.5ZM52.7929 595.543C51.8159 596.52 50.6545 597 49.25 597V599C51.1789 599 52.8508 598.313 54.2071 596.957L52.7929 595.543ZM49.25 597H21V599H49.25V597ZM21 597C19.3996 597 18.1646 596.5 17.2071 595.543L15.7929 596.957C17.1688 598.333 18.9338 599 21 599V597ZM17.2071 595.543C16.2496 594.585 15.75 593.35 15.75 591.75H13.75C13.75 593.816 14.417 595.581 15.7929 596.957L17.2071 595.543ZM15.75 591.75V426.75H13.75V591.75H15.75ZM15.75 426.75C15.75 425.15 16.2496 423.915 17.2071 422.957L15.7929 421.543C14.417 422.919 13.75 424.684 13.75 426.75H15.75ZM17.2071 422.957C18.1646 422 19.3996 421.5 21 421.5V419.5C18.9338 419.5 17.1688 420.167 15.7929 421.543L17.2071 422.957ZM21 421.5H51.5V419.5H21V421.5ZM51.5 421.5C53.1004 421.5 54.3354 422 55.2929 422.957L56.7071 421.543C55.3312 420.167 53.5663 419.5 51.5 419.5V421.5ZM55.2929 422.957C56.2504 423.915 56.75 425.15 56.75 426.75H58.75C58.75 424.684 58.083 422.919 56.7071 421.543L55.2929 422.957ZM56.75 426.75V480.25H58.75V426.75H56.75ZM58.4848 480.928C62.3825 476.706 67.2664 473.281 73.1561 470.664L72.3439 468.836C66.2336 471.552 61.1175 475.128 57.0152 479.572L58.4848 480.928ZM73.1675 470.659C79.1793 467.896 86.1986 466.5 94.25 466.5V464.5C85.968 464.5 78.654 465.937 72.3325 468.841L73.1675 470.659ZM94.25 466.5C102.47 466.5 109.66 467.897 115.842 470.663L116.658 468.837C110.173 465.936 102.696 464.5 94.25 464.5V466.5ZM115.87 470.675C122.23 473.284 127.601 477.111 131.996 482.157L133.504 480.843C128.899 475.556 123.27 471.549 116.63 468.825L115.87 470.675ZM131.996 482.157C136.404 487.218 139.843 493.27 142.306 500.329L144.194 499.671C141.657 492.397 138.096 486.116 133.504 480.843L131.996 482.157ZM142.306 500.329C144.768 507.386 146.17 515.369 146.501 524.287L148.499 524.213C148.163 515.131 146.732 506.947 144.194 499.671L142.306 500.329ZM146.501 524.303C146.667 527.455 146.75 530.354 146.75 533H148.75C148.75 530.313 148.666 527.378 148.499 524.197L146.501 524.303ZM146.75 533C146.75 535.479 146.667 538.378 146.501 541.7L148.499 541.8C148.666 538.455 148.75 535.521 148.75 533H146.75ZM146.501 541.714C146.17 550.963 144.685 559.19 142.06 566.408L143.94 567.092C146.648 559.643 148.163 551.204 148.499 541.786L146.501 541.714ZM142.056 566.421C139.593 573.48 136.154 579.532 131.746 584.593L133.254 585.907C137.846 580.634 141.407 574.353 143.944 567.079L142.056 566.421ZM131.757 584.581C127.357 589.469 122.063 593.218 115.862 595.828L116.638 597.672C123.104 594.949 128.643 591.031 133.243 585.919L131.757 584.581ZM115.883 595.82C109.689 598.265 102.485 599.5 94.25 599.5V601.5C102.682 601.5 110.144 600.235 116.617 597.68L115.883 595.82ZM80.75 568C86.5395 568 91.1938 566.81 94.5932 564.305L93.4068 562.695C90.4729 564.857 86.2938 566 80.75 566V568ZM94.5932 564.305C97.9381 561.84 100.305 558.497 101.699 554.316L99.8013 553.684C98.5283 557.503 96.3952 560.493 93.4068 562.695L94.5932 564.305ZM101.686 554.351C103.225 550.249 104.159 545.736 104.498 540.819L102.502 540.681C102.175 545.431 101.275 549.751 99.8137 553.649L101.686 554.351ZM104.498 540.814C104.834 535.605 104.834 530.395 104.498 525.186L102.502 525.314C102.833 530.438 102.833 535.562 102.502 540.686L104.498 540.814ZM104.498 525.181C104.159 520.264 103.225 515.751 101.686 511.649L99.8137 512.351C101.275 516.249 102.175 520.569 102.502 525.319L104.498 525.181ZM101.699 511.684C100.305 507.503 97.9381 504.16 94.5932 501.695L93.4068 503.305C96.3952 505.507 98.5283 508.497 99.8013 512.316L101.699 511.684ZM94.5932 501.695C91.1938 499.19 86.5395 498 80.75 498V500C86.2938 500 90.4729 501.143 93.4068 503.305L94.5932 501.695ZM80.75 498C75.4336 498 70.9683 499.202 67.4265 501.681L68.5735 503.319C71.6984 501.132 75.7331 500 80.75 500V498ZM67.455 501.662C63.9597 503.933 61.3341 506.998 59.5896 510.836L61.4104 511.664C62.9993 508.168 65.3736 505.4 68.545 503.338L67.455 501.662ZM59.5971 510.82C57.868 514.451 56.9225 518.419 56.7508 522.71L58.7492 522.79C58.9109 518.748 59.7986 515.049 61.4029 511.68L59.5971 510.82ZM56.7514 522.697C56.5838 525.881 56.5 528.982 56.5 532H58.5C58.5 529.018 58.5828 525.953 58.7486 522.803L56.7514 522.697ZM56.5 532C56.5 535.018 56.5838 538.202 56.7512 541.55L58.7488 541.45C58.5828 538.132 58.5 534.982 58.5 532H56.5ZM56.7507 541.537C56.9211 546.139 57.7742 550.417 59.3188 554.364L61.1812 553.636C59.7258 549.916 58.9122 545.861 58.7493 541.463L56.7507 541.537ZM59.3188 554.364C60.8874 558.373 63.4198 561.69 66.9 564.3L68.1 562.7C64.9135 560.31 62.6126 557.294 61.1812 553.636L59.3188 554.364ZM66.9265 564.319C70.4779 566.805 75.1156 568 80.75 568V566C75.3844 566 71.1888 564.862 68.0735 562.681L66.9265 564.319ZM198.465 593.75L198.037 594.654L198.043 594.657L198.465 593.75ZM176.465 574.5L175.603 575.007L175.609 575.017L175.615 575.027L176.465 574.5ZM167.965 544.25L166.966 544.3L166.966 544.307L167.965 544.25ZM167.965 521.75L166.966 521.694L166.966 521.697L167.965 521.75ZM176.965 491.5L176.123 490.961L176.965 491.5ZM199.215 472.25L198.793 471.343L198.787 471.346L199.215 472.25ZM268.715 472.25L268.287 473.154L268.293 473.157L268.715 472.25ZM291.215 491.5L292.057 490.961L291.215 491.5ZM300.215 521.75L301.213 521.697L301.213 521.694L300.215 521.75ZM300.215 544.25L301.213 544.307L301.214 544.3L300.215 544.25ZM291.465 574.5L290.61 573.981L290.607 573.986L291.465 574.5ZM269.465 593.75L269.043 592.843L269.037 592.846L269.465 593.75ZM250.215 563.25L249.425 562.636L249.418 562.645L249.411 562.655L250.215 563.25ZM256.215 543L255.217 542.933L255.216 542.945L256.215 543ZM256.215 523L255.216 523.057L255.217 523.067L256.215 523ZM250.215 503L249.401 503.581L249.413 503.598L249.425 503.614L250.215 503ZM217.715 503L218.504 503.614L218.51 503.607L218.515 503.6L217.715 503ZM211.965 523L212.963 523.067L212.964 523.052L212.964 523.038L211.965 523ZM211.965 543L212.964 542.963L212.964 542.948L212.963 542.933L211.965 543ZM217.715 563.25L218.504 562.636L217.715 563.25ZM233.965 599.5C220.067 599.5 208.387 597.266 198.887 592.843L198.043 594.657C207.876 599.234 219.863 601.5 233.965 601.5V599.5ZM198.893 592.846C189.554 588.422 182.373 582.131 177.315 573.973L175.615 575.027C180.89 583.536 188.376 590.078 198.037 594.654L198.893 592.846ZM177.327 573.993C172.421 565.653 169.622 555.73 168.963 544.193L166.966 544.307C167.641 556.103 170.509 566.347 175.603 575.007L177.327 573.993ZM168.964 544.2C168.798 540.887 168.715 537.154 168.715 533H166.715C166.715 537.179 166.798 540.946 166.966 544.3L168.964 544.2ZM168.715 533C168.715 528.678 168.798 524.947 168.963 521.803L166.966 521.697C166.798 524.887 166.715 528.655 166.715 533H168.715ZM168.963 521.806C169.622 510.111 172.583 500.201 177.807 492.039L176.123 490.961C170.68 499.465 167.641 509.723 166.966 521.694L168.963 521.806ZM177.807 492.039C183.033 483.874 190.301 477.579 199.643 473.154L198.787 471.346C189.128 475.921 181.563 482.46 176.123 490.961L177.807 492.039ZM199.637 473.157C209.141 468.732 220.573 466.5 233.965 466.5V464.5C220.357 464.5 208.622 466.768 198.793 471.343L199.637 473.157ZM233.965 466.5C247.526 466.5 258.954 468.733 268.287 473.154L269.143 471.346C259.475 466.767 247.737 464.5 233.965 464.5V466.5ZM268.293 473.157C277.801 477.583 285.15 483.878 290.373 492.039L292.057 490.961C286.613 482.455 278.962 475.917 269.137 471.343L268.293 473.157ZM290.373 492.039C295.596 500.201 298.558 510.111 299.216 521.806L301.213 521.694C300.539 509.723 297.5 499.465 292.057 490.961L290.373 492.039ZM299.216 521.803C299.382 524.947 299.465 528.678 299.465 533H301.465C301.465 528.655 301.381 524.887 301.213 521.697L299.216 521.803ZM299.465 533C299.465 537.154 299.382 540.887 299.216 544.2L301.214 544.3C301.381 540.946 301.465 537.179 301.465 533H299.465ZM299.216 544.193C298.558 555.725 295.678 565.643 290.61 573.981L292.319 575.019C297.585 566.357 300.539 556.109 301.213 544.307L299.216 544.193ZM290.607 573.986C285.72 582.131 278.547 588.419 269.043 592.843L269.887 594.657C279.716 590.081 287.21 583.536 292.322 575.014L290.607 573.986ZM269.037 592.846C259.709 597.265 248.032 599.5 233.965 599.5V601.5C248.231 601.5 260.221 599.235 269.893 594.654L269.037 592.846ZM233.965 571C241.665 571 247.436 568.681 251.018 563.845L249.411 562.655C246.327 566.819 241.265 569 233.965 569V571ZM251.004 563.864C254.682 559.135 256.708 552.15 257.213 543.055L255.216 542.945C254.722 551.85 252.747 558.365 249.425 562.636L251.004 563.864ZM257.213 543.067C257.381 540.535 257.465 537.176 257.465 533H255.465C255.465 537.157 255.382 540.465 255.217 542.933L257.213 543.067ZM257.465 533C257.465 528.824 257.381 525.465 257.213 522.933L255.217 523.067C255.382 525.535 255.465 528.843 255.465 533H257.465ZM257.213 522.943C256.708 514.011 254.68 507.112 251.004 502.386L249.425 503.614C252.749 507.887 254.722 514.322 255.216 523.057L257.213 522.943ZM251.029 502.419C247.452 497.411 241.678 495 233.965 495V497C241.251 497 246.311 499.255 249.401 503.581L251.029 502.419ZM233.965 495C226.406 495 220.652 497.418 216.915 502.4L218.515 503.6C221.778 499.249 226.857 497 233.965 497V495ZM216.925 502.386C213.244 507.12 211.303 514.027 210.966 522.962L212.964 523.038C213.294 514.306 215.186 507.88 218.504 503.614L216.925 502.386ZM210.967 522.933C210.798 525.465 210.715 528.824 210.715 533H212.715C212.715 528.843 212.798 525.535 212.963 523.067L210.967 522.933ZM210.715 533C210.715 537.176 210.798 540.535 210.967 543.067L212.963 542.933C212.798 540.465 212.715 537.157 212.715 533H210.715ZM210.966 543.037C211.302 552.134 213.242 559.127 216.925 563.864L218.504 562.636C215.188 558.373 213.294 551.866 212.964 542.963L210.966 543.037ZM216.925 563.864C220.667 568.675 226.419 571 233.965 571V569C226.844 569 221.763 566.825 218.504 562.636L216.925 563.864ZM363.314 593L362.899 593.91L362.911 593.915L362.923 593.92L363.314 593ZM345.564 577L344.695 577.494L344.7 577.503L345.564 577ZM339.314 500.75H340.314V499.75H339.314V500.75ZM315.064 499L314.357 499.707L314.381 499.731L314.406 499.753L315.064 499ZM315.064 469.75L314.406 468.997L314.381 469.019L314.357 469.043L315.064 469.75ZM339.314 468V469H340.314V468H339.314ZM341.064 422.25L340.406 421.497L340.381 421.519L340.357 421.543L341.064 422.25ZM379.064 422.25L378.357 422.957V422.957L379.064 422.25ZM380.814 468H379.814V469H380.814V468ZM416.564 469.75L415.857 470.457V470.457L416.564 469.75ZM380.814 500.75V499.75H379.814V500.75H380.814ZM384.064 558.75L384.903 558.205L384.064 558.75ZM418.814 565.5L419.522 564.793L418.814 565.5ZM391.064 597C380.499 597 371.388 595.349 363.706 592.08L362.923 593.92C370.907 597.318 380.296 599 391.064 599V597ZM363.73 592.09C356.248 588.675 350.49 583.482 346.429 576.497L344.7 577.503C348.972 584.851 355.048 590.325 362.899 593.91L363.73 592.09ZM346.434 576.506C342.378 569.368 340.314 560.137 340.314 548.75H338.314C338.314 560.363 340.417 569.965 344.695 577.494L346.434 576.506ZM340.314 548.75V500.75H338.314V548.75H340.314ZM339.314 499.75H319.814V501.75H339.314V499.75ZM319.814 499.75C318.214 499.75 316.867 499.249 315.723 498.247L314.406 499.753C315.928 501.085 317.748 501.75 319.814 501.75V499.75ZM315.772 498.293C314.814 497.335 314.314 496.1 314.314 494.5H312.314C312.314 496.566 312.981 498.331 314.357 499.707L315.772 498.293ZM314.314 494.5V474.25H312.314V494.5H314.314ZM314.314 474.25C314.314 472.65 314.814 471.415 315.772 470.457L314.357 469.043C312.981 470.419 312.314 472.184 312.314 474.25H314.314ZM315.723 470.503C316.867 469.501 318.214 469 319.814 469V467C317.748 467 315.928 467.665 314.406 468.997L315.723 470.503ZM319.814 469H339.314V467H319.814V469ZM340.314 468V426.75H338.314V468H340.314ZM340.314 426.75C340.314 425.15 340.814 423.915 341.772 422.957L340.357 421.543C338.981 422.919 338.314 424.684 338.314 426.75H340.314ZM341.723 423.003C342.887 421.984 344.156 421.5 345.564 421.5V419.5C343.639 419.5 341.909 420.182 340.406 421.497L341.723 423.003ZM345.564 421.5H374.564V419.5H345.564V421.5ZM374.564 421.5C376.165 421.5 377.4 422 378.357 422.957L379.772 421.543C378.396 420.167 376.631 419.5 374.564 419.5V421.5ZM378.357 422.957C379.315 423.915 379.814 425.15 379.814 426.75H381.814C381.814 424.684 381.147 422.919 379.772 421.543L378.357 422.957ZM379.814 426.75V468H381.814V426.75H379.814ZM380.814 469H412.064V467H380.814V469ZM412.064 469C413.665 469 414.9 469.5 415.857 470.457L417.272 469.043C415.896 467.667 414.131 467 412.064 467V469ZM415.857 470.457C416.815 471.415 417.314 472.65 417.314 474.25H419.314C419.314 472.184 418.647 470.419 417.272 469.043L415.857 470.457ZM417.314 474.25V494.5H419.314V474.25H417.314ZM417.314 494.5C417.314 496.1 416.815 497.335 415.857 498.293L417.272 499.707C418.647 498.331 419.314 496.566 419.314 494.5H417.314ZM415.857 498.293C414.9 499.25 413.665 499.75 412.064 499.75V501.75C414.131 501.75 415.896 501.083 417.272 499.707L415.857 498.293ZM412.064 499.75H380.814V501.75H412.064V499.75ZM379.814 500.75V545.25H381.814V500.75H379.814ZM379.814 545.25C379.814 551.032 380.918 555.744 383.226 559.295L384.903 558.205C382.878 555.089 381.814 550.802 381.814 545.25H379.814ZM383.226 559.295C385.632 562.996 389.673 564.75 395.064 564.75V562.75C390.122 562.75 386.831 561.171 384.903 558.205L383.226 559.295ZM395.064 564.75H414.314V562.75H395.064V564.75ZM414.314 564.75C415.915 564.75 417.15 565.25 418.107 566.207L419.522 564.793C418.146 563.417 416.381 562.75 414.314 562.75V564.75ZM418.107 566.207C419.065 567.165 419.564 568.4 419.564 570H421.564C421.564 567.934 420.897 566.169 419.522 564.793L418.107 566.207ZM419.564 570V591.75H421.564V570H419.564ZM419.564 591.75C419.564 593.35 419.065 594.585 418.107 595.543L419.522 596.957C420.897 595.581 421.564 593.816 421.564 591.75H419.564ZM418.107 595.543C417.15 596.5 415.915 597 414.314 597V599C416.381 599 418.146 598.333 419.522 596.957L418.107 595.543ZM414.314 597H391.064V599H414.314V597ZM467.014 597L466.697 597.949L466.71 597.953L466.723 597.957L467.014 597ZM448.514 588L447.914 588.8L447.92 588.805L447.927 588.81L448.514 588ZM438.014 577.25L437.159 577.77L437.165 577.778L437.17 577.787L438.014 577.25ZM434.264 567.5L435.262 567.438L435.261 567.424L435.26 567.409L434.264 567.5ZM436.014 563L436.672 563.753L436.697 563.731L436.721 563.707L436.014 563ZM470.014 561.25L469.566 562.144V562.144L470.014 561.25ZM471.514 562.25L470.914 563.05L470.974 563.095L471.04 563.13L471.514 562.25ZM478.014 566.75L477.368 567.513L477.385 567.528L477.404 567.543L478.014 566.75ZM485.514 571.25L485.939 570.345L485.514 571.25ZM507.514 570.5L507.013 569.635L507.514 570.5ZM510.014 555.75L509.24 556.383L509.255 556.401L509.27 556.419L510.014 555.75ZM500.764 550.5L500.416 551.438L500.427 551.442L500.764 550.5ZM480.264 545.5L480.039 546.474L480.062 546.48L480.085 546.484L480.264 545.5ZM457.514 537.75L457.057 538.64L457.066 538.644L457.076 538.649L457.514 537.75ZM442.514 525L441.678 525.549L441.682 525.555L441.686 525.561L442.514 525ZM443.764 486.5L444.582 487.075L443.764 486.5ZM462.764 471.5L463.182 472.408L463.189 472.405L463.196 472.402L462.764 471.5ZM518.514 469L518.197 469.949L518.211 469.953L518.224 469.957L518.514 469ZM536.514 477.5L535.927 478.31L535.934 478.315L535.94 478.319L536.514 477.5ZM547.764 488.25L546.937 488.813L547.764 488.25ZM551.764 498.25L550.765 498.305L550.766 498.328L550.769 498.349L551.764 498.25ZM550.264 502.75L550.971 503.457L550.994 503.434L551.016 503.409L550.264 502.75ZM518.264 504.25L517.816 505.144L517.915 505.194L518.021 505.22L518.264 504.25ZM516.514 503.25L517.068 502.418L517.017 502.383L516.961 502.356L516.514 503.25ZM510.514 499.25L509.874 500.018L510.514 499.25ZM503.514 494.75L503.066 495.644L503.514 494.75ZM483.014 495.75L483.638 496.531L483.014 495.75ZM481.264 509.5L480.455 510.088L480.472 510.111L480.49 510.133L481.264 509.5ZM490.014 514.5L489.687 515.445L489.697 515.449L490.014 514.5ZM510.764 519.5L510.571 520.481L510.589 520.485L510.606 520.488L510.764 519.5ZM538.264 528.5L537.743 529.354L537.751 529.358L537.758 529.363L538.264 528.5ZM552.764 542.75L551.875 543.208L551.881 543.219L552.764 542.75ZM549.764 581L548.977 580.383L548.971 580.39L548.966 580.397L549.764 581ZM528.764 595.5L529.1 596.442L529.107 596.439L529.115 596.436L528.764 595.5ZM494.764 599.5C483.997 599.5 474.851 598.34 467.305 596.043L466.723 597.957C474.51 600.327 483.864 601.5 494.764 601.5V599.5ZM467.33 596.051C459.897 593.574 453.829 590.615 449.1 587.19L447.927 588.81C452.865 592.385 459.13 595.426 466.697 597.949L467.33 596.051ZM449.114 587.2C444.512 583.749 441.108 580.25 438.857 576.713L437.17 577.787C439.586 581.583 443.182 585.251 447.914 588.8L449.114 587.2ZM438.868 576.73C436.569 572.953 435.414 569.868 435.262 567.438L433.266 567.562C433.447 570.466 434.792 573.881 437.159 577.77L438.868 576.73ZM435.26 567.409C435.121 565.88 435.591 564.699 436.672 563.753L435.355 562.247C433.77 563.634 433.073 565.453 433.268 567.591L435.26 567.409ZM436.721 563.707C437.917 562.51 439.093 562 440.264 562V560C438.434 560 436.777 560.823 435.307 562.293L436.721 563.707ZM440.264 562H468.764V560H440.264V562ZM468.764 562C469.159 562 469.411 562.067 469.566 562.144L470.461 560.356C469.95 560.1 469.368 560 468.764 560V562ZM469.566 562.144C469.813 562.268 470.251 562.553 470.914 563.05L472.114 561.45C471.443 560.947 470.881 560.566 470.461 560.356L469.566 562.144ZM471.04 563.13C473.137 564.26 475.246 565.718 477.368 567.513L478.66 565.987C476.448 564.115 474.224 562.574 471.988 561.37L471.04 563.13ZM477.404 567.543C479.635 569.259 482.199 570.795 485.088 572.155L485.939 570.345C483.162 569.038 480.725 567.574 478.623 565.957L477.404 567.543ZM485.088 572.155C488.086 573.566 491.656 574.25 495.764 574.25V572.25C491.871 572.25 488.608 571.601 485.939 570.345L485.088 572.155ZM495.764 574.25C500.559 574.25 504.659 573.308 508.015 571.365L507.013 569.635C504.035 571.359 500.302 572.25 495.764 572.25V574.25ZM508.015 571.365C511.491 569.353 513.264 566.273 513.264 562.25H511.264C511.264 565.561 509.87 567.98 507.013 569.635L508.015 571.365ZM513.264 562.25C513.264 559.386 512.453 556.965 510.757 555.081L509.27 556.419C510.575 557.868 511.264 559.781 511.264 562.25H513.264ZM510.788 555.117C509.102 553.057 505.788 551.233 501.1 549.558L500.427 551.442C505.072 553.101 507.925 554.777 509.24 556.383L510.788 555.117ZM501.111 549.562C496.527 547.864 489.624 546.185 480.443 544.516L480.085 546.484C489.237 548.148 496.001 549.802 500.416 551.438L501.111 549.562ZM480.489 544.526C471.879 542.539 464.37 539.978 457.952 536.851L457.076 538.649C463.657 541.855 471.315 544.461 480.039 546.474L480.489 544.526ZM457.97 536.86C451.594 533.59 446.732 529.445 443.342 524.439L441.686 525.561C445.295 530.889 450.433 535.243 457.057 538.64L457.97 536.86ZM443.35 524.451C439.974 519.308 438.264 513.09 438.264 505.75H436.264C436.264 513.41 438.053 520.025 441.678 525.549L443.35 524.451ZM438.264 505.75C438.264 499.315 440.351 493.096 444.582 487.075L442.945 485.925C438.51 492.237 436.264 498.851 436.264 505.75H438.264ZM444.582 487.075C448.794 481.081 454.974 476.184 463.182 472.408L462.346 470.591C453.887 474.483 447.4 479.585 442.945 485.925L444.582 487.075ZM463.196 472.402C471.359 468.483 481.451 466.5 493.514 466.5V464.5C481.243 464.5 470.835 466.517 462.331 470.598L463.196 472.402ZM493.514 466.5C503.104 466.5 511.325 467.658 518.197 469.949L518.83 468.051C511.702 465.675 503.256 464.5 493.514 464.5V466.5ZM518.224 469.957C525.31 472.1 531.204 474.889 535.927 478.31L537.1 476.69C532.157 473.111 526.05 470.234 518.803 468.043L518.224 469.957ZM535.94 478.319C540.876 481.774 544.526 485.276 546.937 488.813L548.59 487.687C546.002 483.89 542.152 480.226 537.087 476.681L535.94 478.319ZM546.937 488.813C549.381 492.397 550.612 495.554 550.765 498.305L552.762 498.195C552.582 494.946 551.147 491.437 548.59 487.687L546.937 488.813ZM550.769 498.349C550.906 499.723 550.507 500.953 549.511 502.091L551.016 503.409C552.353 501.88 552.955 500.11 552.759 498.15L550.769 498.349ZM549.557 502.043C548.557 503.043 547.471 503.5 546.264 503.5V505.5C548.057 505.5 549.637 504.791 550.971 503.457L549.557 502.043ZM546.264 503.5H520.264V505.5H546.264V503.5ZM520.264 503.5C519.681 503.5 519.096 503.427 518.506 503.28L518.021 505.22C518.765 505.406 519.513 505.5 520.264 505.5V503.5ZM518.711 503.356C518.073 503.037 517.527 502.724 517.068 502.418L515.959 504.082C516.5 504.443 517.121 504.797 517.816 505.144L518.711 503.356ZM516.961 502.356C515.04 501.395 513.104 500.107 511.154 498.482L509.874 500.018C511.923 501.726 513.987 503.105 516.066 504.144L516.961 502.356ZM511.154 498.482C509.087 496.759 506.687 495.219 503.961 493.856L503.066 495.644C505.674 496.948 507.941 498.407 509.874 500.018L511.154 498.482ZM503.961 493.856C501.116 492.433 497.618 491.75 493.514 491.75V493.75C497.409 493.75 500.578 494.4 503.066 495.644L503.961 493.856ZM493.514 491.75C488.877 491.75 485.126 492.78 482.389 494.969L483.638 496.531C485.901 494.72 489.15 493.75 493.514 493.75V491.75ZM482.389 494.969C479.655 497.156 478.264 500.026 478.264 503.5H480.264C480.264 500.641 481.373 498.344 483.638 496.531L482.389 494.969ZM478.264 503.5C478.264 505.888 479.003 508.092 480.455 510.088L482.072 508.912C480.857 507.241 480.264 505.445 480.264 503.5H478.264ZM480.49 510.133C482.173 512.191 485.315 513.932 489.687 515.445L490.341 513.555C486.046 512.068 483.354 510.476 482.038 508.867L480.49 510.133ZM489.697 515.449C494.26 516.97 501.229 518.646 510.571 520.481L510.956 518.519C501.632 516.687 494.767 515.03 490.33 513.551L489.697 515.449ZM510.606 520.488C522.031 522.309 531.059 525.278 537.743 529.354L538.784 527.646C531.801 523.388 522.496 520.358 510.921 518.512L510.606 520.488ZM537.758 529.363C544.473 533.294 549.15 537.918 551.875 543.208L553.653 542.292C550.711 536.582 545.721 531.706 538.769 527.637L537.758 529.363ZM551.881 543.219C554.638 548.409 556.014 553.915 556.014 559.75H558.014C558.014 553.585 556.556 547.758 553.647 542.281L551.881 543.219ZM556.014 559.75C556.014 567.531 553.669 574.396 548.977 580.383L550.551 581.617C555.525 575.27 558.014 567.969 558.014 559.75H556.014ZM548.966 580.397C544.443 586.374 537.619 591.111 528.413 594.564L529.115 596.436C538.575 592.889 545.751 587.959 550.561 581.603L548.966 580.397ZM528.427 594.558C519.232 597.842 508.019 599.5 494.764 599.5V601.5C508.175 601.5 519.629 599.824 529.1 596.442L528.427 594.558Z" fill="#404040" fill-opacity="0.8" mask="url(#path-1-outside-1_29_32)"/>
</g>
<g filter="url(#filter2_d_29_32)">
<path d="M351.147 64.7725L286.321 154.432L254.318 106.775H187.85L254.318 198.05L146 349.905H191.132C206.278 350.447 212.517 349.045 220.831 335.954L286.321 243.283L319.965 292.555H386.432L319.965 198.05L425 47.81L378.226 47.0023C365.173 46.8675 359.926 52.7705 351.147 64.7725Z" fill="black" shape-rendering="crispEdges"/>
<path d="M351.147 64.7725L286.321 154.432L254.318 106.775H187.85L254.318 198.05L146 349.905H191.132C206.278 350.447 212.517 349.045 220.831 335.954L286.321 243.283L319.965 292.555H386.432L319.965 198.05L425 47.81L378.226 47.0023C365.173 46.8675 359.926 52.7705 351.147 64.7725Z" stroke="#404040" stroke-opacity="0.8" shape-rendering="crispEdges"/>
</g>
</g>
<defs>
<filter id="filter0_d_29_32" x="-4" y="0" width="578" height="608.5" filterUnits="userSpaceOnUse" color-interpolation-filters="sRGB">
<feFlood flood-opacity="0" result="BackgroundImageFix"/>
<feColorMatrix in="SourceAlpha" type="matrix" values="0 0 0 0 0 0 0 0 0 0 0 0 0 0 0 0 0 0 127 0" result="hardAlpha"/>
<feOffset dy="4"/>
<feGaussianBlur stdDeviation="2"/>
<feComposite in2="hardAlpha" operator="out"/>
<feColorMatrix type="matrix" values="0 0 0 0 0 0 0 0 0 0 0 0 0 0 0 0 0 0 0.25 0"/>
<feBlend mode="normal" in2="BackgroundImageFix" result="effect1_dropShadow_29_32"/>
<feBlend mode="normal" in="SourceGraphic" in2="effect1_dropShadow_29_32" result="shape"/>
</filter>
<filter id="filter1_d_29_32" x="10.75" y="420.5" width="550.264" height="188" filterUnits="userSpaceOnUse" color-interpolation-filters="sRGB">
<feFlood flood-opacity="0" result="BackgroundImageFix"/>
<feColorMatrix in="SourceAlpha" type="matrix" values="0 0 0 0 0 0 0 0 0 0 0 0 0 0 0 0 0 0 127 0" result="hardAlpha"/>
<feOffset dy="4"/>
<feGaussianBlur stdDeviation="2"/>
<feComposite in2="hardAlpha" operator="out"/>
<feColorMatrix type="matrix" values="0 0 0 0 0 0 0 0 0 0 0 0 0 0 0 0 0 0 0.25 0"/>
<feBlend mode="normal" in2="BackgroundImageFix" result="effect1_dropShadow_29_32"/>
<feBlend mode="normal" in="SourceGraphic" in2="effect1_dropShadow_29_32" result="shape"/>
</filter>
<filter id="filter2_d_29_32" x="141.029" y="46.5" width="288.919" height="312" filterUnits="userSpaceOnUse" color-interpolation-filters="sRGB">
<feFlood flood-opacity="0" result="BackgroundImageFix"/>
<feColorMatrix in="SourceAlpha" type="matrix" values="0 0 0 0 0 0 0 0 0 0 0 0 0 0 0 0 0 0 127 0" result="hardAlpha"/>
<feOffset dy="4"/>
<feGaussianBlur stdDeviation="2"/>
<feComposite in2="hardAlpha" operator="out"/>
<feColorMatrix type="matrix" values="0 0 0 0 0 0 0 0 0 0 0 0 0 0 0 0 0 0 0.25 0"/>
<feBlend mode="normal" in2="BackgroundImageFix" result="effect1_dropShadow_29_32"/>
<feBlend mode="normal" in="SourceGraphic" in2="effect1_dropShadow_29_32" result="shape"/>
</filter>
</defs>
</svg>
