<svg width="1286" height="285" viewBox="0 0 1286 285" fill="none" xmlns="http://www.w3.org/2000/svg">
<mask id="path-1-outside-1_12_9" maskUnits="userSpaceOnUse" x="-5" y="-3" width="1294" height="291" fill="black">
<rect fill="white" x="-5" y="-3" width="1294" height="291"/>
<path d="M68.8068 4.63636L124.538 98.8267H126.697L182.699 4.63636H248.686L164.347 142.818L250.575 281H183.374L126.697 186.675H124.538L67.8622 281H0.930398L87.429 142.818L2.54972 4.63636H68.8068ZM285.661 281V4.63636H396.314C416.645 4.63636 433.603 7.65009 447.188 13.6776C460.772 19.705 470.982 28.0715 477.82 38.777C484.657 49.3925 488.075 61.6274 488.075 75.4815C488.075 86.277 485.916 95.768 481.598 103.955C477.28 112.051 471.342 118.708 463.786 123.926C456.319 129.054 447.772 132.697 438.146 134.857V137.555C448.672 138.005 458.523 140.974 467.699 146.462C476.965 151.949 484.477 159.641 490.234 169.537C495.992 179.343 498.871 191.038 498.871 204.622C498.871 219.286 495.227 232.375 487.94 243.891C480.743 255.316 470.083 264.357 455.959 271.014C441.835 277.671 424.427 281 403.736 281H285.661ZM344.091 233.23H391.726C408.009 233.23 419.884 230.126 427.351 223.919C434.818 217.622 438.551 209.255 438.551 198.82C438.551 191.173 436.707 184.426 433.018 178.578C429.33 172.731 424.067 168.143 417.23 164.814C410.483 161.485 402.431 159.821 393.075 159.821H344.091V233.23ZM344.091 120.283H387.408C395.414 120.283 402.521 118.888 408.729 116.099C415.026 113.221 419.974 109.172 423.572 103.955C427.261 98.7367 429.105 92.4844 429.105 85.1974C429.105 75.2116 425.552 67.16 418.445 61.0426C411.428 54.9252 401.442 51.8665 388.487 51.8665H344.091V120.283ZM790.854 142.818C790.854 172.955 785.141 198.595 773.716 219.736C762.381 240.877 746.908 257.025 727.296 268.18C707.774 279.246 685.823 284.778 661.444 284.778C636.884 284.778 614.843 279.201 595.321 268.045C575.8 256.89 560.371 240.742 549.036 219.601C537.701 198.46 532.033 172.866 532.033 142.818C532.033 112.681 537.701 87.0417 549.036 65.9006C560.371 44.7595 575.8 28.6562 595.321 17.5909C614.843 6.4356 636.884 0.857944 661.444 0.857944C685.823 0.857944 707.774 6.4356 727.296 17.5909C746.908 28.6562 762.381 44.7595 773.716 65.9006C785.141 87.0417 790.854 112.681 790.854 142.818ZM731.614 142.818C731.614 123.296 728.69 106.833 722.843 93.429C717.085 80.0246 708.944 69.8589 698.418 62.9318C687.892 56.0047 675.568 52.5412 661.444 52.5412C647.319 52.5412 634.995 56.0047 624.469 62.9318C613.944 69.8589 605.757 80.0246 599.909 93.429C594.152 106.833 591.273 123.296 591.273 142.818C591.273 162.34 594.152 178.803 599.909 192.207C605.757 205.612 613.944 215.777 624.469 222.705C634.995 229.632 647.319 233.095 661.444 233.095C675.568 233.095 687.892 229.632 698.418 222.705C708.944 215.777 717.085 205.612 722.843 192.207C728.69 178.803 731.614 162.34 731.614 142.818ZM810.994 52.8111V4.63636H1037.97V52.8111H953.359V281H895.604V52.8111H810.994ZM1225.27 84.1179C1224.19 73.2325 1219.56 64.776 1211.37 58.7486C1203.18 52.7211 1192.07 49.7074 1178.04 49.7074C1168.5 49.7074 1160.45 51.0568 1153.88 53.7557C1147.32 56.3646 1142.28 60.008 1138.77 64.6861C1135.35 69.3641 1133.64 74.6719 1133.64 80.6094C1133.46 85.5573 1134.5 89.8755 1136.75 93.5639C1139.09 97.2524 1142.28 100.446 1146.33 103.145C1150.38 105.754 1155.05 108.048 1160.36 110.027C1165.67 111.916 1171.34 113.536 1177.37 114.885L1202.19 120.822C1214.25 123.521 1225.31 127.12 1235.39 131.618C1245.47 136.116 1254.19 141.649 1261.57 148.216C1268.95 154.783 1274.66 162.52 1278.71 171.426C1282.85 180.332 1284.96 190.543 1285.05 202.058C1284.96 218.971 1280.64 233.635 1272.1 246.05C1263.64 258.375 1251.4 267.955 1235.39 274.793C1219.47 281.54 1200.26 284.913 1177.77 284.913C1155.46 284.913 1136.03 281.495 1119.47 274.658C1103.01 267.821 1090.15 257.7 1080.88 244.295C1071.7 230.801 1066.89 214.113 1066.44 194.232H1122.98C1123.61 203.498 1126.27 211.234 1130.94 217.442C1135.71 223.559 1142.05 228.192 1149.97 231.341C1157.98 234.4 1167.02 235.929 1177.1 235.929C1186.99 235.929 1195.58 234.49 1202.87 231.611C1210.25 228.732 1215.96 224.729 1220.01 219.601C1224.06 214.473 1226.08 208.58 1226.08 201.923C1226.08 195.716 1224.24 190.498 1220.55 186.27C1216.95 182.042 1211.64 178.443 1204.62 175.474C1197.7 172.506 1189.2 169.807 1179.12 167.378L1149.03 159.821C1125.73 154.153 1107.33 145.292 1093.84 133.237C1080.34 121.182 1073.64 104.944 1073.73 84.5227C1073.64 67.7898 1078.09 53.1709 1087.09 40.6662C1096.17 28.1615 1108.63 18.4006 1124.47 11.3835C1140.3 4.36647 1158.29 0.857944 1178.44 0.857944C1198.96 0.857944 1216.86 4.36647 1232.15 11.3835C1247.54 18.4006 1259.5 28.1615 1268.05 40.6662C1276.59 53.1709 1281 67.6548 1281.27 84.1179H1225.27Z"/>
</mask>
<path d="M68.8068 4.63636L124.538 98.8267H126.697L182.699 4.63636H248.686L164.347 142.818L250.575 281H183.374L126.697 186.675H124.538L67.8622 281H0.930398L87.429 142.818L2.54972 4.63636H68.8068ZM285.661 281V4.63636H396.314C416.645 4.63636 433.603 7.65009 447.188 13.6776C460.772 19.705 470.982 28.0715 477.82 38.777C484.657 49.3925 488.075 61.6274 488.075 75.4815C488.075 86.277 485.916 95.768 481.598 103.955C477.28 112.051 471.342 118.708 463.786 123.926C456.319 129.054 447.772 132.697 438.146 134.857V137.555C448.672 138.005 458.523 140.974 467.699 146.462C476.965 151.949 484.477 159.641 490.234 169.537C495.992 179.343 498.871 191.038 498.871 204.622C498.871 219.286 495.227 232.375 487.94 243.891C480.743 255.316 470.083 264.357 455.959 271.014C441.835 277.671 424.427 281 403.736 281H285.661ZM344.091 233.23H391.726C408.009 233.23 419.884 230.126 427.351 223.919C434.818 217.622 438.551 209.255 438.551 198.82C438.551 191.173 436.707 184.426 433.018 178.578C429.33 172.731 424.067 168.143 417.23 164.814C410.483 161.485 402.431 159.821 393.075 159.821H344.091V233.23ZM344.091 120.283H387.408C395.414 120.283 402.521 118.888 408.729 116.099C415.026 113.221 419.974 109.172 423.572 103.955C427.261 98.7367 429.105 92.4844 429.105 85.1974C429.105 75.2116 425.552 67.16 418.445 61.0426C411.428 54.9252 401.442 51.8665 388.487 51.8665H344.091V120.283ZM790.854 142.818C790.854 172.955 785.141 198.595 773.716 219.736C762.381 240.877 746.908 257.025 727.296 268.18C707.774 279.246 685.823 284.778 661.444 284.778C636.884 284.778 614.843 279.201 595.321 268.045C575.8 256.89 560.371 240.742 549.036 219.601C537.701 198.46 532.033 172.866 532.033 142.818C532.033 112.681 537.701 87.0417 549.036 65.9006C560.371 44.7595 575.8 28.6562 595.321 17.5909C614.843 6.4356 636.884 0.857944 661.444 0.857944C685.823 0.857944 707.774 6.4356 727.296 17.5909C746.908 28.6562 762.381 44.7595 773.716 65.9006C785.141 87.0417 790.854 112.681 790.854 142.818ZM731.614 142.818C731.614 123.296 728.69 106.833 722.843 93.429C717.085 80.0246 708.944 69.8589 698.418 62.9318C687.892 56.0047 675.568 52.5412 661.444 52.5412C647.319 52.5412 634.995 56.0047 624.469 62.9318C613.944 69.8589 605.757 80.0246 599.909 93.429C594.152 106.833 591.273 123.296 591.273 142.818C591.273 162.34 594.152 178.803 599.909 192.207C605.757 205.612 613.944 215.777 624.469 222.705C634.995 229.632 647.319 233.095 661.444 233.095C675.568 233.095 687.892 229.632 698.418 222.705C708.944 215.777 717.085 205.612 722.843 192.207C728.69 178.803 731.614 162.34 731.614 142.818ZM810.994 52.8111V4.63636H1037.97V52.8111H953.359V281H895.604V52.8111H810.994ZM1225.27 84.1179C1224.19 73.2325 1219.56 64.776 1211.37 58.7486C1203.18 52.7211 1192.07 49.7074 1178.04 49.7074C1168.5 49.7074 1160.45 51.0568 1153.88 53.7557C1147.32 56.3646 1142.28 60.008 1138.77 64.6861C1135.35 69.3641 1133.64 74.6719 1133.64 80.6094C1133.46 85.5573 1134.5 89.8755 1136.75 93.5639C1139.09 97.2524 1142.28 100.446 1146.33 103.145C1150.38 105.754 1155.05 108.048 1160.36 110.027C1165.67 111.916 1171.34 113.536 1177.37 114.885L1202.19 120.822C1214.25 123.521 1225.31 127.12 1235.39 131.618C1245.47 136.116 1254.19 141.649 1261.57 148.216C1268.95 154.783 1274.66 162.52 1278.71 171.426C1282.85 180.332 1284.96 190.543 1285.05 202.058C1284.96 218.971 1280.64 233.635 1272.1 246.05C1263.64 258.375 1251.4 267.955 1235.39 274.793C1219.47 281.54 1200.26 284.913 1177.77 284.913C1155.46 284.913 1136.03 281.495 1119.47 274.658C1103.01 267.821 1090.15 257.7 1080.88 244.295C1071.7 230.801 1066.89 214.113 1066.44 194.232H1122.98C1123.61 203.498 1126.27 211.234 1130.94 217.442C1135.71 223.559 1142.05 228.192 1149.97 231.341C1157.98 234.4 1167.02 235.929 1177.1 235.929C1186.99 235.929 1195.58 234.49 1202.87 231.611C1210.25 228.732 1215.96 224.729 1220.01 219.601C1224.06 214.473 1226.08 208.58 1226.08 201.923C1226.08 195.716 1224.24 190.498 1220.55 186.27C1216.95 182.042 1211.64 178.443 1204.62 175.474C1197.7 172.506 1189.2 169.807 1179.12 167.378L1149.03 159.821C1125.73 154.153 1107.33 145.292 1093.84 133.237C1080.34 121.182 1073.64 104.944 1073.73 84.5227C1073.64 67.7898 1078.09 53.1709 1087.09 40.6662C1096.17 28.1615 1108.63 18.4006 1124.47 11.3835C1140.3 4.36647 1158.29 0.857944 1178.44 0.857944C1198.96 0.857944 1216.86 4.36647 1232.15 11.3835C1247.54 18.4006 1259.5 28.1615 1268.05 40.6662C1276.59 53.1709 1281 67.6548 1281.27 84.1179H1225.27Z" fill="black"/>
<path d="M68.8068 4.63636L71.3887 3.10867L70.5176 1.63636H68.8068V4.63636ZM124.538 98.8267L121.956 100.354L122.828 101.827H124.538V98.8267ZM126.697 98.8267V101.827H128.404L129.276 100.36L126.697 98.8267ZM182.699 4.63636V1.63636H180.992L180.12 3.1032L182.699 4.63636ZM248.686 4.63636L251.247 6.19929L254.032 1.63636H248.686V4.63636ZM164.347 142.818L161.786 141.255L160.821 142.836L161.801 144.406L164.347 142.818ZM250.575 281V284H255.984L253.12 279.412L250.575 281ZM183.374 281L180.802 282.545L181.676 284H183.374V281ZM126.697 186.675L129.269 185.13L128.395 183.675H126.697V186.675ZM124.538 186.675V183.675H122.841L121.967 185.13L124.538 186.675ZM67.8622 281V284H69.5595L70.4337 282.545L67.8622 281ZM0.930398 281L-1.61248 279.408L-4.48683 284H0.930398V281ZM87.429 142.818L89.9719 144.41L90.9589 142.833L89.9852 141.248L87.429 142.818ZM2.54972 4.63636V1.63636H-2.81383L-0.00654306 6.20656L2.54972 4.63636ZM66.2249 6.16404L121.956 100.354L127.12 97.299L71.3887 3.10867L66.2249 6.16404ZM124.538 101.827H126.697V95.8267H124.538V101.827ZM129.276 100.36L185.278 6.16951L180.12 3.1032L124.119 97.2935L129.276 100.36ZM182.699 7.63636H248.686V1.63636H182.699V7.63636ZM246.125 3.07342L161.786 141.255L166.907 144.381L251.247 6.19929L246.125 3.07342ZM161.801 144.406L248.03 282.588L253.12 279.412L166.892 141.23L161.801 144.406ZM250.575 278H183.374V284H250.575V278ZM185.945 279.455L129.269 185.13L124.126 188.22L180.802 282.545L185.945 279.455ZM126.697 183.675H124.538V189.675H126.697V183.675ZM121.967 185.13L65.2907 279.455L70.4337 282.545L127.11 188.22L121.967 185.13ZM67.8622 278H0.930398V284H67.8622V278ZM3.47328 282.592L89.9719 144.41L84.8861 141.226L-1.61248 279.408L3.47328 282.592ZM89.9852 141.248L5.10598 3.06615L-0.00654306 6.20656L84.8727 144.388L89.9852 141.248ZM2.54972 7.63636H68.8068V1.63636H2.54972V7.63636ZM285.661 281H282.661V284H285.661V281ZM285.661 4.63636V1.63636H282.661V4.63636H285.661ZM447.188 13.6776L445.971 16.4197L445.971 16.4197L447.188 13.6776ZM477.82 38.777L475.291 40.3917L475.297 40.4014L477.82 38.777ZM481.598 103.955L484.245 105.366L484.252 105.354L481.598 103.955ZM463.786 123.926L465.484 126.399L465.49 126.395L463.786 123.926ZM438.146 134.857L437.49 131.929L435.146 132.455V134.857H438.146ZM438.146 137.555H435.146V140.43L438.018 140.553L438.146 137.555ZM467.699 146.462L466.159 149.036L466.17 149.043L467.699 146.462ZM490.234 169.537L487.641 171.046L487.647 171.056L490.234 169.537ZM487.94 243.891L485.405 242.286L485.402 242.292L487.94 243.891ZM455.959 271.014L454.68 268.301L454.68 268.301L455.959 271.014ZM344.091 233.23H341.091V236.23H344.091V233.23ZM427.351 223.919L429.269 226.226L429.277 226.219L429.285 226.212L427.351 223.919ZM433.018 178.578L430.481 180.179L430.481 180.179L433.018 178.578ZM417.23 164.814L415.903 167.504L415.91 167.508L415.917 167.511L417.23 164.814ZM344.091 159.821V156.821H341.091V159.821H344.091ZM344.091 120.283H341.091V123.283H344.091V120.283ZM408.729 116.099L409.958 118.836L409.967 118.832L409.976 118.828L408.729 116.099ZM423.572 103.955L421.123 102.223L421.113 102.237L421.103 102.251L423.572 103.955ZM418.445 61.0426L416.473 63.3039L416.48 63.3101L416.487 63.3163L418.445 61.0426ZM344.091 51.8665V48.8665H341.091V51.8665H344.091ZM288.661 281V4.63636H282.661V281H288.661ZM285.661 7.63636H396.314V1.63636H285.661V7.63636ZM396.314 7.63636C416.371 7.63636 432.883 10.6126 445.971 16.4197L448.404 10.9354C434.323 4.68757 416.919 1.63636 396.314 1.63636V7.63636ZM445.971 16.4197C459.11 22.2498 468.822 30.2624 475.291 40.3917L480.348 37.1622C473.143 25.8806 462.433 17.1602 448.404 10.9354L445.971 16.4197ZM475.297 40.4014C481.793 50.4859 485.075 62.1453 485.075 75.4815H491.075C491.075 61.1094 487.521 48.2991 480.342 37.1525L475.297 40.4014ZM485.075 75.4815C485.075 85.8705 483 94.8664 478.945 102.555L484.252 105.354C488.832 96.6696 491.075 86.6834 491.075 75.4815H485.075ZM478.951 102.543C474.858 110.217 469.244 116.511 462.081 121.457L465.49 126.395C473.441 120.905 479.701 113.886 484.245 105.366L478.951 102.543ZM462.087 121.453C454.963 126.346 446.776 129.846 437.49 131.929L438.803 137.784C448.768 135.549 457.675 131.762 465.484 126.399L462.087 121.453ZM435.146 134.857V137.555H441.146V134.857H435.146ZM438.018 140.553C448.038 140.981 457.404 143.801 466.159 149.036L469.239 143.887C459.641 138.147 449.306 135.03 438.274 134.558L438.018 140.553ZM466.17 149.043C474.968 154.253 482.124 161.563 487.641 171.046L492.827 168.028C486.829 157.719 478.962 149.645 469.228 143.88L466.17 149.043ZM487.647 171.056C493.086 180.319 495.871 191.468 495.871 204.622H501.871C501.871 190.608 498.898 178.367 492.821 168.018L487.647 171.056ZM495.871 204.622C495.871 218.763 492.365 231.288 485.405 242.286L490.475 245.495C498.089 233.463 501.871 219.809 501.871 204.622H495.871ZM485.402 242.292C478.555 253.161 468.369 261.848 454.68 268.301L457.238 273.728C471.797 266.866 482.932 257.471 490.479 245.49L485.402 242.292ZM454.68 268.301C441.064 274.718 424.122 278 403.736 278V284C424.732 284 442.606 280.624 457.238 273.728L454.68 268.301ZM403.736 278H285.661V284H403.736V278ZM344.091 236.23H391.726V230.23H344.091V236.23ZM391.726 236.23C408.274 236.23 421.003 233.097 429.269 226.226L425.433 221.612C418.765 227.155 407.744 230.23 391.726 230.23V236.23ZM429.285 226.212C437.479 219.302 441.551 210.07 441.551 198.82H435.551C435.551 208.44 432.157 215.941 425.417 221.626L429.285 226.212ZM441.551 198.82C441.551 190.668 439.578 183.354 435.556 176.978L430.481 180.179C433.836 185.497 435.551 191.677 435.551 198.82H441.551ZM435.556 176.978C431.54 170.611 425.831 165.664 418.543 162.117L415.917 167.511C422.304 170.621 427.12 174.85 430.481 180.179L435.556 176.978ZM418.557 162.124C411.309 158.548 402.782 156.821 393.075 156.821V162.821C402.081 162.821 409.657 164.423 415.903 167.504L418.557 162.124ZM393.075 156.821H344.091V162.821H393.075V156.821ZM341.091 159.821V233.23H347.091V159.821H341.091ZM344.091 123.283H387.408V117.283H344.091V123.283ZM387.408 123.283C395.764 123.283 403.302 121.826 409.958 118.836L407.499 113.363C401.741 115.95 395.064 117.283 387.408 117.283V123.283ZM409.976 118.828C416.719 115.745 422.108 111.362 426.042 105.658L421.103 102.251C417.84 106.983 413.333 110.696 407.481 113.371L409.976 118.828ZM426.022 105.686C430.117 99.8929 432.105 93.0143 432.105 85.1974H426.105C426.105 91.9545 424.404 97.5806 421.123 102.223L426.022 105.686ZM432.105 85.1974C432.105 74.4025 428.218 65.497 420.402 58.7689L416.487 63.3163C422.885 68.8231 426.105 76.0208 426.105 85.1974H432.105ZM420.416 58.7813C412.672 52.0297 401.884 48.8665 388.487 48.8665V54.8665C401 54.8665 410.184 57.8206 416.473 63.3039L420.416 58.7813ZM388.487 48.8665H344.091V54.8665H388.487V48.8665ZM341.091 51.8665V120.283H347.091V51.8665H341.091ZM773.716 219.736L771.077 218.309L771.072 218.318L773.716 219.736ZM727.296 268.18L728.775 270.79L728.779 270.788L727.296 268.18ZM595.321 268.045L596.81 265.441L596.81 265.441L595.321 268.045ZM549.036 219.601L546.392 221.018L546.392 221.018L549.036 219.601ZM549.036 65.9006L551.68 67.3182L551.68 67.3182L549.036 65.9006ZM595.321 17.5909L596.801 20.2008L596.81 20.1956L595.321 17.5909ZM727.296 17.5909L725.807 20.1956L725.814 20.1997L725.822 20.2037L727.296 17.5909ZM773.716 65.9006L771.072 67.3182L771.077 67.3269L773.716 65.9006ZM722.843 93.429L720.086 94.613L720.09 94.6208L720.093 94.6285L722.843 93.429ZM698.418 62.9318L696.769 65.4378L696.769 65.4378L698.418 62.9318ZM624.469 62.9318L626.118 65.4378L626.118 65.4378L624.469 62.9318ZM599.909 93.429L597.16 92.2294L597.156 92.2372L597.153 92.245L599.909 93.429ZM599.909 192.207L597.153 193.391L597.156 193.399L597.16 193.407L599.909 192.207ZM624.469 222.705L626.118 220.199L626.118 220.199L624.469 222.705ZM698.418 222.705L696.769 220.199L696.769 220.199L698.418 222.705ZM722.843 192.207L720.093 191.008L720.09 191.016L720.086 191.023L722.843 192.207ZM787.854 142.818C787.854 172.582 782.213 197.704 771.077 218.309L776.356 221.162C788.07 199.485 793.854 173.329 793.854 142.818H787.854ZM771.072 218.318C759.987 238.994 744.902 254.715 725.813 265.573L728.779 270.788C748.914 259.335 764.776 242.76 776.36 221.153L771.072 218.318ZM725.816 265.571C706.784 276.358 685.351 281.778 661.444 281.778V287.778C686.296 287.778 708.764 282.133 728.775 270.79L725.816 265.571ZM661.444 281.778C637.356 281.778 615.837 276.313 596.81 265.441L593.833 270.65C613.849 282.088 636.411 287.778 661.444 287.778V281.778ZM596.81 265.441C577.81 254.584 562.767 238.863 551.68 218.183L546.392 221.018C557.975 242.621 573.789 259.197 593.833 270.65L596.81 265.441ZM551.68 218.183C540.63 197.575 535.033 172.493 535.033 142.818H529.033C529.033 173.238 534.771 199.345 546.392 221.018L551.68 218.183ZM535.033 142.818C535.033 113.051 540.631 87.9255 551.68 67.3182L546.392 64.483C534.771 86.1578 529.033 112.311 529.033 142.818H535.033ZM551.68 67.3182C562.767 46.6405 577.806 30.9672 596.801 20.2008L593.842 14.981C573.793 26.3453 557.976 42.8784 546.392 64.483L551.68 67.3182ZM596.81 20.1956C615.837 9.32288 637.356 3.85794 661.444 3.85794V-2.14206C636.411 -2.14206 613.849 3.54832 593.833 14.9862L596.81 20.1956ZM661.444 3.85794C685.347 3.85794 706.777 9.32096 725.807 20.1956L728.784 14.9862C708.771 3.55024 686.3 -2.14206 661.444 -2.14206V3.85794ZM725.822 20.2037C744.905 30.9711 759.988 46.6441 771.072 67.3182L776.36 64.483C764.775 42.8748 748.91 26.3414 728.77 14.9781L725.822 20.2037ZM771.077 67.3269C782.213 87.9322 787.854 113.055 787.854 142.818H793.854C793.854 112.307 788.07 86.1511 776.356 64.4743L771.077 67.3269ZM734.614 142.818C734.614 123.015 731.65 106.116 725.592 92.2294L720.093 94.6285C725.73 107.551 728.614 123.578 728.614 142.818H734.614ZM725.599 92.245C719.647 78.3883 711.157 67.7242 700.067 60.4258L696.769 65.4378C706.73 71.9936 714.523 81.6609 720.086 94.613L725.599 92.245ZM700.067 60.4258C688.994 53.1384 676.08 49.5412 661.444 49.5412V55.5412C675.055 55.5412 686.791 58.8711 696.769 65.4378L700.067 60.4258ZM661.444 49.5412C646.807 49.5412 633.893 53.1384 622.82 60.4258L626.118 65.4378C636.096 58.8711 647.832 55.5412 661.444 55.5412V49.5412ZM622.82 60.4258C611.735 67.7213 603.202 78.3797 597.16 92.2294L602.659 94.6285C608.312 81.6695 616.153 71.9965 626.118 65.4378L622.82 60.4258ZM597.153 92.245C591.19 106.127 588.273 123.02 588.273 142.818H594.273C594.273 123.573 597.113 107.54 602.666 94.613L597.153 92.245ZM588.273 142.818C588.273 162.617 591.19 179.509 597.153 193.391L602.666 191.023C597.113 178.097 594.273 162.063 594.273 142.818H588.273ZM597.16 193.407C603.202 207.257 611.735 217.915 622.82 225.211L626.118 220.199C616.153 213.64 608.312 203.967 602.659 191.008L597.16 193.407ZM622.82 225.211C633.893 232.498 646.807 236.095 661.444 236.095V230.095C647.832 230.095 636.096 226.765 626.118 220.199L622.82 225.211ZM661.444 236.095C676.08 236.095 688.994 232.498 700.067 225.211L696.769 220.199C686.791 226.765 675.055 230.095 661.444 230.095V236.095ZM700.067 225.211C711.157 217.912 719.647 207.248 725.599 193.391L720.086 191.023C714.523 203.975 706.73 213.643 696.769 220.199L700.067 225.211ZM725.592 193.407C731.65 179.52 734.614 162.622 734.614 142.818H728.614C728.614 162.058 725.73 178.086 720.093 191.008L725.592 193.407ZM810.994 52.8111H807.994V55.8111H810.994V52.8111ZM810.994 4.63636V1.63636H807.994V4.63636H810.994ZM1037.97 4.63636H1040.97V1.63636H1037.97V4.63636ZM1037.97 52.8111V55.8111H1040.97V52.8111H1037.97ZM953.359 52.8111V49.8111H950.359V52.8111H953.359ZM953.359 281V284H956.359V281H953.359ZM895.604 281H892.604V284H895.604V281ZM895.604 52.8111H898.604V49.8111H895.604V52.8111ZM813.994 52.8111V4.63636H807.994V52.8111H813.994ZM810.994 7.63636H1037.97V1.63636H810.994V7.63636ZM1034.97 4.63636V52.8111H1040.97V4.63636H1034.97ZM1037.97 49.8111H953.359V55.8111H1037.97V49.8111ZM950.359 52.8111V281H956.359V52.8111H950.359ZM953.359 278H895.604V284H953.359V278ZM898.604 281V52.8111H892.604V281H898.604ZM895.604 49.8111H810.994V55.8111H895.604V49.8111ZM1225.27 84.1179L1222.28 84.414L1222.55 87.1179H1225.27V84.1179ZM1153.88 53.7557L1154.99 56.5437L1155.01 56.5372L1155.03 56.5305L1153.88 53.7557ZM1138.77 64.6861L1136.37 62.8861L1136.36 62.901L1136.35 62.916L1138.77 64.6861ZM1133.64 80.6094L1136.64 80.7184L1136.64 80.6639V80.6094H1133.64ZM1136.75 93.5639L1134.19 95.1257L1134.2 95.1483L1134.21 95.1705L1136.75 93.5639ZM1146.33 103.145L1144.66 105.641L1144.68 105.654L1144.7 105.667L1146.33 103.145ZM1160.36 110.027L1159.31 112.838L1159.34 112.846L1159.36 112.853L1160.36 110.027ZM1177.37 114.885L1178.06 111.967L1178.04 111.962L1178.02 111.957L1177.37 114.885ZM1202.19 120.822L1201.5 123.74L1201.52 123.745L1201.54 123.75L1202.19 120.822ZM1235.39 131.618L1234.17 134.357L1234.17 134.357L1235.39 131.618ZM1261.57 148.216L1263.56 145.975L1263.56 145.975L1261.57 148.216ZM1278.71 171.426L1275.98 172.668L1275.98 172.679L1275.99 172.69L1278.71 171.426ZM1285.05 202.058L1288.05 202.074L1288.05 202.054L1288.05 202.035L1285.05 202.058ZM1272.1 246.05L1269.62 244.349L1269.62 244.352L1272.1 246.05ZM1235.39 274.793L1236.56 277.555L1236.57 277.552L1235.39 274.793ZM1119.47 274.658L1118.32 277.428L1118.33 277.43L1119.47 274.658ZM1080.88 244.295L1078.4 245.982L1078.41 245.992L1078.41 246.001L1080.88 244.295ZM1066.44 194.232V191.232H1063.37L1063.44 194.299L1066.44 194.232ZM1122.98 194.232L1125.98 194.028L1125.79 191.232H1122.98V194.232ZM1130.94 217.442L1128.55 219.247L1128.56 219.267L1128.58 219.286L1130.94 217.442ZM1149.97 231.341L1148.86 234.129L1148.88 234.136L1148.9 234.143L1149.97 231.341ZM1202.87 231.611L1201.78 228.816L1201.77 228.821L1202.87 231.611ZM1220.01 219.601L1222.36 221.46L1222.36 221.46L1220.01 219.601ZM1220.55 186.27L1218.26 188.214L1218.27 188.228L1218.29 188.242L1220.55 186.27ZM1204.62 175.474L1203.44 178.232L1203.45 178.237L1204.62 175.474ZM1179.12 167.378L1178.39 170.287L1178.4 170.291L1178.42 170.294L1179.12 167.378ZM1149.03 159.821L1149.76 156.911L1149.75 156.909L1149.74 156.906L1149.03 159.821ZM1093.84 133.237L1091.84 135.474L1091.84 135.474L1093.84 133.237ZM1073.73 84.5227L1076.73 84.5359L1076.73 84.5213L1076.73 84.5066L1073.73 84.5227ZM1087.09 40.6662L1084.66 38.9027L1084.66 38.9085L1084.65 38.9142L1087.09 40.6662ZM1232.15 11.3835L1230.9 14.1102L1230.91 14.113L1232.15 11.3835ZM1268.05 40.6662L1265.57 42.359L1265.57 42.359L1268.05 40.6662ZM1281.27 84.1179V87.1179H1284.32L1284.27 84.0687L1281.27 84.1179ZM1228.26 83.8218C1227.1 72.1631 1222.08 62.9055 1213.15 56.3327L1209.59 61.1644C1217.04 66.6466 1221.28 74.3019 1222.28 84.414L1228.26 83.8218ZM1213.15 56.3327C1204.28 49.8054 1192.48 46.7074 1178.04 46.7074V52.7074C1191.67 52.7074 1202.08 55.6368 1209.59 61.1644L1213.15 56.3327ZM1178.04 46.7074C1168.24 46.7074 1159.77 48.0918 1152.74 50.9809L1155.03 56.5305C1161.13 54.0218 1168.77 52.7074 1178.04 52.7074V46.7074ZM1152.78 50.9676C1145.8 53.7379 1140.27 57.6817 1136.37 62.8861L1141.17 66.4861C1144.29 62.3343 1148.83 58.9913 1154.99 56.5437L1152.78 50.9676ZM1136.35 62.916C1132.55 68.1213 1130.64 74.0524 1130.64 80.6094H1136.64C1136.64 75.2913 1138.16 70.6069 1141.19 66.4561L1136.35 62.916ZM1130.65 80.5004C1130.45 85.9477 1131.59 90.8647 1134.19 95.1257L1139.31 92.0021C1137.41 88.8862 1136.48 85.1669 1136.64 80.7184L1130.65 80.5004ZM1134.21 95.1705C1136.8 99.2514 1140.31 102.736 1144.66 105.641L1147.99 100.649C1144.25 98.1558 1141.37 95.2534 1139.28 91.9573L1134.21 95.1705ZM1144.7 105.667C1148.96 108.411 1153.84 110.796 1159.31 112.838L1161.41 107.216C1156.27 105.299 1151.79 103.097 1147.95 100.623L1144.7 105.667ZM1159.36 112.853C1164.79 114.787 1170.57 116.439 1176.71 117.812L1178.02 111.957C1172.1 110.632 1166.55 109.045 1161.37 107.201L1159.36 112.853ZM1176.67 117.803L1201.5 123.74L1202.89 117.905L1178.06 111.967L1176.67 117.803ZM1201.54 123.75C1213.42 126.41 1224.29 129.95 1234.17 134.357L1236.61 128.878C1226.34 124.29 1215.08 120.632 1202.85 117.895L1201.54 123.75ZM1234.17 134.357C1243.99 138.744 1252.45 144.117 1259.57 150.457L1263.56 145.975C1255.93 139.181 1246.94 133.488 1236.61 128.878L1234.17 134.357ZM1259.57 150.457C1266.64 156.748 1272.1 164.146 1275.98 172.668L1281.44 170.185C1277.22 160.894 1271.25 152.818 1263.56 145.975L1259.57 150.457ZM1275.99 172.69C1279.92 181.146 1281.96 190.922 1282.05 202.082L1288.05 202.035C1287.96 190.164 1285.78 179.518 1281.43 170.162L1275.99 172.69ZM1282.05 202.042C1281.96 218.429 1277.79 232.489 1269.62 244.349L1274.57 247.751C1283.49 234.781 1287.96 219.513 1288.05 202.074L1282.05 202.042ZM1269.62 244.352C1261.54 256.134 1249.79 265.383 1234.21 272.034L1236.57 277.552C1253.02 270.528 1265.74 260.615 1274.57 247.747L1269.62 244.352ZM1234.22 272.03C1218.76 278.581 1199.97 281.913 1177.77 281.913V287.913C1200.55 287.913 1220.17 284.498 1236.56 277.555L1234.22 272.03ZM1177.77 281.913C1155.76 281.913 1136.73 278.54 1120.62 271.885L1118.33 277.43C1135.32 284.45 1155.16 287.913 1177.77 287.913V281.913ZM1120.63 271.887C1104.64 265.249 1092.26 255.476 1083.35 242.59L1078.41 246.001C1088.04 259.924 1101.38 270.392 1118.32 277.428L1120.63 271.887ZM1083.36 242.609C1074.58 229.688 1069.88 213.594 1069.44 194.164L1063.44 194.299C1063.9 214.632 1068.83 231.914 1078.4 245.982L1083.36 242.609ZM1066.44 197.232H1122.98V191.232H1066.44V197.232ZM1119.99 194.435C1120.65 204.167 1123.46 212.491 1128.55 219.247L1133.34 215.636C1129.08 209.978 1126.57 202.828 1125.98 194.028L1119.99 194.435ZM1128.58 219.286C1133.71 225.865 1140.5 230.803 1148.86 234.129L1151.08 228.553C1143.61 225.582 1137.72 221.254 1133.31 215.598L1128.58 219.286ZM1148.9 234.143C1157.3 237.353 1166.72 238.929 1177.1 238.929V232.929C1167.32 232.929 1158.65 231.446 1151.04 228.538L1148.9 234.143ZM1177.1 238.929C1187.27 238.929 1196.25 237.45 1203.97 234.401L1201.77 228.821C1194.91 231.53 1186.71 232.929 1177.1 232.929V238.929ZM1203.96 234.406C1211.73 231.374 1217.92 227.087 1222.36 221.46L1217.65 217.742C1214 222.37 1208.76 226.09 1201.78 228.816L1203.96 234.406ZM1222.36 221.46C1226.84 215.792 1229.08 209.241 1229.08 201.923H1223.08C1223.08 207.92 1221.27 213.154 1217.65 217.742L1222.36 221.46ZM1229.08 201.923C1229.08 195.074 1227.02 189.132 1222.81 184.298L1218.29 188.242C1221.45 191.864 1223.08 196.358 1223.08 201.923H1229.08ZM1222.83 184.326C1218.84 179.634 1213.09 175.798 1205.79 172.712L1203.45 178.237C1210.19 181.088 1215.06 184.449 1218.26 188.214L1222.83 184.326ZM1205.81 172.717C1198.68 169.662 1190.01 166.916 1179.82 164.461L1178.42 170.294C1188.38 172.697 1196.71 175.349 1203.44 178.232L1205.81 172.717ZM1179.85 164.468L1149.76 156.911L1148.3 162.731L1178.39 170.287L1179.85 164.468ZM1149.74 156.906C1126.76 151.318 1108.86 142.637 1095.83 131L1091.84 135.474C1105.8 147.947 1124.69 156.988 1148.32 162.736L1149.74 156.906ZM1095.83 131C1083.07 119.594 1076.64 104.221 1076.73 84.5359L1070.73 84.5095C1070.64 105.667 1077.62 122.77 1091.84 135.474L1095.83 131ZM1076.73 84.5066C1076.64 68.3501 1080.93 54.3631 1089.52 42.4182L1084.65 38.9142C1075.25 51.9788 1070.64 67.2294 1070.73 84.5388L1076.73 84.5066ZM1089.52 42.4297C1098.25 30.402 1110.27 20.9556 1125.68 14.1262L1123.25 8.6408C1106.99 15.8456 1094.09 25.9209 1084.66 38.9027L1089.52 42.4297ZM1125.68 14.1262C1141.08 7.30433 1158.64 3.85794 1178.44 3.85794V-2.14206C1157.94 -2.14206 1139.53 1.4286 1123.25 8.6408L1125.68 14.1262ZM1178.44 3.85794C1198.62 3.85794 1216.08 7.30823 1230.9 14.1102L1233.4 8.65683C1217.64 1.42471 1199.3 -2.14206 1178.44 -2.14206V3.85794ZM1230.91 14.113C1245.85 20.9303 1257.37 30.3566 1265.57 42.359L1270.52 38.9734C1261.63 25.9663 1249.22 15.8709 1233.4 8.65406L1230.91 14.113ZM1265.57 42.359C1273.76 54.3365 1278.01 68.2378 1278.27 84.1671L1284.27 84.0687C1283.99 67.0718 1279.43 52.0053 1270.52 38.9734L1265.57 42.359ZM1281.27 81.1179H1225.27V87.1179H1281.27V81.1179Z" fill="#404040" fill-opacity="0.5" mask="url(#path-1-outside-1_12_9)"/>
</svg>
