<svg width="1353" height="460" viewBox="0 0 1353 460" fill="none" xmlns="http://www.w3.org/2000/svg">
<mask id="path-1-outside-1_24_3" maskUnits="userSpaceOnUse" x="1" y="86" width="269" height="287" fill="black">
<rect fill="white" x="1" y="86" width="269" height="287"/>
<path d="M78.8068 91.6364L134.538 185.827H136.697L192.699 91.6364H258.686L174.347 229.818L260.575 368H193.374L136.697 273.675H134.538L77.8622 368H10.9304L97.429 229.818L12.5497 91.6364H78.8068Z"/>
</mask>
<path d="M78.8068 91.6364L134.538 185.827H136.697L192.699 91.6364H258.686L174.347 229.818L260.575 368H193.374L136.697 273.675H134.538L77.8622 368H10.9304L97.429 229.818L12.5497 91.6364H78.8068Z" fill="black"/>
<path d="M78.8068 91.6364L83.11 89.0902L81.6581 86.6364H78.8068V91.6364ZM134.538 185.827L130.235 188.373L131.687 190.827H134.538V185.827ZM136.697 185.827V190.827H139.542L140.995 188.382L136.697 185.827ZM192.699 91.6364V86.6364H189.855L188.401 89.0811L192.699 91.6364ZM258.686 91.6364L262.954 94.2412L267.596 86.6364H258.686V91.6364ZM174.347 229.818L170.079 227.213L168.471 229.847L170.105 232.465L174.347 229.818ZM260.575 368V373H269.589L264.817 365.353L260.575 368ZM193.374 368L189.088 370.575L190.545 373H193.374V368ZM136.697 273.675L140.983 271.1L139.526 268.675H136.697V273.675ZM134.538 273.675V268.675H131.709L130.253 271.1L134.538 273.675ZM77.8622 368V373H80.6911L82.1481 370.575L77.8622 368ZM10.9304 368L6.69227 365.347L1.90169 373H10.9304V368ZM97.429 229.818L101.667 232.471L103.312 229.843L101.689 227.201L97.429 229.818ZM12.5497 91.6364V86.6364H3.61048L8.28928 94.2534L12.5497 91.6364ZM74.5037 94.1825L130.235 188.373L138.842 183.281L83.11 89.0902L74.5037 94.1825ZM134.538 190.827H136.697V180.827H134.538V190.827ZM140.995 188.382L196.997 94.1916L188.401 89.0811L132.4 183.271L140.995 188.382ZM192.699 96.6364H258.686V86.6364H192.699V96.6364ZM254.418 89.0315L170.079 227.213L178.614 232.423L262.954 94.2412L254.418 89.0315ZM170.105 232.465L256.333 370.647L264.817 365.353L178.588 227.171L170.105 232.465ZM260.575 363H193.374V373H260.575V363ZM197.659 365.425L140.983 271.1L132.412 276.25L189.088 370.575L197.659 365.425ZM136.697 268.675H134.538V278.675H136.697V268.675ZM130.253 271.1L73.5764 365.425L82.1481 370.575L138.824 276.25L130.253 271.1ZM77.8622 363H10.9304V373H77.8622V363ZM15.1685 370.653L101.667 232.471L93.1909 227.165L6.69227 365.347L15.1685 370.653ZM101.689 227.201L16.8102 89.0193L8.28928 94.2534L93.1685 232.435L101.689 227.201ZM12.5497 96.6364H78.8068V86.6364H12.5497V96.6364Z" fill="#404040" fill-opacity="0.5" mask="url(#path-1-outside-1_24_3)"/>
<mask id="path-3-outside-2_24_3" maskUnits="userSpaceOnUse" x="318" y="86" width="224" height="287" fill="black">
<rect fill="white" x="318" y="86" width="224" height="287"/>
<path d="M323.02 368V91.6364H433.673C454.005 91.6364 470.963 94.6501 484.547 100.678C498.131 106.705 508.342 115.071 515.179 125.777C522.016 136.393 525.435 148.627 525.435 162.482C525.435 173.277 523.276 182.768 518.957 190.955C514.639 199.051 508.702 205.708 501.145 210.926C493.678 216.054 485.132 219.697 475.506 221.857V224.555C486.031 225.005 495.882 227.974 505.058 233.462C514.324 238.949 521.836 246.641 527.594 256.537C533.351 266.343 536.23 278.038 536.23 291.622C536.23 306.286 532.587 319.375 525.3 330.891C518.103 342.316 507.442 351.357 493.318 358.014C479.194 364.671 461.786 368 441.095 368H323.02ZM381.45 320.23H429.085C445.368 320.23 457.243 317.126 464.71 310.919C472.177 304.622 475.911 296.255 475.911 285.82C475.911 278.173 474.066 271.426 470.378 265.578C466.689 259.731 461.427 255.143 454.589 251.814C447.842 248.485 439.791 246.821 430.435 246.821H381.45V320.23ZM381.45 207.283H424.767C432.774 207.283 439.881 205.888 446.088 203.099C452.385 200.221 457.333 196.172 460.932 190.955C464.62 185.737 466.464 179.484 466.464 172.197C466.464 162.212 462.911 154.16 455.804 148.043C448.787 141.925 438.801 138.866 425.847 138.866H381.45V207.283Z"/>
</mask>
<path d="M323.02 368V91.6364H433.673C454.005 91.6364 470.963 94.6501 484.547 100.678C498.131 106.705 508.342 115.071 515.179 125.777C522.016 136.393 525.435 148.627 525.435 162.482C525.435 173.277 523.276 182.768 518.957 190.955C514.639 199.051 508.702 205.708 501.145 210.926C493.678 216.054 485.132 219.697 475.506 221.857V224.555C486.031 225.005 495.882 227.974 505.058 233.462C514.324 238.949 521.836 246.641 527.594 256.537C533.351 266.343 536.23 278.038 536.23 291.622C536.23 306.286 532.587 319.375 525.3 330.891C518.103 342.316 507.442 351.357 493.318 358.014C479.194 364.671 461.786 368 441.095 368H323.02ZM381.45 320.23H429.085C445.368 320.23 457.243 317.126 464.71 310.919C472.177 304.622 475.911 296.255 475.911 285.82C475.911 278.173 474.066 271.426 470.378 265.578C466.689 259.731 461.427 255.143 454.589 251.814C447.842 248.485 439.791 246.821 430.435 246.821H381.45V320.23ZM381.45 207.283H424.767C432.774 207.283 439.881 205.888 446.088 203.099C452.385 200.221 457.333 196.172 460.932 190.955C464.62 185.737 466.464 179.484 466.464 172.197C466.464 162.212 462.911 154.16 455.804 148.043C448.787 141.925 438.801 138.866 425.847 138.866H381.45V207.283Z" fill="black"/>
<path d="M323.02 368H318.02V373H323.02V368ZM323.02 91.6364V86.6364H318.02V91.6364H323.02ZM484.547 100.678L482.519 105.248L484.547 100.678ZM515.179 125.777L510.965 128.468L510.97 128.476L510.975 128.484L515.179 125.777ZM518.957 190.955L523.369 193.307L523.375 193.297L523.38 193.287L518.957 190.955ZM501.145 210.926L503.975 215.048L503.986 215.041L501.145 210.926ZM475.506 221.857L474.411 216.978L470.506 217.854V221.857H475.506ZM475.506 224.555H470.506V229.346L475.292 229.551L475.506 224.555ZM505.058 233.462L502.492 237.753L502.501 237.758L502.51 237.764L505.058 233.462ZM527.594 256.537L523.272 259.051L523.277 259.06L523.282 259.069L527.594 256.537ZM525.3 330.891L521.075 328.217L521.069 328.226L525.3 330.891ZM493.318 358.014L491.186 353.491L493.318 358.014ZM381.45 320.23H376.45V325.23H381.45V320.23ZM464.71 310.919L467.907 314.764L467.92 314.753L467.934 314.741L464.71 310.919ZM470.378 265.578L466.149 268.246L470.378 265.578ZM454.589 251.814L452.377 256.298L452.389 256.304L452.401 256.309L454.589 251.814ZM381.45 246.821V241.821H376.45V246.821H381.45ZM381.45 207.283H376.45V212.283H381.45V207.283ZM446.088 203.099L448.137 207.66L448.152 207.654L448.167 207.647L446.088 203.099ZM460.932 190.955L456.849 188.068L456.832 188.092L456.816 188.116L460.932 190.955ZM455.804 148.043L452.518 151.811L452.53 151.822L452.542 151.832L455.804 148.043ZM381.45 138.866V133.866H376.45V138.866H381.45ZM328.02 368V91.6364H318.02V368H328.02ZM323.02 96.6364H433.673V86.6364H323.02V96.6364ZM433.673 96.6364C453.548 96.6364 469.762 99.5876 482.519 105.248L486.575 96.1072C472.163 89.7126 454.462 86.6364 433.673 86.6364V96.6364ZM482.519 105.248C495.362 110.946 504.741 118.723 510.965 128.468L519.393 123.086C511.943 111.42 500.901 102.464 486.575 96.1072L482.519 105.248ZM510.975 128.484C517.242 138.215 520.435 149.491 520.435 162.482H530.435C530.435 147.764 526.79 134.57 519.383 123.07L510.975 128.484ZM520.435 162.482C520.435 172.6 518.415 181.265 514.535 188.622L523.38 193.287C528.136 184.271 530.435 173.954 530.435 162.482H520.435ZM514.546 188.602C510.603 195.994 505.205 202.047 498.304 206.812L503.986 215.041C512.199 209.37 518.675 202.109 523.369 193.307L514.546 188.602ZM498.314 206.804C491.418 211.541 483.471 214.946 474.411 216.978L476.6 226.735C486.792 224.449 495.938 220.567 503.975 215.048L498.314 206.804ZM470.506 221.857V224.555H480.506V221.857H470.506ZM475.292 229.551C484.974 229.965 494.018 232.685 502.492 237.753L507.625 229.17C497.746 223.263 487.088 220.046 475.719 219.56L475.292 229.551ZM502.51 237.764C510.996 242.789 517.916 249.845 523.272 259.051L531.915 254.022C525.757 243.437 517.653 235.109 507.606 229.16L502.51 237.764ZM523.282 259.069C528.508 267.97 531.23 278.754 531.23 291.622H541.23C541.23 277.322 538.194 264.716 531.905 254.005L523.282 259.069ZM531.23 291.622C531.23 305.414 527.817 317.563 521.075 328.217L529.525 333.564C537.357 321.188 541.23 307.158 541.23 291.622H531.23ZM521.069 328.226C514.456 338.724 504.586 347.176 491.186 353.491L495.45 362.537C510.299 355.538 521.75 345.907 529.53 333.556L521.069 328.226ZM491.186 353.491C477.909 359.75 461.278 363 441.095 363V373C462.295 373 480.479 369.593 495.45 362.537L491.186 353.491ZM441.095 363H323.02V373H441.095V363ZM381.45 325.23H429.085V315.23H381.45V325.23ZM429.085 325.23C445.81 325.23 459.108 322.078 467.907 314.764L461.514 307.074C455.378 312.175 444.927 315.23 429.085 315.23V325.23ZM467.934 314.741C476.612 307.422 480.911 297.614 480.911 285.82H470.911C470.911 294.896 467.742 301.821 461.487 307.097L467.934 314.741ZM480.911 285.82C480.911 277.332 478.852 269.64 474.607 262.911L466.149 268.246C469.281 273.211 470.911 279.013 470.911 285.82H480.911ZM474.607 262.911C470.373 256.198 464.366 251.012 456.778 247.318L452.401 256.309C458.487 259.273 463.006 263.263 466.149 268.246L474.607 262.911ZM456.802 247.33C449.219 243.589 440.375 241.821 430.435 241.821V251.821C439.206 251.821 446.465 253.381 452.377 256.298L456.802 247.33ZM430.435 241.821H381.45V251.821H430.435V241.821ZM376.45 246.821V320.23H386.45V246.821H376.45ZM381.45 212.283H424.767V202.283H381.45V212.283ZM424.767 212.283C433.357 212.283 441.182 210.785 448.137 207.66L444.039 198.539C438.58 200.991 432.191 202.283 424.767 202.283V212.283ZM448.167 207.647C455.207 204.429 460.89 199.822 465.048 193.793L456.816 188.116C453.776 192.523 449.564 196.013 444.009 198.552L448.167 207.647ZM465.015 193.841C469.381 187.664 471.464 180.368 471.464 172.197H461.464C461.464 178.601 459.859 183.81 456.849 188.068L465.015 193.841ZM471.464 172.197C471.464 160.863 467.355 151.388 459.066 144.253L452.542 151.832C458.467 156.932 461.464 163.56 461.464 172.197H471.464ZM459.09 144.274C450.86 137.099 439.538 133.866 425.847 133.866V143.866C438.065 143.866 446.714 146.751 452.518 151.811L459.09 144.274ZM425.847 133.866H381.45V143.866H425.847V133.866ZM376.45 138.866V207.283H386.45V138.866H376.45Z" fill="#404040" fill-opacity="0.5" mask="url(#path-3-outside-2_24_3)"/>
<g filter="url(#filter0_d_24_3)">
<mask id="path-5-outside-3_24_3" maskUnits="userSpaceOnUse" x="565" y="82" width="269" height="295" fill="black">
<rect fill="white" x="565" y="82" width="269" height="295"/>
<path d="M828.983 229.818C828.983 259.955 823.27 285.595 811.845 306.736C800.51 327.877 785.036 344.025 765.425 355.18C745.903 366.246 723.952 371.778 699.572 371.778C675.013 371.778 652.972 366.201 633.45 355.045C613.929 343.89 598.5 327.742 587.165 306.601C575.83 285.46 570.162 259.866 570.162 229.818C570.162 199.681 575.83 174.042 587.165 152.901C598.5 131.759 613.929 115.656 633.45 104.591C652.972 93.4356 675.013 87.8579 699.572 87.8579C723.952 87.8579 745.903 93.4356 765.425 104.591C785.036 115.656 800.51 131.759 811.845 152.901C823.27 174.042 828.983 199.681 828.983 229.818ZM769.743 229.818C769.743 210.296 766.819 193.833 760.972 180.429C755.214 167.025 747.072 156.859 736.547 149.932C726.021 143.005 713.697 139.541 699.572 139.541C685.448 139.541 673.124 143.005 662.598 149.932C652.072 156.859 643.886 167.025 638.038 180.429C632.281 193.833 629.402 210.296 629.402 229.818C629.402 249.34 632.281 265.803 638.038 279.207C643.886 292.612 652.072 302.777 662.598 309.705C673.124 316.632 685.448 320.095 699.572 320.095C713.697 320.095 726.021 316.632 736.547 309.705C747.072 302.777 755.214 292.612 760.972 279.207C766.819 265.803 769.743 249.34 769.743 229.818Z"/>
</mask>
<path d="M828.983 229.818C828.983 259.955 823.27 285.595 811.845 306.736C800.51 327.877 785.036 344.025 765.425 355.18C745.903 366.246 723.952 371.778 699.572 371.778C675.013 371.778 652.972 366.201 633.45 355.045C613.929 343.89 598.5 327.742 587.165 306.601C575.83 285.46 570.162 259.866 570.162 229.818C570.162 199.681 575.83 174.042 587.165 152.901C598.5 131.759 613.929 115.656 633.45 104.591C652.972 93.4356 675.013 87.8579 699.572 87.8579C723.952 87.8579 745.903 93.4356 765.425 104.591C785.036 115.656 800.51 131.759 811.845 152.901C823.27 174.042 828.983 199.681 828.983 229.818ZM769.743 229.818C769.743 210.296 766.819 193.833 760.972 180.429C755.214 167.025 747.072 156.859 736.547 149.932C726.021 143.005 713.697 139.541 699.572 139.541C685.448 139.541 673.124 143.005 662.598 149.932C652.072 156.859 643.886 167.025 638.038 180.429C632.281 193.833 629.402 210.296 629.402 229.818C629.402 249.34 632.281 265.803 638.038 279.207C643.886 292.612 652.072 302.777 662.598 309.705C673.124 316.632 685.448 320.095 699.572 320.095C713.697 320.095 726.021 316.632 736.547 309.705C747.072 302.777 755.214 292.612 760.972 279.207C766.819 265.803 769.743 249.34 769.743 229.818Z" fill="black" shape-rendering="crispEdges"/>
<path d="M811.845 306.736L807.446 304.359L807.443 304.366L807.439 304.373L811.845 306.736ZM765.425 355.18L767.89 359.53L767.897 359.527L765.425 355.18ZM633.45 355.045L635.931 350.704L633.45 355.045ZM587.165 306.601L582.758 308.964L587.165 306.601ZM587.165 152.901L591.571 155.263L587.165 152.901ZM633.45 104.591L635.916 108.941L635.923 108.936L635.931 108.932L633.45 104.591ZM765.425 104.591L762.944 108.932L762.956 108.939L762.968 108.946L765.425 104.591ZM811.845 152.901L807.439 155.263L807.443 155.271L807.446 155.278L811.845 152.901ZM760.972 180.429L756.377 182.402L756.383 182.415L756.389 182.428L760.972 180.429ZM736.547 149.932L733.798 154.108L736.547 149.932ZM662.598 149.932L665.347 154.108L662.598 149.932ZM638.038 180.429L633.455 178.43L633.45 178.443L633.444 178.456L638.038 180.429ZM638.038 279.207L633.444 281.181L633.45 281.194L633.455 281.207L638.038 279.207ZM662.598 309.705L665.347 305.528L662.598 309.705ZM736.547 309.705L733.798 305.528L736.547 309.705ZM760.972 279.207L756.389 277.208L756.383 277.221L756.377 277.234L760.972 279.207ZM823.983 229.818C823.983 259.333 818.389 284.11 807.446 304.359L816.244 309.113C828.152 287.079 833.983 260.578 833.983 229.818H823.983ZM807.439 304.373C796.519 324.739 781.693 340.175 762.953 350.834L767.897 359.527C788.38 347.876 804.501 331.015 816.252 309.098L807.439 304.373ZM762.959 350.831C744.253 361.433 723.165 366.778 699.572 366.778V376.778C724.74 376.778 747.552 371.058 767.89 359.53L762.959 350.831ZM699.572 366.778C675.8 366.778 654.629 361.389 635.931 350.704L630.97 359.387C651.315 371.013 674.225 376.778 699.572 376.778V366.778ZM635.931 350.704C617.279 340.046 602.494 324.61 591.571 304.238L582.758 308.964C594.506 330.874 610.578 347.734 630.97 359.387L635.931 350.704ZM591.571 304.238C580.712 283.985 575.162 259.245 575.162 229.818H565.162C565.162 260.486 570.947 286.935 582.758 308.964L591.571 304.238ZM575.162 229.818C575.162 200.298 580.713 175.515 591.571 155.263L582.758 150.538C570.946 172.569 565.162 199.064 565.162 229.818H575.162ZM591.571 155.263C602.492 134.895 617.273 119.508 635.916 108.941L630.985 100.241C610.584 111.805 594.508 128.624 582.758 150.538L591.571 155.263ZM635.931 108.932C654.629 98.2477 675.8 92.8579 699.572 92.8579V82.8579C674.225 82.8579 651.315 88.6235 630.97 100.25L635.931 108.932ZM699.572 92.8579C723.158 92.8579 744.241 98.2445 762.944 108.932L767.905 100.25C747.565 88.6267 724.747 82.8579 699.572 82.8579V92.8579ZM762.968 108.946C781.699 119.514 796.521 134.9 807.439 155.263L816.252 150.538C804.499 128.618 788.374 111.798 767.882 100.236L762.968 108.946ZM807.446 155.278C818.389 175.526 823.983 200.304 823.983 229.818H833.983C833.983 199.058 828.152 172.557 816.244 150.523L807.446 155.278ZM774.743 229.818C774.743 209.827 771.753 192.638 765.554 178.43L756.389 182.428C761.886 195.029 764.743 210.766 764.743 229.818H774.743ZM765.566 178.456C759.484 164.298 750.762 153.301 739.296 145.755L733.798 154.108C743.383 160.417 750.944 169.752 756.377 182.402L765.566 178.456ZM739.296 145.755C727.857 138.228 714.551 134.541 699.572 134.541V144.541C712.842 144.541 724.185 147.782 733.798 154.108L739.296 145.755ZM699.572 134.541C684.594 134.541 671.287 138.228 659.849 145.755L665.347 154.108C674.96 147.782 686.303 144.541 699.572 144.541V134.541ZM659.849 145.755C648.391 153.296 639.627 164.283 633.455 178.43L642.621 182.428C648.145 169.766 655.754 160.422 665.347 154.108L659.849 145.755ZM633.444 178.456C627.345 192.656 624.402 209.835 624.402 229.818H634.402C634.402 210.758 637.217 195.011 642.632 182.402L633.444 178.456ZM624.402 229.818C624.402 249.801 627.345 266.98 633.444 281.181L642.632 277.234C637.217 264.626 634.402 248.878 634.402 229.818H624.402ZM633.455 281.207C639.627 295.353 648.391 306.34 659.849 313.881L665.347 305.528C655.754 299.215 648.145 289.87 642.621 277.208L633.455 281.207ZM659.849 313.881C671.287 321.409 684.594 325.095 699.572 325.095V315.095C686.303 315.095 674.96 311.854 665.347 305.528L659.849 313.881ZM699.572 325.095C714.551 325.095 727.857 321.409 739.296 313.881L733.798 305.528C724.185 311.854 712.842 315.095 699.572 315.095V325.095ZM739.296 313.881C750.762 306.335 759.484 295.339 765.566 281.181L756.377 277.234C750.944 289.885 743.383 299.22 733.798 305.528L739.296 313.881ZM765.554 281.207C771.753 266.998 774.743 249.81 774.743 229.818H764.743C764.743 248.87 761.886 264.608 756.389 277.208L765.554 281.207Z" fill="#404040" fill-opacity="0.5" mask="url(#path-5-outside-3_24_3)"/>
</g>
<mask id="path-7-outside-4_24_3" maskUnits="userSpaceOnUse" x="857" y="86" width="238" height="287" fill="black">
<rect fill="white" x="857" y="86" width="238" height="287"/>
<path d="M862.494 139.811V91.6364H1089.47V139.811H1004.86V368H947.104V139.811H862.494Z"/>
</mask>
<path d="M862.494 139.811V91.6364H1089.47V139.811H1004.86V368H947.104V139.811H862.494Z" fill="black"/>
<path d="M862.494 139.811H857.494V144.811H862.494V139.811ZM862.494 91.6364V86.6364H857.494V91.6364H862.494ZM1089.47 91.6364H1094.47V86.6364H1089.47V91.6364ZM1089.47 139.811V144.811H1094.47V139.811H1089.47ZM1004.86 139.811V134.811H999.859V139.811H1004.86ZM1004.86 368V373H1009.86V368H1004.86ZM947.104 368H942.104V373H947.104V368ZM947.104 139.811H952.104V134.811H947.104V139.811ZM867.494 139.811V91.6364H857.494V139.811H867.494ZM862.494 96.6364H1089.47V86.6364H862.494V96.6364ZM1084.47 91.6364V139.811H1094.47V91.6364H1084.47ZM1089.47 134.811H1004.86V144.811H1089.47V134.811ZM999.859 139.811V368H1009.86V139.811H999.859ZM1004.86 363H947.104V373H1004.86V363ZM952.104 368V139.811H942.104V368H952.104ZM947.104 134.811H862.494V144.811H947.104V134.811Z" fill="#404040" fill-opacity="0.5" mask="url(#path-7-outside-4_24_3)"/>
<mask id="path-9-outside-5_24_3" maskUnits="userSpaceOnUse" x="1112" y="82" width="230" height="295" fill="black">
<rect fill="white" x="1112" y="82" width="230" height="295"/>
<path d="M1276.94 171.118C1275.86 160.232 1271.23 151.776 1263.04 145.749C1254.86 139.721 1243.75 136.707 1229.71 136.707C1220.18 136.707 1212.12 138.057 1205.56 140.756C1198.99 143.365 1193.95 147.008 1190.44 151.686C1187.02 156.364 1185.32 161.672 1185.32 167.609C1185.14 172.557 1186.17 176.875 1188.42 180.564C1190.76 184.252 1193.95 187.446 1198 190.145C1202.05 192.754 1206.73 195.048 1212.03 197.027C1217.34 198.916 1223.01 200.536 1229.04 201.885L1253.87 207.822C1265.92 210.521 1276.99 214.12 1287.06 218.618C1297.14 223.116 1305.86 228.649 1313.24 235.216C1320.62 241.783 1326.33 249.52 1330.38 258.426C1334.52 267.332 1336.63 277.543 1336.72 289.058C1336.63 305.971 1332.31 320.635 1323.77 333.05C1315.31 345.375 1303.08 354.955 1287.06 361.793C1271.14 368.54 1251.93 371.913 1229.44 371.913C1207.13 371.913 1187.7 368.495 1171.15 361.658C1154.68 354.821 1141.82 344.7 1132.55 331.295C1123.38 317.801 1118.56 301.113 1118.11 281.232H1174.65C1175.28 290.498 1177.94 298.234 1182.62 304.442C1187.38 310.559 1193.73 315.192 1201.64 318.341C1209.65 321.4 1218.69 322.929 1228.77 322.929C1238.66 322.929 1247.25 321.49 1254.54 318.611C1261.92 315.732 1267.63 311.729 1271.68 306.601C1275.73 301.473 1277.75 295.58 1277.75 288.923C1277.75 282.716 1275.91 277.498 1272.22 273.27C1268.62 269.042 1263.31 265.443 1256.3 262.474C1249.37 259.506 1240.87 256.807 1230.79 254.378L1200.7 246.821C1177.4 241.153 1159 232.292 1145.51 220.237C1132.01 208.182 1125.31 191.944 1125.4 171.523C1125.31 154.79 1129.76 140.171 1138.76 127.666C1147.85 115.161 1160.31 105.401 1176.14 98.3835C1191.97 91.3665 1209.96 87.8579 1230.12 87.8579C1250.63 87.8579 1268.53 91.3665 1283.82 98.3835C1299.21 105.401 1311.17 115.161 1319.72 127.666C1328.27 140.171 1332.67 154.655 1332.94 171.118H1276.94Z"/>
</mask>
<path d="M1276.94 171.118C1275.86 160.232 1271.23 151.776 1263.04 145.749C1254.86 139.721 1243.75 136.707 1229.71 136.707C1220.18 136.707 1212.12 138.057 1205.56 140.756C1198.99 143.365 1193.95 147.008 1190.44 151.686C1187.02 156.364 1185.32 161.672 1185.32 167.609C1185.14 172.557 1186.17 176.875 1188.42 180.564C1190.76 184.252 1193.95 187.446 1198 190.145C1202.05 192.754 1206.73 195.048 1212.03 197.027C1217.34 198.916 1223.01 200.536 1229.04 201.885L1253.87 207.822C1265.92 210.521 1276.99 214.12 1287.06 218.618C1297.14 223.116 1305.86 228.649 1313.24 235.216C1320.62 241.783 1326.33 249.52 1330.38 258.426C1334.52 267.332 1336.63 277.543 1336.72 289.058C1336.63 305.971 1332.31 320.635 1323.77 333.05C1315.31 345.375 1303.08 354.955 1287.06 361.793C1271.14 368.54 1251.93 371.913 1229.44 371.913C1207.13 371.913 1187.7 368.495 1171.15 361.658C1154.68 354.821 1141.82 344.7 1132.55 331.295C1123.38 317.801 1118.56 301.113 1118.11 281.232H1174.65C1175.28 290.498 1177.94 298.234 1182.62 304.442C1187.38 310.559 1193.73 315.192 1201.64 318.341C1209.65 321.4 1218.69 322.929 1228.77 322.929C1238.66 322.929 1247.25 321.49 1254.54 318.611C1261.92 315.732 1267.63 311.729 1271.68 306.601C1275.73 301.473 1277.75 295.58 1277.75 288.923C1277.75 282.716 1275.91 277.498 1272.22 273.27C1268.62 269.042 1263.31 265.443 1256.3 262.474C1249.37 259.506 1240.87 256.807 1230.79 254.378L1200.7 246.821C1177.4 241.153 1159 232.292 1145.51 220.237C1132.01 208.182 1125.31 191.944 1125.4 171.523C1125.31 154.79 1129.76 140.171 1138.76 127.666C1147.85 115.161 1160.31 105.401 1176.14 98.3835C1191.97 91.3665 1209.96 87.8579 1230.12 87.8579C1250.63 87.8579 1268.53 91.3665 1283.82 98.3835C1299.21 105.401 1311.17 115.161 1319.72 127.666C1328.27 140.171 1332.67 154.655 1332.94 171.118H1276.94Z" fill="black"/>
<path d="M1276.94 171.118L1271.97 171.611L1272.41 176.118H1276.94V171.118ZM1205.56 140.756L1207.4 145.402L1207.43 145.392L1207.46 145.38L1205.56 140.756ZM1190.44 151.686L1186.44 148.686L1186.42 148.711L1186.41 148.736L1190.44 151.686ZM1185.32 167.609L1190.31 167.791L1190.32 167.7V167.609H1185.32ZM1188.42 180.564L1184.15 183.167L1184.17 183.204L1184.2 183.242L1188.42 180.564ZM1198 190.145L1195.23 194.305L1195.26 194.327L1195.29 194.348L1198 190.145ZM1212.03 197.027L1210.29 201.712L1210.32 201.725L1210.36 201.737L1212.03 197.027ZM1229.04 201.885L1230.2 197.022L1230.16 197.014L1230.13 197.006L1229.04 201.885ZM1253.87 207.822L1252.7 212.685L1252.74 212.694L1252.77 212.702L1253.87 207.822ZM1287.06 218.618L1285.02 223.184L1287.06 218.618ZM1313.24 235.216L1316.57 231.481L1313.24 235.216ZM1330.38 258.426L1325.83 260.495L1325.84 260.514L1325.84 260.533L1330.38 258.426ZM1336.72 289.058L1341.72 289.085L1341.72 289.052L1341.72 289.019L1336.72 289.058ZM1323.77 333.05L1319.65 330.215L1319.64 330.221L1323.77 333.05ZM1287.06 361.793L1289.01 366.396L1289.03 366.391L1287.06 361.793ZM1171.15 361.658L1169.23 366.275L1169.24 366.279L1171.15 361.658ZM1132.55 331.295L1128.42 334.107L1128.43 334.123L1128.44 334.139L1132.55 331.295ZM1118.11 281.232V276.232H1113L1113.11 281.345L1118.11 281.232ZM1174.65 281.232L1179.64 280.893L1179.33 276.232H1174.65V281.232ZM1182.62 304.442L1178.62 307.451L1178.65 307.483L1178.67 307.515L1182.62 304.442ZM1201.64 318.341L1199.8 322.987L1199.83 323L1199.86 323.012L1201.64 318.341ZM1254.54 318.611L1252.72 313.953L1252.71 313.957L1252.7 313.961L1254.54 318.611ZM1271.68 306.601L1275.6 309.699L1271.68 306.601ZM1272.22 273.27L1268.41 276.51L1268.43 276.534L1268.45 276.557L1272.22 273.27ZM1256.3 262.474L1254.33 267.07L1254.34 267.075L1254.35 267.079L1256.3 262.474ZM1230.79 254.378L1229.57 259.227L1229.6 259.233L1229.62 259.239L1230.79 254.378ZM1200.7 246.821L1201.92 241.972L1201.9 241.967L1201.88 241.963L1200.7 246.821ZM1145.51 220.237L1142.18 223.966L1145.51 220.237ZM1125.4 171.523L1130.4 171.545L1130.4 171.52L1130.4 171.496L1125.4 171.523ZM1138.76 127.666L1134.72 124.727L1134.71 124.737L1134.7 124.746L1138.76 127.666ZM1283.82 98.3835L1281.74 102.928L1281.75 102.933L1283.82 98.3835ZM1319.72 127.666L1315.59 130.487L1319.72 127.666ZM1332.94 171.118V176.118H1338.03L1337.94 171.036L1332.94 171.118ZM1281.92 170.624C1280.71 158.45 1275.43 148.659 1266.01 141.722L1260.08 149.775C1267.03 154.894 1271.01 162.015 1271.97 171.611L1281.92 170.624ZM1266.01 141.722C1256.69 134.862 1244.42 131.707 1229.71 131.707V141.707C1243.08 141.707 1253.02 144.581 1260.08 149.775L1266.01 141.722ZM1229.71 131.707C1219.73 131.707 1210.99 133.115 1203.66 136.131L1207.46 145.38C1213.25 142.999 1220.62 141.707 1229.71 141.707V131.707ZM1203.71 136.109C1196.47 138.987 1190.61 143.131 1186.44 148.686L1194.44 154.686C1197.29 150.885 1201.51 147.742 1207.4 145.402L1203.71 136.109ZM1186.41 148.736C1182.35 154.293 1180.32 160.639 1180.32 167.609H1190.32C1190.32 162.704 1191.7 158.435 1194.48 154.636L1186.41 148.736ZM1180.32 167.428C1180.11 173.208 1181.32 178.524 1184.15 183.167L1192.69 177.961C1191.02 175.227 1190.16 171.907 1190.31 167.791L1180.32 167.428ZM1184.2 183.242C1186.95 187.584 1190.66 191.263 1195.23 194.305L1200.77 185.985C1197.24 183.629 1194.57 180.921 1192.64 177.886L1184.2 183.242ZM1195.29 194.348C1199.69 197.182 1204.7 199.628 1210.29 201.712L1213.78 192.342C1208.75 190.467 1204.41 188.326 1200.71 185.942L1195.29 194.348ZM1210.36 201.737C1215.87 203.701 1221.74 205.375 1227.94 206.764L1230.13 197.006C1224.28 195.696 1218.81 194.132 1213.71 192.316L1210.36 201.737ZM1227.87 206.748L1252.7 212.685L1255.03 202.96L1230.2 197.022L1227.87 206.748ZM1252.77 212.702C1264.54 215.336 1275.29 218.836 1285.02 223.184L1289.1 214.052C1278.69 209.403 1267.3 205.706 1254.96 202.943L1252.77 212.702ZM1285.02 223.184C1294.69 227.497 1302.97 232.762 1309.92 238.95L1316.57 231.481C1308.76 224.535 1299.59 218.735 1289.1 214.052L1285.02 223.184ZM1309.92 238.95C1316.78 245.059 1322.07 252.23 1325.83 260.495L1334.93 256.357C1330.59 246.81 1324.46 238.508 1316.57 231.481L1309.92 238.95ZM1325.84 260.533C1329.63 268.689 1331.64 278.175 1331.72 289.097L1341.72 289.019C1341.63 276.912 1339.4 265.976 1334.91 256.319L1325.84 260.533ZM1331.72 289.032C1331.64 305.068 1327.56 318.725 1319.65 330.215L1327.89 335.885C1337.07 322.545 1341.63 306.874 1341.72 289.085L1331.72 289.032ZM1319.64 330.221C1311.81 341.641 1300.39 350.667 1285.1 357.194L1289.03 366.391C1305.77 359.244 1318.81 349.108 1327.89 335.879L1319.64 330.221ZM1285.11 357.189C1269.96 363.609 1251.45 366.913 1229.44 366.913V376.913C1252.41 376.913 1272.32 373.471 1289.01 366.396L1285.11 357.189ZM1229.44 366.913C1207.63 366.913 1188.87 363.57 1173.06 357.036L1169.24 366.279C1186.52 373.419 1206.63 376.913 1229.44 376.913V366.913ZM1173.06 357.04C1157.4 350.535 1145.33 340.993 1136.67 328.452L1128.44 334.139C1138.3 348.407 1151.97 359.106 1169.23 366.275L1173.06 357.04ZM1136.69 328.484C1128.16 315.946 1123.55 300.248 1123.11 281.118L1113.11 281.345C1113.58 301.978 1118.59 319.656 1128.42 334.107L1136.69 328.484ZM1118.11 286.232H1174.65V276.232H1118.11V286.232ZM1169.67 281.571C1170.35 291.613 1173.26 300.329 1178.62 307.451L1186.61 301.432C1182.62 296.14 1180.22 289.382 1179.64 280.893L1169.67 281.571ZM1178.67 307.515C1184.04 314.402 1191.14 319.543 1199.8 322.987L1203.49 313.695C1196.32 310.841 1190.73 306.717 1186.56 301.368L1178.67 307.515ZM1199.86 323.012C1208.53 326.323 1218.19 327.929 1228.77 327.929V317.929C1219.2 317.929 1210.77 316.477 1203.43 313.67L1199.86 323.012ZM1228.77 327.929C1239.13 327.929 1248.37 326.423 1256.38 323.261L1252.7 313.961C1246.13 316.556 1238.19 317.929 1228.77 317.929V327.929ZM1256.36 323.269C1264.39 320.135 1270.9 315.659 1275.6 309.699L1267.75 303.503C1264.36 307.798 1259.45 311.329 1252.72 313.953L1256.36 323.269ZM1275.6 309.699C1280.36 303.671 1282.75 296.682 1282.75 288.923H1272.75C1272.75 294.479 1271.09 299.275 1267.75 303.503L1275.6 309.699ZM1282.75 288.923C1282.75 281.645 1280.56 275.221 1275.99 269.983L1268.45 276.557C1271.26 279.775 1272.75 283.786 1272.75 288.923H1282.75ZM1276.03 270.029C1271.77 265.029 1265.73 261.035 1258.24 257.87L1254.35 267.079C1260.9 269.851 1265.47 273.054 1268.41 276.51L1276.03 270.029ZM1258.27 257.879C1251 254.767 1242.22 251.989 1231.96 249.517L1229.62 259.239C1239.52 261.624 1247.73 264.244 1254.33 267.07L1258.27 257.879ZM1232.01 249.528L1201.92 241.972L1199.48 251.67L1229.57 259.227L1232.01 249.528ZM1201.88 241.963C1179.13 236.428 1161.55 227.867 1148.84 216.508L1142.18 223.966C1156.45 236.717 1175.67 245.878 1199.52 251.679L1201.88 241.963ZM1148.84 216.508C1136.56 205.536 1130.32 190.739 1130.4 171.545L1120.4 171.501C1120.31 193.149 1127.47 210.829 1142.18 223.966L1148.84 216.508ZM1130.4 171.496C1130.32 155.724 1134.49 142.158 1142.82 130.586L1134.7 124.746C1125.03 138.184 1120.31 153.856 1120.4 171.55L1130.4 171.496ZM1142.8 130.605C1151.31 118.896 1163.04 109.659 1178.17 102.955L1174.11 93.8123C1157.57 101.142 1144.38 111.427 1134.72 124.727L1142.8 130.605ZM1178.17 102.955C1193.26 96.2629 1210.55 92.8579 1230.12 92.8579V82.8579C1209.38 82.8579 1190.68 86.47 1174.11 93.8123L1178.17 102.955ZM1230.12 92.8579C1250.06 92.8579 1267.23 96.2694 1281.74 102.928L1285.91 93.839C1269.83 86.4635 1251.19 82.8579 1230.12 82.8579V92.8579ZM1281.75 102.933C1296.4 109.617 1307.62 118.82 1315.59 130.487L1323.85 124.845C1314.73 111.503 1302.01 101.184 1285.9 93.8344L1281.75 102.933ZM1315.59 130.487C1323.54 142.114 1327.69 155.627 1327.94 171.2L1337.94 171.036C1337.66 153.683 1332.99 138.228 1323.85 124.845L1315.59 130.487ZM1332.94 166.118H1276.94V176.118H1332.94V166.118Z" fill="#404040" fill-opacity="0.5" mask="url(#path-9-outside-5_24_3)"/>
<defs>
<filter id="filter0_d_24_3" x="566.162" y="87.8579" width="266.821" height="291.921" filterUnits="userSpaceOnUse" color-interpolation-filters="sRGB">
<feFlood flood-opacity="0" result="BackgroundImageFix"/>
<feColorMatrix in="SourceAlpha" type="matrix" values="0 0 0 0 0 0 0 0 0 0 0 0 0 0 0 0 0 0 127 0" result="hardAlpha"/>
<feOffset dy="4"/>
<feGaussianBlur stdDeviation="2"/>
<feComposite in2="hardAlpha" operator="out"/>
<feColorMatrix type="matrix" values="0 0 0 0 0 0 0 0 0 0 0 0 0 0 0 0 0 0 0.25 0"/>
<feBlend mode="normal" in2="BackgroundImageFix" result="effect1_dropShadow_24_3"/>
<feBlend mode="normal" in="SourceGraphic" in2="effect1_dropShadow_24_3" result="shape"/>
</filter>
</defs>
</svg>
