<svg width="1199" height="415" viewBox="0 0 1199 415" fill="none" xmlns="http://www.w3.org/2000/svg">
<g filter="url(#filter0_d_29_5)">
<g filter="url(#filter1_d_29_5)">
<mask id="path-1-outside-1_29_5" maskUnits="userSpaceOnUse" x="298.643" y="77" width="888" height="255" fill="black">
<rect fill="white" x="298.643" y="77" width="888" height="255"/>
<path d="M308.643 327C306.077 327 303.977 326.183 302.343 324.55C300.71 322.917 299.893 320.933 299.893 318.6V90.75C299.893 88.1833 300.71 86.0833 302.343 84.45C303.977 82.8167 306.077 82 308.643 82H411.893C431.027 82 446.66 84.9167 458.793 90.75C471.16 96.35 480.26 104.167 486.093 114.2C491.927 124.233 494.843 136.133 494.843 149.9C494.843 158.767 493.21 166.467 489.943 173C486.91 179.533 483.06 184.9 478.393 189.1C473.96 193.3 469.643 196.45 465.443 198.55C474.543 202.75 482.593 209.75 489.593 219.55C496.593 229.35 500.093 240.783 500.093 253.85C500.093 268.317 496.71 281.033 489.943 292C483.41 302.967 473.843 311.6 461.243 317.9C448.643 323.967 433.127 327 414.693 327H308.643ZM353.443 287.1H408.393C420.293 287.1 429.277 283.833 435.343 277.3C441.41 270.767 444.443 262.95 444.443 253.85C444.443 244.517 441.293 236.7 434.993 230.4C428.927 223.867 420.06 220.6 408.393 220.6H353.443V287.1ZM353.443 181.4H405.243C416.677 181.4 425.193 178.6 430.793 173C436.627 167.4 439.543 160.167 439.543 151.3C439.543 142.2 436.627 135.083 430.793 129.95C425.193 124.583 416.677 121.9 405.243 121.9H353.443V181.4ZM638.477 330.5C617.477 330.5 599.277 327.117 583.877 320.35C568.711 313.35 556.811 302.733 548.177 288.5C539.777 274.033 535.227 256.183 534.527 234.95C534.294 224.917 534.177 215 534.177 205.2C534.177 195.167 534.294 185.017 534.527 174.75C535.227 153.517 539.894 135.783 548.527 121.55C557.394 107.317 569.527 96.5833 584.927 89.35C600.327 82.1167 618.177 78.5 638.477 78.5C659.011 78.5 676.977 82.1167 692.377 89.35C707.777 96.5833 719.794 107.317 728.427 121.55C737.294 135.783 742.077 153.517 742.777 174.75C743.244 185.017 743.477 195.167 743.477 205.2C743.477 215 743.244 224.917 742.777 234.95C742.077 256.183 737.411 274.033 728.777 288.5C720.144 302.733 708.127 313.35 692.727 320.35C677.561 327.117 659.477 330.5 638.477 330.5ZM638.477 286.75C652.711 286.75 664.261 282.55 673.127 274.15C682.227 265.75 687.011 251.983 687.477 232.85C687.944 222.583 688.177 213.133 688.177 204.5C688.177 195.633 687.944 186.183 687.477 176.15C687.244 163.55 684.911 153.283 680.477 145.35C676.277 137.183 670.561 131.35 663.327 127.85C656.094 124.117 647.811 122.25 638.477 122.25C629.377 122.25 621.211 124.117 613.977 127.85C606.744 131.35 600.911 137.183 596.477 145.35C592.277 153.283 589.944 163.55 589.477 176.15C589.244 186.183 589.127 195.633 589.127 204.5C589.127 213.133 589.244 222.583 589.477 232.85C590.177 251.983 594.961 265.75 603.827 274.15C612.927 282.55 624.477 286.75 638.477 286.75ZM845.844 327C843.277 327 841.177 326.183 839.544 324.55C837.911 322.917 837.094 320.933 837.094 318.6V128.9H773.394C770.827 128.9 768.727 128.083 767.094 126.45C765.461 124.817 764.644 122.833 764.644 120.5V90.75C764.644 88.1833 765.461 86.0833 767.094 84.45C768.727 82.8167 770.827 82 773.394 82H955.044C957.611 82 959.711 82.8167 961.344 84.45C962.977 86.0833 963.794 88.1833 963.794 90.75V120.5C963.794 122.833 962.977 124.817 961.344 126.45C959.711 128.083 957.611 128.9 955.044 128.9H891.344V318.6C891.344 320.933 890.527 322.917 888.894 324.55C887.261 326.183 885.161 327 882.594 327H845.844ZM1084.32 330.5C1061.92 330.5 1043.25 327.233 1028.32 320.7C1013.38 314.167 1002.07 305.767 994.367 295.5C986.9 285 982.934 273.8 982.467 261.9C982.467 260.033 983.167 258.4 984.567 257C985.967 255.367 987.717 254.55 989.817 254.55H1025.17C1028.2 254.55 1030.53 255.25 1032.17 256.65C1033.8 257.817 1035.32 259.333 1036.72 261.2C1038.12 265.4 1040.68 269.483 1044.42 273.45C1048.15 277.417 1053.28 280.683 1059.82 283.25C1066.35 285.583 1074.52 286.75 1084.32 286.75C1099.95 286.75 1111.62 284.183 1119.32 279.05C1127.25 273.917 1131.22 267.033 1131.22 258.4C1131.22 252.1 1129.12 247.083 1124.92 243.35C1120.72 239.383 1114.07 235.883 1104.97 232.85C1096.1 229.583 1084.32 226.2 1069.62 222.7C1052.12 218.733 1037.3 213.833 1025.17 208C1013.27 201.933 1004.17 194.233 997.867 184.9C991.8 175.567 988.767 163.9 988.767 149.9C988.767 136.133 992.5 123.883 999.967 113.15C1007.67 102.417 1018.4 94.0167 1032.17 87.95C1046.17 81.65 1062.85 78.5 1082.22 78.5C1097.62 78.5 1111.27 80.6 1123.17 84.8C1135.07 88.7667 1144.98 94.1333 1152.92 100.9C1160.85 107.667 1166.92 114.9 1171.12 122.6C1175.32 130.3 1177.53 137.767 1177.77 145C1177.77 146.867 1177.07 148.617 1175.67 150.25C1174.5 151.65 1172.75 152.35 1170.42 152.35H1133.32C1131.22 152.35 1129.23 151.883 1127.37 150.95C1125.5 150.017 1123.87 148.383 1122.47 146.05C1121.3 139.517 1117.1 133.917 1109.87 129.25C1102.63 124.583 1093.42 122.25 1082.22 122.25C1070.32 122.25 1060.87 124.467 1053.87 128.9C1046.87 133.1 1043.37 139.75 1043.37 148.85C1043.37 154.683 1045.12 159.583 1048.62 163.55C1052.35 167.517 1058.18 171.017 1066.12 174.05C1074.28 177.083 1085.25 180.35 1099.02 183.85C1119.32 188.05 1135.77 193.183 1148.37 199.25C1161.2 205.083 1170.53 212.55 1176.37 221.65C1182.43 230.75 1185.47 242.183 1185.47 255.95C1185.47 271.583 1181.15 285 1172.52 296.2C1164.12 307.167 1152.33 315.683 1137.17 321.75C1122 327.583 1104.38 330.5 1084.32 330.5Z"/>
</mask>
<path d="M308.643 327C306.077 327 303.977 326.183 302.343 324.55C300.71 322.917 299.893 320.933 299.893 318.6V90.75C299.893 88.1833 300.71 86.0833 302.343 84.45C303.977 82.8167 306.077 82 308.643 82H411.893C431.027 82 446.66 84.9167 458.793 90.75C471.16 96.35 480.26 104.167 486.093 114.2C491.927 124.233 494.843 136.133 494.843 149.9C494.843 158.767 493.21 166.467 489.943 173C486.91 179.533 483.06 184.9 478.393 189.1C473.96 193.3 469.643 196.45 465.443 198.55C474.543 202.75 482.593 209.75 489.593 219.55C496.593 229.35 500.093 240.783 500.093 253.85C500.093 268.317 496.71 281.033 489.943 292C483.41 302.967 473.843 311.6 461.243 317.9C448.643 323.967 433.127 327 414.693 327H308.643ZM353.443 287.1H408.393C420.293 287.1 429.277 283.833 435.343 277.3C441.41 270.767 444.443 262.95 444.443 253.85C444.443 244.517 441.293 236.7 434.993 230.4C428.927 223.867 420.06 220.6 408.393 220.6H353.443V287.1ZM353.443 181.4H405.243C416.677 181.4 425.193 178.6 430.793 173C436.627 167.4 439.543 160.167 439.543 151.3C439.543 142.2 436.627 135.083 430.793 129.95C425.193 124.583 416.677 121.9 405.243 121.9H353.443V181.4ZM638.477 330.5C617.477 330.5 599.277 327.117 583.877 320.35C568.711 313.35 556.811 302.733 548.177 288.5C539.777 274.033 535.227 256.183 534.527 234.95C534.294 224.917 534.177 215 534.177 205.2C534.177 195.167 534.294 185.017 534.527 174.75C535.227 153.517 539.894 135.783 548.527 121.55C557.394 107.317 569.527 96.5833 584.927 89.35C600.327 82.1167 618.177 78.5 638.477 78.5C659.011 78.5 676.977 82.1167 692.377 89.35C707.777 96.5833 719.794 107.317 728.427 121.55C737.294 135.783 742.077 153.517 742.777 174.75C743.244 185.017 743.477 195.167 743.477 205.2C743.477 215 743.244 224.917 742.777 234.95C742.077 256.183 737.411 274.033 728.777 288.5C720.144 302.733 708.127 313.35 692.727 320.35C677.561 327.117 659.477 330.5 638.477 330.5ZM638.477 286.75C652.711 286.75 664.261 282.55 673.127 274.15C682.227 265.75 687.011 251.983 687.477 232.85C687.944 222.583 688.177 213.133 688.177 204.5C688.177 195.633 687.944 186.183 687.477 176.15C687.244 163.55 684.911 153.283 680.477 145.35C676.277 137.183 670.561 131.35 663.327 127.85C656.094 124.117 647.811 122.25 638.477 122.25C629.377 122.25 621.211 124.117 613.977 127.85C606.744 131.35 600.911 137.183 596.477 145.35C592.277 153.283 589.944 163.55 589.477 176.15C589.244 186.183 589.127 195.633 589.127 204.5C589.127 213.133 589.244 222.583 589.477 232.85C590.177 251.983 594.961 265.75 603.827 274.15C612.927 282.55 624.477 286.75 638.477 286.75ZM845.844 327C843.277 327 841.177 326.183 839.544 324.55C837.911 322.917 837.094 320.933 837.094 318.6V128.9H773.394C770.827 128.9 768.727 128.083 767.094 126.45C765.461 124.817 764.644 122.833 764.644 120.5V90.75C764.644 88.1833 765.461 86.0833 767.094 84.45C768.727 82.8167 770.827 82 773.394 82H955.044C957.611 82 959.711 82.8167 961.344 84.45C962.977 86.0833 963.794 88.1833 963.794 90.75V120.5C963.794 122.833 962.977 124.817 961.344 126.45C959.711 128.083 957.611 128.9 955.044 128.9H891.344V318.6C891.344 320.933 890.527 322.917 888.894 324.55C887.261 326.183 885.161 327 882.594 327H845.844ZM1084.32 330.5C1061.92 330.5 1043.25 327.233 1028.32 320.7C1013.38 314.167 1002.07 305.767 994.367 295.5C986.9 285 982.934 273.8 982.467 261.9C982.467 260.033 983.167 258.4 984.567 257C985.967 255.367 987.717 254.55 989.817 254.55H1025.17C1028.2 254.55 1030.53 255.25 1032.17 256.65C1033.8 257.817 1035.32 259.333 1036.72 261.2C1038.12 265.4 1040.68 269.483 1044.42 273.45C1048.15 277.417 1053.28 280.683 1059.82 283.25C1066.35 285.583 1074.52 286.75 1084.32 286.75C1099.95 286.75 1111.62 284.183 1119.32 279.05C1127.25 273.917 1131.22 267.033 1131.22 258.4C1131.22 252.1 1129.12 247.083 1124.92 243.35C1120.72 239.383 1114.07 235.883 1104.97 232.85C1096.1 229.583 1084.32 226.2 1069.62 222.7C1052.12 218.733 1037.3 213.833 1025.17 208C1013.27 201.933 1004.17 194.233 997.867 184.9C991.8 175.567 988.767 163.9 988.767 149.9C988.767 136.133 992.5 123.883 999.967 113.15C1007.67 102.417 1018.4 94.0167 1032.17 87.95C1046.17 81.65 1062.85 78.5 1082.22 78.5C1097.62 78.5 1111.27 80.6 1123.17 84.8C1135.07 88.7667 1144.98 94.1333 1152.92 100.9C1160.85 107.667 1166.92 114.9 1171.12 122.6C1175.32 130.3 1177.53 137.767 1177.77 145C1177.77 146.867 1177.07 148.617 1175.67 150.25C1174.5 151.65 1172.75 152.35 1170.42 152.35H1133.32C1131.22 152.35 1129.23 151.883 1127.37 150.95C1125.5 150.017 1123.87 148.383 1122.47 146.05C1121.3 139.517 1117.1 133.917 1109.87 129.25C1102.63 124.583 1093.42 122.25 1082.22 122.25C1070.32 122.25 1060.87 124.467 1053.87 128.9C1046.87 133.1 1043.37 139.75 1043.37 148.85C1043.37 154.683 1045.12 159.583 1048.62 163.55C1052.35 167.517 1058.18 171.017 1066.12 174.05C1074.28 177.083 1085.25 180.35 1099.02 183.85C1119.32 188.05 1135.77 193.183 1148.37 199.25C1161.2 205.083 1170.53 212.55 1176.37 221.65C1182.43 230.75 1185.47 242.183 1185.47 255.95C1185.47 271.583 1181.15 285 1172.52 296.2C1164.12 307.167 1152.33 315.683 1137.17 321.75C1122 327.583 1104.38 330.5 1084.32 330.5Z" fill="black" shape-rendering="crispEdges"/>
<path d="M302.343 84.45L303.05 85.1571L303.05 85.1571L302.343 84.45ZM458.793 90.75L458.36 91.6512L458.37 91.6562L458.381 91.661L458.793 90.75ZM486.093 114.2L486.958 113.697L486.958 113.697L486.093 114.2ZM489.943 173L489.049 172.553L489.042 172.566L489.036 172.579L489.943 173ZM478.393 189.1L477.724 188.357L477.715 188.365L477.706 188.374L478.393 189.1ZM465.443 198.55L464.996 197.656L463.135 198.586L465.024 199.458L465.443 198.55ZM489.593 219.55L490.407 218.969L490.407 218.969L489.593 219.55ZM489.943 292L489.092 291.475L489.088 291.482L489.084 291.488L489.943 292ZM461.243 317.9L461.677 318.801L461.684 318.798L461.691 318.794L461.243 317.9ZM353.443 287.1H352.443V288.1H353.443V287.1ZM435.343 277.3L434.611 276.62L434.611 276.62L435.343 277.3ZM434.993 230.4L434.261 231.08L434.273 231.094L434.286 231.107L434.993 230.4ZM353.443 220.6V219.6H352.443V220.6H353.443ZM353.443 181.4H352.443V182.4H353.443V181.4ZM430.793 173L430.101 172.279L430.093 172.286L430.086 172.293L430.793 173ZM430.793 129.95L430.101 130.672L430.117 130.687L430.133 130.701L430.793 129.95ZM353.443 121.9V120.9H352.443V121.9H353.443ZM308.643 326C306.31 326 304.475 325.267 303.05 323.843L301.636 325.257C303.479 327.1 305.844 328 308.643 328V326ZM303.05 323.843C301.607 322.399 300.893 320.671 300.893 318.6H298.893C298.893 321.196 299.813 323.434 301.636 325.257L303.05 323.843ZM300.893 318.6V90.75H298.893V318.6H300.893ZM300.893 90.75C300.893 88.4162 301.626 86.5812 303.05 85.1571L301.636 83.7429C299.794 85.5854 298.893 87.9504 298.893 90.75H300.893ZM303.05 85.1571C304.475 83.733 306.31 83 308.643 83V81C305.844 81 303.479 81.9003 301.636 83.7429L303.05 85.1571ZM308.643 83H411.893V81H308.643V83ZM411.893 83C430.936 83 446.406 85.9043 458.36 91.6512L459.227 89.8487C446.914 83.929 431.118 81 411.893 81V83ZM458.381 91.661C470.591 97.1902 479.517 104.878 485.229 114.703L486.958 113.697C481.003 103.455 471.729 95.5098 459.206 89.839L458.381 91.661ZM485.229 114.703C490.958 124.557 493.843 136.277 493.843 149.9H495.843C495.843 135.99 492.895 123.91 486.958 113.697L485.229 114.703ZM493.843 149.9C493.843 158.644 492.233 166.185 489.049 172.553L490.838 173.447C494.187 166.748 495.843 158.889 495.843 149.9H493.843ZM489.036 172.579C486.051 179.008 482.277 184.259 477.724 188.357L479.062 189.843C483.843 185.541 487.769 180.059 490.85 173.421L489.036 172.579ZM477.706 188.374C473.323 192.525 469.086 195.611 464.996 197.656L465.891 199.444C470.2 197.289 474.596 194.074 479.081 189.826L477.706 188.374ZM465.024 199.458C473.938 203.572 481.86 210.444 488.78 220.131L490.407 218.969C483.326 209.056 475.149 201.928 465.862 197.642L465.024 199.458ZM488.78 220.131C495.648 229.747 499.093 240.973 499.093 253.85H501.093C501.093 240.594 497.539 228.953 490.407 218.969L488.78 220.131ZM499.093 253.85C499.093 268.155 495.75 280.685 489.092 291.475L490.794 292.525C497.67 281.382 501.093 268.479 501.093 253.85H499.093ZM489.084 291.488C482.659 302.274 473.243 310.782 460.796 317.006L461.691 318.794C474.443 312.418 484.161 303.66 490.802 292.512L489.084 291.488ZM460.809 316.999C448.381 322.983 433.022 326 414.693 326V328C433.231 328 448.906 324.95 461.677 318.801L460.809 316.999ZM414.693 326H308.643V328H414.693V326ZM353.443 288.1H408.393V286.1H353.443V288.1ZM408.393 288.1C420.474 288.1 429.763 284.779 436.076 277.98L434.611 276.62C428.79 282.887 420.113 286.1 408.393 286.1V288.1ZM436.076 277.98C442.318 271.258 445.443 263.197 445.443 253.85H443.443C443.443 262.703 440.502 270.275 434.611 276.62L436.076 277.98ZM445.443 253.85C445.443 244.265 442.198 236.19 435.7 229.693L434.286 231.107C440.389 237.21 443.443 244.768 443.443 253.85H445.443ZM435.726 229.72C429.416 222.925 420.248 219.6 408.393 219.6V221.6C419.872 221.6 428.437 224.809 434.261 231.08L435.726 229.72ZM408.393 219.6H353.443V221.6H408.393V219.6ZM352.443 220.6V287.1H354.443V220.6H352.443ZM353.443 182.4H405.243V180.4H353.443V182.4ZM405.243 182.4C416.824 182.4 425.643 179.564 431.5 173.707L430.086 172.293C424.743 177.636 416.529 180.4 405.243 180.4V182.4ZM431.486 173.721C437.536 167.914 440.543 160.41 440.543 151.3H438.543C438.543 159.923 435.718 166.886 430.101 172.279L431.486 173.721ZM440.543 151.3C440.543 141.967 437.541 134.556 431.454 129.199L430.133 130.701C435.713 135.611 438.543 142.433 438.543 151.3H440.543ZM431.485 129.228C425.627 123.614 416.814 120.9 405.243 120.9V122.9C416.54 122.9 424.76 125.553 430.101 130.672L431.485 129.228ZM405.243 120.9H353.443V122.9H405.243V120.9ZM352.443 121.9V181.4H354.443V121.9H352.443ZM583.877 320.35L583.458 321.258L583.467 321.262L583.475 321.266L583.877 320.35ZM548.177 288.5L547.313 289.002L547.317 289.01L547.322 289.019L548.177 288.5ZM534.527 234.95L533.528 234.973L533.528 234.983L534.527 234.95ZM534.527 174.75L533.528 174.717L533.528 174.727L534.527 174.75ZM548.527 121.55L547.678 121.021L547.672 121.031L548.527 121.55ZM692.377 89.35L691.952 90.2551L691.952 90.2551L692.377 89.35ZM728.427 121.55L727.572 122.069L727.579 122.079L728.427 121.55ZM742.777 174.75L741.778 174.783L741.778 174.795L742.777 174.75ZM742.777 234.95L741.778 234.904L741.778 234.917L742.777 234.95ZM728.777 288.5L729.632 289.019L729.636 289.012L728.777 288.5ZM692.727 320.35L693.135 321.263L693.141 321.26L692.727 320.35ZM673.127 274.15L672.449 273.415L672.44 273.424L673.127 274.15ZM687.477 232.85L686.478 232.805L686.478 232.815L686.478 232.826L687.477 232.85ZM687.477 176.15L686.477 176.169L686.478 176.182L686.478 176.196L687.477 176.15ZM680.477 145.35L679.588 145.807L679.596 145.823L679.604 145.838L680.477 145.35ZM663.327 127.85L662.869 128.739L662.88 128.745L662.892 128.75L663.327 127.85ZM613.977 127.85L614.413 128.75L614.424 128.745L614.436 128.739L613.977 127.85ZM596.477 145.35L595.598 144.873L595.594 144.882L596.477 145.35ZM589.477 176.15L588.478 176.113L588.478 176.127L589.477 176.15ZM589.477 232.85L588.477 232.873L588.478 232.887L589.477 232.85ZM603.827 274.15L603.139 274.876L603.149 274.885L603.827 274.15ZM638.477 329.5C617.582 329.5 599.525 326.133 584.28 319.434L583.475 321.266C599.029 328.1 617.372 331.5 638.477 331.5V329.5ZM584.296 319.442C569.31 312.525 557.562 302.044 549.032 287.981L547.322 289.019C556.059 303.423 568.111 314.175 583.458 321.258L584.296 319.442ZM549.042 287.998C540.744 273.708 536.223 256.029 535.527 234.917L533.528 234.983C534.232 256.338 538.81 274.359 547.313 289.002L549.042 287.998ZM535.527 234.927C535.294 224.901 535.177 214.992 535.177 205.2H533.177C533.177 215.008 533.294 224.932 533.528 234.973L535.527 234.927ZM535.177 205.2C535.177 195.174 535.294 185.032 535.527 174.773L533.528 174.727C533.294 185.001 533.177 195.159 533.177 205.2H535.177ZM535.527 174.783C536.223 153.675 540.859 136.12 549.382 122.069L547.672 121.031C538.929 135.447 534.232 153.359 533.528 174.717L535.527 174.783ZM549.376 122.079C558.139 108.012 570.124 97.4077 585.352 90.2551L584.502 88.4449C568.93 95.7589 556.649 106.622 547.679 121.021L549.376 122.079ZM585.352 90.2551C600.596 83.0952 618.296 79.5 638.477 79.5V77.5C618.058 77.5 600.058 81.1381 584.502 88.4449L585.352 90.2551ZM638.477 79.5C658.894 79.5 676.71 83.0958 691.952 90.2551L692.802 88.4449C677.245 81.1375 659.128 77.5 638.477 77.5V79.5ZM691.952 90.2551C707.178 97.4067 719.043 108.008 727.572 122.069L729.282 121.031C720.545 106.626 708.376 95.7599 692.802 88.4449L691.952 90.2551ZM727.579 122.079C736.331 136.128 741.082 153.679 741.778 174.783L743.777 174.717C743.072 153.354 738.257 135.439 729.276 121.021L727.579 122.079ZM741.778 174.795C742.244 185.047 742.477 195.182 742.477 205.2H744.477C744.477 195.151 744.244 184.986 743.776 174.705L741.778 174.795ZM742.477 205.2C742.477 214.984 742.244 224.885 741.778 234.904L743.776 234.996C744.244 224.948 744.477 215.016 744.477 205.2H742.477ZM741.778 234.917C741.082 256.025 736.445 273.699 727.919 287.988L729.636 289.012C738.376 274.367 743.073 256.342 743.777 234.983L741.778 234.917ZM727.922 287.981C719.395 302.04 707.534 312.521 692.313 319.44L693.141 321.26C708.721 314.179 720.893 303.427 729.632 289.019L727.922 287.981ZM692.32 319.437C677.311 326.133 659.373 329.5 638.477 329.5V331.5C659.582 331.5 677.811 328.1 693.135 321.263L692.32 319.437ZM638.477 287.75C652.921 287.75 664.732 283.481 673.815 274.876L672.44 273.424C663.789 281.619 652.5 285.75 638.477 285.75V287.75ZM673.806 274.885C683.19 266.222 688.007 252.133 688.477 232.874L686.478 232.826C686.014 251.833 681.264 265.278 672.449 273.415L673.806 274.885ZM688.476 232.895C688.943 222.616 689.177 213.151 689.177 204.5H687.177C687.177 213.116 686.944 222.55 686.478 232.805L688.476 232.895ZM689.177 204.5C689.177 195.616 688.944 186.15 688.476 176.104L686.478 176.196C686.944 186.216 687.177 195.651 687.177 204.5H689.177ZM688.477 176.131C688.242 163.427 685.889 152.984 681.35 144.862L679.604 145.838C683.932 153.583 686.246 163.673 686.477 176.169L688.477 176.131ZM681.367 144.893C677.082 136.562 671.219 130.558 663.763 126.95L662.892 128.75C669.903 132.142 675.472 137.805 679.588 145.807L681.367 144.893ZM663.786 126.961C656.391 123.145 647.947 121.25 638.477 121.25V123.25C647.675 123.25 655.797 125.089 662.869 128.739L663.786 126.961ZM638.477 121.25C629.237 121.25 620.91 123.147 613.519 126.961L614.436 128.739C621.511 125.087 629.518 123.25 638.477 123.25V121.25ZM613.542 126.95C606.092 130.555 600.115 136.552 595.598 144.873L597.356 145.827C601.706 137.815 607.396 132.145 614.413 128.75L613.542 126.95ZM595.594 144.882C591.3 152.991 588.948 163.42 588.478 176.113L590.477 176.187C590.94 163.68 593.254 153.576 597.361 145.818L595.594 144.882ZM588.478 176.127C588.244 186.167 588.127 195.625 588.127 204.5H590.127C590.127 195.642 590.244 186.2 590.477 176.173L588.478 176.127ZM588.127 204.5C588.127 213.142 588.244 222.6 588.478 232.873L590.477 232.827C590.244 222.567 590.127 213.124 590.127 204.5H588.127ZM588.478 232.887C589.182 252.138 593.999 266.217 603.14 274.876L604.515 273.424C595.922 265.283 591.172 251.829 590.477 232.813L588.478 232.887ZM603.149 274.885C612.458 283.478 624.261 287.75 638.477 287.75V285.75C624.693 285.75 613.396 281.622 604.506 273.415L603.149 274.885ZM837.094 128.9H838.094V127.9H837.094V128.9ZM767.094 126.45L766.387 127.157L766.387 127.157L767.094 126.45ZM767.094 84.45L767.801 85.1571L767.801 85.1571L767.094 84.45ZM961.344 126.45L962.051 127.157L962.051 127.157L961.344 126.45ZM891.344 128.9V127.9H890.344V128.9H891.344ZM845.844 326C843.51 326 841.675 325.267 840.251 323.843L838.837 325.257C840.68 327.1 843.045 328 845.844 328V326ZM840.251 323.843C838.808 322.399 838.094 320.671 838.094 318.6H836.094C836.094 321.196 837.014 323.434 838.837 325.257L840.251 323.843ZM838.094 318.6V128.9H836.094V318.6H838.094ZM837.094 127.9H773.394V129.9H837.094V127.9ZM773.394 127.9C771.06 127.9 769.225 127.167 767.801 125.743L766.387 127.157C768.23 129 770.595 129.9 773.394 129.9V127.9ZM767.801 125.743C766.358 124.299 765.644 122.571 765.644 120.5H763.644C763.644 123.096 764.564 125.334 766.387 127.157L767.801 125.743ZM765.644 120.5V90.75H763.644V120.5H765.644ZM765.644 90.75C765.644 88.4162 766.377 86.5812 767.801 85.1571L766.387 83.7429C764.544 85.5854 763.644 87.9504 763.644 90.75H765.644ZM767.801 85.1571C769.225 83.733 771.06 83 773.394 83V81C770.595 81 768.23 81.9003 766.387 83.7429L767.801 85.1571ZM773.394 83H955.044V81H773.394V83ZM955.044 83C957.378 83 959.213 83.733 960.637 85.1571L962.051 83.7429C960.209 81.9003 957.844 81 955.044 81V83ZM960.637 85.1571C962.061 86.5812 962.794 88.4162 962.794 90.75H964.794C964.794 87.9504 963.894 85.5854 962.051 83.7429L960.637 85.1571ZM962.794 90.75V120.5H964.794V90.75H962.794ZM962.794 120.5C962.794 122.571 962.081 124.299 960.637 125.743L962.051 127.157C963.874 125.334 964.794 123.096 964.794 120.5H962.794ZM960.637 125.743C959.213 127.167 957.378 127.9 955.044 127.9V129.9C957.844 129.9 960.209 129 962.051 127.157L960.637 125.743ZM955.044 127.9H891.344V129.9H955.044V127.9ZM890.344 128.9V318.6H892.344V128.9H890.344ZM890.344 318.6C890.344 320.671 889.631 322.399 888.187 323.843L889.601 325.257C891.424 323.434 892.344 321.196 892.344 318.6H890.344ZM888.187 323.843C886.763 325.267 884.928 326 882.594 326V328C885.394 328 887.759 327.1 889.601 325.257L888.187 323.843ZM882.594 326H845.844V328H882.594V326ZM1028.32 320.7L1027.92 321.616L1027.92 321.616L1028.32 320.7ZM994.367 295.5L993.552 296.08L993.56 296.09L993.567 296.1L994.367 295.5ZM982.467 261.9H981.467V261.92L981.468 261.939L982.467 261.9ZM984.567 257L985.274 257.707L985.301 257.68L985.326 257.651L984.567 257ZM1032.17 256.65L1031.52 257.409L1031.55 257.438L1031.59 257.464L1032.17 256.65ZM1036.72 261.2L1037.67 260.884L1037.61 260.73L1037.52 260.6L1036.72 261.2ZM1044.42 273.45L1045.15 272.765L1045.15 272.765L1044.42 273.45ZM1059.82 283.25L1059.45 284.181L1059.47 284.186L1059.48 284.192L1059.82 283.25ZM1119.32 279.05L1118.77 278.21L1118.76 278.218L1119.32 279.05ZM1124.92 243.35L1124.23 244.077L1124.24 244.087L1124.25 244.097L1124.92 243.35ZM1104.97 232.85L1104.62 233.788L1104.64 233.794L1104.65 233.799L1104.97 232.85ZM1069.62 222.7L1069.85 221.727L1069.84 221.725L1069.62 222.7ZM1025.17 208L1024.71 208.891L1024.72 208.896L1024.73 208.901L1025.17 208ZM997.867 184.9L997.029 185.445L997.033 185.452L997.038 185.459L997.867 184.9ZM999.967 113.15L999.155 112.567L999.15 112.573L999.146 112.579L999.967 113.15ZM1032.17 87.95L1032.57 88.8651L1032.58 88.8619L1032.17 87.95ZM1123.17 84.8L1122.83 85.743L1122.84 85.7459L1122.85 85.7487L1123.17 84.8ZM1152.92 100.9L1153.57 100.139L1153.57 100.139L1152.92 100.9ZM1171.12 122.6L1172 122.121L1172 122.121L1171.12 122.6ZM1177.77 145H1178.77V144.984L1178.77 144.968L1177.77 145ZM1175.67 150.25L1174.91 149.599L1174.9 149.61L1175.67 150.25ZM1127.37 150.95L1126.92 151.844L1126.92 151.844L1127.37 150.95ZM1122.47 146.05L1121.48 146.226L1121.52 146.407L1121.61 146.564L1122.47 146.05ZM1109.87 129.25L1109.33 130.09L1109.33 130.09L1109.87 129.25ZM1053.87 128.9L1054.38 129.757L1054.39 129.751L1054.4 129.745L1053.87 128.9ZM1048.62 163.55L1047.87 164.212L1047.88 164.224L1047.89 164.235L1048.62 163.55ZM1066.12 174.05L1065.76 174.984L1065.77 174.987L1066.12 174.05ZM1099.02 183.85L1098.77 184.819L1098.79 184.825L1098.81 184.829L1099.02 183.85ZM1148.37 199.25L1147.93 200.151L1147.94 200.156L1147.95 200.16L1148.37 199.25ZM1176.37 221.65L1175.53 222.19L1175.53 222.197L1175.54 222.205L1176.37 221.65ZM1172.52 296.2L1171.73 295.589L1171.72 295.592L1172.52 296.2ZM1137.17 321.75L1137.53 322.683L1137.54 322.678L1137.17 321.75ZM1084.32 329.5C1062.01 329.5 1043.49 326.245 1028.72 319.784L1027.92 321.616C1043.01 328.221 1061.83 331.5 1084.32 331.5V329.5ZM1028.72 319.784C1013.9 313.301 1002.74 304.996 995.167 294.9L993.567 296.1C1001.4 306.537 1012.87 315.032 1027.92 321.616L1028.72 319.784ZM995.182 294.92C987.818 284.565 983.925 273.551 983.466 261.861L981.468 261.939C981.943 274.049 985.983 285.435 993.552 296.08L995.182 294.92ZM983.467 261.9C983.467 260.316 984.049 258.932 985.274 257.707L983.86 256.293C982.285 257.868 981.467 259.751 981.467 261.9H983.467ZM985.326 257.651C986.542 256.233 988.017 255.55 989.817 255.55V253.55C987.417 253.55 985.393 254.5 983.808 256.349L985.326 257.651ZM989.817 255.55H1025.17V253.55H989.817V255.55ZM1025.17 255.55C1028.06 255.55 1030.13 256.218 1031.52 257.409L1032.82 255.891C1030.94 254.282 1028.34 253.55 1025.17 253.55V255.55ZM1031.59 257.464C1033.12 258.562 1034.57 260.002 1035.92 261.8L1037.52 260.6C1036.07 258.664 1034.48 257.071 1032.75 255.836L1031.59 257.464ZM1035.77 261.516C1037.22 265.882 1039.88 270.087 1043.69 274.135L1045.15 272.765C1041.49 268.88 1039.01 264.918 1037.67 260.884L1035.77 261.516ZM1043.69 274.135C1047.55 278.236 1052.82 281.575 1059.45 284.181L1060.18 282.319C1053.75 279.792 1048.75 276.597 1045.15 272.765L1043.69 274.135ZM1059.48 284.192C1066.16 286.576 1074.45 287.75 1084.32 287.75V285.75C1074.59 285.75 1066.54 284.591 1060.15 282.308L1059.48 284.192ZM1084.32 287.75C1100.03 287.75 1111.93 285.177 1119.87 279.882L1118.76 278.218C1111.3 283.19 1099.87 285.75 1084.32 285.75V287.75ZM1119.86 279.89C1128.05 274.593 1132.22 267.409 1132.22 258.4H1130.22C1130.22 266.658 1126.45 273.241 1118.77 278.21L1119.86 279.89ZM1132.22 258.4C1132.22 251.853 1130.02 246.55 1125.58 242.603L1124.25 244.097C1128.21 247.617 1130.22 252.347 1130.22 258.4H1132.22ZM1125.6 242.623C1121.25 238.511 1114.44 234.954 1105.28 231.901L1104.65 233.799C1113.69 236.813 1120.18 240.255 1124.23 244.077L1125.6 242.623ZM1105.31 231.912C1096.39 228.626 1084.57 225.232 1069.85 221.727L1069.39 223.673C1084.07 227.168 1095.81 230.541 1104.62 233.788L1105.31 231.912ZM1069.84 221.725C1052.39 217.77 1037.65 212.891 1025.6 207.099L1024.73 208.901C1036.95 214.776 1051.85 219.697 1069.4 223.675L1069.84 221.725ZM1025.62 207.109C1013.84 201.105 1004.88 193.509 998.696 184.341L997.038 185.459C1003.45 194.957 1012.69 202.762 1024.71 208.891L1025.62 207.109ZM998.706 184.355C992.769 175.221 989.767 163.756 989.767 149.9H987.767C987.767 164.044 990.832 175.912 997.029 185.445L998.706 184.355ZM989.767 149.9C989.767 136.326 993.444 124.278 1000.79 113.721L999.146 112.579C991.557 123.489 987.767 135.941 987.767 149.9H989.767ZM1000.78 113.733C1008.36 103.164 1018.94 94.8698 1032.57 88.8651L1031.76 87.0349C1017.86 93.1635 1006.97 101.669 999.155 112.567L1000.78 113.733ZM1032.58 88.8619C1046.42 82.633 1062.96 79.5 1082.22 79.5V77.5C1062.74 77.5 1045.91 80.6669 1031.76 87.0381L1032.58 88.8619ZM1082.22 79.5C1097.53 79.5 1111.06 81.588 1122.83 85.743L1123.5 83.857C1111.47 79.612 1097.71 77.5 1082.22 77.5V79.5ZM1122.85 85.7487C1134.65 89.6828 1144.45 94.9927 1152.27 101.661L1153.57 100.139C1145.52 93.274 1135.48 87.8506 1123.48 83.8513L1122.85 85.7487ZM1152.27 101.661C1160.13 108.363 1166.11 115.504 1170.24 123.079L1172 122.121C1167.73 114.296 1161.58 106.97 1153.57 100.139L1152.27 101.661ZM1170.24 123.079C1174.38 130.67 1176.54 137.985 1176.77 145.032L1178.77 144.968C1178.53 137.548 1176.25 129.93 1172 122.121L1170.24 123.079ZM1176.77 145C1176.77 146.592 1176.18 148.118 1174.91 149.599L1176.43 150.901C1177.96 149.115 1178.77 147.141 1178.77 145H1176.77ZM1174.9 149.61C1173.97 150.721 1172.54 151.35 1170.42 151.35V153.35C1172.96 153.35 1175.03 152.579 1176.44 150.89L1174.9 149.61ZM1170.42 151.35H1133.32V153.35H1170.42V151.35ZM1133.32 151.35C1131.37 151.35 1129.54 150.919 1127.81 150.056L1126.92 151.844C1128.93 152.848 1131.06 153.35 1133.32 153.35V151.35ZM1127.81 150.056C1126.16 149.23 1124.66 147.754 1123.32 145.535L1121.61 146.564C1123.08 149.012 1124.84 150.804 1126.92 151.844L1127.81 150.056ZM1123.45 145.874C1122.22 138.992 1117.8 133.18 1110.41 128.41L1109.33 130.09C1116.4 134.654 1120.38 140.041 1121.48 146.226L1123.45 145.874ZM1110.41 128.41C1102.97 123.612 1093.55 121.25 1082.22 121.25V123.25C1093.28 123.25 1102.3 125.555 1109.33 130.09L1110.41 128.41ZM1082.22 121.25C1070.21 121.25 1060.55 123.485 1053.33 128.055L1054.4 129.745C1061.19 125.448 1070.43 123.25 1082.22 123.25V121.25ZM1053.35 128.042C1046.01 132.447 1042.37 139.447 1042.37 148.85H1044.37C1044.37 140.053 1047.72 133.753 1054.38 129.757L1053.35 128.042ZM1042.37 148.85C1042.37 154.9 1044.19 160.043 1047.87 164.212L1049.37 162.888C1046.05 159.124 1044.37 154.467 1044.37 148.85H1042.37ZM1047.89 164.235C1051.77 168.356 1057.76 171.924 1065.76 174.984L1066.47 173.116C1058.61 170.109 1052.93 166.677 1049.35 162.865L1047.89 164.235ZM1065.77 174.987C1073.98 178.038 1084.99 181.315 1098.77 184.819L1099.26 182.881C1085.51 179.385 1074.58 176.128 1066.47 173.113L1065.77 174.987ZM1098.81 184.829C1119.07 189.02 1135.43 194.132 1147.93 200.151L1148.8 198.349C1136.1 192.234 1119.57 187.08 1099.22 182.871L1098.81 184.829ZM1147.95 200.16C1160.66 205.938 1169.82 213.294 1175.53 222.19L1177.21 221.11C1171.24 211.806 1161.74 204.229 1148.78 198.34L1147.95 200.16ZM1175.54 222.205C1181.47 231.103 1184.47 242.33 1184.47 255.95H1186.47C1186.47 242.037 1183.4 230.397 1177.2 221.095L1175.54 222.205ZM1184.47 255.95C1184.47 271.387 1180.21 284.583 1171.73 295.589L1173.31 296.811C1182.09 285.417 1186.47 271.78 1186.47 255.95H1184.47ZM1171.72 295.592C1163.45 306.392 1151.83 314.809 1136.8 320.822L1137.54 322.678C1152.84 316.557 1164.78 307.942 1173.31 296.808L1171.72 295.592ZM1136.81 320.817C1121.78 326.597 1104.29 329.5 1084.32 329.5V331.5C1104.48 331.5 1122.22 328.57 1137.53 322.683L1136.81 320.817Z" fill="#404040" fill-opacity="0.8" mask="url(#path-1-outside-1_29_5)"/>
</g>
<g filter="url(#filter2_d_29_5)">
<path d="M202.794 86.7697L140.291 181.459L109.435 131.129H45.35L109.435 227.524L5 387.899H48.5147C63.1179 388.472 69.1325 386.992 77.149 373.165L140.291 275.296L172.729 327.332H236.815L172.729 227.524L274 68.8555L228.903 68.0024C216.318 67.86 211.258 74.0943 202.794 86.7697Z" fill="black" shape-rendering="crispEdges"/>
<path d="M202.794 86.7697L140.291 181.459L109.435 131.129H45.35L109.435 227.524L5 387.899H48.5147C63.1179 388.472 69.1325 386.992 77.149 373.165L140.291 275.296L172.729 327.332H236.815L172.729 227.524L274 68.8555L228.903 68.0024C216.318 67.86 211.258 74.0943 202.794 86.7697Z" stroke="#404040" stroke-opacity="0.8" shape-rendering="crispEdges"/>
</g>
</g>
<defs>
<filter id="filter0_d_29_5" x="0.0777588" y="67.5" width="1189.39" height="329" filterUnits="userSpaceOnUse" color-interpolation-filters="sRGB">
<feFlood flood-opacity="0" result="BackgroundImageFix"/>
<feColorMatrix in="SourceAlpha" type="matrix" values="0 0 0 0 0 0 0 0 0 0 0 0 0 0 0 0 0 0 127 0" result="hardAlpha"/>
<feOffset dy="4"/>
<feGaussianBlur stdDeviation="2"/>
<feComposite in2="hardAlpha" operator="out"/>
<feColorMatrix type="matrix" values="0 0 0 0 0 0 0 0 0 0 0 0 0 0 0 0 0 0 0.25 0"/>
<feBlend mode="normal" in2="BackgroundImageFix" result="effect1_dropShadow_29_5"/>
<feBlend mode="normal" in="SourceGraphic" in2="effect1_dropShadow_29_5" result="shape"/>
</filter>
<filter id="filter1_d_29_5" x="295.893" y="78.5" width="893.574" height="260" filterUnits="userSpaceOnUse" color-interpolation-filters="sRGB">
<feFlood flood-opacity="0" result="BackgroundImageFix"/>
<feColorMatrix in="SourceAlpha" type="matrix" values="0 0 0 0 0 0 0 0 0 0 0 0 0 0 0 0 0 0 127 0" result="hardAlpha"/>
<feOffset dy="4"/>
<feGaussianBlur stdDeviation="2"/>
<feComposite in2="hardAlpha" operator="out"/>
<feColorMatrix type="matrix" values="0 0 0 0 0 0 0 0 0 0 0 0 0 0 0 0 0 0 0.25 0"/>
<feBlend mode="normal" in2="BackgroundImageFix" result="effect1_dropShadow_29_5"/>
<feBlend mode="normal" in="SourceGraphic" in2="effect1_dropShadow_29_5" result="shape"/>
</filter>
<filter id="filter2_d_29_5" x="0.0777588" y="67.5" width="278.824" height="329" filterUnits="userSpaceOnUse" color-interpolation-filters="sRGB">
<feFlood flood-opacity="0" result="BackgroundImageFix"/>
<feColorMatrix in="SourceAlpha" type="matrix" values="0 0 0 0 0 0 0 0 0 0 0 0 0 0 0 0 0 0 127 0" result="hardAlpha"/>
<feOffset dy="4"/>
<feGaussianBlur stdDeviation="2"/>
<feComposite in2="hardAlpha" operator="out"/>
<feColorMatrix type="matrix" values="0 0 0 0 0 0 0 0 0 0 0 0 0 0 0 0 0 0 0.25 0"/>
<feBlend mode="normal" in2="BackgroundImageFix" result="effect1_dropShadow_29_5"/>
<feBlend mode="normal" in="SourceGraphic" in2="effect1_dropShadow_29_5" result="shape"/>
</filter>
</defs>
</svg>
