<svg width="486" height="197" viewBox="0 0 486 197" fill="none" xmlns="http://www.w3.org/2000/svg">
<g filter="url(#filter0_d_20_9)">
<mask id="path-1-outside-1_20_9" maskUnits="userSpaceOnUse" x="185" y="54" width="298" height="101" fill="black">
<rect fill="white" x="185" y="54" width="298" height="101"/>
<path d="M229.272 153.36C224.195 153.36 219.933 152.499 216.488 150.776C213.133 149.053 210.368 146.877 208.192 144.248V148.6C208.192 149.597 207.829 150.413 207.104 151.048C206.469 151.683 205.699 152 204.792 152H189.424C188.427 152 187.611 151.683 186.976 151.048C186.341 150.413 186.024 149.597 186.024 148.6V58.84C186.024 57.8427 186.341 57.0267 186.976 56.392C187.611 55.7573 188.427 55.44 189.424 55.44H206.016C207.013 55.44 207.829 55.7573 208.464 56.392C209.099 57.0267 209.416 57.8427 209.416 58.84V87.944C211.592 85.5867 214.312 83.6827 217.576 82.232C220.931 80.6907 224.829 79.92 229.272 79.92C233.805 79.92 237.795 80.6907 241.24 82.232C244.776 83.6827 247.768 85.8133 250.216 88.624C252.664 91.4347 254.568 94.7893 255.928 98.688C257.288 102.587 258.059 106.984 258.24 111.88C258.331 113.603 258.376 115.189 258.376 116.64C258.376 118 258.331 119.587 258.24 121.4C258.059 126.477 257.243 131.011 255.792 135C254.432 138.899 252.528 142.253 250.08 145.064C247.632 147.784 244.685 149.869 241.24 151.32C237.795 152.68 233.805 153.36 229.272 153.36ZM221.928 135.136C225.011 135.136 227.413 134.501 229.136 133.232C230.859 131.963 232.083 130.24 232.808 128.064C233.624 125.888 234.123 123.485 234.304 120.856C234.485 118.045 234.485 115.235 234.304 112.424C234.123 109.795 233.624 107.392 232.808 105.216C232.083 103.04 230.859 101.317 229.136 100.048C227.413 98.7787 225.011 98.144 221.928 98.144C219.117 98.144 216.805 98.7787 214.992 100.048C213.179 101.227 211.819 102.813 210.912 104.808C210.005 106.712 209.507 108.797 209.416 111.064C209.325 112.787 209.28 114.464 209.28 116.096C209.28 117.728 209.325 119.451 209.416 121.264C209.507 123.712 209.96 125.979 210.776 128.064C211.592 130.149 212.907 131.872 214.72 133.232C216.533 134.501 218.936 135.136 221.928 135.136ZM305.277 153.36C297.661 153.36 291.224 152.136 285.965 149.688C280.797 147.24 276.808 143.749 273.997 139.216C271.277 134.592 269.736 129.107 269.373 122.76C269.282 120.947 269.237 118.907 269.237 116.64C269.237 114.283 269.282 112.243 269.373 110.52C269.736 104.083 271.368 98.5973 274.269 94.064C277.17 89.5307 281.205 86.04 286.373 83.592C291.632 81.144 297.933 79.92 305.277 79.92C312.712 79.92 319.013 81.144 324.181 83.592C329.44 86.04 333.52 89.5307 336.421 94.064C339.322 98.5973 340.954 104.083 341.317 110.52C341.408 112.243 341.453 114.283 341.453 116.64C341.453 118.907 341.408 120.947 341.317 122.76C340.954 129.107 339.368 134.592 336.557 139.216C333.837 143.749 329.848 147.24 324.589 149.688C319.421 152.136 312.984 153.36 305.277 153.36ZM305.277 136.768C309.357 136.768 312.304 135.544 314.117 133.096C316.021 130.648 317.109 126.976 317.381 122.08C317.472 120.72 317.517 118.907 317.517 116.64C317.517 114.373 317.472 112.56 317.381 111.2C317.109 106.395 316.021 102.768 314.117 100.32C312.304 97.7813 309.357 96.512 305.277 96.512C301.288 96.512 298.341 97.7813 296.437 100.32C294.533 102.768 293.49 106.395 293.309 111.2C293.218 112.56 293.173 114.373 293.173 116.64C293.173 118.907 293.218 120.72 293.309 122.08C293.49 126.976 294.533 130.648 296.437 133.096C298.341 135.544 301.288 136.768 305.277 136.768ZM390.739 152C384.936 152 379.904 151.093 375.643 149.28C371.472 147.376 368.254 144.475 365.987 140.576C363.72 136.587 362.587 131.464 362.587 125.208V99.096H351.979C350.982 99.096 350.12 98.7787 349.395 98.144C348.76 97.5093 348.443 96.6933 348.443 95.696V84.68C348.443 83.6827 348.76 82.8667 349.395 82.232C350.12 81.5973 350.982 81.28 351.979 81.28H362.587V58.84C362.587 57.8427 362.904 57.0267 363.539 56.392C364.264 55.7573 365.08 55.44 365.987 55.44H381.763C382.76 55.44 383.576 55.7573 384.211 56.392C384.846 57.0267 385.163 57.8427 385.163 58.84V81.28H402.163C403.16 81.28 403.976 81.5973 404.611 82.232C405.246 82.8667 405.563 83.6827 405.563 84.68V95.696C405.563 96.6933 405.246 97.5093 404.611 98.144C403.976 98.7787 403.16 99.096 402.163 99.096H385.163V123.304C385.163 126.387 385.752 128.835 386.931 130.648C388.11 132.461 390.104 133.368 392.915 133.368H403.387C404.384 133.368 405.2 133.685 405.835 134.32C406.47 134.955 406.787 135.771 406.787 136.768V148.6C406.787 149.597 406.47 150.413 405.835 151.048C405.2 151.683 404.384 152 403.387 152H390.739ZM447.151 153.36C441.258 153.36 436.226 152.725 432.055 151.456C427.975 150.096 424.621 148.464 421.991 146.56C419.453 144.656 417.549 142.707 416.279 140.712C415.01 138.627 414.33 136.859 414.239 135.408C414.149 134.411 414.466 133.595 415.191 132.96C415.917 132.235 416.687 131.872 417.503 131.872H433.007C433.279 131.872 433.506 131.917 433.687 132.008C433.869 132.099 434.141 132.28 434.503 132.552C435.682 133.187 436.861 134.003 438.039 135C439.218 135.907 440.578 136.723 442.119 137.448C443.661 138.173 445.519 138.536 447.695 138.536C450.234 138.536 452.365 138.037 454.087 137.04C455.81 136.043 456.671 134.547 456.671 132.552C456.671 131.101 456.263 129.923 455.447 129.016C454.631 128.019 452.954 127.067 450.415 126.16C447.967 125.253 444.25 124.347 439.263 123.44C434.549 122.352 430.423 120.947 426.887 119.224C423.351 117.411 420.631 115.099 418.727 112.288C416.823 109.387 415.871 105.896 415.871 101.816C415.871 98.1893 417.05 94.6987 419.407 91.344C421.765 87.9893 425.21 85.2693 429.743 83.184C434.277 81.008 439.853 79.92 446.471 79.92C451.73 79.92 456.263 80.5547 460.071 81.824C463.97 83.0027 467.234 84.544 469.863 86.448C472.583 88.352 474.623 90.3013 475.983 92.296C477.343 94.2907 478.069 96.104 478.159 97.736C478.25 98.6427 477.978 99.4587 477.343 100.184C476.709 100.819 475.983 101.136 475.167 101.136H461.023C460.661 101.136 460.298 101.091 459.935 101C459.573 100.819 459.255 100.637 458.983 100.456C457.895 99.912 456.807 99.1867 455.719 98.28C454.631 97.3733 453.362 96.5573 451.911 95.832C450.461 95.1067 448.647 94.744 446.471 94.744C444.023 94.744 442.119 95.288 440.759 96.376C439.399 97.464 438.719 98.8693 438.719 100.592C438.719 101.771 439.082 102.859 439.807 103.856C440.623 104.853 442.21 105.76 444.567 106.576C447.015 107.392 450.778 108.299 455.855 109.296C462.111 110.293 467.098 111.925 470.815 114.192C474.533 116.368 477.162 118.952 478.703 121.944C480.245 124.845 481.015 127.928 481.015 131.192C481.015 135.544 479.701 139.397 477.071 142.752C474.533 146.107 470.725 148.736 465.647 150.64C460.57 152.453 454.405 153.36 447.151 153.36Z"/>
</mask>
<path d="M229.272 153.36C224.195 153.36 219.933 152.499 216.488 150.776C213.133 149.053 210.368 146.877 208.192 144.248V148.6C208.192 149.597 207.829 150.413 207.104 151.048C206.469 151.683 205.699 152 204.792 152H189.424C188.427 152 187.611 151.683 186.976 151.048C186.341 150.413 186.024 149.597 186.024 148.6V58.84C186.024 57.8427 186.341 57.0267 186.976 56.392C187.611 55.7573 188.427 55.44 189.424 55.44H206.016C207.013 55.44 207.829 55.7573 208.464 56.392C209.099 57.0267 209.416 57.8427 209.416 58.84V87.944C211.592 85.5867 214.312 83.6827 217.576 82.232C220.931 80.6907 224.829 79.92 229.272 79.92C233.805 79.92 237.795 80.6907 241.24 82.232C244.776 83.6827 247.768 85.8133 250.216 88.624C252.664 91.4347 254.568 94.7893 255.928 98.688C257.288 102.587 258.059 106.984 258.24 111.88C258.331 113.603 258.376 115.189 258.376 116.64C258.376 118 258.331 119.587 258.24 121.4C258.059 126.477 257.243 131.011 255.792 135C254.432 138.899 252.528 142.253 250.08 145.064C247.632 147.784 244.685 149.869 241.24 151.32C237.795 152.68 233.805 153.36 229.272 153.36ZM221.928 135.136C225.011 135.136 227.413 134.501 229.136 133.232C230.859 131.963 232.083 130.24 232.808 128.064C233.624 125.888 234.123 123.485 234.304 120.856C234.485 118.045 234.485 115.235 234.304 112.424C234.123 109.795 233.624 107.392 232.808 105.216C232.083 103.04 230.859 101.317 229.136 100.048C227.413 98.7787 225.011 98.144 221.928 98.144C219.117 98.144 216.805 98.7787 214.992 100.048C213.179 101.227 211.819 102.813 210.912 104.808C210.005 106.712 209.507 108.797 209.416 111.064C209.325 112.787 209.28 114.464 209.28 116.096C209.28 117.728 209.325 119.451 209.416 121.264C209.507 123.712 209.96 125.979 210.776 128.064C211.592 130.149 212.907 131.872 214.72 133.232C216.533 134.501 218.936 135.136 221.928 135.136ZM305.277 153.36C297.661 153.36 291.224 152.136 285.965 149.688C280.797 147.24 276.808 143.749 273.997 139.216C271.277 134.592 269.736 129.107 269.373 122.76C269.282 120.947 269.237 118.907 269.237 116.64C269.237 114.283 269.282 112.243 269.373 110.52C269.736 104.083 271.368 98.5973 274.269 94.064C277.17 89.5307 281.205 86.04 286.373 83.592C291.632 81.144 297.933 79.92 305.277 79.92C312.712 79.92 319.013 81.144 324.181 83.592C329.44 86.04 333.52 89.5307 336.421 94.064C339.322 98.5973 340.954 104.083 341.317 110.52C341.408 112.243 341.453 114.283 341.453 116.64C341.453 118.907 341.408 120.947 341.317 122.76C340.954 129.107 339.368 134.592 336.557 139.216C333.837 143.749 329.848 147.24 324.589 149.688C319.421 152.136 312.984 153.36 305.277 153.36ZM305.277 136.768C309.357 136.768 312.304 135.544 314.117 133.096C316.021 130.648 317.109 126.976 317.381 122.08C317.472 120.72 317.517 118.907 317.517 116.64C317.517 114.373 317.472 112.56 317.381 111.2C317.109 106.395 316.021 102.768 314.117 100.32C312.304 97.7813 309.357 96.512 305.277 96.512C301.288 96.512 298.341 97.7813 296.437 100.32C294.533 102.768 293.49 106.395 293.309 111.2C293.218 112.56 293.173 114.373 293.173 116.64C293.173 118.907 293.218 120.72 293.309 122.08C293.49 126.976 294.533 130.648 296.437 133.096C298.341 135.544 301.288 136.768 305.277 136.768ZM390.739 152C384.936 152 379.904 151.093 375.643 149.28C371.472 147.376 368.254 144.475 365.987 140.576C363.72 136.587 362.587 131.464 362.587 125.208V99.096H351.979C350.982 99.096 350.12 98.7787 349.395 98.144C348.76 97.5093 348.443 96.6933 348.443 95.696V84.68C348.443 83.6827 348.76 82.8667 349.395 82.232C350.12 81.5973 350.982 81.28 351.979 81.28H362.587V58.84C362.587 57.8427 362.904 57.0267 363.539 56.392C364.264 55.7573 365.08 55.44 365.987 55.44H381.763C382.76 55.44 383.576 55.7573 384.211 56.392C384.846 57.0267 385.163 57.8427 385.163 58.84V81.28H402.163C403.16 81.28 403.976 81.5973 404.611 82.232C405.246 82.8667 405.563 83.6827 405.563 84.68V95.696C405.563 96.6933 405.246 97.5093 404.611 98.144C403.976 98.7787 403.16 99.096 402.163 99.096H385.163V123.304C385.163 126.387 385.752 128.835 386.931 130.648C388.11 132.461 390.104 133.368 392.915 133.368H403.387C404.384 133.368 405.2 133.685 405.835 134.32C406.47 134.955 406.787 135.771 406.787 136.768V148.6C406.787 149.597 406.47 150.413 405.835 151.048C405.2 151.683 404.384 152 403.387 152H390.739ZM447.151 153.36C441.258 153.36 436.226 152.725 432.055 151.456C427.975 150.096 424.621 148.464 421.991 146.56C419.453 144.656 417.549 142.707 416.279 140.712C415.01 138.627 414.33 136.859 414.239 135.408C414.149 134.411 414.466 133.595 415.191 132.96C415.917 132.235 416.687 131.872 417.503 131.872H433.007C433.279 131.872 433.506 131.917 433.687 132.008C433.869 132.099 434.141 132.28 434.503 132.552C435.682 133.187 436.861 134.003 438.039 135C439.218 135.907 440.578 136.723 442.119 137.448C443.661 138.173 445.519 138.536 447.695 138.536C450.234 138.536 452.365 138.037 454.087 137.04C455.81 136.043 456.671 134.547 456.671 132.552C456.671 131.101 456.263 129.923 455.447 129.016C454.631 128.019 452.954 127.067 450.415 126.16C447.967 125.253 444.25 124.347 439.263 123.44C434.549 122.352 430.423 120.947 426.887 119.224C423.351 117.411 420.631 115.099 418.727 112.288C416.823 109.387 415.871 105.896 415.871 101.816C415.871 98.1893 417.05 94.6987 419.407 91.344C421.765 87.9893 425.21 85.2693 429.743 83.184C434.277 81.008 439.853 79.92 446.471 79.92C451.73 79.92 456.263 80.5547 460.071 81.824C463.97 83.0027 467.234 84.544 469.863 86.448C472.583 88.352 474.623 90.3013 475.983 92.296C477.343 94.2907 478.069 96.104 478.159 97.736C478.25 98.6427 477.978 99.4587 477.343 100.184C476.709 100.819 475.983 101.136 475.167 101.136H461.023C460.661 101.136 460.298 101.091 459.935 101C459.573 100.819 459.255 100.637 458.983 100.456C457.895 99.912 456.807 99.1867 455.719 98.28C454.631 97.3733 453.362 96.5573 451.911 95.832C450.461 95.1067 448.647 94.744 446.471 94.744C444.023 94.744 442.119 95.288 440.759 96.376C439.399 97.464 438.719 98.8693 438.719 100.592C438.719 101.771 439.082 102.859 439.807 103.856C440.623 104.853 442.21 105.76 444.567 106.576C447.015 107.392 450.778 108.299 455.855 109.296C462.111 110.293 467.098 111.925 470.815 114.192C474.533 116.368 477.162 118.952 478.703 121.944C480.245 124.845 481.015 127.928 481.015 131.192C481.015 135.544 479.701 139.397 477.071 142.752C474.533 146.107 470.725 148.736 465.647 150.64C460.57 152.453 454.405 153.36 447.151 153.36Z" fill="black"/>
<path d="M216.488 150.776L216.031 151.666L216.041 151.67L216.488 150.776ZM208.192 144.248L208.962 143.61L207.192 141.471V144.248H208.192ZM207.104 151.048L206.445 150.295L206.42 150.317L206.397 150.341L207.104 151.048ZM186.976 151.048L186.269 151.755L186.269 151.755L186.976 151.048ZM186.976 56.392L187.683 57.0991L187.683 57.0991L186.976 56.392ZM208.464 56.392L207.757 57.0991L207.757 57.0991L208.464 56.392ZM209.416 87.944H208.416V90.5016L210.151 88.6223L209.416 87.944ZM217.576 82.232L217.982 83.1459L217.994 83.1407L217.576 82.232ZM241.24 82.232L240.832 83.1448L240.846 83.1512L240.86 83.1572L241.24 82.232ZM258.24 111.88L257.241 111.917L257.241 111.925L257.241 111.933L258.24 111.88ZM258.24 121.4L257.241 121.35L257.241 121.357L257.241 121.364L258.24 121.4ZM255.792 135L254.852 134.658L254.848 134.671L255.792 135ZM250.08 145.064L250.823 145.733L250.829 145.727L250.834 145.721L250.08 145.064ZM241.24 151.32L241.607 152.25L241.618 152.246L241.628 152.242L241.24 151.32ZM229.136 133.232L228.543 132.427L228.543 132.427L229.136 133.232ZM232.808 128.064L231.872 127.713L231.865 127.73L231.859 127.748L232.808 128.064ZM234.304 120.856L235.302 120.925L235.302 120.92L234.304 120.856ZM234.304 112.424L235.302 112.36L235.302 112.355L234.304 112.424ZM232.808 105.216L231.859 105.532L231.865 105.55L231.872 105.567L232.808 105.216ZM214.992 100.048L215.537 100.886L215.551 100.877L215.565 100.867L214.992 100.048ZM210.912 104.808L211.815 105.238L211.819 105.23L211.822 105.222L210.912 104.808ZM209.416 111.064L210.415 111.117L210.415 111.104L209.416 111.064ZM209.416 121.264L210.415 121.227L210.415 121.214L209.416 121.264ZM210.776 128.064L211.707 127.7L211.707 127.7L210.776 128.064ZM214.72 133.232L214.12 134.032L214.133 134.042L214.147 134.051L214.72 133.232ZM229.272 152.36C224.303 152.36 220.205 151.516 216.935 149.882L216.041 151.67C219.662 153.481 224.087 154.36 229.272 154.36V152.36ZM216.945 149.886C213.698 148.219 211.043 146.125 208.962 143.61L207.422 144.886C209.693 147.63 212.569 149.888 216.031 151.666L216.945 149.886ZM207.192 144.248V148.6H209.192V144.248H207.192ZM207.192 148.6C207.192 149.32 206.945 149.858 206.445 150.295L207.763 151.801C208.713 150.969 209.192 149.874 209.192 148.6H207.192ZM206.397 150.341C205.952 150.786 205.436 151 204.792 151V153C205.961 153 206.987 152.579 207.811 151.755L206.397 150.341ZM204.792 151H189.424V153H204.792V151ZM189.424 151C188.66 151 188.109 150.766 187.683 150.341L186.269 151.755C187.113 152.599 188.194 153 189.424 153V151ZM187.683 150.341C187.258 149.915 187.024 149.364 187.024 148.6H185.024C185.024 149.83 185.425 150.911 186.269 151.755L187.683 150.341ZM187.024 148.6V58.84H185.024V148.6H187.024ZM187.024 58.84C187.024 58.0756 187.258 57.5246 187.683 57.0991L186.269 55.6849C185.425 56.5288 185.024 57.6097 185.024 58.84H187.024ZM187.683 57.0991C188.109 56.6736 188.66 56.44 189.424 56.44V54.44C188.194 54.44 187.113 54.841 186.269 55.6849L187.683 57.0991ZM189.424 56.44H206.016V54.44H189.424V56.44ZM206.016 56.44C206.78 56.44 207.331 56.6736 207.757 57.0991L209.171 55.6849C208.327 54.841 207.246 54.44 206.016 54.44V56.44ZM207.757 57.0991C208.182 57.5246 208.416 58.0756 208.416 58.84H210.416C210.416 57.6097 210.015 56.5288 209.171 55.6849L207.757 57.0991ZM208.416 58.84V87.944H210.416V58.84H208.416ZM210.151 88.6223C212.224 86.3758 214.828 84.5475 217.982 83.1458L217.17 81.3182C213.796 82.8179 210.96 84.7975 208.681 87.2657L210.151 88.6223ZM217.994 83.1407C221.193 81.6705 224.945 80.92 229.272 80.92V78.92C224.714 78.92 220.668 79.7108 217.159 81.3233L217.994 83.1407ZM229.272 80.92C233.692 80.92 237.538 81.6713 240.832 83.1448L241.648 81.3192C238.051 79.71 233.918 78.92 229.272 78.92V80.92ZM240.86 83.1572C244.256 84.5503 247.119 86.5906 249.462 89.2808L250.97 87.9672C248.417 85.0361 245.296 82.815 241.62 81.3068L240.86 83.1572ZM249.462 89.2808C251.818 91.9856 253.661 95.226 254.984 99.0174L256.872 98.3586C255.475 94.3527 253.51 90.8838 250.97 87.9672L249.462 89.2808ZM254.984 99.0174C256.305 102.806 257.062 107.103 257.241 111.917L259.239 111.843C259.055 106.865 258.271 102.367 256.872 98.3586L254.984 99.0174ZM257.241 111.933C257.331 113.641 257.376 115.21 257.376 116.64H259.376C259.376 115.169 259.33 113.564 259.239 111.827L257.241 111.933ZM257.376 116.64C257.376 117.979 257.331 119.548 257.241 121.35L259.239 121.45C259.33 119.625 259.376 118.021 259.376 116.64H257.376ZM257.241 121.364C257.062 126.357 256.261 130.784 254.852 134.658L256.732 135.342C258.224 131.237 259.055 126.598 259.239 121.436L257.241 121.364ZM254.848 134.671C253.525 138.462 251.682 141.702 249.326 144.407L250.834 145.721C253.374 142.804 255.339 139.335 256.736 135.329L254.848 134.671ZM249.337 144.395C246.989 147.003 244.165 149.004 240.852 150.398L241.628 152.242C245.206 150.735 248.275 148.565 250.823 145.733L249.337 144.395ZM240.873 150.39C237.567 151.695 233.707 152.36 229.272 152.36V154.36C233.904 154.36 238.022 153.665 241.607 152.25L240.873 150.39ZM221.928 136.136C225.134 136.136 227.774 135.478 229.729 134.037L228.543 132.427C227.053 133.525 224.888 134.136 221.928 134.136V136.136ZM229.729 134.037C231.63 132.636 232.971 130.737 233.757 128.38L231.859 127.748C231.194 129.743 230.087 131.289 228.543 132.427L229.729 134.037ZM233.744 128.415C234.599 126.137 235.115 123.638 235.302 120.925L233.306 120.787C233.131 123.333 232.649 125.639 231.872 127.713L233.744 128.415ZM235.302 120.92C235.486 118.067 235.486 115.213 235.302 112.36L233.306 112.488C233.485 115.256 233.485 118.024 233.306 120.792L235.302 120.92ZM235.302 112.355C235.115 109.642 234.599 107.143 233.744 104.865L231.872 105.567C232.649 107.641 233.131 109.947 233.306 112.493L235.302 112.355ZM233.757 104.9C232.971 102.543 231.63 100.644 229.729 99.2429L228.543 100.853C230.087 101.991 231.194 103.537 231.859 105.532L233.757 104.9ZM229.729 99.2429C227.774 97.8021 225.134 97.144 221.928 97.144V99.144C224.888 99.144 227.053 99.7552 228.543 100.853L229.729 99.2429ZM221.928 97.144C218.968 97.144 216.44 97.8135 214.419 99.2288L215.565 100.867C217.17 99.7438 219.267 99.144 221.928 99.144V97.144ZM214.447 99.2096C212.472 100.493 210.986 102.228 210.002 104.394L211.822 105.222C212.651 103.398 213.886 101.96 215.537 100.886L214.447 99.2096ZM210.009 104.378C209.04 106.413 208.512 108.633 208.417 111.024L210.415 111.104C210.501 108.962 210.971 107.011 211.815 105.238L210.009 104.378ZM208.417 111.011C208.326 112.751 208.28 114.446 208.28 116.096H210.28C210.28 114.482 210.325 112.823 210.415 111.117L208.417 111.011ZM208.28 116.096C208.28 117.746 208.326 119.486 208.417 121.314L210.415 121.214C210.325 119.416 210.28 117.71 210.28 116.096H208.28ZM208.417 121.301C208.511 123.851 208.984 126.229 209.845 128.428L211.707 127.7C210.936 125.728 210.502 123.573 210.415 121.227L208.417 121.301ZM209.845 128.428C210.729 130.689 212.16 132.562 214.12 134.032L215.32 132.432C213.654 131.182 212.455 129.61 211.707 127.7L209.845 128.428ZM214.147 134.051C216.178 135.473 218.802 136.136 221.928 136.136V134.136C219.07 134.136 216.889 133.53 215.293 132.413L214.147 134.051ZM285.965 149.688L285.537 150.592L285.543 150.595L285.965 149.688ZM273.997 139.216L273.135 139.723L273.141 139.733L273.147 139.743L273.997 139.216ZM269.373 122.76L268.374 122.81L268.375 122.817L269.373 122.76ZM269.373 110.52L268.374 110.464L268.374 110.467L269.373 110.52ZM274.269 94.064L273.427 93.5249L273.427 93.5249L274.269 94.064ZM286.373 83.592L285.951 82.6854L285.945 82.6883L286.373 83.592ZM324.181 83.592L323.753 84.4958L323.759 84.4986L324.181 83.592ZM336.421 94.064L337.263 93.5249L337.263 93.5249L336.421 94.064ZM341.317 110.52L342.316 110.467L342.315 110.464L341.317 110.52ZM341.317 122.76L342.315 122.817L342.316 122.81L341.317 122.76ZM336.557 139.216L335.702 138.697L335.699 138.702L336.557 139.216ZM324.589 149.688L324.167 148.781L324.161 148.784L324.589 149.688ZM314.117 133.096L313.328 132.482L313.32 132.491L313.313 132.501L314.117 133.096ZM317.381 122.08L316.383 122.013L316.382 122.025L317.381 122.08ZM317.381 111.2L316.382 111.257L316.383 111.267L317.381 111.2ZM314.117 100.32L313.303 100.901L313.315 100.918L313.328 100.934L314.117 100.32ZM296.437 100.32L297.226 100.934L297.232 100.927L297.237 100.92L296.437 100.32ZM293.309 111.2L294.307 111.267L294.308 111.252L294.308 111.238L293.309 111.2ZM293.309 122.08L294.308 122.043L294.308 122.028L294.307 122.013L293.309 122.08ZM296.437 133.096L297.226 132.482L297.226 132.482L296.437 133.096ZM305.277 152.36C297.763 152.36 291.479 151.152 286.387 148.781L285.543 150.595C290.968 153.12 297.559 154.36 305.277 154.36V152.36ZM286.393 148.784C281.386 146.412 277.549 143.047 274.847 138.689L273.147 139.743C276.066 144.452 280.208 148.068 285.537 150.592L286.393 148.784ZM274.859 138.709C272.233 134.245 270.727 128.92 270.371 122.703L268.375 122.817C268.745 129.293 270.321 134.939 273.135 139.723L274.859 138.709ZM270.372 122.71C270.282 120.917 270.237 118.894 270.237 116.64H268.237C268.237 118.919 268.282 120.976 268.374 122.81L270.372 122.71ZM270.237 116.64C270.237 114.294 270.282 112.273 270.371 110.573L268.374 110.467C268.282 112.213 268.237 114.271 268.237 116.64H270.237ZM270.371 110.576C270.726 104.277 272.319 98.9654 275.111 94.603L273.427 93.5249C270.416 98.2293 268.745 103.889 268.374 110.464L270.371 110.576ZM275.111 94.603C277.905 90.2377 281.791 86.8687 286.801 84.4957L285.945 82.6883C280.618 85.2113 276.435 88.8236 273.427 93.5249L275.111 94.603ZM286.795 84.4986C291.891 82.1262 298.041 80.92 305.277 80.92V78.92C297.825 78.92 291.372 80.1618 285.951 82.6854L286.795 84.4986ZM305.277 80.92C312.606 80.92 318.752 82.1272 323.753 84.4957L324.609 82.6883C319.273 80.1608 312.817 78.92 305.277 78.92V80.92ZM323.759 84.4986C328.859 86.8729 332.788 90.2421 335.579 94.603L337.263 93.5249C334.251 88.8192 330.02 85.2071 324.603 82.6854L323.759 84.4986ZM335.579 94.603C338.37 98.9654 339.964 104.277 340.318 110.576L342.315 110.464C341.945 103.889 340.274 98.2293 337.263 93.5249L335.579 94.603ZM340.318 110.573C340.408 112.273 340.453 114.294 340.453 116.64H342.453C342.453 114.271 342.407 112.213 342.315 110.467L340.318 110.573ZM340.453 116.64C340.453 118.894 340.408 120.917 340.318 122.71L342.316 122.81C342.407 120.976 342.453 118.919 342.453 116.64H340.453ZM340.319 122.703C339.964 128.915 338.414 134.235 335.702 138.697L337.411 139.735C340.321 134.949 341.945 129.299 342.315 122.817L340.319 122.703ZM335.699 138.702C333.092 143.047 329.263 146.409 324.167 148.781L325.011 150.595C330.432 148.071 334.582 144.452 337.414 139.73L335.699 138.702ZM324.161 148.784C319.165 151.151 312.884 152.36 305.277 152.36V154.36C313.083 154.36 319.677 153.121 325.017 150.592L324.161 148.784ZM305.277 137.768C309.557 137.768 312.858 136.475 314.92 133.691L313.313 132.501C311.749 134.613 309.157 135.768 305.277 135.768V137.768ZM314.906 133.71C316.989 131.033 318.102 127.126 318.379 122.135L316.382 122.025C316.116 126.826 315.053 130.263 313.328 132.482L314.906 133.71ZM318.379 122.147C318.471 120.755 318.517 118.916 318.517 116.64H316.517C316.517 118.897 316.472 120.685 316.383 122.013L318.379 122.147ZM318.517 116.64C318.517 114.364 318.471 112.525 318.379 111.133L316.383 111.267C316.472 112.595 316.517 114.383 316.517 116.64H318.517ZM318.379 111.143C318.102 106.239 316.986 102.38 314.906 99.7061L313.328 100.934C315.055 103.155 316.116 106.55 316.382 111.257L318.379 111.143ZM314.931 99.7388C312.874 96.8593 309.57 95.512 305.277 95.512V97.512C309.143 97.512 311.733 98.7034 313.303 100.901L314.931 99.7388ZM305.277 95.512C301.062 95.512 297.778 96.8656 295.637 99.72L297.237 100.92C298.904 98.6971 301.513 97.512 305.277 97.512V95.512ZM295.648 99.7061C293.562 102.388 292.495 106.255 292.31 111.162L294.308 111.238C294.486 106.534 295.504 103.148 297.226 100.934L295.648 99.7061ZM292.311 111.133C292.218 112.525 292.173 114.364 292.173 116.64H294.173C294.173 114.383 294.218 112.595 294.307 111.267L292.311 111.133ZM292.173 116.64C292.173 118.916 292.218 120.755 292.311 122.147L294.307 122.013C294.218 120.685 294.173 118.897 294.173 116.64H292.173ZM292.31 122.117C292.494 127.11 293.56 131.025 295.648 133.71L297.226 132.482C295.506 130.271 294.486 126.842 294.308 122.043L292.31 122.117ZM295.648 133.71C297.793 136.469 301.075 137.768 305.277 137.768V135.768C301.5 135.768 298.889 134.619 297.226 132.482L295.648 133.71ZM375.643 149.28L375.228 150.19L375.24 150.195L375.252 150.2L375.643 149.28ZM365.987 140.576L365.118 141.07L365.123 141.079L365.987 140.576ZM362.587 99.096H363.587V98.096H362.587V99.096ZM349.395 98.144L348.688 98.8511L348.712 98.8746L348.737 98.8966L349.395 98.144ZM349.395 82.232L348.737 81.4794L348.712 81.5013L348.688 81.5249L349.395 82.232ZM362.587 81.28V82.28H363.587V81.28H362.587ZM363.539 56.392L362.881 55.6394L362.855 55.6613L362.832 55.6849L363.539 56.392ZM384.211 56.392L383.504 57.0991L383.504 57.0991L384.211 56.392ZM385.163 81.28H384.163V82.28H385.163V81.28ZM404.611 82.232L403.904 82.9391L403.904 82.9391L404.611 82.232ZM385.163 99.096V98.096H384.163V99.096H385.163ZM386.931 130.648L387.77 130.103L387.77 130.103L386.931 130.648ZM405.835 134.32L406.542 133.613L406.542 133.613L405.835 134.32ZM390.739 151C385.038 151 380.145 150.109 376.035 148.36L375.252 150.2C379.664 152.078 384.835 153 390.739 153V151ZM376.058 148.37C372.073 146.551 369.012 143.79 366.852 140.073L365.123 141.079C367.495 145.159 370.872 148.201 375.228 150.19L376.058 148.37ZM366.857 140.082C364.701 136.288 363.587 131.351 363.587 125.208H361.587C361.587 131.577 362.74 136.885 365.118 141.07L366.857 140.082ZM363.587 125.208V99.096H361.587V125.208H363.587ZM362.587 98.096H351.979V100.096H362.587V98.096ZM351.979 98.096C351.215 98.096 350.59 97.8606 350.054 97.3914L348.737 98.8966C349.651 99.6967 350.749 100.096 351.979 100.096V98.096ZM350.102 97.4369C349.677 97.0114 349.443 96.4604 349.443 95.696H347.443C347.443 96.9262 347.844 98.0072 348.688 98.8511L350.102 97.4369ZM349.443 95.696V84.68H347.443V95.696H349.443ZM349.443 84.68C349.443 83.9156 349.677 83.3646 350.102 82.9391L348.688 81.5249C347.844 82.3688 347.443 83.4497 347.443 84.68H349.443ZM350.054 82.9846C350.59 82.5154 351.215 82.28 351.979 82.28V80.28C350.749 80.28 349.651 80.6793 348.737 81.4794L350.054 82.9846ZM351.979 82.28H362.587V80.28H351.979V82.28ZM363.587 81.28V58.84H361.587V81.28H363.587ZM363.587 58.84C363.587 58.0756 363.821 57.5246 364.246 57.0991L362.832 55.6849C361.988 56.5288 361.587 57.6097 361.587 58.84H363.587ZM364.198 57.1446C364.753 56.6585 365.339 56.44 365.987 56.44V54.44C364.822 54.44 363.776 54.8562 362.881 55.6394L364.198 57.1446ZM365.987 56.44H381.763V54.44H365.987V56.44ZM381.763 56.44C382.527 56.44 383.078 56.6736 383.504 57.0991L384.918 55.6849C384.074 54.841 382.993 54.44 381.763 54.44V56.44ZM383.504 57.0991C383.929 57.5246 384.163 58.0756 384.163 58.84H386.163C386.163 57.6097 385.762 56.5288 384.918 55.6849L383.504 57.0991ZM384.163 58.84V81.28H386.163V58.84H384.163ZM385.163 82.28H402.163V80.28H385.163V82.28ZM402.163 82.28C402.927 82.28 403.478 82.5136 403.904 82.9391L405.318 81.5249C404.474 80.681 403.393 80.28 402.163 80.28V82.28ZM403.904 82.9391C404.329 83.3646 404.563 83.9156 404.563 84.68H406.563C406.563 83.4497 406.162 82.3688 405.318 81.5249L403.904 82.9391ZM404.563 84.68V95.696H406.563V84.68H404.563ZM404.563 95.696C404.563 96.4604 404.329 97.0114 403.904 97.4369L405.318 98.8511C406.162 98.0072 406.563 96.9262 406.563 95.696H404.563ZM403.904 97.4369C403.478 97.8624 402.927 98.096 402.163 98.096V100.096C403.393 100.096 404.474 99.695 405.318 98.8511L403.904 97.4369ZM402.163 98.096H385.163V100.096H402.163V98.096ZM384.163 99.096V123.304H386.163V99.096H384.163ZM384.163 123.304C384.163 126.502 384.773 129.162 386.093 131.193L387.77 130.103C386.732 128.507 386.163 126.272 386.163 123.304H384.163ZM386.093 131.193C387.51 133.374 389.88 134.368 392.915 134.368V132.368C390.329 132.368 388.709 131.549 387.77 130.103L386.093 131.193ZM392.915 134.368H403.387V132.368H392.915V134.368ZM403.387 134.368C404.151 134.368 404.702 134.602 405.128 135.027L406.542 133.613C405.698 132.769 404.617 132.368 403.387 132.368V134.368ZM405.128 135.027C405.553 135.453 405.787 136.004 405.787 136.768H407.787C407.787 135.538 407.386 134.457 406.542 133.613L405.128 135.027ZM405.787 136.768V148.6H407.787V136.768H405.787ZM405.787 148.6C405.787 149.364 405.553 149.915 405.128 150.341L406.542 151.755C407.386 150.911 407.787 149.83 407.787 148.6H405.787ZM405.128 150.341C404.702 150.766 404.151 151 403.387 151V153C404.617 153 405.698 152.599 406.542 151.755L405.128 150.341ZM403.387 151H390.739V153H403.387V151ZM432.055 151.456L431.739 152.405L431.752 152.409L431.764 152.413L432.055 151.456ZM421.991 146.56L421.391 147.36L421.398 147.365L421.405 147.37L421.991 146.56ZM416.279 140.712L415.425 141.232L415.43 141.24L415.436 141.249L416.279 140.712ZM414.239 135.408L415.237 135.346L415.237 135.332L415.235 135.317L414.239 135.408ZM415.191 132.96L415.85 133.713L415.875 133.691L415.899 133.667L415.191 132.96ZM433.687 132.008L433.24 132.902L433.24 132.902L433.687 132.008ZM434.503 132.552L433.903 133.352L433.963 133.397L434.029 133.432L434.503 132.552ZM438.039 135L437.393 135.763L437.411 135.778L437.43 135.793L438.039 135ZM442.119 137.448L442.545 136.543L442.545 136.543L442.119 137.448ZM454.087 137.04L453.586 136.175L453.586 136.175L454.087 137.04ZM455.447 129.016L454.673 129.649L454.688 129.667L454.704 129.685L455.447 129.016ZM450.415 126.16L450.068 127.098L450.079 127.102L450.415 126.16ZM439.263 123.44L439.039 124.414L439.061 124.42L439.085 124.424L439.263 123.44ZM426.887 119.224L426.431 120.114L426.44 120.118L426.449 120.123L426.887 119.224ZM418.727 112.288L417.891 112.837L417.895 112.843L417.9 112.849L418.727 112.288ZM419.407 91.344L420.226 91.9189L420.226 91.9189L419.407 91.344ZM429.743 83.184L430.161 84.0925L430.169 84.0891L430.176 84.0855L429.743 83.184ZM460.071 81.824L459.755 82.7727L459.769 82.7771L459.782 82.7812L460.071 81.824ZM469.863 86.448L469.277 87.2579L469.283 87.2626L469.29 87.2672L469.863 86.448ZM475.983 92.296L475.157 92.8593L475.157 92.8593L475.983 92.296ZM478.159 97.736L477.161 97.7915L477.162 97.8135L477.164 97.8355L478.159 97.736ZM477.343 100.184L478.051 100.891L478.074 100.868L478.096 100.843L477.343 100.184ZM459.935 101L459.488 101.894L459.586 101.944L459.693 101.97L459.935 101ZM458.983 100.456L459.538 99.6239L459.486 99.5894L459.431 99.5616L458.983 100.456ZM455.719 98.28L455.079 99.0482L455.079 99.0482L455.719 98.28ZM451.911 95.832L451.464 96.7264L451.464 96.7264L451.911 95.832ZM440.759 96.376L441.384 97.1569L441.384 97.1569L440.759 96.376ZM439.807 103.856L438.999 104.444L439.015 104.467L439.033 104.489L439.807 103.856ZM444.567 106.576L444.24 107.521L444.251 107.525L444.567 106.576ZM455.855 109.296L455.663 110.277L455.68 110.281L455.698 110.284L455.855 109.296ZM470.815 114.192L470.295 115.046L470.303 115.05L470.31 115.055L470.815 114.192ZM478.703 121.944L477.814 122.402L477.82 122.413L478.703 121.944ZM477.071 142.752L476.284 142.135L476.279 142.142L476.274 142.149L477.071 142.752ZM465.647 150.64L465.984 151.582L465.991 151.579L465.999 151.576L465.647 150.64ZM447.151 152.36C441.325 152.36 436.396 151.732 432.347 150.499L431.764 152.413C436.056 153.719 441.192 154.36 447.151 154.36V152.36ZM432.372 150.507C428.359 149.17 425.103 147.579 422.578 145.75L421.405 147.37C424.139 149.349 427.592 151.022 431.739 152.405L432.372 150.507ZM422.591 145.76C420.118 143.905 418.31 142.04 417.123 140.175L415.436 141.249C416.788 143.373 418.787 145.407 421.391 147.36L422.591 145.76ZM417.134 140.192C415.898 138.163 415.313 136.559 415.237 135.346L413.241 135.47C413.347 137.158 414.122 139.091 415.425 141.232L417.134 140.192ZM415.235 135.317C415.172 134.624 415.376 134.127 415.85 133.713L414.533 132.207C413.556 133.062 413.125 134.197 413.244 135.499L415.235 135.317ZM415.899 133.667C416.487 133.078 417.017 132.872 417.503 132.872V130.872C416.358 130.872 415.346 131.391 414.484 132.253L415.899 133.667ZM417.503 132.872H433.007V130.872H417.503V132.872ZM433.007 132.872C433.175 132.872 433.237 132.901 433.24 132.902L434.135 131.114C433.775 130.934 433.384 130.872 433.007 130.872V132.872ZM433.24 132.902C433.335 132.95 433.545 133.083 433.903 133.352L435.103 131.752C434.737 131.477 434.403 131.248 434.135 131.114L433.24 132.902ZM434.029 133.432C435.138 134.03 436.26 134.804 437.393 135.763L438.685 134.237C437.462 133.201 436.226 132.344 434.978 131.672L434.029 133.432ZM437.43 135.793C438.673 136.749 440.096 137.601 441.694 138.353L442.545 136.543C441.06 135.844 439.763 135.064 438.649 134.207L437.43 135.793ZM441.694 138.353C443.4 139.156 445.412 139.536 447.695 139.536V137.536C445.627 137.536 443.922 137.191 442.545 136.543L441.694 138.353ZM447.695 139.536C450.362 139.536 452.677 139.012 454.588 137.905L453.586 136.175C452.052 137.063 450.106 137.536 447.695 137.536V139.536ZM454.588 137.905C456.621 136.729 457.671 134.903 457.671 132.552H455.671C455.671 134.191 454.999 135.356 453.586 136.175L454.588 137.905ZM457.671 132.552C457.671 130.904 457.202 129.471 456.191 128.347L454.704 129.685C455.325 130.374 455.671 131.299 455.671 132.552H457.671ZM456.221 128.383C455.22 127.159 453.312 126.133 450.752 125.218L450.079 127.102C452.596 128.001 454.043 128.879 454.673 129.649L456.221 128.383ZM450.763 125.222C448.23 124.284 444.444 123.365 439.442 122.456L439.085 124.424C444.057 125.328 447.704 126.222 450.068 127.098L450.763 125.222ZM439.488 122.466C434.831 121.391 430.78 120.008 427.325 118.325L426.449 120.123C430.067 121.885 434.266 123.313 439.039 124.414L439.488 122.466ZM427.344 118.334C423.932 116.584 421.35 114.377 419.555 111.727L417.9 112.849C419.913 115.821 422.771 118.237 426.431 120.114L427.344 118.334ZM419.563 111.739C417.784 109.028 416.871 105.736 416.871 101.816H414.871C414.871 106.056 415.863 109.745 417.891 112.837L419.563 111.739ZM416.871 101.816C416.871 98.4214 417.971 95.1281 420.226 91.9189L418.589 90.7691C416.13 94.2693 414.871 97.9573 414.871 101.816H416.871ZM420.226 91.9189C422.461 88.7373 425.754 86.1199 430.161 84.0925L429.326 82.2755C424.666 84.4187 421.068 87.2414 418.589 90.7691L420.226 91.9189ZM430.176 84.0855C434.539 81.9915 439.957 80.92 446.471 80.92V78.92C439.748 78.92 434.015 80.0245 429.311 82.2825L430.176 84.0855ZM446.471 80.92C451.654 80.92 456.075 81.546 459.755 82.7727L460.388 80.8753C456.452 79.5633 451.806 78.92 446.471 78.92V80.92ZM459.782 82.7812C463.6 83.9355 466.757 85.4334 469.277 87.2579L470.45 85.6381C467.711 83.6546 464.34 82.0698 460.361 80.8668L459.782 82.7812ZM469.29 87.2672C471.946 89.1261 473.886 90.9943 475.157 92.8593L476.81 91.7327C475.361 89.6083 473.221 87.5779 470.437 85.6288L469.29 87.2672ZM475.157 92.8593C476.46 94.7706 477.084 96.4081 477.161 97.7915L479.158 97.6805C479.053 95.7999 478.227 93.8107 476.81 91.7327L475.157 92.8593ZM477.164 97.8355C477.226 98.4495 477.055 98.9949 476.591 99.5255L478.096 100.843C478.901 99.9224 479.274 98.8358 479.154 97.6365L477.164 97.8355ZM476.636 99.4769C476.169 99.9446 475.69 100.136 475.167 100.136V102.136C476.276 102.136 477.249 101.693 478.051 100.891L476.636 99.4769ZM475.167 100.136H461.023V102.136H475.167V100.136ZM461.023 100.136C460.745 100.136 460.464 100.101 460.178 100.03L459.693 101.97C460.132 102.08 460.577 102.136 461.023 102.136V100.136ZM460.383 100.106C460.049 99.9386 459.769 99.7776 459.538 99.6239L458.429 101.288C458.742 101.497 459.097 101.699 459.488 101.894L460.383 100.106ZM459.431 99.5616C458.422 99.0571 457.398 98.3769 456.36 97.5118L455.079 99.0482C456.217 99.9964 457.369 100.767 458.536 101.35L459.431 99.5616ZM456.36 97.5118C455.205 96.5492 453.869 95.6925 452.359 94.9376L451.464 96.7264C452.856 97.4221 454.058 98.1974 455.079 99.0482L456.36 97.5118ZM452.359 94.9376C450.73 94.1233 448.752 93.744 446.471 93.744V95.744C448.543 95.744 450.192 96.0901 451.464 96.7264L452.359 94.9376ZM446.471 93.744C443.887 93.744 441.732 94.3176 440.135 95.5951L441.384 97.1569C442.507 96.2584 444.16 95.744 446.471 95.744V93.744ZM440.135 95.5951C438.541 96.8705 437.719 98.5617 437.719 100.592H439.719C439.719 99.177 440.258 98.0575 441.384 97.1569L440.135 95.5951ZM437.719 100.592C437.719 101.992 438.155 103.284 438.999 104.444L440.616 103.268C440.009 102.433 439.719 101.549 439.719 100.592H437.719ZM439.033 104.489C440.033 105.711 441.844 106.692 444.24 107.521L444.895 105.631C442.576 104.828 441.214 103.996 440.581 103.223L439.033 104.489ZM444.251 107.525C446.762 108.362 450.576 109.278 455.663 110.277L456.048 108.315C450.98 107.319 447.269 106.422 444.884 105.627L444.251 107.525ZM455.698 110.284C461.879 111.269 466.727 112.87 470.295 115.046L471.336 113.338C467.469 110.98 462.344 109.318 456.013 108.308L455.698 110.284ZM470.31 115.055C473.909 117.162 476.381 119.62 477.814 122.402L479.592 121.486C477.943 118.284 475.156 115.574 471.321 113.329L470.31 115.055ZM477.82 122.413C479.285 125.171 480.015 128.093 480.015 131.192H482.015C482.015 127.763 481.204 124.52 479.587 121.475L477.82 122.413ZM480.015 131.192C480.015 135.325 478.773 138.96 476.284 142.135L477.858 143.369C480.629 139.834 482.015 135.763 482.015 131.192H480.015ZM476.274 142.149C473.878 145.314 470.247 147.847 465.296 149.704L465.999 151.576C471.203 149.625 475.187 146.899 477.869 143.355L476.274 142.149ZM465.311 149.698C460.372 151.462 454.327 152.36 447.151 152.36V154.36C454.482 154.36 460.768 153.444 465.984 151.582L465.311 149.698Z" fill="black" mask="url(#path-1-outside-1_20_9)"/>
</g>
<g filter="url(#filter1_d_20_9)">
<path d="M138.088 11.9692L96.0323 67.307L75.2706 37.8932H32.15L75.2706 94.2281L5 187.953H34.2794C44.1054 188.288 48.7029 186.981 53.4441 178.98L96.0323 122.146L117.859 152.557H160.979L117.859 94.2281L186 1.49994L155.656 1.00139C147.188 0.918202 143.783 4.56157 138.088 11.9692Z" fill="black"/>
<path d="M138.088 11.9692L96.0323 67.307L75.2706 37.8932H32.15L75.2706 94.2281L5 187.953H34.2794C44.1054 188.288 48.7029 186.981 53.4441 178.98L96.0323 122.146L117.859 152.557H160.979L117.859 94.2281L186 1.49994L155.656 1.00139C147.188 0.918202 143.783 4.56157 138.088 11.9692Z" stroke="black"/>
</g>
<defs>
<filter id="filter0_d_20_9" x="182.024" y="55.4399" width="302.991" height="105.92" filterUnits="userSpaceOnUse" color-interpolation-filters="sRGB">
<feFlood flood-opacity="0" result="BackgroundImageFix"/>
<feColorMatrix in="SourceAlpha" type="matrix" values="0 0 0 0 0 0 0 0 0 0 0 0 0 0 0 0 0 0 127 0" result="hardAlpha"/>
<feOffset dy="4"/>
<feGaussianBlur stdDeviation="2"/>
<feComposite in2="hardAlpha" operator="out"/>
<feColorMatrix type="matrix" values="0 0 0 0 0 0 0 0 0 0 0 0 0 0 0 0 0 0 0.25 0"/>
<feBlend mode="normal" in2="BackgroundImageFix" result="effect1_dropShadow_20_9"/>
<feBlend mode="normal" in="SourceGraphic" in2="effect1_dropShadow_20_9" result="shape"/>
</filter>
<filter id="filter1_d_20_9" x="0.000244141" y="0.5" width="190.976" height="196" filterUnits="userSpaceOnUse" color-interpolation-filters="sRGB">
<feFlood flood-opacity="0" result="BackgroundImageFix"/>
<feColorMatrix in="SourceAlpha" type="matrix" values="0 0 0 0 0 0 0 0 0 0 0 0 0 0 0 0 0 0 127 0" result="hardAlpha"/>
<feOffset dy="4"/>
<feGaussianBlur stdDeviation="2"/>
<feComposite in2="hardAlpha" operator="out"/>
<feColorMatrix type="matrix" values="0 0 0 0 0 0 0 0 0 0 0 0 0 0 0 0 0 0 0.25 0"/>
<feBlend mode="normal" in2="BackgroundImageFix" result="effect1_dropShadow_20_9"/>
<feBlend mode="normal" in="SourceGraphic" in2="effect1_dropShadow_20_9" result="shape"/>
</filter>
</defs>
</svg>
