<svg width="283" height="281" viewBox="0 0 283 281" fill="none" xmlns="http://www.w3.org/2000/svg">
<g filter="url(#filter0_d_19_20)">
<g filter="url(#filter1_d_19_20)">
<mask id="path-1-outside-1_19_20" maskUnits="userSpaceOnUse" x="6" y="181" width="272" height="93" fill="black">
<rect fill="white" x="6" y="181" width="272" height="93"/>
<path d="M46.748 272.24C42.1187 272.24 38.2333 271.455 35.092 269.884C32.0333 268.313 29.512 266.329 27.528 263.932V267.9C27.528 268.809 27.1973 269.553 26.536 270.132C25.9573 270.711 25.2547 271 24.428 271H10.416C9.50667 271 8.76267 270.711 8.184 270.132C7.60533 269.553 7.316 268.809 7.316 267.9V186.06C7.316 185.151 7.60533 184.407 8.184 183.828C8.76267 183.249 9.50667 182.96 10.416 182.96H25.544C26.4533 182.96 27.1973 183.249 27.776 183.828C28.3547 184.407 28.644 185.151 28.644 186.06V212.596C30.628 210.447 33.108 208.711 36.084 207.388C39.1427 205.983 42.6973 205.28 46.748 205.28C50.8813 205.28 54.5187 205.983 57.66 207.388C60.884 208.711 63.612 210.653 65.844 213.216C68.076 215.779 69.812 218.837 71.052 222.392C72.292 225.947 72.9947 229.956 73.16 234.42C73.2427 235.991 73.284 237.437 73.284 238.76C73.284 240 73.2427 241.447 73.16 243.1C72.9947 247.729 72.2507 251.863 70.928 255.5C69.688 259.055 67.952 262.113 65.72 264.676C63.488 267.156 60.8013 269.057 57.66 270.38C54.5187 271.62 50.8813 272.24 46.748 272.24ZM40.052 255.624C42.8627 255.624 45.0533 255.045 46.624 253.888C48.1947 252.731 49.3107 251.16 49.972 249.176C50.716 247.192 51.1707 245.001 51.336 242.604C51.5013 240.041 51.5013 237.479 51.336 234.916C51.1707 232.519 50.716 230.328 49.972 228.344C49.3107 226.36 48.1947 224.789 46.624 223.632C45.0533 222.475 42.8627 221.896 40.052 221.896C37.4893 221.896 35.3813 222.475 33.728 223.632C32.0747 224.707 30.8347 226.153 30.008 227.972C29.1813 229.708 28.7267 231.609 28.644 233.676C28.5613 235.247 28.52 236.776 28.52 238.264C28.52 239.752 28.5613 241.323 28.644 242.976C28.7267 245.208 29.14 247.275 29.884 249.176C30.628 251.077 31.8267 252.648 33.48 253.888C35.1333 255.045 37.324 255.624 40.052 255.624ZM116.047 272.24C109.103 272.24 103.233 271.124 98.4386 268.892C93.7266 266.66 90.0892 263.477 87.5266 259.344C85.0466 255.128 83.6412 250.127 83.3106 244.34C83.2279 242.687 83.1866 240.827 83.1866 238.76C83.1866 236.611 83.2279 234.751 83.3106 233.18C83.6412 227.311 85.1292 222.309 87.7746 218.176C90.4199 214.043 94.0986 210.86 98.8106 208.628C103.605 206.396 109.351 205.28 116.047 205.28C122.825 205.28 128.571 206.396 133.283 208.628C138.077 210.86 141.797 214.043 144.443 218.176C147.088 222.309 148.576 227.311 148.907 233.18C148.989 234.751 149.031 236.611 149.031 238.76C149.031 240.827 148.989 242.687 148.907 244.34C148.576 250.127 147.129 255.128 144.567 259.344C142.087 263.477 138.449 266.66 133.655 268.892C128.943 271.124 123.073 272.24 116.047 272.24ZM116.047 257.112C119.767 257.112 122.453 255.996 124.107 253.764C125.843 251.532 126.835 248.184 127.083 243.72C127.165 242.48 127.207 240.827 127.207 238.76C127.207 236.693 127.165 235.04 127.083 233.8C126.835 229.419 125.843 226.112 124.107 223.88C122.453 221.565 119.767 220.408 116.047 220.408C112.409 220.408 109.723 221.565 107.987 223.88C106.251 226.112 105.3 229.419 105.135 233.8C105.052 235.04 105.011 236.693 105.011 238.76C105.011 240.827 105.052 242.48 105.135 243.72C105.3 248.184 106.251 251.532 107.987 253.764C109.723 255.996 112.409 257.112 116.047 257.112ZM193.968 271C188.677 271 184.089 270.173 180.204 268.52C176.401 266.784 173.467 264.139 171.4 260.584C169.333 256.947 168.3 252.276 168.3 246.572V222.764H158.628C157.719 222.764 156.933 222.475 156.272 221.896C155.693 221.317 155.404 220.573 155.404 219.664V209.62C155.404 208.711 155.693 207.967 156.272 207.388C156.933 206.809 157.719 206.52 158.628 206.52H168.3V186.06C168.3 185.151 168.589 184.407 169.168 183.828C169.829 183.249 170.573 182.96 171.4 182.96H185.784C186.693 182.96 187.437 183.249 188.016 183.828C188.595 184.407 188.884 185.151 188.884 186.06V206.52H204.384C205.293 206.52 206.037 206.809 206.616 207.388C207.195 207.967 207.484 208.711 207.484 209.62V219.664C207.484 220.573 207.195 221.317 206.616 221.896C206.037 222.475 205.293 222.764 204.384 222.764H188.884V244.836C188.884 247.647 189.421 249.879 190.496 251.532C191.571 253.185 193.389 254.012 195.952 254.012H205.5C206.409 254.012 207.153 254.301 207.732 254.88C208.311 255.459 208.6 256.203 208.6 257.112V267.9C208.6 268.809 208.311 269.553 207.732 270.132C207.153 270.711 206.409 271 205.5 271H193.968ZM245.403 272.24C240.029 272.24 235.441 271.661 231.639 270.504C227.919 269.264 224.86 267.776 222.463 266.04C220.148 264.304 218.412 262.527 217.255 260.708C216.097 258.807 215.477 257.195 215.395 255.872C215.312 254.963 215.601 254.219 216.263 253.64C216.924 252.979 217.627 252.648 218.371 252.648H232.507C232.755 252.648 232.961 252.689 233.127 252.772C233.292 252.855 233.54 253.02 233.871 253.268C234.945 253.847 236.02 254.591 237.095 255.5C238.169 256.327 239.409 257.071 240.815 257.732C242.22 258.393 243.915 258.724 245.899 258.724C248.213 258.724 250.156 258.269 251.727 257.36C253.297 256.451 254.083 255.087 254.083 253.268C254.083 251.945 253.711 250.871 252.967 250.044C252.223 249.135 250.693 248.267 248.379 247.44C246.147 246.613 242.757 245.787 238.211 244.96C233.912 243.968 230.151 242.687 226.927 241.116C223.703 239.463 221.223 237.355 219.487 234.792C217.751 232.147 216.883 228.964 216.883 225.244C216.883 221.937 217.957 218.755 220.107 215.696C222.256 212.637 225.397 210.157 229.531 208.256C233.664 206.272 238.748 205.28 244.783 205.28C249.577 205.28 253.711 205.859 257.183 207.016C260.737 208.091 263.713 209.496 266.111 211.232C268.591 212.968 270.451 214.745 271.691 216.564C272.931 218.383 273.592 220.036 273.675 221.524C273.757 222.351 273.509 223.095 272.931 223.756C272.352 224.335 271.691 224.624 270.947 224.624H258.051C257.72 224.624 257.389 224.583 257.059 224.5C256.728 224.335 256.439 224.169 256.191 224.004C255.199 223.508 254.207 222.847 253.215 222.02C252.223 221.193 251.065 220.449 249.743 219.788C248.42 219.127 246.767 218.796 244.783 218.796C242.551 218.796 240.815 219.292 239.575 220.284C238.335 221.276 237.715 222.557 237.715 224.128C237.715 225.203 238.045 226.195 238.707 227.104C239.451 228.013 240.897 228.84 243.047 229.584C245.279 230.328 248.709 231.155 253.339 232.064C259.043 232.973 263.589 234.461 266.979 236.528C270.368 238.512 272.765 240.868 274.171 243.596C275.576 246.241 276.279 249.052 276.279 252.028C276.279 255.996 275.08 259.509 272.683 262.568C270.368 265.627 266.896 268.024 262.267 269.76C257.637 271.413 252.016 272.24 245.403 272.24Z"/>
</mask>
<path d="M46.748 272.24C42.1187 272.24 38.2333 271.455 35.092 269.884C32.0333 268.313 29.512 266.329 27.528 263.932V267.9C27.528 268.809 27.1973 269.553 26.536 270.132C25.9573 270.711 25.2547 271 24.428 271H10.416C9.50667 271 8.76267 270.711 8.184 270.132C7.60533 269.553 7.316 268.809 7.316 267.9V186.06C7.316 185.151 7.60533 184.407 8.184 183.828C8.76267 183.249 9.50667 182.96 10.416 182.96H25.544C26.4533 182.96 27.1973 183.249 27.776 183.828C28.3547 184.407 28.644 185.151 28.644 186.06V212.596C30.628 210.447 33.108 208.711 36.084 207.388C39.1427 205.983 42.6973 205.28 46.748 205.28C50.8813 205.28 54.5187 205.983 57.66 207.388C60.884 208.711 63.612 210.653 65.844 213.216C68.076 215.779 69.812 218.837 71.052 222.392C72.292 225.947 72.9947 229.956 73.16 234.42C73.2427 235.991 73.284 237.437 73.284 238.76C73.284 240 73.2427 241.447 73.16 243.1C72.9947 247.729 72.2507 251.863 70.928 255.5C69.688 259.055 67.952 262.113 65.72 264.676C63.488 267.156 60.8013 269.057 57.66 270.38C54.5187 271.62 50.8813 272.24 46.748 272.24ZM40.052 255.624C42.8627 255.624 45.0533 255.045 46.624 253.888C48.1947 252.731 49.3107 251.16 49.972 249.176C50.716 247.192 51.1707 245.001 51.336 242.604C51.5013 240.041 51.5013 237.479 51.336 234.916C51.1707 232.519 50.716 230.328 49.972 228.344C49.3107 226.36 48.1947 224.789 46.624 223.632C45.0533 222.475 42.8627 221.896 40.052 221.896C37.4893 221.896 35.3813 222.475 33.728 223.632C32.0747 224.707 30.8347 226.153 30.008 227.972C29.1813 229.708 28.7267 231.609 28.644 233.676C28.5613 235.247 28.52 236.776 28.52 238.264C28.52 239.752 28.5613 241.323 28.644 242.976C28.7267 245.208 29.14 247.275 29.884 249.176C30.628 251.077 31.8267 252.648 33.48 253.888C35.1333 255.045 37.324 255.624 40.052 255.624ZM116.047 272.24C109.103 272.24 103.233 271.124 98.4386 268.892C93.7266 266.66 90.0892 263.477 87.5266 259.344C85.0466 255.128 83.6412 250.127 83.3106 244.34C83.2279 242.687 83.1866 240.827 83.1866 238.76C83.1866 236.611 83.2279 234.751 83.3106 233.18C83.6412 227.311 85.1292 222.309 87.7746 218.176C90.4199 214.043 94.0986 210.86 98.8106 208.628C103.605 206.396 109.351 205.28 116.047 205.28C122.825 205.28 128.571 206.396 133.283 208.628C138.077 210.86 141.797 214.043 144.443 218.176C147.088 222.309 148.576 227.311 148.907 233.18C148.989 234.751 149.031 236.611 149.031 238.76C149.031 240.827 148.989 242.687 148.907 244.34C148.576 250.127 147.129 255.128 144.567 259.344C142.087 263.477 138.449 266.66 133.655 268.892C128.943 271.124 123.073 272.24 116.047 272.24ZM116.047 257.112C119.767 257.112 122.453 255.996 124.107 253.764C125.843 251.532 126.835 248.184 127.083 243.72C127.165 242.48 127.207 240.827 127.207 238.76C127.207 236.693 127.165 235.04 127.083 233.8C126.835 229.419 125.843 226.112 124.107 223.88C122.453 221.565 119.767 220.408 116.047 220.408C112.409 220.408 109.723 221.565 107.987 223.88C106.251 226.112 105.3 229.419 105.135 233.8C105.052 235.04 105.011 236.693 105.011 238.76C105.011 240.827 105.052 242.48 105.135 243.72C105.3 248.184 106.251 251.532 107.987 253.764C109.723 255.996 112.409 257.112 116.047 257.112ZM193.968 271C188.677 271 184.089 270.173 180.204 268.52C176.401 266.784 173.467 264.139 171.4 260.584C169.333 256.947 168.3 252.276 168.3 246.572V222.764H158.628C157.719 222.764 156.933 222.475 156.272 221.896C155.693 221.317 155.404 220.573 155.404 219.664V209.62C155.404 208.711 155.693 207.967 156.272 207.388C156.933 206.809 157.719 206.52 158.628 206.52H168.3V186.06C168.3 185.151 168.589 184.407 169.168 183.828C169.829 183.249 170.573 182.96 171.4 182.96H185.784C186.693 182.96 187.437 183.249 188.016 183.828C188.595 184.407 188.884 185.151 188.884 186.06V206.52H204.384C205.293 206.52 206.037 206.809 206.616 207.388C207.195 207.967 207.484 208.711 207.484 209.62V219.664C207.484 220.573 207.195 221.317 206.616 221.896C206.037 222.475 205.293 222.764 204.384 222.764H188.884V244.836C188.884 247.647 189.421 249.879 190.496 251.532C191.571 253.185 193.389 254.012 195.952 254.012H205.5C206.409 254.012 207.153 254.301 207.732 254.88C208.311 255.459 208.6 256.203 208.6 257.112V267.9C208.6 268.809 208.311 269.553 207.732 270.132C207.153 270.711 206.409 271 205.5 271H193.968ZM245.403 272.24C240.029 272.24 235.441 271.661 231.639 270.504C227.919 269.264 224.86 267.776 222.463 266.04C220.148 264.304 218.412 262.527 217.255 260.708C216.097 258.807 215.477 257.195 215.395 255.872C215.312 254.963 215.601 254.219 216.263 253.64C216.924 252.979 217.627 252.648 218.371 252.648H232.507C232.755 252.648 232.961 252.689 233.127 252.772C233.292 252.855 233.54 253.02 233.871 253.268C234.945 253.847 236.02 254.591 237.095 255.5C238.169 256.327 239.409 257.071 240.815 257.732C242.22 258.393 243.915 258.724 245.899 258.724C248.213 258.724 250.156 258.269 251.727 257.36C253.297 256.451 254.083 255.087 254.083 253.268C254.083 251.945 253.711 250.871 252.967 250.044C252.223 249.135 250.693 248.267 248.379 247.44C246.147 246.613 242.757 245.787 238.211 244.96C233.912 243.968 230.151 242.687 226.927 241.116C223.703 239.463 221.223 237.355 219.487 234.792C217.751 232.147 216.883 228.964 216.883 225.244C216.883 221.937 217.957 218.755 220.107 215.696C222.256 212.637 225.397 210.157 229.531 208.256C233.664 206.272 238.748 205.28 244.783 205.28C249.577 205.28 253.711 205.859 257.183 207.016C260.737 208.091 263.713 209.496 266.111 211.232C268.591 212.968 270.451 214.745 271.691 216.564C272.931 218.383 273.592 220.036 273.675 221.524C273.757 222.351 273.509 223.095 272.931 223.756C272.352 224.335 271.691 224.624 270.947 224.624H258.051C257.72 224.624 257.389 224.583 257.059 224.5C256.728 224.335 256.439 224.169 256.191 224.004C255.199 223.508 254.207 222.847 253.215 222.02C252.223 221.193 251.065 220.449 249.743 219.788C248.42 219.127 246.767 218.796 244.783 218.796C242.551 218.796 240.815 219.292 239.575 220.284C238.335 221.276 237.715 222.557 237.715 224.128C237.715 225.203 238.045 226.195 238.707 227.104C239.451 228.013 240.897 228.84 243.047 229.584C245.279 230.328 248.709 231.155 253.339 232.064C259.043 232.973 263.589 234.461 266.979 236.528C270.368 238.512 272.765 240.868 274.171 243.596C275.576 246.241 276.279 249.052 276.279 252.028C276.279 255.996 275.08 259.509 272.683 262.568C270.368 265.627 266.896 268.024 262.267 269.76C257.637 271.413 252.016 272.24 245.403 272.24Z" fill="black" shape-rendering="crispEdges"/>
<path d="M35.092 269.884L34.6352 270.774L34.6448 270.778L35.092 269.884ZM27.528 263.932L28.2984 263.294L26.528 261.155V263.932H27.528ZM26.536 270.132L25.8775 269.379L25.8524 269.401L25.8289 269.425L26.536 270.132ZM8.184 270.132L7.47689 270.839L7.47689 270.839L8.184 270.132ZM8.184 183.828L8.89111 184.535L8.89111 184.535L8.184 183.828ZM27.776 183.828L27.0689 184.535L27.0689 184.535L27.776 183.828ZM28.644 212.596H27.644V215.154L29.3788 213.274L28.644 212.596ZM36.084 207.388L36.4902 208.302L36.5015 208.297L36.084 207.388ZM57.66 207.388L57.2516 208.301L57.2659 208.307L57.2804 208.313L57.66 207.388ZM73.16 234.42L72.1607 234.457L72.161 234.465L72.1614 234.473L73.16 234.42ZM73.16 243.1L72.1613 243.05L72.1609 243.057L72.1606 243.064L73.16 243.1ZM70.928 255.5L69.9881 255.158L69.9838 255.171L70.928 255.5ZM65.72 264.676L66.4633 265.345L66.4687 265.339L66.4741 265.333L65.72 264.676ZM57.66 270.38L58.0272 271.31L58.0377 271.306L58.0481 271.302L57.66 270.38ZM46.624 253.888L46.0308 253.083L46.0308 253.083L46.624 253.888ZM49.972 249.176L49.0357 248.825L49.0292 248.842L49.0233 248.86L49.972 249.176ZM51.336 242.604L52.3336 242.673L52.3339 242.668L51.336 242.604ZM51.336 234.916L52.3339 234.852L52.3336 234.847L51.336 234.916ZM49.972 228.344L49.0233 228.66L49.0292 228.678L49.0357 228.695L49.972 228.344ZM33.728 223.632L34.273 224.47L34.2874 224.461L34.3015 224.451L33.728 223.632ZM30.008 227.972L30.9109 228.402L30.9147 228.394L30.9184 228.386L30.008 227.972ZM28.644 233.676L29.6427 233.729L29.6432 233.716L28.644 233.676ZM28.644 242.976L29.6434 242.939L29.6428 242.926L28.644 242.976ZM29.884 249.176L30.8152 248.812L30.8152 248.812L29.884 249.176ZM33.48 253.888L32.88 254.688L32.8931 254.698L32.9065 254.707L33.48 253.888ZM46.748 271.24C42.2265 271.24 38.5047 270.472 35.5392 268.99L34.6448 270.778C37.9619 272.437 42.0108 273.24 46.748 273.24V271.24ZM35.5488 268.994C32.598 267.479 30.1874 265.577 28.2984 263.294L26.7576 264.57C28.8366 267.082 31.4687 269.148 34.6352 270.774L35.5488 268.994ZM26.528 263.932V267.9H28.528V263.932H26.528ZM26.528 267.9C26.528 268.532 26.3133 268.998 25.8775 269.379L27.1945 270.885C28.0813 270.109 28.528 269.086 28.528 267.9H26.528ZM25.8289 269.425C25.4399 269.814 24.9925 270 24.428 270V272C25.5169 272 26.4748 271.607 27.2431 270.839L25.8289 269.425ZM24.428 270H10.416V272H24.428V270ZM10.416 270C9.73959 270 9.26057 269.794 8.89111 269.425L7.47689 270.839C8.26476 271.627 9.27375 272 10.416 272V270ZM8.89111 269.425C8.52164 269.055 8.316 268.576 8.316 267.9H6.316C6.316 269.042 6.68902 270.051 7.47689 270.839L8.89111 269.425ZM8.316 267.9V186.06H6.316V267.9H8.316ZM8.316 186.06C8.316 185.384 8.52164 184.905 8.89111 184.535L7.47689 183.121C6.68902 183.909 6.316 184.918 6.316 186.06H8.316ZM8.89111 184.535C9.26057 184.166 9.73959 183.96 10.416 183.96V181.96C9.27375 181.96 8.26476 182.333 7.47689 183.121L8.89111 184.535ZM10.416 183.96H25.544V181.96H10.416V183.96ZM25.544 183.96C26.2204 183.96 26.6994 184.166 27.0689 184.535L28.4831 183.121C27.6952 182.333 26.6863 181.96 25.544 181.96V183.96ZM27.0689 184.535C27.4384 184.905 27.644 185.384 27.644 186.06H29.644C29.644 184.918 29.271 183.909 28.4831 183.121L27.0689 184.535ZM27.644 186.06V212.596H29.644V186.06H27.644ZM29.3788 213.274C31.2605 211.236 33.6244 209.575 36.4901 208.302L35.6779 206.474C32.5916 207.846 29.9955 209.658 27.9092 211.918L29.3788 213.274ZM36.5015 208.297C39.4053 206.962 42.8126 206.28 46.748 206.28V204.28C42.582 204.28 38.88 205.003 35.6665 206.479L36.5015 208.297ZM46.748 206.28C50.7684 206.28 54.2619 206.963 57.2516 208.301L58.0684 206.475C54.7754 205.002 50.9943 204.28 46.748 204.28V206.28ZM57.2804 208.313C60.3642 209.578 62.9628 211.431 65.0899 213.873L66.5981 212.559C64.2612 209.876 61.4038 207.843 58.0396 206.463L57.2804 208.313ZM65.0899 213.873C67.2297 216.33 68.9052 219.274 70.1078 222.721L71.9962 222.063C70.7188 218.401 68.9223 215.228 66.5981 212.559L65.0899 213.873ZM70.1078 222.721C71.3095 226.166 71.9984 230.075 72.1607 234.457L74.1593 234.383C73.991 229.837 73.2745 225.727 71.9962 222.063L70.1078 222.721ZM72.1614 234.473C72.2433 236.029 72.284 237.458 72.284 238.76H74.284C74.284 237.417 74.242 235.952 74.1586 234.367L72.1614 234.473ZM72.284 238.76C72.284 239.979 72.2433 241.408 72.1613 243.05L74.1588 243.15C74.242 241.485 74.284 240.021 74.284 238.76H72.284ZM72.1606 243.064C71.9983 247.609 71.2689 251.636 69.9882 255.158L71.8678 255.842C73.2324 252.089 73.991 247.85 74.1594 243.136L72.1606 243.064ZM69.9838 255.171C68.7812 258.618 67.1057 261.562 64.9659 264.019L66.4741 265.333C68.7983 262.664 70.5948 259.491 71.8722 255.829L69.9838 255.171ZM64.9767 264.007C62.8453 266.375 60.2807 268.192 57.2719 269.458L58.0481 271.302C61.3219 269.923 64.1307 267.937 66.4633 265.345L64.9767 264.007ZM57.2928 269.45C54.2914 270.635 50.7829 271.24 46.748 271.24V273.24C50.9797 273.24 54.746 272.605 58.0272 271.31L57.2928 269.45ZM40.052 256.624C42.9855 256.624 45.4138 256.022 47.2172 254.693L46.0308 253.083C44.6929 254.069 42.7398 254.624 40.052 254.624V256.624ZM47.2172 254.693C48.9661 253.404 50.1991 251.657 50.9207 249.492L49.0233 248.86C48.4223 250.663 47.4232 252.057 46.0308 253.083L47.2172 254.693ZM50.9083 249.527C51.6905 247.441 52.1625 245.154 52.3336 242.673L50.3384 242.535C50.1788 244.849 49.7415 246.943 49.0357 248.825L50.9083 249.527ZM52.3339 242.668C52.502 240.063 52.502 237.457 52.3339 234.852L50.3381 234.98C50.5006 237.5 50.5006 240.02 50.3381 242.54L52.3339 242.668ZM52.3336 234.847C52.1625 232.366 51.6905 230.079 50.9083 227.993L49.0357 228.695C49.7415 230.577 50.1788 232.671 50.3384 234.985L52.3336 234.847ZM50.9207 228.028C50.1991 225.863 48.9661 224.116 47.2172 222.827L46.0308 224.437C47.4232 225.463 48.4223 226.857 49.0233 228.66L50.9207 228.028ZM47.2172 222.827C45.4138 221.498 42.9855 220.896 40.052 220.896V222.896C42.7398 222.896 44.6929 223.451 46.0308 224.437L47.2172 222.827ZM40.052 220.896C37.3396 220.896 35.0163 221.51 33.1545 222.813L34.3015 224.451C35.7464 223.44 37.6391 222.896 40.052 222.896V220.896ZM33.183 222.794C31.3677 223.973 30.0021 225.568 29.0976 227.558L30.9184 228.386C31.6673 226.738 32.7816 225.44 34.273 224.47L33.183 222.794ZM29.1051 227.542C28.216 229.409 27.7325 231.445 27.6448 233.636L29.6432 233.716C29.7209 231.774 30.1466 230.007 30.9109 228.402L29.1051 227.542ZM27.6454 233.623C27.5618 235.211 27.52 236.758 27.52 238.264H29.52C29.52 236.794 29.5608 235.283 29.6426 233.729L27.6454 233.623ZM27.52 238.264C27.52 239.77 27.5618 241.358 27.6452 243.026L29.6428 242.926C29.5608 241.288 29.52 239.734 29.52 238.264H27.52ZM27.6447 243.013C27.7311 245.347 28.1642 247.525 28.9528 249.54L30.8152 248.812C30.1158 247.024 29.7222 245.069 29.6433 242.939L27.6447 243.013ZM28.9528 249.54C29.7654 251.617 31.0798 253.338 32.88 254.688L34.08 253.088C32.5735 251.958 31.4906 250.538 30.8152 248.812L28.9528 249.54ZM32.9065 254.707C34.7779 256.017 37.1896 256.624 40.052 256.624V254.624C37.4584 254.624 35.4888 254.074 34.0535 253.069L32.9065 254.707ZM98.4386 268.892L98.0105 269.796L98.0165 269.799L98.4386 268.892ZM87.5266 259.344L86.6646 259.851L86.6705 259.861L86.6767 259.871L87.5266 259.344ZM83.3106 244.34L82.3118 244.39L82.3122 244.397L83.3106 244.34ZM83.3106 233.18L82.3121 233.124L82.3119 233.127L83.3106 233.18ZM87.7746 218.176L86.9323 217.637L86.9323 217.637L87.7746 218.176ZM98.8106 208.628L98.3885 207.721L98.3825 207.724L98.8106 208.628ZM133.283 208.628L132.854 209.532L132.861 209.535L133.283 208.628ZM144.443 218.176L145.285 217.637L145.285 217.637L144.443 218.176ZM148.907 233.18L149.905 233.127L149.905 233.124L148.907 233.18ZM148.907 244.34L149.905 244.397L149.905 244.39L148.907 244.34ZM144.567 259.344L143.712 258.825L143.709 258.83L144.567 259.344ZM133.655 268.892L133.233 267.985L133.226 267.988L133.655 268.892ZM124.107 253.764L123.317 253.15L123.31 253.159L123.303 253.169L124.107 253.764ZM127.083 243.72L126.085 243.653L126.084 243.665L127.083 243.72ZM127.083 233.8L126.084 233.857L126.085 233.867L127.083 233.8ZM124.107 223.88L123.293 224.461L123.305 224.478L123.317 224.494L124.107 223.88ZM107.987 223.88L108.776 224.494L108.781 224.487L108.787 224.48L107.987 223.88ZM105.135 233.8L106.132 233.867L106.133 233.852L106.134 233.838L105.135 233.8ZM105.135 243.72L106.134 243.683L106.133 243.668L106.132 243.653L105.135 243.72ZM107.987 253.764L108.776 253.15L108.776 253.15L107.987 253.764ZM116.047 271.24C109.205 271.24 103.489 270.14 98.8606 267.985L98.0165 269.799C102.978 272.108 109 273.24 116.047 273.24V271.24ZM98.8666 267.988C94.3155 265.832 90.8303 262.775 88.3765 258.817L86.6767 259.871C89.3481 264.18 93.1377 267.488 98.0105 269.796L98.8666 267.988ZM88.3885 258.837C86.0027 254.781 84.6322 249.94 84.3089 244.283L82.3122 244.397C82.6503 250.313 84.0904 255.475 86.6646 259.851L88.3885 258.837ZM84.3093 244.29C84.2277 242.657 84.1866 240.814 84.1866 238.76H82.1866C82.1866 240.839 82.2281 242.716 82.3118 244.39L84.3093 244.29ZM84.1866 238.76C84.1866 236.622 84.2277 234.781 84.3092 233.233L82.3119 233.127C82.2281 234.721 82.1866 236.599 82.1866 238.76H84.1866ZM84.309 233.236C84.6319 227.505 86.081 222.677 88.6168 218.715L86.9323 217.637C84.1775 221.941 82.6506 227.117 82.3121 233.124L84.309 233.236ZM88.6168 218.715C91.1546 214.75 94.6851 211.689 99.2387 209.532L98.3825 207.724C93.512 210.031 89.6852 213.336 86.9323 217.637L88.6168 218.715ZM99.2326 209.535C103.865 207.378 109.459 206.28 116.047 206.28V204.28C109.242 204.28 103.346 205.414 98.3885 207.721L99.2326 209.535ZM116.047 206.28C122.72 206.28 128.31 207.379 132.854 209.532L133.711 207.724C128.831 205.413 122.931 204.28 116.047 204.28V206.28ZM132.861 209.535C137.497 211.693 141.065 214.754 143.6 218.715L145.285 217.637C142.529 213.331 138.657 210.027 133.705 207.721L132.861 209.535ZM143.6 218.715C146.136 222.677 147.585 227.505 147.908 233.236L149.905 233.124C149.567 227.117 148.04 221.941 145.285 217.637L143.6 218.715ZM147.908 233.233C147.989 234.781 148.031 236.622 148.031 238.76H150.031C150.031 236.599 149.989 234.721 149.905 233.127L147.908 233.233ZM148.031 238.76C148.031 240.814 147.989 242.657 147.908 244.29L149.905 244.39C149.989 242.716 150.031 240.839 150.031 238.76H148.031ZM147.908 244.283C147.585 249.935 146.176 254.771 143.712 258.825L145.421 259.863C148.083 255.485 149.567 250.319 149.905 244.397L147.908 244.283ZM143.709 258.83C141.342 262.775 137.865 265.829 133.233 267.985L134.077 269.799C139.034 267.491 142.831 264.18 145.424 259.858L143.709 258.83ZM133.226 267.988C128.686 270.139 122.974 271.24 116.047 271.24V273.24C123.172 273.24 129.199 272.109 134.083 269.796L133.226 267.988ZM116.047 258.112C119.967 258.112 123.008 256.927 124.91 254.359L123.303 253.169C121.898 255.065 119.566 256.112 116.047 256.112V258.112ZM124.896 254.378C126.81 251.917 127.828 248.334 128.081 243.775L126.084 243.665C125.841 248.034 124.875 251.147 123.317 253.15L124.896 254.378ZM128.08 243.787C128.165 242.515 128.207 240.836 128.207 238.76H126.207C126.207 240.817 126.165 242.445 126.085 243.653L128.08 243.787ZM128.207 238.76C128.207 236.684 128.165 235.005 128.08 233.733L126.085 233.867C126.165 235.075 126.207 236.703 126.207 238.76H128.207ZM128.081 233.743C127.827 229.263 126.808 225.724 124.896 223.266L123.317 224.494C124.877 226.499 125.842 229.574 126.084 233.857L128.081 233.743ZM124.92 223.299C123.024 220.643 119.98 219.408 116.047 219.408V221.408C119.553 221.408 121.883 222.487 123.293 224.461L124.92 223.299ZM116.047 219.408C112.184 219.408 109.159 220.65 107.187 223.28L108.787 224.48C110.286 222.481 112.634 221.408 116.047 221.408V219.408ZM107.197 223.266C105.279 225.732 104.304 229.279 104.135 233.762L106.134 233.838C106.295 229.558 107.222 226.492 108.776 224.494L107.197 223.266ZM104.137 233.733C104.052 235.005 104.011 236.684 104.011 238.76H106.011C106.011 236.703 106.052 235.075 106.132 233.867L104.137 233.733ZM104.011 238.76C104.011 240.836 104.052 242.515 104.137 243.787L106.132 243.653C106.052 242.445 106.011 240.817 106.011 238.76H104.011ZM104.135 243.757C104.304 248.318 105.277 251.909 107.197 254.378L108.776 253.15C107.224 251.155 106.296 248.05 106.134 243.683L104.135 243.757ZM107.197 254.378C109.175 256.921 112.197 258.112 116.047 258.112V256.112C112.621 256.112 110.27 255.071 108.776 253.15L107.197 254.378ZM180.204 268.52L179.789 269.43L179.8 269.435L179.812 269.44L180.204 268.52ZM171.4 260.584L170.53 261.078L170.535 261.087L171.4 260.584ZM168.3 222.764H169.3V221.764H168.3V222.764ZM156.272 221.896L155.565 222.603L155.588 222.627L155.613 222.649L156.272 221.896ZM156.272 207.388L155.613 206.635L155.588 206.657L155.565 206.681L156.272 207.388ZM168.3 206.52V207.52H169.3V206.52H168.3ZM169.168 183.828L168.509 183.075L168.484 183.097L168.461 183.121L169.168 183.828ZM188.016 183.828L187.309 184.535L187.309 184.535L188.016 183.828ZM188.884 206.52H187.884V207.52H188.884V206.52ZM206.616 207.388L205.909 208.095L205.909 208.095L206.616 207.388ZM188.884 222.764V221.764H187.884V222.764H188.884ZM190.496 251.532L191.334 250.987L191.334 250.987L190.496 251.532ZM207.732 254.88L208.439 254.173L208.439 254.173L207.732 254.88ZM193.968 270C188.779 270 184.33 269.189 180.596 267.6L179.812 269.44C183.849 271.158 188.576 272 193.968 272V270ZM180.619 267.61C177.001 265.959 174.225 263.454 172.264 260.081L170.535 261.087C172.708 264.823 175.801 267.609 179.789 269.43L180.619 267.61ZM172.269 260.09C170.314 256.648 169.3 252.163 169.3 246.572H167.3C167.3 252.389 168.353 257.245 170.531 261.078L172.269 260.09ZM169.3 246.572V222.764H167.3V246.572H169.3ZM168.3 221.764H158.628V223.764H168.3V221.764ZM158.628 221.764C157.952 221.764 157.403 221.557 156.93 221.143L155.613 222.649C156.464 223.393 157.486 223.764 158.628 223.764V221.764ZM156.979 221.189C156.61 220.819 156.404 220.34 156.404 219.664H154.404C154.404 220.806 154.777 221.815 155.565 222.603L156.979 221.189ZM156.404 219.664V209.62H154.404V219.664H156.404ZM156.404 209.62C156.404 208.944 156.61 208.465 156.979 208.095L155.565 206.681C154.777 207.469 154.404 208.478 154.404 209.62H156.404ZM156.93 208.141C157.403 207.727 157.952 207.52 158.628 207.52V205.52C157.486 205.52 156.464 205.891 155.613 206.635L156.93 208.141ZM158.628 207.52H168.3V205.52H158.628V207.52ZM169.3 206.52V186.06H167.3V206.52H169.3ZM169.3 186.06C169.3 185.384 169.506 184.905 169.875 184.535L168.461 183.121C167.673 183.909 167.3 184.918 167.3 186.06H169.3ZM169.826 184.581C170.318 184.15 170.832 183.96 171.4 183.96V181.96C170.315 181.96 169.341 182.348 168.509 183.075L169.826 184.581ZM171.4 183.96H185.784V181.96H171.4V183.96ZM185.784 183.96C186.46 183.96 186.939 184.166 187.309 184.535L188.723 183.121C187.935 182.333 186.926 181.96 185.784 181.96V183.96ZM187.309 184.535C187.678 184.905 187.884 185.384 187.884 186.06H189.884C189.884 184.918 189.511 183.909 188.723 183.121L187.309 184.535ZM187.884 186.06V206.52H189.884V186.06H187.884ZM188.884 207.52H204.384V205.52H188.884V207.52ZM204.384 207.52C205.06 207.52 205.539 207.726 205.909 208.095L207.323 206.681C206.535 205.893 205.526 205.52 204.384 205.52V207.52ZM205.909 208.095C206.278 208.465 206.484 208.944 206.484 209.62H208.484C208.484 208.478 208.111 207.469 207.323 206.681L205.909 208.095ZM206.484 209.62V219.664H208.484V209.62H206.484ZM206.484 219.664C206.484 220.34 206.278 220.819 205.909 221.189L207.323 222.603C208.111 221.815 208.484 220.806 208.484 219.664H206.484ZM205.909 221.189C205.539 221.558 205.06 221.764 204.384 221.764V223.764C205.526 223.764 206.535 223.391 207.323 222.603L205.909 221.189ZM204.384 221.764H188.884V223.764H204.384V221.764ZM187.884 222.764V244.836H189.884V222.764H187.884ZM187.884 244.836C187.884 247.762 188.442 250.206 189.658 252.077L191.334 250.987C190.401 249.551 189.884 247.532 189.884 244.836H187.884ZM189.658 252.077C190.971 254.098 193.165 255.012 195.952 255.012V253.012C193.614 253.012 192.17 252.273 191.334 250.987L189.658 252.077ZM195.952 255.012H205.5V253.012H195.952V255.012ZM205.5 255.012C206.176 255.012 206.655 255.218 207.025 255.587L208.439 254.173C207.651 253.385 206.642 253.012 205.5 253.012V255.012ZM207.025 255.587C207.394 255.957 207.6 256.436 207.6 257.112H209.6C209.6 255.97 209.227 254.961 208.439 254.173L207.025 255.587ZM207.6 257.112V267.9H209.6V257.112H207.6ZM207.6 267.9C207.6 268.576 207.394 269.055 207.025 269.425L208.439 270.839C209.227 270.051 209.6 269.042 209.6 267.9H207.6ZM207.025 269.425C206.655 269.794 206.176 270 205.5 270V272C206.642 272 207.651 271.627 208.439 270.839L207.025 269.425ZM205.5 270H193.968V272H205.5V270ZM231.639 270.504L231.323 271.453L231.335 271.457L231.348 271.461L231.639 270.504ZM222.463 266.04L221.863 266.84L221.869 266.845L221.876 266.85L222.463 266.04ZM217.255 260.708L216.401 261.228L216.406 261.236L216.411 261.245L217.255 260.708ZM215.395 255.872L216.393 255.81L216.392 255.796L216.391 255.781L215.395 255.872ZM216.263 253.64L216.921 254.393L216.946 254.371L216.97 254.347L216.263 253.64ZM233.127 252.772L232.68 253.666L232.68 253.666L233.127 252.772ZM233.871 253.268L233.271 254.068L233.331 254.113L233.397 254.148L233.871 253.268ZM237.095 255.5L236.449 256.263L236.467 256.278L236.485 256.293L237.095 255.5ZM240.815 257.732L241.241 256.827L241.241 256.827L240.815 257.732ZM251.727 257.36L251.226 256.495L251.226 256.495L251.727 257.36ZM252.967 250.044L252.193 250.677L252.208 250.695L252.223 250.713L252.967 250.044ZM248.379 247.44L248.031 248.378L248.042 248.382L248.379 247.44ZM238.211 244.96L237.986 245.934L238.009 245.94L238.032 245.944L238.211 244.96ZM226.927 241.116L226.47 242.006L226.48 242.01L226.489 242.015L226.927 241.116ZM219.487 234.792L218.651 235.341L218.655 235.347L218.659 235.353L219.487 234.792ZM220.107 215.696L220.925 216.271L220.925 216.271L220.107 215.696ZM229.531 208.256L229.949 209.164L229.956 209.161L229.964 209.158L229.531 208.256ZM257.183 207.016L256.867 207.965L256.88 207.969L256.893 207.973L257.183 207.016ZM266.111 211.232L265.524 212.042L265.531 212.047L265.537 212.051L266.111 211.232ZM271.691 216.564L270.865 217.127L270.865 217.127L271.691 216.564ZM273.675 221.524L272.676 221.579L272.678 221.602L272.68 221.624L273.675 221.524ZM272.931 223.756L273.638 224.463L273.661 224.44L273.683 224.415L272.931 223.756ZM257.059 224.5L256.612 225.394L256.71 225.444L256.816 225.47L257.059 224.5ZM256.191 224.004L256.745 223.172L256.694 223.137L256.638 223.11L256.191 224.004ZM253.215 222.02L252.575 222.788L252.575 222.788L253.215 222.02ZM249.743 219.788L249.296 220.682L249.296 220.682L249.743 219.788ZM239.575 220.284L240.199 221.065L240.199 221.065L239.575 220.284ZM238.707 227.104L237.898 227.692L237.915 227.715L237.933 227.737L238.707 227.104ZM243.047 229.584L242.72 230.529L242.731 230.533L243.047 229.584ZM253.339 232.064L253.146 233.045L253.164 233.049L253.181 233.052L253.339 232.064ZM266.979 236.528L266.458 237.382L266.466 237.386L266.474 237.391L266.979 236.528ZM274.171 243.596L273.282 244.054L273.288 244.065L274.171 243.596ZM272.683 262.568L271.896 261.951L271.89 261.958L271.885 261.965L272.683 262.568ZM262.267 269.76L262.603 270.702L262.611 270.699L262.618 270.696L262.267 269.76ZM245.403 271.24C240.096 271.24 235.612 270.668 231.93 269.547L231.348 271.461C235.271 272.655 239.963 273.24 245.403 273.24V271.24ZM231.955 269.555C228.302 268.338 225.342 266.891 223.049 265.23L221.876 266.85C224.378 268.661 227.535 270.19 231.323 271.453L231.955 269.555ZM223.063 265.24C220.814 263.553 219.173 261.86 218.098 260.171L216.411 261.245C217.651 263.193 219.483 265.055 221.863 266.84L223.063 265.24ZM218.109 260.188C216.986 258.343 216.461 256.895 216.393 255.81L214.397 255.934C214.494 257.494 215.209 259.271 216.401 261.228L218.109 260.188ZM216.391 255.781C216.336 255.176 216.512 254.751 216.921 254.393L215.604 252.887C214.691 253.686 214.289 254.749 214.399 255.963L216.391 255.781ZM216.97 254.347C217.495 253.822 217.956 253.648 218.371 253.648V251.648C217.297 251.648 216.354 252.135 215.556 252.933L216.97 254.347ZM218.371 253.648H232.507V251.648H218.371V253.648ZM232.507 253.648C232.65 253.648 232.692 253.673 232.68 253.666L233.574 251.878C233.231 251.706 232.859 251.648 232.507 251.648V253.648ZM232.68 253.666C232.758 253.706 232.944 253.823 233.271 254.068L234.471 252.468C234.136 252.217 233.826 252.004 233.574 251.878L232.68 253.666ZM233.397 254.148C234.402 254.69 235.419 255.392 236.449 256.263L237.741 254.737C236.621 253.789 235.489 253.004 234.345 252.388L233.397 254.148ZM236.485 256.293C237.624 257.169 238.928 257.949 240.389 258.637L241.241 256.827C239.891 256.192 238.715 255.484 237.704 254.707L236.485 256.293ZM240.389 258.637C241.959 259.376 243.807 259.724 245.899 259.724V257.724C244.023 257.724 242.481 257.411 241.241 256.827L240.389 258.637ZM245.899 259.724C248.342 259.724 250.468 259.244 252.228 258.225L251.226 256.495C249.844 257.295 248.085 257.724 245.899 257.724V259.724ZM252.228 258.225C254.108 257.137 255.083 255.443 255.083 253.268H253.083C253.083 254.731 252.487 255.764 251.226 256.495L252.228 258.225ZM255.083 253.268C255.083 251.748 254.65 250.419 253.71 249.375L252.223 250.713C252.772 251.322 253.083 252.143 253.083 253.268H255.083ZM253.741 249.411C252.811 248.275 251.051 247.333 248.715 246.498L248.042 248.382C250.336 249.201 251.634 249.995 252.193 250.677L253.741 249.411ZM248.726 246.502C246.41 245.644 242.951 244.805 238.39 243.976L238.032 245.944C242.564 246.768 245.884 247.582 248.031 248.378L248.726 246.502ZM238.436 243.986C234.194 243.007 230.507 241.748 227.365 240.217L226.489 242.015C229.794 243.625 233.63 244.929 237.986 245.934L238.436 243.986ZM227.383 240.226C224.283 238.636 221.942 236.633 220.315 234.231L218.659 235.353C220.504 238.077 223.123 240.289 226.47 242.006L227.383 240.226ZM220.323 234.243C218.711 231.788 217.883 228.804 217.883 225.244H215.883C215.883 229.124 216.79 232.505 218.651 235.341L220.323 234.243ZM217.883 225.244C217.883 222.169 218.878 219.184 220.925 216.271L219.289 215.121C217.037 218.325 215.883 221.705 215.883 225.244H217.883ZM220.925 216.271C222.953 213.385 225.941 211.008 229.949 209.164L229.113 207.348C224.854 209.307 221.559 211.889 219.289 215.121L220.925 216.271ZM229.964 209.158C233.926 207.255 238.853 206.28 244.783 206.28V204.28C238.644 204.28 233.402 205.289 229.098 207.354L229.964 209.158ZM244.783 206.28C249.501 206.28 253.523 206.85 256.867 207.965L257.499 206.067C253.899 204.867 249.654 204.28 244.783 204.28V206.28ZM256.893 207.973C260.367 209.024 263.237 210.385 265.524 212.042L266.697 210.422C264.19 208.607 261.107 207.158 257.472 206.059L256.893 207.973ZM265.537 212.051C267.953 213.742 269.713 215.438 270.865 217.127L272.517 216.001C271.189 214.052 269.229 212.194 266.684 210.413L265.537 212.051ZM270.865 217.127C272.048 218.863 272.607 220.34 272.676 221.579L274.673 221.469C274.577 219.732 273.814 217.903 272.517 216.001L270.865 217.127ZM272.68 221.624C272.733 222.157 272.586 222.631 272.178 223.097L273.683 224.415C274.432 223.558 274.782 222.544 274.67 221.424L272.68 221.624ZM272.224 223.049C271.812 223.461 271.398 223.624 270.947 223.624V225.624C271.984 225.624 272.892 225.209 273.638 224.463L272.224 223.049ZM270.947 223.624H258.051V225.624H270.947V223.624ZM258.051 223.624C257.804 223.624 257.555 223.593 257.301 223.53L256.816 225.47C257.224 225.572 257.636 225.624 258.051 225.624V223.624ZM257.506 223.606C257.204 223.455 256.952 223.31 256.745 223.172L255.636 224.836C255.926 225.029 256.252 225.215 256.612 225.394L257.506 223.606ZM256.638 223.11C255.725 222.653 254.797 222.037 253.855 221.252L252.575 222.788C253.616 223.656 254.672 224.363 255.744 224.898L256.638 223.11ZM253.855 221.252C252.796 220.369 251.572 219.585 250.19 218.894L249.296 220.682C250.559 221.314 251.65 222.017 252.575 222.788L253.855 221.252ZM250.19 218.894C248.689 218.143 246.871 217.796 244.783 217.796V219.796C246.662 219.796 248.151 220.11 249.296 220.682L250.19 218.894ZM244.783 217.796C242.414 217.796 240.427 218.322 238.95 219.503L240.199 221.065C241.203 220.262 242.687 219.796 244.783 219.796V217.796ZM238.95 219.503C237.476 220.682 236.715 222.25 236.715 224.128H238.715C238.715 222.865 239.194 221.87 240.199 221.065L238.95 219.503ZM236.715 224.128C236.715 225.424 237.119 226.62 237.898 227.692L239.516 226.516C238.972 225.769 238.715 224.981 238.715 224.128H236.715ZM237.933 227.737C238.86 228.871 240.532 229.772 242.72 230.529L243.374 228.639C241.263 227.908 240.041 227.156 239.481 226.471L237.933 227.737ZM242.731 230.533C245.026 231.298 248.508 232.134 253.146 233.045L253.532 231.083C248.911 230.175 245.532 229.358 243.363 228.635L242.731 230.533ZM253.181 233.052C258.81 233.949 263.219 235.406 266.458 237.382L267.499 235.674C263.96 233.516 259.275 231.998 253.496 231.076L253.181 233.052ZM266.474 237.391C269.744 239.306 271.985 241.536 273.282 244.054L275.06 243.138C273.546 240.2 270.992 237.718 267.484 235.665L266.474 237.391ZM273.288 244.065C274.617 246.567 275.279 249.217 275.279 252.028H277.279C277.279 248.887 276.535 245.916 275.054 243.127L273.288 244.065ZM275.279 252.028C275.279 255.777 274.152 259.072 271.896 261.951L273.47 263.185C276.008 259.946 277.279 256.215 277.279 252.028H275.279ZM271.885 261.965C269.714 264.834 266.418 267.135 261.916 268.824L262.618 270.696C267.374 268.913 271.023 266.419 273.48 263.171L271.885 261.965ZM261.93 268.818C257.439 270.422 251.939 271.24 245.403 271.24V273.24C252.094 273.24 257.836 272.404 262.603 270.702L261.93 268.818Z" fill="#404040" fill-opacity="0.6" mask="url(#path-1-outside-1_19_20)"/>
</g>
<g filter="url(#filter2_d_19_20)">
<path d="M173.735 9.62231L141.903 53.1203L126.188 29.9998H93.55L126.188 74.2815L73 147.954H95.1618C102.599 148.217 105.662 147.537 109.745 141.185L141.903 96.2264L158.424 120.131H191.062L158.424 74.2815L210 1.39297L187.032 1.00109C180.623 0.935703 178.046 3.79956 173.735 9.62231Z" fill="black" shape-rendering="crispEdges"/>
<path d="M173.735 9.62231L141.903 53.1203L126.188 29.9998H93.55L126.188 74.2815L73 147.954H95.1618C102.599 148.217 105.662 147.537 109.745 141.185L141.903 96.2264L158.424 120.131H191.062L158.424 74.2815L210 1.39297L187.032 1.00109C180.623 0.935703 178.046 3.79956 173.735 9.62231Z" stroke="#404040" stroke-opacity="0.6" shape-rendering="crispEdges"/>
</g>
</g>
<defs>
<filter id="filter0_d_19_20" x="3.31592" y="0.5" width="276.963" height="279.74" filterUnits="userSpaceOnUse" color-interpolation-filters="sRGB">
<feFlood flood-opacity="0" result="BackgroundImageFix"/>
<feColorMatrix in="SourceAlpha" type="matrix" values="0 0 0 0 0 0 0 0 0 0 0 0 0 0 0 0 0 0 127 0" result="hardAlpha"/>
<feOffset dy="4"/>
<feGaussianBlur stdDeviation="2"/>
<feComposite in2="hardAlpha" operator="out"/>
<feColorMatrix type="matrix" values="0 0 0 0 0 0 0 0 0 0 0 0 0 0 0 0 0 0 0.25 0"/>
<feBlend mode="normal" in2="BackgroundImageFix" result="effect1_dropShadow_19_20"/>
<feBlend mode="normal" in="SourceGraphic" in2="effect1_dropShadow_19_20" result="shape"/>
</filter>
<filter id="filter1_d_19_20" x="3.31592" y="182.96" width="276.963" height="97.28" filterUnits="userSpaceOnUse" color-interpolation-filters="sRGB">
<feFlood flood-opacity="0" result="BackgroundImageFix"/>
<feColorMatrix in="SourceAlpha" type="matrix" values="0 0 0 0 0 0 0 0 0 0 0 0 0 0 0 0 0 0 127 0" result="hardAlpha"/>
<feOffset dy="4"/>
<feGaussianBlur stdDeviation="2"/>
<feComposite in2="hardAlpha" operator="out"/>
<feColorMatrix type="matrix" values="0 0 0 0 0 0 0 0 0 0 0 0 0 0 0 0 0 0 0.25 0"/>
<feBlend mode="normal" in2="BackgroundImageFix" result="effect1_dropShadow_19_20"/>
<feBlend mode="normal" in="SourceGraphic" in2="effect1_dropShadow_19_20" result="shape"/>
</filter>
<filter id="filter2_d_19_20" x="68.0222" y="0.5" width="146.933" height="156" filterUnits="userSpaceOnUse" color-interpolation-filters="sRGB">
<feFlood flood-opacity="0" result="BackgroundImageFix"/>
<feColorMatrix in="SourceAlpha" type="matrix" values="0 0 0 0 0 0 0 0 0 0 0 0 0 0 0 0 0 0 127 0" result="hardAlpha"/>
<feOffset dy="4"/>
<feGaussianBlur stdDeviation="2"/>
<feComposite in2="hardAlpha" operator="out"/>
<feColorMatrix type="matrix" values="0 0 0 0 0 0 0 0 0 0 0 0 0 0 0 0 0 0 0.25 0"/>
<feBlend mode="normal" in2="BackgroundImageFix" result="effect1_dropShadow_19_20"/>
<feBlend mode="normal" in="SourceGraphic" in2="effect1_dropShadow_19_20" result="shape"/>
</filter>
</defs>
</svg>
