<!-- XBot.svg -->

<svg xmlns="http://www.w3.org/2000/svg" viewBox="0 0 200 200">
  <!-- Letter X -->
  <path id="letterX" d="M30,30 L70,70 M70,30 L30,70" />
  
  <!-- Letter B -->
  <path id="letterB" d="M90,30 L90,70 Q90,90 110,90 Q130,90 130,70 Q130,50 110,50 L100,50 Q120,50 120,70 Q120,90 100,90 Q80,90 80,70 L80,50" />
  
  <!-- Letter O -->
  <path id="letterO" d="M150,30 Q150,50 170,50 Q190,50 190,30 Q190,10 170,10 Q150,10 150,30 M150,70 Q150,90 170,90 Q190,90 190,70 Q190,50 170,50 Q150,50 150,70" />
  
  <!-- Letter T -->
  <path id="letterT" d="M30,130 L130,130 M80,130 L80,170" />
</svg>
